<svg xmlns="http://www.w3.org/2000/svg" viewBox="45 35 120 120">
    <defs>
        <clipPath id="3k2d6w6fxb">
            <path data-name="Rectangle 47" transform="translate(0 -.001)" style="fill:none" d="M0 0h95v95H0z"/>
        </clipPath>
        <filter id="1n8sznp5ua" x="0" y="0" width="210" height="210" filterUnits="userSpaceOnUse">
            <feOffset dy="10"/>
            <feGaussianBlur stdDeviation="15" result="blur"/>
            <feFlood flood-opacity=".302"/>
            <feComposite operator="in" in2="blur"/>
            <feComposite in="SourceGraphic"/>
        </filter>
    </defs>
    <g data-name="App Icon-Light">
        <g style="filter:url(#1n8sznp5ua)">
            <path data-name="Path 15409" d="M24 0h72a24 24 0 0 1 24 24v72a24 24 0 0 1-24 24H24A24 24 0 0 1 0 96V24A24 24 0 0 1 24 0z" transform="translate(45 35)" style="fill:#c5624e"/>
        </g>
        <g data-name="Group 4844">
            <path data-name="Rectangle 46" style="fill:#c5624e" d="M0 0h95v95H0z" transform="translate(58 47)"/>
            <g data-name="Group 1010">
                <g data-name="Group 1009" transform="translate(58 47)" style="clip-path:url(#3k2d6w6fxb)">
                    <path data-name="Path 1086" d="M290.514 770.648h-3.679a2.127 2.127 0 0 0-.935.122 2.215 2.215 0 0 0-.487.816l-.668 1.5a4.347 4.347 0 0 0-.451 1.527.889.889 0 0 0 .239.692 2.2 2.2 0 0 0 .94.367c.2.041.308.119.315.239s-.088.167-.284.167c-.074 0-.188 0-.344-.01l-.973-.057a21.96 21.96 0 0 0-1.126-.024c-.2 0-.348 0-.456.014-.344.038-.534.057-.568.057-.181 0-.274-.062-.274-.189a.214.214 0 0 1 .174-.217l.375-.112a1.427 1.427 0 0 0 .549-.494 4.627 4.627 0 0 0 .57-.9l.293-.673 5.225-11.6c.088-.2.186-.306.293-.306s.2.1.274.3l4.371 11.194.224.549a4.915 4.915 0 0 0 .792 1.531 2.623 2.623 0 0 0 1.281.472c.207.041.31.124.3.248s-.1.17-.284.17c-.062 0-.188-.007-.387-.022q-.526-.05-1.88-.05a14.6 14.6 0 0 0-1.768.062 2.005 2.005 0 0 1-.315.041q-.265 0-.265-.208c0-.107.086-.177.255-.21l.315-.071a.613.613 0 0 0 .508-.692 7.8 7.8 0 0 0-.62-2.147l-.508-1.346a1.785 1.785 0 0 0-.336-.646 1.573 1.573 0 0 0-.689-.086m.122-1.637-1.6-4.025-.081-.212q-.122-.325-.265-.336c-.045 0-.1.057-.162.193l-1.98 4.4a1.225 1.225 0 0 0-.134.375c0 .176.157.265.468.265l.274.01h3.068c.341 0 .511-.083.511-.253a.845.845 0 0 0-.052-.234z" transform="translate(-272.297 -692.836)" style="fill:#fff"/>
                    <path data-name="Path 1087" d="M290.8 764.314a2.621 2.621 0 0 0-.343-1.508 1.528 1.528 0 0 0-1.15-.558c-.222-.019-.334-.088-.334-.21s.086-.2.262-.2l.8.041c.081.007.317.012.711.012q1.027 0 1.6-.053l.945-.091c.406-.033.854-.05 1.341-.05q4.165 0 6.25 2.092a6.638 6.638 0 0 1 1.9 4.888 7.535 7.535 0 0 1-.833 3.526 6.4 6.4 0 0 1-2.317 2.531 7.57 7.57 0 0 1-4.084 1.167c-.177 0-.489-.017-.935-.05q-1.363-.09-2.369-.091a13.615 13.615 0 0 0-1.889.112 6.726 6.726 0 0 1-.58.06c-.236.014-.355-.062-.355-.229 0-.112.1-.188.284-.229a1.229 1.229 0 0 0 .895-.508 3.558 3.558 0 0 0 .2-1.5zm1.556-.809v10.461a.853.853 0 0 0 .62.852 8.076 8.076 0 0 0 1.374.355 8.292 8.292 0 0 0 1.417.153 5.755 5.755 0 0 0 3.125-.873q2.355-1.46 2.355-4.972a8.324 8.324 0 0 0-.735-3.509 6.155 6.155 0 0 0-2.025-2.517 6.4 6.4 0 0 0-3.827-1.126 3.813 3.813 0 0 0-2.04.344 1.017 1.017 0 0 0-.265.833" transform="translate(-262.31 -692.648)" style="fill:#fff"/>
                    <path data-name="Path 1088" d="m299.672 772.961.01.355c0 .816.079 1.3.234 1.446a2.909 2.909 0 0 0 1.527.224 10.826 10.826 0 0 0 3.3-.453 2.9 2.9 0 0 0 1.784-1.193c.1-.184.191-.274.284-.274.11 0 .16.067.153.2a2.746 2.746 0 0 1-.661 1.467 3.406 3.406 0 0 1-2.837 1.1c-.217 0-.47-.012-.754-.031l-1.1-.081q-.966-.072-2.044-.071a15.1 15.1 0 0 0-2.1.122 6.478 6.478 0 0 1-.568.062c-.169 0-.255-.055-.255-.179 0-.107.093-.186.277-.239a1.569 1.569 0 0 0 .947-.625 2.951 2.951 0 0 0 .238-1.391l.012-.467v-9.1q0-1.353-1.1-1.577l-.456-.091q-.243-.05-.243-.2c0-.15.115-.227.344-.227.155 0 .367.014.639.041.46.041.976.06 1.551.06q.934 0 1.694-.05.386-.022.437-.022.243 0 .243.15c0 .146-.1.241-.3.289l-.355.081q-.913.222-.914 1.822z" transform="translate(-252.112 -692.582)" style="fill:#fff"/>
                    <path data-name="Path 1089" d="M305.335 763.462v4.1a1.072 1.072 0 0 0 .086.565c.057.064.234.1.525.1h1.565a9.178 9.178 0 0 0 1.687-.122 1.362 1.362 0 0 0 .711-.293 2.092 2.092 0 0 0 .293-.854c.036-.169.122-.251.26-.243s.2.1.2.272c0 .048 0 .121-.012.224q-.09.984-.091 1.794c0 .413.021.821.062 1.226.014.136.019.234.019.293 0 .169-.064.253-.2.253a.241.241 0 0 1-.26-.222l-.062-.284a1.333 1.333 0 0 0-.487-.926 2.325 2.325 0 0 0-1.236-.243h-2.242a1.464 1.464 0 0 0-.663.1.442.442 0 0 0-.167.408l.01.336v3.745c0 .577.1.938.31 1.078a3.407 3.407 0 0 0 1.567.215q3.986 0 5.124-1.8c.076-.115.153-.177.229-.184.124 0 .186.081.186.265a2.678 2.678 0 0 1-.742 1.57 2.792 2.792 0 0 1-2.254 1.093c-.2 0-.46-.014-.792-.04q-1.943-.183-3.211-.184a17.137 17.137 0 0 0-2.51.124 3.766 3.766 0 0 1-.53.069c-.217 0-.325-.071-.325-.217 0-.112.088-.193.265-.238l.386-.112q.73-.2.73-1.427l.01-.661v-8.6a4.024 4.024 0 0 0-.32-1.956 1.362 1.362 0 0 0-1.245-.506c-.2 0-.293-.062-.293-.188q0-.279.458-.279a6.156 6.156 0 0 1 .68.05 31.652 31.652 0 0 0 3.5.164c.828 0 1.558-.014 2.195-.04l1.443-.072c.4-.015.644-.029.732-.041a2.769 2.769 0 0 1 .406-.041q.337 0 .336.293a1.076 1.076 0 0 1-.031.231c-.022.1-.048.365-.081.811l-.041.6a4.06 4.06 0 0 1-.1.735.23.23 0 0 1-.227.157c-.131 0-.2-.1-.2-.305v-.265a1.594 1.594 0 0 0-.122-.618 1.065 1.065 0 0 0-.78-.611 10.039 10.039 0 0 0-2.161-.153h-1.595a1.37 1.37 0 0 0-.811.157.944.944 0 0 0-.184.7" transform="translate(-244.364 -692.631)" style="fill:#fff"/>
                    <path data-name="Path 1090" d="m315.055 768.762 2.806 4.137.324.487q1.3 1.9 2.4 1.975l.324.022c.122 0 .179.055.172.143 0 .1-.157.2-.451.282a3.8 3.8 0 0 1-1 .124 2.828 2.828 0 0 1-1.641-.5 6 6 0 0 1-1.477-1.641l-2.531-3.862-.143-.222a.846.846 0 0 0-.792-.418h-1.35l-.224.041c-.081.048-.122.158-.122.327v3.18l.01.408a5.459 5.459 0 0 0 .086 1.2 1.1 1.1 0 0 0 .413.577 2.6 2.6 0 0 0 1.35.439c.243.026.37.1.377.227s-.1.2-.336.2c-.093 0-.293-.014-.6-.045a13.63 13.63 0 0 0-1.291-.045l-.976-.01-.527.01c-.231 0-.508.017-.835.05a5.636 5.636 0 0 1-.549.041c-.167 0-.253-.069-.253-.208 0-.1.086-.165.253-.2a1.33 1.33 0 0 0 1.069-.737 6.8 6.8 0 0 0 .253-2.3v-7.31l-.022-1.057q0-1.589-1.107-1.772l-.477-.069c-.217-.04-.324-.119-.324-.239 0-.141.115-.21.346-.21.052 0 .291.014.711.041.243.021.544.031.9.031.313 0 .842-.024 1.6-.072q.812-.05 1.431-.05a5.886 5.886 0 0 1 3.526.88 3.047 3.047 0 0 1 1.19 2.619 3.87 3.87 0 0 1-2.512 3.538m-2.984-.22h1.15a2.9 2.9 0 0 0 2.1-.735 2.659 2.659 0 0 0 .763-2.009 3.147 3.147 0 0 0-1.04-2.431 3.764 3.764 0 0 0-2.648-.952 1.3 1.3 0 0 0-.828.2.909.909 0 0 0-.229.718l.01.336v4.139a.941.941 0 0 0 .126.608.927.927 0 0 0 .6.126" transform="translate(-236.132 -692.613)" style="fill:#fff"/>
                    <path data-name="Path 1091" d="M282.994 767.525s3.886 5.785 15.819 4.449 18.871-4.005 19.286-2.965-2.08 2.817-.833 3.559 4.44 1.78 5.967 1.482 4.581-3.113 4.3-5.041-2.357-1.236-2.357-2.374 10.132-8.288 16.094-12.012c10.535-6.582 11.52-16.022 11.52-16.022s-5.857 9.063-9.438 10.977c-3.886 2.078-14.984 8.6-17.346 11.272a19.61 19.61 0 0 1-3.328 2.968 11.441 11.441 0 0 0-1.944-.3c-.692 0-1.109 1.484-1.109 1.484s-8.464.592-10.96 1.336-8.467 3.113-13.462 3.113-12.21-1.928-12.21-1.928" transform="translate(-270.591 -724.654)" style="fill:#fff"/>
                </g>
            </g>
        </g>
    </g>
</svg>