<svg xmlns="http://www.w3.org/2000/svg" viewBox="45 35 120 120">
    <defs>
        <filter id="r2mz8sasta" x="0" y="0" width="210" height="210" filterUnits="userSpaceOnUse">
            <feOffset dy="10"/>
            <feGaussianBlur stdDeviation="15" result="blur"/>
            <feFlood flood-opacity=".302"/>
            <feComposite operator="in" in2="blur"/>
            <feComposite in="SourceGraphic"/>
        </filter>
    </defs>
    <g data-name="App Icon-Light">
        <g style="filter:url(#r2mz8sasta)">
            <path data-name="Path 15409" d="M24 0h72a24 24 0 0 1 24 24v72a24 24 0 0 1-24 24H24A24 24 0 0 1 0 96V24A24 24 0 0 1 24 0z" transform="translate(45 35)" style="fill:#bbb9ae"/>
        </g>
        <g data-name="Group 5269">
            <g data-name="Group 5181">
                <path data-name="Path 15710" d="M31.733 7.886V1.911H36.9V.6h-5.167v-4.62H36.9v-1.3h-6.429v13.2zM17.291 6.149a6.256 6.256 0 0 0 4.715 2 6.534 6.534 0 0 0 2.719-.565 6.65 6.65 0 0 0 2.247-1.664 6.6 6.6 0 0 0 1.288-2.138 7.428 7.428 0 0 0 .43-2.58 6.907 6.907 0 0 0-.5-2.637 6.653 6.653 0 0 0-1.5-2.213A6.692 6.692 0 0 0 24.561-5.1a6.6 6.6 0 0 0-2.536-.485 6.393 6.393 0 0 0-2.493.483 6.562 6.562 0 0 0-2.109 1.433 6.892 6.892 0 0 0-1.515 2.237 6.733 6.733 0 0 0-.524 2.63 6.884 6.884 0 0 0 1.906 4.947m-.031-7.285a5.632 5.632 0 0 1 1.465-1.95 5.105 5.105 0 0 1 1.542-.922 4.943 4.943 0 0 1 1.74-.311 5.092 5.092 0 0 1 3.794 1.63 5.386 5.386 0 0 1 1.576 3.878 5.743 5.743 0 0 1-1.53 4.061A4.918 4.918 0 0 1 22.095 6.9a5.05 5.05 0 0 1-3.82-1.631 5.65 5.65 0 0 1-1.549-4.044 5.567 5.567 0 0 1 .533-2.358m-11.119 3h6.192v6.019h1.281v-13.2h-1.281V.6H6.14v-5.918H4.851v13.2H6.14zM-7.371 7.886h3.132a12.365 12.365 0 0 0 2.952-.256 5.341 5.341 0 0 0 1.78-.842 6.038 6.038 0 0 0 1.926-2.343A7.393 7.393 0 0 0 3.1 1.258a7.14 7.14 0 0 0-.615-2.946A6.526 6.526 0 0 0 .744-4.02a4.963 4.963 0 0 0-1.836-.989 9.234 9.234 0 0 0-2.575-.309h-3.7zm3.615-11.944a8.209 8.209 0 0 1 2.29.244 3.767 3.767 0 0 1 1.424.8 4.871 4.871 0 0 1 1.305 1.842 6.132 6.132 0 0 1 .456 2.394A5.606 5.606 0 0 1 .38 5.229a5.032 5.032 0 0 1-3.832 1.414h-2.657v-10.7zM-17.25 2.727h6.576a5.313 5.313 0 0 1-1.846 3.009A4.928 4.928 0 0 1-15.729 6.9a5.061 5.061 0 0 1-3.82-1.624A5.634 5.634 0 0 1-21.1 1.221a5.471 5.471 0 0 1 1.552-3.914 5.05 5.05 0 0 1 3.8-1.626 4.871 4.871 0 0 1 2.35.567A6.385 6.385 0 0 1-11.425-2h1.576a6.744 6.744 0 0 0-2.42-2.652 6.356 6.356 0 0 0-3.4-.931 6.941 6.941 0 0 0-2.606.473 6.335 6.335 0 0 0-2.138 1.443 6.846 6.846 0 0 0-1.52 2.237 6.738 6.738 0 0 0-.519 2.63 6.9 6.9 0 0 0 1.9 4.952 6.256 6.256 0 0 0 4.72 2A6.357 6.357 0 0 0-11.2 6.294a6.934 6.934 0 0 0 2.048-4.737h-8.1z" transform="translate(117.992 89.179)" style="fill:#fff"/>
            </g>
            <g data-name="Group 5182">
                <path data-name="Path 15711" d="M22.472 4.6c0-1.5-1.264-2.341-3.574-2.341s-5.444 1.226-8.192 3.231c-3.188 2.452-5.552 5.963-5.552 8.3a2.2 2.2 0 0 0 2.254 2.452c1.923 0 4.288-1.5 7.2-4.623l.384-.391a12.934 12.934 0 0 0-.328 2.4c0 1.617.878 2.674 2.2 2.674 1.815 0 5.388-2.729 9.732-7.575 1.373-1.506 1.484-1.617 1.484-1.783a.2.2 0 0 0-.22-.224c-.164 0-.275.113-.881.779l-.659.782c-.989 1.057-2.7 2.785-3.96 3.9-2.307 2.005-3.629 2.84-4.672 2.84-.881 0-1.429-.668-1.429-1.725a11.814 11.814 0 0 1 1.976-5.574c-.328-.388-.384-.444-.659-.444a1.468 1.468 0 0 0-.714.222c-2.365 4.179-5.716 7.188-7.97 7.188a1.894 1.894 0 0 1-1.926-1.952c0-1.223 1.045-3.4 2.584-5.123 2.309-2.676 5.938-4.57 8.742-4.57 1.812 0 2.913.724 2.913 2.008 0 1.057-.606 1.95-1.979 2.729l.109.335c2.09-.893 3.135-2.119 3.135-3.511M-6.941 24.546c-2.584 3.062-5.663 5.347-7.2 5.347a.687.687 0 0 1-.714-.668c0-1 1.484-2.732 5.224-5.738 2.087-1.672 4.838-3.677 6.87-5.014a33.383 33.383 0 0 1-4.177 6.074M.812 5.992a19.671 19.671 0 0 1-.386 3.231 30.527 30.527 0 0 1-1.815 6.129 10.788 10.788 0 0 1-.881 2.172 6.954 6.954 0 0 1-1.484.948c-2.528 1.728-5.88 4.177-7.746 5.738-2.859 2.452-4.4 4.457-4.4 5.794a1.04 1.04 0 0 0 1.156 1C-12 31.008-5.9 25.27-2.709 19.7l.825-1.45a3.333 3.333 0 0 0 .331-.5c.328-.277.606-.444.714-.555L.59 16.131c.992-.724 2.8-2.23 4.015-3.287.934-.89 1.759-1.728 3.188-3.342 2.09-2.174 2.362-2.563 2.362-2.732 0-.111-.053-.277-.217-.277-.111 0-.167.055-.5.446-.053.111-.164.222-.273.388l-.442.446C7.134 9.5 5.045 11.73 3.614 13.011a37.075 37.075 0 0 1-4.672 3.677l.22-.391C.371 13.458 1.2 11.619 1.8 9.78a20.059 20.059 0 0 0 1.1-4.848c0-.5-.109-.779-.328-.779-.5 0-1.156.5-1.759 1.337zM1.8-.637a2.377 2.377 0 0 0-.11.337l-.055.443v.222c0 .222.111.335.275.335a.938.938 0 0 0 .606-.278c.989-.837 1.32-1.115 2.8-2.507l.275-.28-.275-.89A17.292 17.292 0 0 0 1.8-.637" transform="translate(71.007 81.124)" style="fill:#fff"/>
            </g>
            <g data-name="Group 5183">
                <path data-name="Path 15712" d="M31.464 1.286v3.335a.922.922 0 0 0 .142.586.717.717 0 0 0 .548.164h.736v-.562h-.425c-.152 0-.249-.024-.287-.072a.547.547 0 0 1-.053-.287V1.286h.787v-.56h-.787V-.517h-.661V.726h-.642v.56zm-2.555 4.085V2.5a1.381 1.381 0 0 1 .287-.912A1 1 0 0 1 30 1.245a1.224 1.224 0 0 1 .278.024V.613A1.411 1.411 0 0 0 30.106.6a1.243 1.243 0 0 0-1.216.852V.726h-.642v4.645zM24.782 1.6a.833.833 0 0 1 1.474.007 3.554 3.554 0 0 1 .227 1.482 3.376 3.376 0 0 1-.217 1.378.765.765 0 0 1-.748.461.782.782 0 0 1-.741-.442 3.2 3.2 0 0 1-.229-1.4 3.4 3.4 0 0 1 .234-1.486m-.524 3.284a1.411 1.411 0 0 0 1.284.6 1.317 1.317 0 0 0 1.243-.656 4.061 4.061 0 0 0 .379-1.981 2.82 2.82 0 0 0-.42-1.658A1.39 1.39 0 0 0 25.53.6a1.438 1.438 0 0 0-1.248.584 2.884 2.884 0 0 0-.417 1.689 3.856 3.856 0 0 0 .393 2.012m-3.542-3.322a.726.726 0 0 1 .678-.4q.909 0 .907 1.8a3.881 3.881 0 0 1-.215 1.508.723.723 0 0 1-.7.466q-.887 0-.888-1.783a3.814 3.814 0 0 1 .217-1.585M20.48.726h-.642V6.94h.662v-2.1a1.024 1.024 0 0 0 .97.654q1.517 0 1.515-2.768a2.643 2.643 0 0 0-.4-1.552A1.282 1.282 0 0 0 21.469.6a1.012 1.012 0 0 0-.6.188 1.126 1.126 0 0 0-.386.466zm-4.587 3.262v.232a1.191 1.191 0 0 0 .384.924 1.511 1.511 0 0 0 1.054.347 1.69 1.69 0 0 0 1.108-.362 1.3 1.3 0 0 0 .446-1.064 1.045 1.045 0 0 0-.246-.719 2.721 2.721 0 0 0-1.026-.582 2.708 2.708 0 0 1-.847-.439.649.649 0 0 1-.171-.451q0-.713.753-.712a.693.693 0 0 1 .591.208 1.015 1.015 0 0 1 .152.606h.63Q18.721.6 17.295.6a1.454 1.454 0 0 0-.989.34 1.234 1.234 0 0 0-.393.992 1.169 1.169 0 0 0 .253.77 2.708 2.708 0 0 0 1.132.613 2.246 2.246 0 0 1 .7.355.605.605 0 0 1 .2.483q0 .778-.89.777a.71.71 0 0 1-.635-.244 1.314 1.314 0 0 1-.154-.7zM9.976.313a.677.677 0 0 1 .171-.466.563.563 0 0 1 .442-.2.535.535 0 0 1 .437.2.755.755 0 0 1 .164.495.992.992 0 0 1-.171.577 2.109 2.109 0 0 1-.548.512A2.121 2.121 0 0 1 9.976.313M11.6 4.319a1.086 1.086 0 0 1-1 .584 1.286 1.286 0 0 1-.914-.303 1.115 1.115 0 0 1-.333-.866 1.5 1.5 0 0 1 .2-.777 2.3 2.3 0 0 1 .676-.666zM8.929 2.681a1.705 1.705 0 0 0-.29 1 1.833 1.833 0 0 0 .49 1.366 1.927 1.927 0 0 0 1.407.485 1.672 1.672 0 0 0 1.431-.7l.4.567h.847l-.84-1.165a3.307 3.307 0 0 0 .3-.813 4.361 4.361 0 0 0 .147-.931h-.615a2.7 2.7 0 0 1-.06.519 4.6 4.6 0 0 1-.179.661L10.76 1.911A2.018 2.018 0 0 0 11.873.345a1.189 1.189 0 0 0-.364-.9 1.291 1.291 0 0 0-.956-.357 1.146 1.146 0 0 0-.878.369A1.324 1.324 0 0 0 9.334.4a2.413 2.413 0 0 0 .6 1.412 3.6 3.6 0 0 0-1.006.871M2.739 3.988v.232a1.191 1.191 0 0 0 .384.924 1.511 1.511 0 0 0 1.054.347 1.7 1.7 0 0 0 1.11-.362 1.31 1.31 0 0 0 .444-1.064 1.045 1.045 0 0 0-.246-.719 2.721 2.721 0 0 0-1.025-.581 2.656 2.656 0 0 1-.845-.439.641.641 0 0 1-.174-.451q0-.713.753-.712a.7.7 0 0 1 .594.208 1.016 1.016 0 0 1 .15.606h.632C5.57 1.061 5.092.6 4.141.6a1.454 1.454 0 0 0-.989.34 1.234 1.234 0 0 0-.393.992 1.169 1.169 0 0 0 .253.77 2.721 2.721 0 0 0 1.134.613 2.255 2.255 0 0 1 .7.355.605.605 0 0 1 .2.483q0 .778-.89.777a.71.71 0 0 1-.635-.244 1.314 1.314 0 0 1-.154-.7zm-3.805 0v.232a1.193 1.193 0 0 0 .386.924 1.511 1.511 0 0 0 1.054.347 1.69 1.69 0 0 0 1.108-.361 1.3 1.3 0 0 0 .446-1.064 1.045 1.045 0 0 0-.246-.719 2.742 2.742 0 0 0-1.025-.582 2.678 2.678 0 0 1-.847-.439.639.639 0 0 1-.171-.451c0-.475.249-.712.753-.712a.7.7 0 0 1 .591.208 1.015 1.015 0 0 1 .152.606h.63Q1.764.6.338.6a1.465 1.465 0 0 0-.992.34 1.24 1.24 0 0 0-.391.992 1.169 1.169 0 0 0 .253.77 2.691 2.691 0 0 0 1.132.613 2.274 2.274 0 0 1 .7.355.605.605 0 0 1 .2.483c0 .519-.3.777-.893.777a.7.7 0 0 1-.632-.244 1.313 1.313 0 0 1-.157-.7zm-3.1-1.441a2.338 2.338 0 0 1 .205-1.062.691.691 0 0 1 .649-.323.646.646 0 0 1 .541.275 1.961 1.961 0 0 1 .212 1.11zm2.29.545a3.958 3.958 0 0 0-.338-1.979A1.245 1.245 0 0 0-3.342.6a1.233 1.233 0 0 0-1.122.659 3.5 3.5 0 0 0-.389 1.786q0 2.447 1.518 2.444a1.29 1.29 0 0 0 1.055-.434 1.617 1.617 0 0 0 .369-1.079v-.159h-.6a2.138 2.138 0 0 0-.01.224 1.014 1.014 0 0 1-.217.649.71.71 0 0 1-.577.241.735.735 0 0 1-.62-.311 2.1 2.1 0 0 1-.234-1.18v-.347zm-6.263 2.279V2.164a1.014 1.014 0 0 1 .265-.719.906.906 0 0 1 .683-.282c.454 0 .678.28.678.837v3.371h.664V1.814A1.252 1.252 0 0 0-6.143.9a1.106 1.106 0 0 0-.833-.3 1.371 1.371 0 0 0-1.182.654V.726H-8.8v4.645zM-9.985-.91h-.661v6.281h.661zm-1.844 0h-.661v6.281h.661zM-15.8 2.548a2.338 2.338 0 0 1 .2-1.062.688.688 0 0 1 .649-.323.649.649 0 0 1 .541.275 1.961 1.961 0 0 1 .212 1.11zm2.29.545a3.925 3.925 0 0 0-.34-1.979A1.245 1.245 0 0 0-14.977.6a1.23 1.23 0 0 0-1.12.659 3.5 3.5 0 0 0-.389 1.786q0 2.447 1.518 2.444a1.293 1.293 0 0 0 1.054-.437 1.627 1.627 0 0 0 .367-1.079v-.156h-.6q-.007.1-.007.224a1.014 1.014 0 0 1-.217.649.71.71 0 0 1-.577.241.735.735 0 0 1-.62-.311 2.081 2.081 0 0 1-.234-1.18v-.347zm-7.577 2.278h.683l.775-4.1.767 4.1h.683L-17 .726h-.683l-.835 4.1-.772-4.1h-.683l-.777 4.1-.83-4.1h-.683z" transform="translate(121.819 102.331)" style="fill:#fff"/>
            </g>
            <g data-name="Group 5185">
                <path data-name="Path 15714" d="M1.487 2.264 3.12 3.316l-.572-1.827L4.03.425H2.177L1.487-1.6.808.425h-1.86L.434 1.489l-.576 1.827zm5.545 0 1.633 1.052L8.1 1.489 9.575.425H7.722L7.032-1.6 6.354.425H4.493l1.489 1.064-.577 1.827zm5.545 0 1.633 1.052-.572-1.827L15.12.425h-1.853l-.69-2.025L11.9.425h-1.86l1.489 1.064-.579 1.827zm5.545 0 1.634 1.052-.569-1.827L20.668.425h-1.856l-.69-2.025-.678 2.025h-1.858l1.486 1.064-.572 1.827zm5.545 0L25.3 3.316l-.569-1.827 1.48-1.064h-1.854l-.69-2.025-.678 2.025h-1.858l1.486 1.064-.577 1.827z" transform="translate(70.603 104.384)" style="fill:#fff"/>
            </g>
        </g>
    </g>
</svg>