<svg xmlns="http://www.w3.org/2000/svg" viewBox="45 35 120 120">
    <defs>
        <filter id="82n8o8pvga" x="0" y="0" width="210" height="210" filterUnits="userSpaceOnUse">
            <feOffset dy="10"/>
            <feGaussianBlur stdDeviation="15" result="blur"/>
            <feFlood flood-opacity=".302"/>
            <feComposite operator="in" in2="blur"/>
            <feComposite in="SourceGraphic"/>
        </filter>
    </defs>
    <g data-name="App Icon-Light">
        <g style="filter:url(#82n8o8pvga)">
            <path data-name="Path 15409" d="M24 0h72a24 24 0 0 1 24 24v72a24 24 0 0 1-24 24H24A24 24 0 0 1 0 96V24A24 24 0 0 1 24 0z" transform="translate(45 35)" style="fill:#44423e"/>
        </g>
        <g data-name="Group 5276">
            <g data-name="Group 5147">
                <path data-name="Path 15674" d="M18.837.055a9.168 9.168 0 0 0-5.959 3.217 35.258 35.258 0 0 0-3.112 5.983c-.33.792-1.018 2.69-1.537 4.2a45.849 45.849 0 0 1-3.1 7.253 9.288 9.288 0 0 1-3.942 3.942 9.46 9.46 0 0 1-5.216 1.006 17 17 0 0 1-4.657-.489c-1.324-.278-2.663-.584-2.966-.688-.673-.238-1.046-.159-1.046.251a35.774 35.774 0 0 0 1.523 5.308c1.838 5.069 3.85 7.864 6.7 9.252 2.575 1.254 4.738 1.31 10.642.273 6.5-1.125 7.506-1.269 9.6-1.344 2.913-.107 4.58.251 6.314 1.361 2.648 1.7 4.436 4.675 5.812 9.689.728 2.663.926 2.727 2.792.77 3.589-3.706 4.858-5.693 5.415-8.42.529-2.606-.211-5.4-2.171-8.139-.37-.517-1.905-2.449-3.415-4.3-6.234-7.65-7.253-9.478-7.228-12.978a7.817 7.817 0 0 1 .345-2.556 16.362 16.362 0 0 1 1.932-4.063 66.221 66.221 0 0 1 4.528-5.507c1.761-1.945 1.786-2 1.523-2.263A29.2 29.2 0 0 0 26.092.368a29.821 29.821 0 0 0-7.255-.313" transform="translate(93.572 57.037)" style="fill:#f4f2ed"/>
            </g>
            <g data-name="Group 5148">
                <path data-name="Path 15675" d="M5.364 7.33 1.482 1.521l3.7-5.395H2.043l-3.07 4.948v-4.948h-2.588V7.33h2.588V2.067L2.011 7.33zM9.1-4.781H6.581V7.33H9.1zM19.043 3.03C19.042.291 17.6-1.1 15.091-1.1a4.247 4.247 0 0 0-4.371 4.116c0 .127 0 .256.007.383 0 2.938 1.575 4.116 3.967 4.116a4.247 4.247 0 0 0 4.354-4.136 5.8 5.8 0 0 0-.006-.351zm-2.623.149c0 1.379-.631 2.141-1.542 2.141-1.046 0-1.528-.7-1.528-2.211 0-1.441.78-2.059 1.577-2.059 1.046.007 1.493.72 1.493 2.131zm9.563 1.545c0-2.588-3.09-2.275-3.09-3.306 0-.385.3-.631.944-.631a5.121 5.121 0 0 1 1.463.2l.05-1.975a10.785 10.785 0 0 0-1.443-.134c-2.442 0-3.651 1.262-3.651 2.755 0 2.74 3.038 2.094 3.038 3.306 0 .385-.4.648-1.046.648a6.256 6.256 0 0 1-1.726-.266l-.05 2.059a14.574 14.574 0 0 0 1.709.132c2.307 0 3.8-1.078 3.8-2.787m6.389 2.553V5.269a4.049 4.049 0 0 1-.929.132c-.631 0-.847-.283-.847-1.128V1.019h1.776v-1.94h-1.791v-3.12l-2.524.681v2.446h-1.243v1.94h1.244v3.828c0 2.027.616 2.66 2.524 2.66a7.918 7.918 0 0 0 1.791-.231zm8.783-4.565c0-2.156-1.1-3.835-3.587-3.835-2.555 0-3.966 1.878-3.966 4.416 0 2.9 1.5 4.215 4.2 4.215a8.246 8.246 0 0 0 3.055-.564l-.233-1.908a5.9 5.9 0 0 1-2.424.514c-1.361 0-2.024-.631-2.042-1.724h4.913a8.8 8.8 0 0 0 .084-1.113zm-2.491-.564h-2.491A1.387 1.387 0 0 1 37.5.721c.727 0 1.194.497 1.162 1.428zm8.946-3.269A2.45 2.45 0 0 0 45.135.539H45.1a9.924 9.924 0 0 0 .117-1.46h-2.355v8.249h2.521v-3.4c0-2.059.73-2.856 2.109-2.541l.117-2.506zm8.78 8.447V1.511c0-1.428-.6-2.606-2.444-2.606A2.931 2.931 0 0 0 51.339.217h-.015a9.894 9.894 0 0 0 .132-1.691v-3.307h-2.521V7.33h2.526V3.346c0-1.227.748-2.322 1.644-2.322.576 0 .763.4.763 1.058v5.243h2.521zm9.943-4.3c0-2.736-1.443-4.127-3.951-4.127a4.246 4.246 0 0 0-4.371 4.116v.383c0 2.938 1.577 4.116 3.969 4.116a4.249 4.249 0 0 0 4.354-4.136c0-.114 0-.231-.007-.345zm-2.623.149c0 1.379-.631 2.141-1.542 2.141-1.046 0-1.528-.7-1.528-2.211 0-1.441.78-2.059 1.577-2.059 1.046 0 1.493.713 1.493 2.126zM73.1-4.806a5.952 5.952 0 0 0-1.326-.134c-2.4 0-3.385 1.113-3.385 3.306v.72h-1.263v1.94h1.264v6.309h2.521V1.021h1.694V-.914h-1.694v-.728c0-.882.35-1.244 1.113-1.244a2.908 2.908 0 0 1 .912.149L73.1-4.8z" transform="translate(70.615 125.084)" style="fill:#f4f2ed"/>
            </g>
        </g>
    </g>
</svg>