<svg xmlns="http://www.w3.org/2000/svg" viewBox="45 35 120 120">
    <defs>
        <clipPath id="7rfy3zgmqb">
            <path data-name="Path 15811" d="M0 36.906h94.085v-56.465H0z" transform="translate(0 19.559)" style="fill:none"/>
        </clipPath>
        <filter id="6lct3gfd9a" x="0" y="0" width="210" height="210" filterUnits="userSpaceOnUse">
            <feOffset dy="10"/>
            <feGaussianBlur stdDeviation="15" result="blur"/>
            <feFlood flood-opacity=".302"/>
            <feComposite operator="in" in2="blur"/>
            <feComposite in="SourceGraphic"/>
        </filter>
    </defs>
    <g data-name="App Icon-Light">
        <g style="filter:url(#6lct3gfd9a)">
            <path data-name="Path 15409" d="M24 0h72a24 24 0 0 1 24 24v72a24 24 0 0 1-24 24H24A24 24 0 0 1 0 96V24A24 24 0 0 1 24 0z" transform="translate(45 35)" style="fill:#303030"/>
        </g>
        <g data-name="Group 5290">
            <g data-name="Group 5278">
                <path data-name="Path 15800" d="M1.568 0 .791 1.547l-1.622.223L.35 2.948l-.3 1.625L1.565 3.8l1.441.736-.3-1.622 1.261-1.182-1.7-.219z" transform="translate(77.677 66.769)" style="fill:#b58e4f"/>
            </g>
            <g data-name="Group 5279">
                <path data-name="Path 15801" d="M1.57 0 .793 1.547l-1.625.223L.349 2.913.054 4.535l1.475-.774L3 4.535l-.218-1.622 1.147-1.181-1.62-.219z" transform="translate(91.064 66.769)" style="fill:#b58e4f"/>
            </g>
            <g data-name="Group 5280">
                <path data-name="Path 15802" d="M1.57 0 .793 1.513l-1.625.219L.352 2.913.057 4.535l1.513-.773 1.472.774-.291-1.623 1.215-1.181-1.7-.219z" transform="translate(104.452 66.769)" style="fill:#b58e4f"/>
            </g>
            <g data-name="Group 5281">
                <path data-name="Path 15803" d="M1.568 0 .791 1.513l-1.622.219L.353 2.913l-.3 1.622 1.513-.774 1.475.774-.292-1.622 1.218-1.181-1.7-.219z" transform="translate(117.804 66.769)" style="fill:#b58e4f"/>
            </g>
            <g data-name="Group 5282">
                <path data-name="Path 15804" d="M1.542 0 .878 1.513l-1.695.219L.4 2.913.1 4.535l1.441-.777 1.513.777-.3-1.622 1.187-1.181-1.626-.219z" transform="translate(131.253 66.769)" style="fill:#b58e4f"/>
            </g>
            <g data-name="Group 5289" transform="translate(58.958 66.768)" style="clip-path:url(#7rfy3zgmqb)">
                <g data-name="Group 5283">
                    <path data-name="Path 15805" d="M2.1 7.45c0 .37-.075 1.29.11 1.475a5.292 5.292 0 0 0 3.1.921c2.841 0 5.606-1.51 5.606-6.2 0-4.5-2.988-7.044-6.822-7.044-1.92 0-1.992.37-1.992 1.29zM.584-1.771c0-2.03-1.695-1.4-1.695-1.992 0-.11.182-.185.294-.185.626 0 1.215.075 1.807.075 1.328 0 2.618-.075 4.351-.075 3.542 0 7.119 2.693 7.119 6.418 0 4.648-2.214 7.855-7.818 7.855-1.034 0-2.03-.072-3.1-.072-.182 0-2.1.072-2.286.072s-.182-.072-.182-.182c0-.482 1.475.072 1.475-1.845z" transform="translate(32.314 16.449)" style="fill:#fff"/>
                </g>
                <g data-name="Group 5284">
                    <path data-name="Path 15806" d="M2.119 5.834c0 3.207 1.992 4.72 4.72 4.72 3.8 0 4.648-2.506 4.648-4.9V-.915c0-2.03-1.845-1.218-1.845-1.992a.175.175 0 0 1 .165-.185h.02c.811 0 1.582.075 2.4.075.407 0 .774-.075 1.106-.075.113 0 .3.11.3.222 0 .589-1.181.11-1.181 1.992v6.233c0 1 .222 6.011-5.644 6.011C1.5 11.366.5 8.378.5 5.32v-6.827c0-1.181-1.622-.7-1.622-1.328 0-.113.332-.185.479-.185.517 0 1.068.072 1.582.072.629 0 1.293-.072 1.92-.072.113 0 .626-.075.626.185 0 .589-1.328 0-1.328 1.475z" transform="translate(69.689 15.594)" style="fill:#fff"/>
                </g>
                <g data-name="Group 5285">
                    <path data-name="Path 15807" d="M.018 7.187c-.075-.4 0-.626.222-.626.294 0 .294.222.4.626a4.313 4.313 0 0 0 4.246 3.023c1.92 0 3.8-1.031 3.8-3.207C8.685 3.094.46 5.3.46 0c0-2.584 2.177-3.8 4.5-3.8a7.17 7.17 0 0 1 3.392.7c.185 0 .222-.222.407-.222.11 0 .219.075.219.294L9.277-.3c0 .182 0 .294-.222.294S8.722-.411 8.647-.6a3.777 3.777 0 0 0-3.833-2.614c-1.585 0-3.282.739-3.282 2.618 0 3.8 8.225 1.585 8.225 7.157 0 1.695-1.181 4.278-5.791 4.278-1.513 0-3.32-.777-3.43-1.109z" transform="translate(84.256 16.048)" style="fill:#fff"/>
                </g>
                <g data-name="Group 5286">
                    <path data-name="Path 15808" d="M3.664 4.442c-.921 0-2.214.11-2.214-.294V-.979c0-.811.407-.736 1.181-.736 1.992 0 3.837.811 3.837 3.245a2.652 2.652 0 0 1-2.8 2.913m18 4.61c-.222 0-.924 2.1-5.606 2.1-1.7 0-1.513-.479-1.513-1.695V5.7c0-.294-.075-.626.37-.626H17.9c1.695 0 1 1.773 1.622 1.773a.207.207 0 0 0 .219-.185v-.043c0-.517-.035-1.034-.035-1.585 0-.626.035-1.328.035-2.027 0-.185-.035-.407-.219-.407-.479 0 .072 1.622-2.03 1.622h-2.138c-.811 0-.774 0-.774-.7V-.24c0-1.328-.075-1.293 1.92-1.293.811 0 2.913-.11 3.43.592.37.479 0 1.475.479 1.475.113 0 .407-.185.407-2.4 0-.222-.075-.482-.185-.482-.626 0-2.509.075-2.913.075-.886 0-1.92-.075-5.719-.075-.589 0-.7.075-.7.222 0 .222.479.294.589.37 1.106.185 1.106 1.106 1.106 2.03v9.22c0 .924-.035 1.513-.589 1.773-.626.367-.886.294-.886.514v.075c0-.222-.479-.294-.479-.294-.37-.113-1.181-.113-2.286-1.77L5.362 4.664a4.009 4.009 0 0 0 2.581-3.5c0-3.909-4.5-3.5-4.8-3.5-1.068 0-2.211.072-3.392.072a12.04 12.04 0 0 1-1.29-.072c-.222 0-.407.11-.407.219 0 .7 1.735-.11 1.735 1.807V9.939c0 1.51-1.475 1.215-1.475 1.77a.205.205 0 0 0 .185.219c.736 0 1.51-.072 2.286-.072 1.695 0 2.139.072 2.324.072s.332.075.332-.182c0-.7-2.1-.075-2.1-1.807V5.7c0-.182-.11-.589.517-.589 2.286 0 1.992-.075 2.693 1.034l2.211 3.534c.7 1 1.328 1.92 2.509 2.139.185 0 .294.075.479.075h.113a19.1 19.1 0 0 0 1.992 0c.774 0 1.51-.075 2.211-.075 1.513-.075 3.1.075 4.61.075.886 0 1.328.072 1.992-.7a3.151 3.151 0 0 0 1-1.992c.072-.147.038-.185 0-.147" transform="translate(46.715 14.92)" style="fill:#fff"/>
                </g>
                <g data-name="Group 5287">
                    <path data-name="Path 15809" d="M5.954 5.28H1.932c-.294 0-.4-.075-.294-.37L3.924.005c.113-.222.222-.222.37 0l1.957 4.87c.11.294.11.4-.294.4M26.353-2.5c-.482 0-1.328.075-2.03.075S23.1-2.5 22.516-2.5a.208.208 0 0 0-.222.185c0 .626 2.214-.11 2.214 2.584v8.403c0 .185 0 .222-.075.222s-.11-.075-.222-.222L14.583-2.059c-.11-.113-.294-.445-.514-.445-.3 0-.629.075-.924.075-.37 0-.626-.075-.921-.075-.113 0-.294.075-.294.185 0 .777 2.434-.4 2.434 3.8v7.451c0 2.324-1.218 2.139-1.622 2.4a1.457 1.457 0 0 0-.37.294 1.667 1.667 0 0 0-.592-.219c-.332-.113-1.106-.075-1.51-.739a13.765 13.765 0 0 1-1-2.289L5.067-2.059C5-2.244 4.773-2.8 4.663-2.8c-.222 0-.37.37-1.513 2.841l-4.867 10.253c-.517 1.181-1.438.814-1.438 1.218a.206.206 0 0 0 .182.222c.517 0 1.034-.075 1.622-.075s1.109.075 1.7.075c.222 0 .517.072.517-.3 0-.514-1.441.075-1.441-1.328a2.212 2.212 0 0 1 .113-.7l1.29-2.8c.185-.4.592-.4.924-.4h4.424c.589 0 .7.294.883.774l.627 1.62a7.3 7.3 0 0 1 .626 1.92c0 .739-1.215.592-1.215 1.034 0 .185.37.185.479.185.517 0 1.106-.075 1.622-.075.7 0 1.475.075 2.139.075h1.513c.37 0 1.181-.075 1.807-.075 1 0 1.582.075 2.03.075a.241.241 0 0 0 .219-.222c0-.517-1.77.185-1.77-1.622V1.628c0-.4.075-.479.11-.479.113 0 .407.37.407.407l8.667 9.772c.4.479.626.592.774.592.185 0 .185-.3.185-.886V-.693c0-1.475 1.181-1.109 1.181-1.625.075-.147 0-.182-.113-.182" transform="translate(3.267 15.042)" style="fill:#fff"/>
                </g>
                <g data-name="Group 5288">
                    <path data-name="Path 15810" d="M57.855.218a4.422 4.422 0 0 0-1.7-.294A4 4 0 0 0 53.207 1.1a4.214 4.214 0 0 0-1.178 3.023 3.348 3.348 0 0 0 1.178 2.728 7.19 7.19 0 0 0 3.135 1.218 18.526 18.526 0 0 1 2.8.811 2.723 2.723 0 0 1 1.071.883 1.874 1.874 0 0 1 .332 1.181 2.636 2.636 0 0 1-.886 1.992 3.223 3.223 0 0 1-2.286.811 4.3 4.3 0 0 1-3.1-1.29 5.783 5.783 0 0 1-1.732-3.5h-.7v5.312h.7l1.068-1.29a5.567 5.567 0 0 0 3.724 1.4 4.509 4.509 0 0 0 3.248-1.215 4.319 4.319 0 0 0 1.29-3.135 3.778 3.778 0 0 0-.471-1.881A3.388 3.388 0 0 0 60 6.855a12.585 12.585 0 0 0-3.282-1.031 10.266 10.266 0 0 1-2.286-.7 2.085 2.085 0 0 1-.883-.811 2.64 2.64 0 0 1-.3-1.181 2.378 2.378 0 0 1 .811-1.807 2.764 2.764 0 0 1 2.025-.737 3.83 3.83 0 0 1 2.615 1.03 7.334 7.334 0 0 1 1.77 3.4h.63l-.035-5.06h-.777l-.883 1.218a3.943 3.943 0 0 0-1.55-.961M38.27 5.383h.7a7.542 7.542 0 0 1 1.106-3.32A2.621 2.621 0 0 1 42.364.769a1.2 1.2 0 0 1 .7.185.731.731 0 0 1 .222.517V12.8a.582.582 0 0 1-.185.4.689.689 0 0 1-.479.185h-1.55v.7h6.455v-.7h-1.4a.787.787 0 0 1-.627-.185.872.872 0 0 1-.185-.514V1.621A.792.792 0 0 1 45.5.992a1.323 1.323 0 0 1 .774-.185c1.807 0 2.913 1.582 3.392 4.645h.626L50 .215H38.677zm-9.625-3.837c0-.038-.038-.442.185-.517a3.606 3.606 0 0 1 1.4-.185 8.015 8.015 0 0 1 2.286.222 1.67 1.67 0 0 1 .924.883 3.619 3.619 0 0 1 .4 1.735 2.715 2.715 0 0 1-1 2.211 4.719 4.719 0 0 1-2.543.626h-1.615l-.038-4.98zm-4.316-.7h1.328a.8.8 0 0 1 .626.185.726.726 0 0 1 .222.517v11.136a.5.5 0 0 1-.222.479.955.955 0 0 1-.626.185h-1.328v.7h6.455v-.7h-1.328a.97.97 0 0 1-.7-.185.716.716 0 0 1-.185-.479V7.259h1.181a4.646 4.646 0 0 1 1.585.3 2.142 2.142 0 0 1 .921.883 6.131 6.131 0 0 1 .479 1.807 11.225 11.225 0 0 0 .479 2.693 2.161 2.161 0 0 0 .777 1.034 1.864 1.864 0 0 0 1.181.332c1.438 0 2.211-1.034 2.4-3.21h-.626a4.238 4.238 0 0 1-.3 1.513c-.182.294-.332.4-.514.4a.755.755 0 0 1-.517-.367 4.689 4.689 0 0 1-.592-1.7 15.837 15.837 0 0 0-.7-2.286 2.4 2.4 0 0 0-.811-.921 6.743 6.743 0 0 0-1.879-.7 7.585 7.585 0 0 0 2.691-.626 3.166 3.166 0 0 0 1.328-1.181 3.221 3.221 0 0 0-.7-4.131A4.76 4.76 0 0 0 31.67.181h-7.3zm-5.9.407a4.208 4.208 0 0 1 1.475 2.1 10.74 10.74 0 0 1 .517 3.909 11.618 11.618 0 0 1-.517 3.724 4.02 4.02 0 0 1-1.475 2.03 3.7 3.7 0 0 1-5.015-.849c-.774-.921-1.181-2.691-1.181-5.162 0-2.289.407-3.946 1.181-4.945A3.572 3.572 0 0 1 16.361.55a5.1 5.1 0 0 1 2.064.7M13.041.807a6.423 6.423 0 0 0-2.324 2.543 8.114 8.114 0 0 0-.886 3.724 8.414 8.414 0 0 0 .886 3.8 6.347 6.347 0 0 0 2.324 2.618 5.965 5.965 0 0 0 3.132.924 6.521 6.521 0 0 0 3.285-.924 7.111 7.111 0 0 0 2.4-2.618 8.139 8.139 0 0 0 .883-3.724 7.653 7.653 0 0 0-.849-3.724 6.462 6.462 0 0 0-2.4-2.584 5.872 5.872 0 0 0-3.314-.918 5.424 5.424 0 0 0-3.1.883M3.933.181a4.417 4.417 0 0 0-1.695-.295A4 4 0 0 0-.715 1.067a4.223 4.223 0 0 0-1.178 3.022A3.354 3.354 0 0 0-.715 6.82 8.158 8.158 0 0 0 2.42 8.036a18.876 18.876 0 0 1 2.8.814 2.365 2.365 0 0 1 1.034.883 1.851 1.851 0 0 1 .332 1.181 2.582 2.582 0 0 1-.886 1.992 3.223 3.223 0 0 1-2.286.811 4.3 4.3 0 0 1-3.1-1.29 6.042 6.042 0 0 1-1.77-3.5h-.736v5.312h.7l1.031-1.29a5.619 5.619 0 0 0 3.762 1.438 4.223 4.223 0 0 0 3.248-1.215 4.319 4.319 0 0 0 1.29-3.135A4.164 4.164 0 0 0 7.4 8.151 3.405 3.405 0 0 0 6 6.858a12.8 12.8 0 0 0-3.245-1.031 10.174 10.174 0 0 1-2.286-.7 2.348 2.348 0 0 1-.886-.811 2.675 2.675 0 0 1-.295-1.182A2.378 2.378 0 0 1 .1 1.327 2.77 2.77 0 0 1 2.129.588a3.788 3.788 0 0 1 2.618 1.033 7.361 7.361 0 0 1 1.77 3.4h.626L7.068-.074h-.7l-.885 1.216a7.546 7.546 0 0 0-1.7-.921m-19.764.661h1.181a.96.96 0 0 1 .626.185.881.881 0 0 1 .185.517v11.028a.843.843 0 0 1-.222.589 1.351 1.351 0 0 1-.774.185h-1v.664h11.47l.222-5.165h-.629c-.367 2.95-1.695 4.5-4.019 4.5h-2.139a1.178 1.178 0 0 1-.7-.185.716.716 0 0 1-.185-.479V7.19h1.109a1.963 1.963 0 0 1 1.622.7 3.385 3.385 0 0 1 .634 2.285h.626V3.757H-8.6a3.913 3.913 0 0 1-.626 2.1 1.884 1.884 0 0 1-1.585.7h-1.146V1.618a.623.623 0 0 1 .517-.7h2.913a2.693 2.693 0 0 1 2.1.883A6.39 6.39 0 0 1-5.25 4.9h.626L-4.918.181h-11.063zm-10.439.664a.6.6 0 0 1 .3-.517 3.606 3.606 0 0 1 1.4-.185 7.923 7.923 0 0 1 2.286.222 1.8 1.8 0 0 1 .924.883 4.073 4.073 0 0 1 .367 1.735 2.428 2.428 0 0 1-.924 2.216 4.784 4.784 0 0 1-2.581.626h-1.772zm-4.241-.7h1.328a.787.787 0 0 1 .626.185.724.724 0 0 1 .222.514v11.142a.5.5 0 0 1-.222.479.967.967 0 0 1-.626.185h-1.328v.7h6.455v-.7h-1.328a.97.97 0 0 1-.7-.185.716.716 0 0 1-.185-.479V7.262h1.184a4.7 4.7 0 0 1 1.582.294 2.033 2.033 0 0 1 .961.886 6.313 6.313 0 0 1 .479 1.807 10.628 10.628 0 0 0 .442 2.656A2.122 2.122 0 0 0-21 13.937a1.845 1.845 0 0 0 1.178.335c1.475 0 2.214-1.034 2.4-3.21h-.629a4.185 4.185 0 0 1-.294 1.513c-.185.294-.37.4-.517.4a.767.767 0 0 1-.517-.367 4.684 4.684 0 0 1-.589-1.7 16.6 16.6 0 0 0-.7-2.286 2.455 2.455 0 0 0-.811-.924 6.989 6.989 0 0 0-1.845-.7 7.6 7.6 0 0 0 2.693-.626 3.185 3.185 0 0 0 1.363-1.143 3.221 3.221 0 0 0-.7-4.131A4.721 4.721 0 0 0-23.21.183h-7.451z" transform="translate(31.214 30.615)" style="fill:#fff"/>
                </g>
            </g>
            <path data-name="Path 15812" d="M0 1.689h29.874V-.9H0z" transform="translate(58.958 121.544)" style="fill:#5b2347"/>
            <path data-name="Path 15813" d="M11.128 1.689H41V-.9H11.128z" transform="translate(79.956 121.544)" style="fill:#3a847f"/>
            <path data-name="Path 15814" d="M22.242 1.689h29.874V-.9H22.242z" transform="translate(100.927 121.544)" style="fill:#8c8e2d"/>
        </g>
    </g>
</svg>