<svg xmlns="http://www.w3.org/2000/svg" viewBox="45 35 120 120">
    <defs>
        <clipPath id="8ge5zwvugb">
            <path data-name="Path 15901" d="M0 36.881h100v-59.067H0z" transform="translate(0 22.186)" style="fill:none"/>
        </clipPath>
        <filter id="7u5fvyhiba" x="0" y="0" width="210" height="210" filterUnits="userSpaceOnUse">
            <feOffset dy="10"/>
            <feGaussianBlur stdDeviation="15" result="blur"/>
            <feFlood flood-opacity=".302"/>
            <feComposite operator="in" in2="blur"/>
            <feComposite in="SourceGraphic"/>
        </filter>
    </defs>
    <g data-name="App Icon-Light">
        <g style="filter:url(#7u5fvyhiba)">
            <path data-name="Path 15409" d="M24 0h72a24 24 0 0 1 24 24v72a24 24 0 0 1-24 24H24A24 24 0 0 1 0 96V24A24 24 0 0 1 24 0z" transform="translate(45 35)" style="fill:#fff"/>
        </g>
        <g data-name="Group 5402">
            <g data-name="Group 5372" transform="translate(55 65.467)" style="clip-path:url(#8ge5zwvugb)">
                <g data-name="Group 5371">
                    <path data-name="Path 15900" d="M.331 2h.839a1.567 1.567 0 0 0 .78-.173 1.052 1.052 0 0 0 .442-.479 1.652 1.652 0 0 0 .138-.7 1.627 1.627 0 0 0-.138-.695 1.04 1.04 0 0 0-.442-.478A1.567 1.567 0 0 0 1.169-.7H.331zm.924-3.2a2.021 2.021 0 0 1 .958.218 1.521 1.521 0 0 1 .634.636 2.028 2.028 0 0 1 .221.982 2.1 2.1 0 0 1-.218.988 1.553 1.553 0 0 1-.634.65 1.982 1.982 0 0 1-.974.226H-.2v-3.7z" transform="translate(3.74 48.818)" style="fill:#b79a61"/>
                </g>
            </g>
            <g data-name="Group 5373">
                <path data-name="Path 15902" d="M1.6 1.376.915-.29l-.69 1.666zM.592-.828h.647l1.555 3.7h-.572l-.41-.99H.02l-.413.99h-.572z" transform="translate(65.215 113.911)" style="fill:#b79a61"/>
            </g>
            <g data-name="Group 5375" transform="translate(55 65.467)" style="clip-path:url(#8ge5zwvugb)">
                <g data-name="Group 5374">
                    <path data-name="Path 15903" d="M1.524.736a.814.814 0 0 0-.167-.383.739.739 0 0 0-.33-.237 1.354 1.354 0 0 0-.488-.08A1.37 1.37 0 0 0 .1.1a.616.616 0 0 0-.29.194.488.488 0 0 0-.11.317.442.442 0 0 0 .142.344.818.818 0 0 0 .341.178 5.523 5.523 0 0 0 .564.112 5.7 5.7 0 0 1 .716.152 1.075 1.075 0 0 1 .466.288.818.818 0 0 1 .192.578 1.082 1.082 0 0 1-.181.626 1.165 1.165 0 0 1-.5.4 1.832 1.832 0 0 1-.74.139 1.968 1.968 0 0 1-.767-.144 1.438 1.438 0 0 1-.57-.418 1.3 1.3 0 0 1-.285-.639l.538-.1a.969.969 0 0 0 .194.455.906.906 0 0 0 .39.276 1.425 1.425 0 0 0 .53.093 1.292 1.292 0 0 0 .453-.072.688.688 0 0 0 .3-.21.509.509 0 0 0 .106-.327A.426.426 0 0 0 1.447 2a.849.849 0 0 0-.341-.178 7.15 7.15 0 0 0-.559-.114 5.474 5.474 0 0 1-.721-.162 1.029 1.029 0 0 1-.466-.3.823.823 0 0 1-.194-.581A1.023 1.023 0 0 1-.653.052a1.115 1.115 0 0 1 .5-.373 2 2 0 0 1 .724-.122 1.859 1.859 0 0 1 .729.13 1.219 1.219 0 0 1 .5.37 1.272 1.272 0 0 1 .242.564z" transform="translate(16.444 47.974)" style="fill:#b79a61"/>
                </g>
            </g>
            <g data-name="Group 5376">
                <path data-name="Path 15905" d="M1.947 0v3.7h-.6L-.641.8v2.9h-.53V0h.607l1.986 2.918V0z" transform="translate(81.232 113.084)" style="fill:#b79a61"/>
            </g>
            <g data-name="Group 5377">
                <path data-name="Path 15906" d="M1.6 1.376.915-.29l-.69 1.666zM.592-.828h.647l1.555 3.7h-.572l-.41-.99H.02l-.413.99h-.572z" transform="translate(86.92 113.911)" style="fill:#b79a61"/>
            </g>
            <g data-name="Group 5378">
                <path data-name="Path 15907" d="M0 0h3.312v.5H1.92v3.2h-.53V.5H0z" style="fill:#b79a61" transform="translate(91.688 113.084)"/>
            </g>
            <path data-name="Path 15908" d="M16.051-.6h.53v-3.7h-.53z" transform="translate(81.682 117.384)" style="fill:#b79a61"/>
            <g data-name="Group 5380" transform="translate(55 65.467)" style="clip-path:url(#8ge5zwvugb)">
                <g data-name="Group 5379">
                    <path data-name="Path 15909" d="M.715.419a1.135 1.135 0 0 0-.447.492 1.71 1.71 0 0 0-.16.769 1.714 1.714 0 0 0 .16.772 1.135 1.135 0 0 0 .447.493 1.307 1.307 0 0 0 .671.168 1.324 1.324 0 0 0 .674-.168 1.129 1.129 0 0 0 .44-.492 1.751 1.751 0 0 0 .157-.772A1.747 1.747 0 0 0 2.5.911a1.129 1.129 0 0 0-.441-.492 1.324 1.324 0 0 0-.673-.168 1.307 1.307 0 0 0-.671.168M2.344-.02a1.607 1.607 0 0 1 .634.671 2.243 2.243 0 0 1 .222 1.03 2.247 2.247 0 0 1-.221 1.033 1.607 1.607 0 0 1-.634.671 1.921 1.921 0 0 1-.958.232 1.921 1.921 0 0 1-.958-.232 1.607 1.607 0 0 1-.634-.671A2.247 2.247 0 0 1-.43 1.681 2.243 2.243 0 0 1-.206.651 1.607 1.607 0 0 1 .427-.02a1.921 1.921 0 0 1 .958-.232 1.921 1.921 0 0 1 .958.232" transform="translate(46.618 47.785)" style="fill:#b79a61"/>
                </g>
            </g>
            <g data-name="Group 5381">
                <path data-name="Path 15911" d="M1.947 0v3.7h-.6L-.641.8v2.9h-.53V0h.607l1.986 2.918V0z" transform="translate(108.906 113.084)" style="fill:#b79a61"/>
            </g>
            <g data-name="Group 5382">
                <path data-name="Path 15912" d="M1.6 1.376.915-.29l-.69 1.666zM.592-.828h.647l1.555 3.7h-.572l-.407-.99H.02l-.413.99h-.572z" transform="translate(114.594 113.911)" style="fill:#b79a61"/>
            </g>
            <g data-name="Group 5383">
                <path data-name="Path 15913" d="M0 0v3.7h2.513v-.5H.53V0z" style="fill:#b79a61" transform="translate(120.16 113.085)"/>
            </g>
            <g data-name="Group 5385" transform="translate(55 65.467)" style="clip-path:url(#8ge5zwvugb)">
                <g data-name="Group 5384">
                    <path data-name="Path 15914" d="M.331 1.147h1.123a.968.968 0 0 0 .413-.083.615.615 0 0 0 .274-.236.687.687 0 0 0 .1-.367.646.646 0 0 0-.092-.344.581.581 0 0 0-.258-.227.941.941 0 0 0-.391-.077H.331zM1.569-.69a1.394 1.394 0 0 1 .644.141 1 1 0 0 1 .418.4 1.149 1.149 0 0 1 .146.588 1.267 1.267 0 0 1-.152.62 1.075 1.075 0 0 1-.445.434 1.443 1.443 0 0 1-.7.16H.331v1.36H-.2V-.69z" transform="translate(70.674 48.307)" style="fill:#b79a61"/>
                </g>
            </g>
            <g data-name="Group 5386">
                <path data-name="Path 15916" d="M1.6 1.376.915-.29l-.69 1.666zM.592-.828h.647l1.555 3.7h-.572l-.41-.99H.02l-.413.99h-.572z" transform="translate(131.639 113.911)" style="fill:#b79a61"/>
            </g>
            <g data-name="Group 5388" transform="translate(55 65.467)" style="clip-path:url(#8ge5zwvugb)">
                <g data-name="Group 5387">
                    <path data-name="Path 15917" d="M.331 1.115h1.187a.809.809 0 0 0 .367-.083A.591.591 0 0 0 2.144.8a.624.624 0 0 0 .093-.345.6.6 0 0 0-.088-.327.613.613 0 0 0-.24-.218.778.778 0 0 0-.346-.077H.331zm1.3-1.786a1.231 1.231 0 0 1 .594.141 1.023 1.023 0 0 1 .407.389 1.135 1.135 0 0 1 .144.572 1.239 1.239 0 0 1-.1.5 1.138 1.138 0 0 1-.288.4 1.12 1.12 0 0 1-.429.24l.818 1.459h-.612l-.783-1.411H.331V3.03H-.2v-3.7z" transform="translate(82.405 48.287)" style="fill:#b79a61"/>
                </g>
            </g>
            <g data-name="Group 5389">
                <path data-name="Path 15919" d="M1.031.861 2.538 3.18h-.631L.658 1.239l-.751.695V3.18H-.62v-3.7h.527v1.767L1.731-.518h.745z" transform="translate(143.742 113.603)" style="fill:#b79a61"/>
            </g>
            <g data-name="Group 5391" transform="translate(55 65.467)" style="clip-path:url(#8ge5zwvugb)">
                <g data-name="Group 5390">
                    <path data-name="Path 15920" d="M.331 1.115h1.187a.809.809 0 0 0 .367-.083A.591.591 0 0 0 2.144.8a.624.624 0 0 0 .093-.345.6.6 0 0 0-.088-.327.613.613 0 0 0-.24-.218.778.778 0 0 0-.346-.077H.331zm1.3-1.786a1.231 1.231 0 0 1 .594.141 1.023 1.023 0 0 1 .407.389 1.135 1.135 0 0 1 .144.572 1.239 1.239 0 0 1-.1.5 1.138 1.138 0 0 1-.288.4 1.12 1.12 0 0 1-.429.24l.818 1.459h-.612l-.783-1.411H.331V3.03H-.2v-3.7z" transform="translate(31.437 55.951)" style="fill:#b79a61"/>
                </g>
            </g>
            <g data-name="Group 5392">
                <path data-name="Path 15922" d="M0 0v3.7h2.58v-.5H.53V2.05H2.4v-.506H.53V.5h2.05V0z" style="fill:#b79a61" transform="translate(92.152 120.748)"/>
            </g>
            <g data-name="Group 5396" transform="translate(55 65.467)" style="clip-path:url(#8ge5zwvugb)">
                <g data-name="Group 5393">
                    <path data-name="Path 15923" d="M1.524.736a.814.814 0 0 0-.167-.383.739.739 0 0 0-.33-.237 1.354 1.354 0 0 0-.488-.08A1.37 1.37 0 0 0 .1.1a.616.616 0 0 0-.29.194.488.488 0 0 0-.11.317.442.442 0 0 0 .142.344.818.818 0 0 0 .341.178 5.523 5.523 0 0 0 .564.112 5.7 5.7 0 0 1 .716.152 1.059 1.059 0 0 1 .466.288.818.818 0 0 1 .192.578 1.082 1.082 0 0 1-.181.626 1.165 1.165 0 0 1-.5.4 1.832 1.832 0 0 1-.74.139 1.968 1.968 0 0 1-.767-.144 1.438 1.438 0 0 1-.57-.418 1.3 1.3 0 0 1-.285-.639l.538-.1a.969.969 0 0 0 .194.455.906.906 0 0 0 .39.276 1.425 1.425 0 0 0 .53.093 1.292 1.292 0 0 0 .453-.072.688.688 0 0 0 .3-.21.509.509 0 0 0 .106-.327A.426.426 0 0 0 1.447 2a.849.849 0 0 0-.341-.178 7.15 7.15 0 0 0-.559-.114 5.474 5.474 0 0 1-.721-.162 1.029 1.029 0 0 1-.466-.3.823.823 0 0 1-.194-.581A1.023 1.023 0 0 1-.653.052a1.115 1.115 0 0 1 .5-.373 2 2 0 0 1 .724-.122 1.859 1.859 0 0 1 .729.13 1.219 1.219 0 0 1 .5.37 1.272 1.272 0 0 1 .242.564z" transform="translate(43.346 55.639)" style="fill:#b79a61"/>
                </g>
                <g data-name="Group 5394">
                    <path data-name="Path 15924" d="M.715.421a1.135 1.135 0 0 0-.447.492 1.71 1.71 0 0 0-.16.769 1.714 1.714 0 0 0 .16.772 1.135 1.135 0 0 0 .447.493 1.307 1.307 0 0 0 .671.168 1.324 1.324 0 0 0 .674-.168 1.129 1.129 0 0 0 .44-.492 1.751 1.751 0 0 0 .157-.772A1.747 1.747 0 0 0 2.5.913a1.129 1.129 0 0 0-.441-.492 1.324 1.324 0 0 0-.673-.168 1.307 1.307 0 0 0-.671.168m1.629-.44a1.607 1.607 0 0 1 .634.671A2.243 2.243 0 0 1 3.2 1.683a2.247 2.247 0 0 1-.221 1.033 1.607 1.607 0 0 1-.634.671 1.921 1.921 0 0 1-.958.232 1.921 1.921 0 0 1-.958-.232 1.607 1.607 0 0 1-.634-.671A2.247 2.247 0 0 1-.43 1.683 2.243 2.243 0 0 1-.206.652a1.607 1.607 0 0 1 .633-.671 1.922 1.922 0 0 1 .958-.234 1.922 1.922 0 0 1 .958.234" transform="translate(48.624 55.447)" style="fill:#b79a61"/>
                </g>
                <g data-name="Group 5395">
                    <path data-name="Path 15925" d="M.331 1.115h1.187a.809.809 0 0 0 .367-.083A.591.591 0 0 0 2.144.8a.624.624 0 0 0 .093-.345.6.6 0 0 0-.088-.327.613.613 0 0 0-.24-.218.778.778 0 0 0-.346-.077H.331zm1.3-1.786a1.231 1.231 0 0 1 .594.141 1.023 1.023 0 0 1 .407.389 1.135 1.135 0 0 1 .144.572 1.239 1.239 0 0 1-.1.5 1.138 1.138 0 0 1-.288.4 1.12 1.12 0 0 1-.429.24l.818 1.459h-.612l-.78-1.411H.331V3.03H-.2v-3.7z" transform="translate(54.939 55.951)" style="fill:#b79a61"/>
                </g>
            </g>
            <g data-name="Group 5397">
                <path data-name="Path 15927" d="M0 0v.5h1.39v3.2h.53V.5h1.392V0z" style="fill:#b79a61" transform="translate(115.327 120.748)"/>
            </g>
            <g data-name="Group 5401" transform="translate(55 65.467)" style="clip-path:url(#8ge5zwvugb)">
                <g data-name="Group 5398">
                    <path data-name="Path 15928" d="M2.44 4.882A3.91 3.91 0 1 0-1.468.971 3.91 3.91 0 0 0 2.44 4.882" transform="translate(38.95 3.031)" style="fill:#b79a61"/>
                </g>
                <g data-name="Group 5399">
                    <path data-name="Path 15929" d="M17.6 3.845c-6.243-6.768-17.38-7.2-26.573-4.9l-1.617 7.024c8.133-2.292 18.021-3.474 25.439.458a11.336 11.336 0 0 1 .785 4.64c-.511 8.967-9.371 15.338-18.714 13.757C-2.6 22.779-.175 13.168.6 8.613c.072-.437.12-.876.149-1.283l-7.138.836c-.572 4.72-2.915 13.716-3.288 15.6-.429 2.183-.958 4.084 1.209 5.247 5.452 2.921 15 .66 20-1.336C20.647 24.044 25.626 12.54 17.6 3.845" transform="translate(11.3 2.315)" style="fill:#b79a61"/>
                </g>
                <g data-name="Group 5400">
                    <path data-name="Path 15930" d="M58.007 5.993c-.49 4.345-2.519 12-3.384 15.665-.075.288-.149.591-.224.9a10.5 10.5 0 0 1-5.663 1.454c-1.549-.08-2.495-.506-2.335-1.667.309-2.385 3.176-12.305 3.653-17.164l-7.108.831c-.588 5.1-3.176 14.11-3.61 17.334-2.25.855-6.914 1.254-6.459-1.017C33.05 21 37.651 1.8 37.9.628a31.483 31.483 0 0 0 .675-4.228l-7.345.86a17.289 17.289 0 0 1-.258 1.882c-.277 1.419-4.425 19.909-5.128 24.185-2.231.868-6.965 1.289-6.507-1C19.507 21 24.108 1.8 24.363.628a31.916 31.916 0 0 0 .671-4.233l-7.345.86a17.992 17.992 0 0 1-.261 1.888C17.151.564 12.992 19.11 12.3 23.348c-2.252.852-6.909 1.249-6.454-1.02C6.153 19.946 9.012 10.1 9.491 5.2l-7.116.833C1.72 11.677-1.307 21.714-1.3 24.214c-.293 4.907 9.869 3.975 14 1.818 2.1 2.811 10.072 1.869 13.562.016 2.119 2.761 10.005 1.816 13.522-.013 1.661 2.212 6.645 2.026 10.165 1.166a16.2 16.2 0 0 0 3.584-1.3c-.043.136-.085.274-.13.407-.911 2.718-1.491 5.354-6 5.354-17.9.144-74.628.5-81.678.5l-.615 3.176s6.762-.237 13.187-.325c15.466-.2 67.8-.908 73.142-1.052 3.232-.088 6.259-.511 7.625-3.882.692-1.712 3.73-13.3 4.124-15.032a99.511 99.511 0 0 0 1.922-9.883z" transform="translate(34.894 4.434)" style="fill:#b79a61"/>
                </g>
            </g>
        </g>
    </g>
</svg>