<svg xmlns="http://www.w3.org/2000/svg" viewBox="45 35 120 120">
    <defs>
        <clipPath id="17yxwklsnb">
            <path data-name="Path 15860" d="M0 30.009h107.207V-18.6H0z" transform="translate(0 18.602)" style="fill:none"/>
        </clipPath>
        <filter id="izjtdwffka" x="0" y="0" width="210" height="210" filterUnits="userSpaceOnUse">
            <feOffset dy="10"/>
            <feGaussianBlur stdDeviation="15" result="blur"/>
            <feFlood flood-opacity=".302"/>
            <feComposite operator="in" in2="blur"/>
            <feComposite in="SourceGraphic"/>
        </filter>
    </defs>
    <g data-name="App Icon-Light">
        <g style="filter:url(#izjtdwffka)">
            <path data-name="Path 15409" d="M24 0h72a24 24 0 0 1 24 24v72a24 24 0 0 1-24 24H24A24 24 0 0 1 0 96V24A24 24 0 0 1 24 0z" transform="translate(45 35)" style="fill:#fff"/>
        </g>
        <g data-name="Group 5370">
            <g data-name="Group 5336" transform="translate(51.396 70.694)" style="clip-path:url(#17yxwklsnb)">
                <g data-name="Group 5335">
                    <path data-name="Path 15859" d="M6.909 0A11.194 11.194 0 1 0 18.1 11.192 11.192 11.192 0 0 0 6.909 0M.22 13.1c-1.043-.53-2.015-.489-2.336-2.164 0 0 .883 1.4 1.6.954.523-.321-.75-2.2-.9-3.376-.551-4.3 4.6-3.823 5.4-2.334 0 0-5.822-2.422-3.734 3.449.45 1.286 2.031 3.421 2.55 3.393s-.368-1.8.57-2.6a7.43 7.43 0 0 0 1.652 4.97c1.7 1.8 1.889 1.727 1.889 1.727s.193.068 1.889-1.727a7.43 7.43 0 0 0 1.652-4.97c.938.8.063 2.571.57 2.6s2.1-2.106 2.553-3.389c2.083-5.873-3.739-3.45-3.739-3.45.8-1.49 5.953-1.965 5.4 2.334-.152 1.181-1.422 3.055-.9 3.376.716.442 1.6-.954 1.6-.954-.321 1.675-1.294 1.633-2.336 2.164-1.26.643-6.69 6.915-6.69 6.915" transform="translate(46.782)" style="fill:#3e4748"/>
                </g>
            </g>
            <path data-name="Path 15861" d="M16.805-5.727h8.051v-1.7h-8.051z" transform="translate(78.506 107.317)" style="fill:#3e4748"/>
            <path data-name="Path 15862" d="M16.805-3.991h8.051V-5.7h-8.051z" transform="translate(78.506 110.118)" style="fill:#3e4748"/>
            <path data-name="Path 15863" d="M16.805-2.22h8.051v-1.7h-8.051z" transform="translate(78.506 112.975)" style="fill:#3e4748"/>
            <g data-name="Group 5337">
                <path data-name="Path 15864" d="M4.369 0v4.505H-.8V0h-1.908v10.837H-.8V6.269h5.169v4.568h1.9V0z" transform="translate(54.104 99.885)" style="fill:#3e4748"/>
            </g>
            <g data-name="Group 5341" transform="translate(51.396 70.694)" style="clip-path:url(#17yxwklsnb)">
                <g data-name="Group 5338">
                    <path data-name="Path 15865" d="M0 3.852v-6.24h1.905v6.162c0 2.012 1.037 3.1 2.741 3.1 1.686 0 2.723-1.022 2.723-3.018v-6.24h1.905v6.142C9.274 7 7.79 8.621 4.955 8.621 2.138 8.621 0 7 0 3.852" transform="translate(14.673 31.579)" style="fill:#3e4748"/>
                </g>
                <g data-name="Group 5339">
                    <path data-name="Path 15866" d="M0 0h4.863A3.911 3.911 0 0 1 7.7.959a2.436 2.436 0 0 1 .726 1.8v.029A2.582 2.582 0 0 1 6.875 5.2a2.655 2.655 0 0 1 2.151 2.634v.031c0 1.936-1.594 2.974-4.009 2.974H0zm4.474 4.568c1.223 0 2.044-.481 2.044-1.471v-.032c0-.852-.679-1.377-1.9-1.377H1.874v2.88zm.559 4.584c1.3 0 2.091-.512 2.091-1.487v-.032c0-.912-.729-1.456-2.232-1.456H1.874v2.974z" style="fill:#3e4748" transform="translate(29.657 29.192)"/>
                </g>
                <g data-name="Group 5340">
                    <path data-name="Path 15867" d="M0 0h4.832a4.357 4.357 0 0 1 3.125 1.084 3.267 3.267 0 0 1 .9 2.339v.029a3.249 3.249 0 0 1-2.585 3.282L9.2 10.84H6.951L4.288 7.061H1.905v3.779H0zm4.691 5.373c1.364 0 2.232-.711 2.232-1.811V3.53c0-1.16-.836-1.8-2.247-1.8H1.905v3.643z" style="fill:#3e4748" transform="translate(57.378 29.192)"/>
                </g>
            </g>
            <g data-name="Group 5342">
                <path data-name="Path 15869" d="M2.121 1.091h-3.436V-.676h8.793v1.767H4.042v9.073H2.121z" transform="translate(123.556 100.56)" style="fill:#3e4748"/>
            </g>
            <g data-name="Group 5345" transform="translate(51.396 70.694)" style="clip-path:url(#17yxwklsnb)">
                <g data-name="Group 5343">
                    <path data-name="Path 15870" d="M0 3.852v-6.24h1.905v6.162c0 2.012 1.037 3.1 2.741 3.1 1.686 0 2.723-1.022 2.723-3.018v-6.24h1.905v6.142C9.274 7 7.79 8.621 4.957 8.621S0 7 0 3.852" transform="translate(84.558 31.579)" style="fill:#3e4748"/>
                </g>
                <g data-name="Group 5344">
                    <path data-name="Path 15871" d="m0 5.811 1.145-1.362a5 5 0 0 0 3.423 1.409c1.176 0 1.921-.544 1.921-1.364v-.032c0-.774-.434-1.192-2.449-1.657C1.735 2.249.434 1.57.434-.43v-.031c0-1.855 1.547-3.141 3.7-3.141a6.007 6.007 0 0 1 3.933 1.361L7.045-.8A4.929 4.929 0 0 0 4.1-1.914c-1.113 0-1.764.572-1.764 1.283V-.6c0 .836.494 1.207 2.569 1.7 2.295.561 3.486 1.382 3.486 3.179v.029c0 2.03-1.252 3.238-3.528 3.238A7.558 7.558 0 0 1 0 5.811" transform="translate(98.814 32.64)" style="fill:#3e4748"/>
                </g>
            </g>
            <g data-name="Group 5346">
                <path data-name="Path 15873" d="M1.655 0 .631 1.594-.4 0h-.63v3.371h.583V.964L.61 2.543h.021L1.694.954v2.417h.591V0z" transform="translate(58.304 115.876)" style="fill:#3e4748"/>
            </g>
            <g data-name="Group 5349" transform="translate(51.396 70.694)" style="clip-path:url(#17yxwklsnb)">
                <g data-name="Group 5347">
                    <path data-name="Path 15874" d="M0 1.082v-.01A1.727 1.727 0 0 1 1.767-.671a1.714 1.714 0 0 1 1.758 1.735v.008a1.727 1.727 0 0 1-1.766 1.743A1.71 1.71 0 0 1 0 1.082m2.9 0v-.01a1.155 1.155 0 0 0-1.145-1.2A1.139 1.139 0 0 0 .622 1.064v.008a1.154 1.154 0 0 0 1.145 1.2A1.138 1.138 0 0 0 2.9 1.082" transform="translate(10.952 45.795)" style="fill:#3e4748"/>
                </g>
                <g data-name="Group 5348">
                    <path data-name="Path 15875" d="M0 1.2V-.743h.593v1.918c0 .625.321.962.852.962s.847-.316.847-.938V-.743h.593V1.17a1.348 1.348 0 0 1-1.45 1.513A1.33 1.33 0 0 1 0 1.2" transform="translate(16.177 45.924)" style="fill:#3e4748"/>
                </g>
            </g>
            <g data-name="Group 5350">
                <path data-name="Path 15877" d="M1.454 0v2.331L-.352 0H-.9v3.371h.583V.975l1.858 2.4h.5V0z" transform="translate(73.245 115.876)" style="fill:#3e4748"/>
            </g>
            <g data-name="Group 5351">
                <path data-name="Path 15878" d="M0 0v.551h1.069v2.82h.6V.551h1.067V0z" style="fill:#3e4748" transform="translate(76.886 115.876)"/>
            </g>
            <g data-name="Group 5352">
                <path data-name="Path 15879" d="M.915 0-.567 3.395h.606l.348-.815h1.594l.34.815h.627L1.466 0zm.267.708.583 1.348H.6z" transform="translate(81.108 115.852)" style="fill:#3e4748"/>
            </g>
            <path data-name="Path 15880" d="M13.109 2.058h.591v-3.371h-.593z" transform="translate(72.544 117.187)" style="fill:#3e4748"/>
            <g data-name="Group 5353">
                <path data-name="Path 15881" d="M1.454 0v2.331L-.352 0H-.9v3.371h.583V.975l1.858 2.4h.5V0z" transform="translate(89.083 115.876)" style="fill:#3e4748"/>
            </g>
            <g data-name="Group 5355" transform="translate(51.396 70.694)" style="clip-path:url(#17yxwklsnb)">
                <g data-name="Group 5354">
                    <path data-name="Path 15882" d="M0 0h1.5a1.358 1.358 0 0 1 .972.337 1.021 1.021 0 0 1 .28.726v.01a1.013 1.013 0 0 1-.8 1.022l.912 1.275h-.7L1.333 2.2h-.74v1.171H0zm1.458 1.67c.426 0 .7-.22.7-.562V1.1c0-.361-.261-.559-.7-.559H.593V1.67z" style="fill:#3e4748" transform="translate(44.056 45.182)"/>
                </g>
            </g>
            <g data-name="Group 5356">
                <path data-name="Path 15884" d="M0 0v3.371h2.524v-.53H.593v-.9h1.688v-.53H.593V.528H2.5V0z" style="fill:#3e4748" transform="translate(99.979 115.876)"/>
            </g>
            <g data-name="Group 5357">
                <path data-name="Path 15885" d="M0 0v3.371h.593V2h1.7v-.539h-1.7V.538h1.916V0z" style="fill:#3e4748" transform="translate(104.259 115.876)"/>
            </g>
            <g data-name="Group 5360" transform="translate(51.396 70.694)" style="clip-path:url(#17yxwklsnb)">
                <g data-name="Group 5358">
                    <path data-name="Path 15886" d="M0 1.2V-.743h.593v1.918c0 .625.321.962.852.962s.847-.316.847-.938V-.743h.593V1.17a1.348 1.348 0 0 1-1.45 1.513A1.33 1.33 0 0 1 0 1.2" transform="translate(56.961 45.924)" style="fill:#3e4748"/>
                </g>
                <g data-name="Group 5359">
                    <path data-name="Path 15887" d="M0 1.082v-.01A1.717 1.717 0 0 1 1.738-.671a1.827 1.827 0 0 1 1.3.457l-.38.45a1.316 1.316 0 0 0-.943-.363A1.141 1.141 0 0 0 .622 1.064v.008a1.125 1.125 0 0 0 1.145 1.2 1.383 1.383 0 0 0 .815-.256v-.63h-.863v-.51h1.435v1.416a2.159 2.159 0 0 1-1.406.523A1.671 1.671 0 0 1 0 1.082" transform="translate(61.545 45.795)" style="fill:#3e4748"/>
                </g>
            </g>
            <path data-name="Path 15889" d="M25.474 2.058h.593v-3.371h-.593z" transform="translate(92.491 117.187)" style="fill:#3e4748"/>
            <g data-name="Group 5362" transform="translate(51.396 70.694)" style="clip-path:url(#17yxwklsnb)">
                <g data-name="Group 5361">
                    <path data-name="Path 15890" d="M0 1.082v-.01A1.727 1.727 0 0 1 1.767-.671a1.714 1.714 0 0 1 1.758 1.735v.008a1.727 1.727 0 0 1-1.766 1.743A1.71 1.71 0 0 1 0 1.082m2.9 0v-.01a1.155 1.155 0 0 0-1.145-1.2A1.139 1.139 0 0 0 .622 1.064v.008a1.154 1.154 0 0 0 1.145 1.2A1.138 1.138 0 0 0 2.9 1.082" transform="translate(68.922 45.795)" style="fill:#3e4748"/>
                </g>
            </g>
            <g data-name="Group 5363">
                <path data-name="Path 15892" d="M.915 0-.567 3.395h.606l.348-.815h1.594l.34.815h.627L1.466 0zm.267.708.583 1.348H.6z" transform="translate(128.305 115.852)" style="fill:#3e4748"/>
            </g>
            <g data-name="Group 5364">
                <path data-name="Path 15893" d="M0 0v3.371h2.362v-.538H.593V0z" style="fill:#3e4748" transform="translate(132.833 115.876)"/>
            </g>
            <g data-name="Group 5365">
                <path data-name="Path 15894" d="M0 0v3.371h2.362v-.538H.593V0z" style="fill:#3e4748" transform="translate(136.796 115.876)"/>
            </g>
            <g data-name="Group 5367" transform="translate(51.396 70.694)" style="clip-path:url(#17yxwklsnb)">
                <g data-name="Group 5366">
                    <path data-name="Path 15895" d="M0 1.082v-.01A1.717 1.717 0 0 1 1.738-.671a1.827 1.827 0 0 1 1.3.457l-.38.45a1.316 1.316 0 0 0-.943-.363A1.141 1.141 0 0 0 .622 1.064v.008a1.125 1.125 0 0 0 1.145 1.2 1.383 1.383 0 0 0 .815-.256v-.63h-.863v-.51h1.435v1.416a2.159 2.159 0 0 1-1.406.523A1.671 1.671 0 0 1 0 1.082" transform="translate(89.126 45.795)" style="fill:#3e4748"/>
                </g>
            </g>
            <path data-name="Path 15897" d="M37.807-1.069h.593v-.567h-.593zm0-.567-.959.567h.593v-.567h-.593zm0-.567.5.823-2.439 3.959h.606l.345-.813h1.594l.342.813h.625L37.9-.813zm.264.708.129 2.736h-1.164z" transform="translate(109.259 116.666)" style="fill:#3e4748"/>
            <g data-name="Group 5369" transform="translate(51.396 70.694)" style="clip-path:url(#17yxwklsnb)">
                <g data-name="Group 5368">
                    <path data-name="Path 15898" d="M0 1.2V-.743h.593v1.918c0 .625.321.962.852.962s.847-.316.847-.938V-.743h.593V1.17a1.348 1.348 0 0 1-1.45 1.513A1.33 1.33 0 0 1 0 1.2" transform="translate(98.617 45.924)" style="fill:#3e4748"/>
                </g>
            </g>
        </g>
    </g>
</svg>