<svg xmlns="http://www.w3.org/2000/svg" width="50" height="50" viewBox="0 0 50 50">
    <g transform="translate(-350 -6175)">
        <circle data-name="Ellipse 22" cx="25" cy="25" r="25" transform="translate(350 6175)" style="fill:#edf0ec"/>
        <path data-name="Path 1225" d="M57.5 40H40.833a.833.833 0 0 0-.833.833V57.5a.833.833 0 0 0 .833.833H57.5a.833.833 0 0 0 .833-.833V40.833A.833.833 0 0 0 57.5 40zM45 55a1.667 1.667 0 1 1 1.667-1.667A1.667 1.667 0 0 1 45 55zm8.333-6.667A1.667 1.667 0 1 1 55 46.667a1.667 1.667 0 0 1-1.667 1.666z" transform="translate(325.833 6150.833)" style="fill:#92e3ca"/>
        <path data-name="Path 1226" d="M383.333 6190h-16.666a1.667 1.667 0 0 0-1.667 1.667v16.666a1.667 1.667 0 0 0 1.667 1.667h16.666a1.667 1.667 0 0 0 1.667-1.667v-16.666a1.667 1.667 0 0 0-1.667-1.667zm-12.5 13.333a.833.833 0 1 1-.833.833.833.833 0 0 1 .833-.833zm-4.166-11.666H370v10.143a2.5 2.5 0 1 0 1.667 0v-3.132l5 5v4.655h-10zm16.666 16.666h-5v-5a.833.833 0 0 0-.244-.59l-6.423-6.422v-4.654H375v2.5a.833.833 0 0 0 .244.59l1.667 1.667a2.473 2.473 0 0 0-.244 1.077 2.5 2.5 0 1 0 2.5-2.5 2.473 2.473 0 0 0-1.077.245l-1.423-1.423v-2.156h6.667zm-4.166-11.666a.833.833 0 1 1-.833.833.833.833 0 0 1 .833-.833z"/>
    </g>
</svg>
