<svg xmlns="http://www.w3.org/2000/svg" width="50" height="50" viewBox="0 0 50 50">
    <g transform="translate(-350 -6175)">
        <circle data-name="Ellipse 22" cx="25" cy="25" r="25" transform="translate(350 6175)" style="fill:#edf0ec"/>
        <path data-name="Path 15410" d="M50.462 41.231A9.231 9.231 0 1 1 41.231 32a9.231 9.231 0 0 1 9.231 9.231z" transform="translate(333.769 6158.734)" style="fill:#92e3ca"/>
        <path data-name="Path 15411" d="M375 6189.965a10 10 0 1 0 10 10 10 10 0 0 0-10-10zm0 18.462a8.462 8.462 0 1 1 8.462-8.462 8.462 8.462 0 0 1-8.462 8.462zm6.154-8.462a.769.769 0 0 1-.769.769H375a.769.769 0 0 1-.769-.769v-5.385a.769.769 0 0 1 1.538 0v4.615h4.615a.769.769 0 0 1 .77.77z"/>
    </g>
</svg>
