<svg xmlns="http://www.w3.org/2000/svg" width="50" height="50" viewBox="0 0 50 50">
    <g transform="translate(-350 -6175)">
        <circle data-name="Ellipse 22" cx="25" cy="25" r="25" transform="translate(350 6175)" style="fill:#edf0ec"/>
        <path data-name="Path 15420" d="M41.455 57.545c0 2.259-4.07 4.091-9.091 4.091a16.887 16.887 0 0 1-5.849-.959c4.344-.308 7.667-2 7.667-4.041v-3.1c4.15.38 7.273 2.03 7.273 4.009zm-7.273-5.455c0-2.259-4.07-4.091-9.091-4.091S16 49.832 16 52.091s4.07 4.091 9.091 4.091 9.091-1.832 9.091-4.091z" transform="translate(345.909 6142.909)" style="fill:#92e3ca"/>
        <path data-name="Path 15421" d="M381 6195.633V6195c0-2.85-4.3-5-10-5s-10 2.15-10 5v4.545c0 2.374 2.983 4.26 7.273 4.825v.63c0 2.85 4.3 5 10 5s10-2.15 10-5v-4.545c0-2.355-2.889-4.241-7.273-4.822zm5.455 4.822c0 1.5-3.5 3.182-8.182 3.182-.424 0-.844-.015-1.259-.042 2.451-.895 3.986-2.345 3.986-4.05v-2.075c3.394.506 5.455 1.879 5.455 2.985zm-18.182 2.073v-2.7a21.339 21.339 0 0 0 5.455 0v2.7a18.8 18.8 0 0 1-5.455 0zm10.909-4.582v1.6c0 .953-1.41 1.977-3.636 2.6v-2.657a10.694 10.694 0 0 0 3.636-1.542zm-8.182-6.128c4.683 0 8.182 1.68 8.182 3.182s-3.5 3.182-8.182 3.182-8.182-1.682-8.182-3.182 3.499-3.182 8.182-3.182zm-8.182 7.727v-1.6a10.694 10.694 0 0 0 3.636 1.542v2.656c-2.226-.62-3.636-1.643-3.636-2.598zm7.273 5.455v-.474a21.847 21.847 0 0 0 2.203-.021 13.853 13.853 0 0 0 1.433.427v2.668c-2.227-.623-3.636-1.647-3.636-2.6zm5.455 2.983v-2.71a20.4 20.4 0 0 0 2.727.182 20.878 20.878 0 0 0 2.727-.175v2.7a18.8 18.8 0 0 1-5.455 0zm7.273-.384v-2.656a10.694 10.694 0 0 0 3.636-1.543v1.6c0 .953-1.411 1.977-3.637 2.6z"/>
    </g>
</svg>
