<svg xmlns="http://www.w3.org/2000/svg" width="233" height="9.41" viewBox="0 0 233 9.41">
  <path id="Underline" d="M222.06,1.487c1.367.087,2.742.146,4.109.262.714.058,1.42.124,2.133.182a21.922,21.922,0,0,1,3.091.415,1.848,1.848,0,0,1,1.532,2.26,1.972,1.972,0,0,1-1.01,1.1,2.725,2.725,0,0,1-1.688.182c-.236-.044-.462-.08-.7-.109-1.5-.138-3-.233-4.509-.321-1.4-.087-2.8-.175-4.2-.248q-8.28-.426-16.577-.795c-1.88-.087-3.752-.2-5.632-.248l-7.949-.2-10.6-.262c-1.262-.036-2.524-.08-3.787-.08q-9.584-.022-19.188-.036c-3.76-.007-7.513.022-11.274.058l-18.075.153c-1.158.007-2.325.044-3.482.066-3.265.066-6.52.124-9.786.19q-8.762.164-17.525.335c-1.106.022-2.2.066-3.309.1q-4.923.153-9.838.313-8.11.251-16.228.518c-1.41.051-2.812.131-4.222.2Q58.24,5.766,53.134,6q-8.188.383-16.376.758c-1.419.066-2.83.2-4.24.3l-10.5.744c-3.213.226-6.416.459-9.629.685-3.456.248-6.9.59-10.36.918a2.144,2.144,0,0,1-1.437-.5A1.606,1.606,0,0,1,0,7.7a1.58,1.58,0,0,1,.592-1.2,2.154,2.154,0,0,1,.9-.437c.183-.015.357-.036.54-.058,2.864-.27,5.72-.59,8.593-.795l4.31-.306L34.877,3.492c3.561-.255,7.13-.379,10.7-.547q10.016-.47,20.033-.933c3.526-.168,7.061-.262,10.587-.379q9.69-.317,19.371-.641c3.752-.124,7.5-.168,11.249-.248q9.716-.2,19.423-.4c4-.087,8-.1,12.006-.146Q143.56.142,148.884.08c1.437-.015,2.864-.044,4.3-.044q9.024,0,18.057-.015C172.565.015,173.889,0,175.212,0c.592,0,1.176.007,1.767.015,2.029.036,4.066.087,6.095.131q5.471.12,10.944.233c1.68.036,3.369.036,5.049.109,5.094.211,10.187.394,15.279.641,2.568.124,5.146.219,7.714.357Z" transform="translate(0 0)" fill="#1954d3"/>
</svg>
