<svg xmlns="http://www.w3.org/2000/svg" width="119.5" height="81.724" viewBox="0 0 119.5 81.724">
  <defs>
    <style>
      .cls-1 {
        fill: #edf0ec;
      }

      .cls-2 {
        fill: #040407;
      }

      .cls-2, .cls-4 {
        stroke: rgba(0,0,0,0);
        stroke-miterlimit: 10;
      }

      .cls-3, .cls-4 {
        fill: #fff;
      }
    </style>
  </defs>
  <g id="Group_5628" data-name="Group 5628" transform="translate(-379.5 5.319)">
    <g id="G_Icon" data-name="G Icon" transform="translate(420 -5.319)">
      <g id="Group_4715" data-name="Group 4715" transform="translate(0 0)">
        <path id="Path_1218" data-name="Path 1218" class="cls-1" d="M20,40h0A20,20,0,1,1,40,20,20,20,0,0,1,20,40"/>
        <path id="Union_10" data-name="Union 10" class="cls-2" d="M16.922,17.358l3.846-2.6V21.2l-3.846,2.6Zm-5.439,5.606A11.482,11.482,0,1,1,22.032,6.945L18.483,8.473a7.619,7.619,0,1,0-7,10.628h2.868v3.864Zm5.439-8.209H9.386V10.949H20.768v3.807Z" transform="translate(8.984 8.096)"/>
      </g>
    </g>
    <g id="Logo_Guestnet" data-name="Logo Guestnet" transform="translate(-1065.999 -432.304)">
      <g id="Group_4681" data-name="Group 4681" transform="translate(1445.999 484.203)">
        <g id="Group_4672" data-name="Group 4672" transform="translate(23.407 4.082)">
          <path id="Path_1173" data-name="Path 1173" class="cls-3" d="M341.342,322.178h-3.576v8.879c0,1.973-1.079,3.36-3.145,3.36-2.158,0-3.021-1.572-3.021-3.422v-8.817h-3.576v9.465c0,3.33,2.1,5.981,5.673,5.981a4.8,4.8,0,0,0,4.255-2.1,11.182,11.182,0,0,0,.123,1.665H341.5a24.459,24.459,0,0,1-.154-2.744Z" transform="translate(-328.024 -318.846)"/>
          <path id="Path_1174" data-name="Path 1174" class="cls-3" d="M447.3,327.108l-2.281-.462a1.649,1.649,0,0,1-1.511-1.572,1.953,1.953,0,0,1,2.158-1.726,2.579,2.579,0,0,1,2.775,2.251l3.021-.863c-.247-1.48-1.6-4.193-5.8-4.193-3.114,0-5.518,2.22-5.518,4.84,0,2.065,1.387,3.792,4.039,4.378l2.22.493c1.2.247,1.757.863,1.757,1.665,0,.925-.771,1.726-2.25,1.726a2.812,2.812,0,0,1-3.052-2.559l-3.114.863c.185,1.7,1.85,4.532,6.2,4.532,3.823,0,5.673-2.528,5.673-4.809C451.613,329.45,450.133,327.724,447.3,327.108Z" transform="translate(-408.188 -317.671)"/>
          <path id="Path_1175" data-name="Path 1175" class="cls-3" d="M533.228,320.65a4.985,4.985,0,0,0-4.439,2.435v-2H525.3V336.1h3.576v-8.663c0-1.973,1.079-3.545,3.114-3.545,2.251,0,3.083,1.48,3.083,3.33V336.1h3.576v-9.5C538.654,323.3,536.9,320.65,533.228,320.65Z" transform="translate(-469.582 -317.749)"/>
          <path id="Path_1176" data-name="Path 1176" class="cls-3" d="M389.966,320.541c-3.792,0-7.307,3.145-7.307,7.892,0,5.087,3.607,8.047,7.677,8.047a6.763,6.763,0,0,0,6.782-4.748l-3.021-.956a3.621,3.621,0,0,1-3.761,2.621c-2.232,0-3.629-1.934-4-3.915H397.21a5.275,5.275,0,0,0,.093-1.141C397.3,323.593,394.59,320.541,389.966,320.541Zm-3.563,6.32c.45-2.013,1.781-3.33,3.594-3.33a3.363,3.363,0,0,1,3.7,3.33Z" transform="translate(-367.227 -317.671)"/>
          <path id="Path_1177" data-name="Path 1177" class="cls-3" d="M587.029,320.541c-3.792,0-7.307,3.145-7.307,7.892,0,5.087,3.607,8.047,7.677,8.047a6.763,6.763,0,0,0,6.782-4.748l-3.021-.956A3.622,3.622,0,0,1,587.4,333.4c-2.232,0-3.629-1.934-4-3.915h10.875a5.287,5.287,0,0,0,.093-1.141C594.366,323.593,591.653,320.541,587.029,320.541Zm-3.563,6.32c.45-2.013,1.781-3.33,3.594-3.33a3.363,3.363,0,0,1,3.7,3.33Z" transform="translate(-508.628 -317.671)"/>
          <path id="Path_1178" data-name="Path 1178" class="cls-3" d="M492.472,310.381h-3.545v14.8a3.545,3.545,0,0,0,3.545,3.545h4.375v-3.386h-4.375v-8.453h4.375v-3.175h-4.375Z" transform="translate(-443.479 -310.381)"/>
          <path id="Path_1179" data-name="Path 1179" class="cls-3" d="M641.964,322.22v-5.331h4.375v-3.175h-4.375v-3.332h-3.545v14.8a3.545,3.545,0,0,0,3.545,3.545h4.375v-3.386h-4.375V322.22Z" transform="translate(-550.746 -310.381)"/>
        </g>
        <g id="G" transform="translate(0)">
          <path id="Union_8" data-name="Union 8" class="cls-4" d="M16.749,17.181,20.557,14.6H9.291V10.837H20.557V20.989l-3.808,2.576Zm-5.384,5.55A11.365,11.365,0,1,1,21.808,6.875L18.294,8.387a7.541,7.541,0,1,0-6.93,10.519H14.2v3.825Z"/>
        </g>
      </g>
    </g>
  </g>
</svg>
