<svg xmlns="http://www.w3.org/2000/svg" xmlns:xlink="http://www.w3.org/1999/xlink" width="768" height="772" viewBox="0 0 768 772">
  <defs>
    <filter id="Ellipse_15" x="236" y="440" width="332" height="332" filterUnits="userSpaceOnUse">
      <feOffset dx="6" dy="6" input="SourceAlpha"/>
      <feGaussianBlur stdDeviation="42" result="blur"/>
      <feFlood flood-opacity="0.102"/>
      <feComposite operator="in" in2="blur"/>
      <feComposite in="SourceGraphic"/>
    </filter>
    <filter id="Ellipse_16" x="127" y="125.723" width="294" height="294" filterUnits="userSpaceOnUse">
      <feOffset dx="6" dy="6" input="SourceAlpha"/>
      <feGaussianBlur stdDeviation="42" result="blur-2"/>
      <feFlood flood-opacity="0.102"/>
      <feComposite operator="in" in2="blur-2"/>
      <feComposite in="SourceGraphic"/>
    </filter>
    <filter id="Ellipse_17" x="127" y="355" width="294" height="294" filterUnits="userSpaceOnUse">
      <feOffset dx="6" dy="6" input="SourceAlpha"/>
      <feGaussianBlur stdDeviation="42" result="blur-3"/>
      <feFlood flood-opacity="0.102"/>
      <feComposite operator="in" in2="blur-3"/>
      <feComposite in="SourceGraphic"/>
    </filter>
    <filter id="Ellipse_18" x="345" y="125.723" width="294" height="294" filterUnits="userSpaceOnUse">
      <feOffset dx="6" dy="6" input="SourceAlpha"/>
      <feGaussianBlur stdDeviation="42" result="blur-4"/>
      <feFlood flood-opacity="0.102"/>
      <feComposite operator="in" in2="blur-4"/>
      <feComposite in="SourceGraphic"/>
    </filter>
    <filter id="Ellipse_19" x="357" y="342.723" width="294" height="294" filterUnits="userSpaceOnUse">
      <feOffset dx="6" dy="6" input="SourceAlpha"/>
      <feGaussianBlur stdDeviation="42" result="blur-5"/>
      <feFlood flood-opacity="0.102"/>
      <feComposite operator="in" in2="blur-5"/>
      <feComposite in="SourceGraphic"/>
    </filter>
    <clipPath id="clip-path">
      <path id="Path_15449" data-name="Path 15449" d="M0,7.416H5.254V-6.908H0Z" transform="translate(0 6.908)" fill="none"/>
    </clipPath>
    <filter id="Ellipse_6" x="236" y="440" width="332" height="332" filterUnits="userSpaceOnUse">
      <feOffset dx="6" dy="6" input="SourceAlpha"/>
      <feGaussianBlur stdDeviation="42" result="blur-6"/>
      <feFlood flood-opacity="0.102"/>
      <feComposite operator="in" in2="blur-6"/>
      <feComposite in="SourceGraphic"/>
    </filter>
    <filter id="Ellipse_7" x="0" y="220" width="332" height="332" filterUnits="userSpaceOnUse">
      <feOffset dx="6" dy="6" input="SourceAlpha"/>
      <feGaussianBlur stdDeviation="42" result="blur-7"/>
      <feFlood flood-opacity="0.102"/>
      <feComposite operator="in" in2="blur-7"/>
      <feComposite in="SourceGraphic"/>
    </filter>
    <filter id="Ellipse_8" x="220" y="0" width="332" height="332" filterUnits="userSpaceOnUse">
      <feOffset dx="6" dy="6" input="SourceAlpha"/>
      <feGaussianBlur stdDeviation="42" result="blur-8"/>
      <feFlood flood-opacity="0.102"/>
      <feComposite operator="in" in2="blur-8"/>
      <feComposite in="SourceGraphic"/>
    </filter>
    <filter id="Ellipse_9" x="436" y="208.723" width="332" height="332" filterUnits="userSpaceOnUse">
      <feOffset dx="6" dy="6" input="SourceAlpha"/>
      <feGaussianBlur stdDeviation="42" result="blur-9"/>
      <feFlood flood-opacity="0.102"/>
      <feComposite operator="in" in2="blur-9"/>
      <feComposite in="SourceGraphic"/>
    </filter>
    <clipPath id="clip-path-2">
      <path id="Path_15424" data-name="Path 15424" d="M0,20.15H10v-30H0Z" transform="translate(0 9.85)" fill="#edf0ec"/>
    </clipPath>
    <filter id="Ellipse_20" x="194" y="196.723" width="377" height="377" filterUnits="userSpaceOnUse">
      <feOffset dx="6" dy="6" input="SourceAlpha"/>
      <feGaussianBlur stdDeviation="42" result="blur-10"/>
      <feFlood flood-opacity="0.102"/>
      <feComposite operator="in" in2="blur-10"/>
      <feComposite in="SourceGraphic"/>
    </filter>
  </defs>
  <g id="Group_5622" data-name="Group 5622" transform="translate(-582 -168.184)">
    <g id="Partner" transform="translate(702 288.184)">
      <g id="Group_3" data-name="Group 3" transform="translate(-1084 -5799)">
        <g id="Group_5563" data-name="Group 5563">
          <g id="Ellipse_1" data-name="Ellipse 1" transform="translate(1120 5839)" fill="none" stroke="#040407" stroke-width="2">
            <circle cx="220" cy="220" r="220" stroke="none"/>
            <circle cx="220" cy="220" r="219" fill="none"/>
          </g>
        </g>
        <g transform="matrix(1, 0, 0, 1, 964, 5679)" filter="url(#Ellipse_15)">
          <circle id="Ellipse_15-2" data-name="Ellipse 15" cx="40" cy="40" r="40" transform="translate(356 560)" fill="#fff"/>
        </g>
        <g id="Group_6" data-name="Group 6">
          <g id="Group_5" data-name="Group 5">
            <g id="Ellipse_10" data-name="Ellipse 10" transform="translate(1181 5899)" fill="none" stroke="#040407" stroke-width="2">
              <circle cx="160" cy="160" r="160" stroke="none"/>
              <circle cx="160" cy="160" r="159" fill="none"/>
            </g>
          </g>
          <g transform="matrix(1, 0, 0, 1, 964, 5679)" filter="url(#Ellipse_16)">
            <circle id="Ellipse_16-2" data-name="Ellipse 16" cx="21" cy="21" r="21" transform="translate(247 245.72)" fill="#fff"/>
          </g>
          <g transform="matrix(1, 0, 0, 1, 964, 5679)" filter="url(#Ellipse_17)">
            <circle id="Ellipse_17-2" data-name="Ellipse 17" cx="21" cy="21" r="21" transform="translate(247 475)" fill="#fff"/>
          </g>
          <g transform="matrix(1, 0, 0, 1, 964, 5679)" filter="url(#Ellipse_18)">
            <circle id="Ellipse_18-2" data-name="Ellipse 18" cx="21" cy="21" r="21" transform="translate(465 245.72)" fill="#fff"/>
          </g>
          <g transform="matrix(1, 0, 0, 1, 964, 5679)" filter="url(#Ellipse_19)">
            <circle id="Ellipse_19-2" data-name="Ellipse 19" cx="21" cy="21" r="21" transform="translate(477 462.72)" fill="#fff"/>
          </g>
          <g id="Group_4937" data-name="Group 4937">
            <circle id="Ellipse_49" data-name="Ellipse 49" cx="15" cy="15" r="15" transform="translate(1217 5930.723)" fill="#fff13b"/>
            <g id="Group_4936" data-name="Group 4936" transform="translate(1229.373 5945.469)">
              <g id="Group_4935" data-name="Group 4935" transform="translate(0 -6.908)" clip-path="url(#clip-path)">
                <g id="Group_4933" data-name="Group 4933" transform="translate(0.001 0.001)">
                  <path id="Path_15447" data-name="Path 15447" d="M1.159,0C1.118.015.983.05.861.079a2.739,2.739,0,0,0-1.19.7A2.63,2.63,0,0,0-.887,3.6a2.244,2.244,0,0,0,.564.852,2.557,2.557,0,0,0,2.654.678A2.517,2.517,0,0,0,3.421,4.45a2.477,2.477,0,0,0,.746-1.829A2.459,2.459,0,0,0,3.421.792,2.483,2.483,0,0,0,1.63,0a3.755,3.755,0,0,0-.471,0" transform="translate(1.08 0.004)" fill="#04060a"/>
                </g>
                <g id="Group_4934" data-name="Group 4934" transform="translate(0.019 9.084)">
                  <path id="Path_15448" data-name="Path 15448" d="M1.071.021A2.656,2.656,0,0,0-.9,1.8a1.908,1.908,0,0,0-.1.784,2.469,2.469,0,0,0,.068.717A2.688,2.688,0,0,0,1,5.155a3.438,3.438,0,0,0,.626.064A2.624,2.624,0,0,0,4.144,1.9,2.677,2.677,0,0,0,2.372.077a3.271,3.271,0,0,0-1.3-.056" transform="translate(0.998 0.02)" fill="#04060a"/>
                </g>
              </g>
            </g>
          </g>
          <g id="Group_4953" data-name="Group 4953" transform="translate(218)">
            <circle id="Ellipse_49-2" data-name="Ellipse 49" cx="15" cy="15" r="15" transform="translate(1217 5930.723)" fill="#005cf9"/>
            <g id="Group_4954" data-name="Group 4954" transform="translate(115.203 -103.33)">
              <g id="Group_4898" data-name="Group 4898" transform="translate(1106.628 6041.308)">
                <g id="Group_4896" data-name="Group 4896" transform="translate(0 0)">
                  <path id="Path_15425" data-name="Path 15425" d="M-.123-.06-9.91-9.8a.4.4,0,0,0-.278-.139.4.4,0,0,0-.278.139L-20.252-.013a.423.423,0,0,0,0,.557l4.869,4.869a.4.4,0,0,0,.278.139.4.4,0,0,0,.278-.139L-10.188.775l4.639,4.638a.4.4,0,0,0,.278.139.4.4,0,0,0,.278-.139L-.123.543a.488.488,0,0,0,0-.6m-10.065-9,4.406,4.406L-10.188-.246l-4.405-4.405ZM-15.1,4.624-19.51.218-15.1-4.188-10.7.218Zm9.833,0L-9.677.218l4.406-4.406L-.866.218Z" transform="translate(20.356 9.939)" fill="#04060a" stroke="#fff" stroke-width="1"/>
                </g>
                <path id="Path_15426" data-name="Path 15426" d="M0-.094H20.337V-15.585H0Z" transform="translate(0 15.585)" fill="none"/>
              </g>
            </g>
          </g>
          <g id="Group_4968" data-name="Group 4968">
            <g id="Group_4938" data-name="Group 4938" transform="translate(0 229)">
              <circle id="Ellipse_49-3" data-name="Ellipse 49" cx="15" cy="15" r="15" transform="translate(1217 5930.723)" fill="#3489bf"/>
            </g>
            <g id="Group_4957" data-name="Group 4957" transform="translate(1210.589 6189.587)">
              <g id="Group_4965" data-name="Group 4965" transform="translate(11.247 -20.056)">
                <path id="Path_15480" data-name="Path 15480" d="M3,2.04c-.459.674-.917,1.09-1.118,1.09-.316,0-.345-.388-.388-.6A52.775,52.775,0,0,0-.93-7.006C-2.436-4.081-5.117.162-6.378,2.026c-.459.673-.917,1.09-1.119,1.09-.316,0-.359-.388-.386-.6-.746-4.659-1.276-7.97-1.735-10.15a10.13,10.13,0,0,0-1.605,5.463A10.165,10.165,0,0,0-1.059,7.989,10.165,10.165,0,0,0,9.105-2.174,10.26,10.26,0,0,0,7.987-6.806,45.456,45.456,0,0,1,3,2.04" transform="translate(11.223 7.637)" fill="#fff"/>
              </g>
              <g id="Group_4966" data-name="Group 4966" transform="translate(23.332 -24.572)">
                <path id="Path_15481" data-name="Path 15481" d="M.139.345C.985,3.3,2.532,8.359,2.677,9.2a22.588,22.588,0,0,0,3-6.594A10.19,10.19,0,0,0-.52-1.29,8.732,8.732,0,0,1,.139.345" transform="translate(0.52 1.29)" fill="#fff"/>
              </g>
              <g id="Group_4967" data-name="Group 4967" transform="translate(15.847 -24.744)">
                <path id="Path_15482" data-name="Path 15482" d="M.314,2.182A38.216,38.216,0,0,0,4.988-7.309a4.269,4.269,0,0,1,.272-.817c-.3-.028-.6-.043-.9-.043A10.137,10.137,0,0,0-1.177-6.52a64.417,64.417,0,0,1,1.491,8.7" transform="translate(1.177 8.169)" fill="#fff"/>
              </g>
            </g>
          </g>
          <g id="Group_4969" data-name="Group 4969" transform="translate(232 217.228)">
            <g id="Group_4975" data-name="Group 4975" transform="translate(1215 5959.926)">
              <g id="Group_4970" data-name="Group 4970" transform="translate(0 -29.432)">
                <path id="Path_15483" data-name="Path 15483" d="M.569.284a15,15,0,0,1-15,15,15,15,0,0,1-15-15,15,15,0,0,1,15-15,15,15,0,0,1,15,15" transform="translate(29.431 14.716)" fill="#77b436"/>
              </g>
              <g id="Group_4971" data-name="Group 4971" transform="translate(10.719 -26.651)">
                <path id="Path_15484" data-name="Path 15484" d="M-.157,0A4.279,4.279,0,0,0-4.436,4.279,4.279,4.279,0,0,0-.157,8.558,4.279,4.279,0,0,0,4.122,4.279,4.279,4.279,0,0,0-.157,0m2.7,3.846-1.1,1.068.259,1.509a.352.352,0,0,1-.14.343.345.345,0,0,1-.206.068A.355.355,0,0,1,1.2,6.793L-.157,6.081l-1.355.712a.349.349,0,0,1-.163.041.343.343,0,0,1-.206-.068.352.352,0,0,1-.14-.343l.259-1.509-1.1-1.068a.351.351,0,0,1-.089-.361.349.349,0,0,1,.284-.239l1.514-.22.677-1.373a.353.353,0,0,1,.315-.2.353.353,0,0,1,.315.2L.836,3.026l1.514.22a.352.352,0,0,1,.195.6" transform="translate(4.436)" fill="#fff"/>
              </g>
              <g id="Group_4972" data-name="Group 4972" transform="translate(3.61 -14.767)">
                <path id="Path_15485" data-name="Path 15485" d="M.664-.245H.723A4.207,4.207,0,0,0,1.975-.39a1.348,1.348,0,0,0,.67-.446,3.334,3.334,0,0,0,.439-.886l1.39-3.962A.11.11,0,0,0,4.467-5.8.138.138,0,0,0,4.35-5.84H3.185a.175.175,0,0,0-.113.036.132.132,0,0,0-.055.09L2.49-3.675c-.006.021-.016.031-.03.031s-.026-.01-.037-.031L1.878-5.714a.134.134,0,0,0-.054-.09.178.178,0,0,0-.114-.036H.539c-.085,0-.126.035-.126.1a.171.171,0,0,0,.008.054L1.745-1.831a.161.161,0,0,1,0,.07.458.458,0,0,1-.285.367A2.351,2.351,0,0,1,.7-1.308H.656c-.011,0-.023.014-.034.04a.276.276,0,0,0-.017.1v.781a.276.276,0,0,0,.017.1c.011.026.026.04.042.04m-.6-4.7V-5.7a.133.133,0,0,0-.042-.1A.153.153,0,0,0-.09-5.84H-.785c-.039,0-.059-.018-.059-.054v-.884a.136.136,0,0,0-.041-.1.157.157,0,0,0-.11-.039h-1.03a.153.153,0,0,0-.109.039.133.133,0,0,0-.042.1v.884c0,.036-.02.054-.059.054h-.41a.154.154,0,0,0-.11.04.132.132,0,0,0-.041.1v.758a.132.132,0,0,0,.041.1.154.154,0,0,0,.11.04h.41c.039,0,.059.018.059.054v1.9a.9.9,0,0,0,.36.812,2.1,2.1,0,0,0,1.081.219c.107,0,.287,0,.545-.015.1-.011.143-.058.143-.141v-.821a.133.133,0,0,0-.042-.1A.153.153,0,0,0-.2-2.932h-.26q-.386,0-.386-.446V-4.746c0-.036.02-.054.059-.054H-.09a.153.153,0,0,0,.109-.04.133.133,0,0,0,.042-.1m-3.234,0V-5.7a.132.132,0,0,0-.041-.1.153.153,0,0,0-.109-.04h-.7c-.039,0-.058-.018-.058-.054v-.884a.133.133,0,0,0-.042-.1.153.153,0,0,0-.109-.039H-5.258a.153.153,0,0,0-.109.039.132.132,0,0,0-.041.1v.884c0,.036-.02.054-.059.054h-.411a.153.153,0,0,0-.109.04.133.133,0,0,0-.042.1v.758a.133.133,0,0,0,.042.1.153.153,0,0,0,.109.04h.411c.039,0,.059.018.059.054v1.9a.894.894,0,0,0,.36.812,2.1,2.1,0,0,0,1.081.219c.105,0,.287,0,.544-.015.1-.011.143-.058.143-.141v-.821a.136.136,0,0,0-.041-.1.157.157,0,0,0-.11-.039h-.26q-.385,0-.385-.446V-4.746c0-.036.019-.054.058-.054h.7a.153.153,0,0,0,.109-.04.132.132,0,0,0,.041-.1M-8.39-2.846a.575.575,0,0,1-.4-.145.85.85,0,0,1-.235-.395,1.884,1.884,0,0,1-.05-.446,1.469,1.469,0,0,1,.058-.453A.745.745,0,0,1-8.8-4.66a.607.607,0,0,1,.406-.132.61.61,0,0,1,.4.132.736.736,0,0,1,.226.375,1.779,1.779,0,0,1,.058.453,1.884,1.884,0,0,1-.05.446.789.789,0,0,1-.231.395.589.589,0,0,1-.406.145m0,1.109A2.134,2.134,0,0,0-7.1-2.12a1.829,1.829,0,0,0,.7-1.039A2.552,2.552,0,0,0-6.3-3.847a2.344,2.344,0,0,0-.118-.75,1.8,1.8,0,0,0-.711-.957A2.168,2.168,0,0,0-8.382-5.9a2.241,2.241,0,0,0-1.269.347,1.749,1.749,0,0,0-.717.965,2.662,2.662,0,0,0-.109.758,2.329,2.329,0,0,0,.1.7,1.833,1.833,0,0,0,.708,1.016,2.135,2.135,0,0,0,1.277.375m-4.137-1.406a.564.564,0,0,1-.5.273.551.551,0,0,1-.486-.265,1.359,1.359,0,0,1-.151-.688,1.281,1.281,0,0,1,.143-.64.547.547,0,0,1,.494-.3.564.564,0,0,1,.511.289,1.3,1.3,0,0,1,.142.648,1.341,1.341,0,0,1-.15.68M-11.02-4.7a1.674,1.674,0,0,0-.629-.867A1.671,1.671,0,0,0-12.654-5.9a1.129,1.129,0,0,0-.954.414c-.017.02-.032.029-.047.023s-.021-.02-.021-.046V-5.7a.133.133,0,0,0-.042-.1.153.153,0,0,0-.109-.04h-1.089a.153.153,0,0,0-.109.04.133.133,0,0,0-.042.1V-.51a.133.133,0,0,0,.042.1.153.153,0,0,0,.109.039h1.089a.153.153,0,0,0,.109-.039.133.133,0,0,0,.042-.1V-2.065c0-.026.007-.042.021-.047s.03,0,.047.023a1.207,1.207,0,0,0,.954.36,1.652,1.652,0,0,0,.968-.3,1.706,1.706,0,0,0,.624-.785,2.57,2.57,0,0,0,.176-.985,2.733,2.733,0,0,0-.133-.9m-6.509,2.961a2.54,2.54,0,0,0,1.387-.332,1.058,1.058,0,0,0,.515-.941.919.919,0,0,0-.29-.712,2.059,2.059,0,0,0-.8-.422q-.177-.055-.687-.149a3.879,3.879,0,0,1-.537-.128.2.2,0,0,1-.159-.192.228.228,0,0,1,.147-.207.845.845,0,0,1,.381-.074.769.769,0,0,1,.411.095.275.275,0,0,1,.151.242v.046c0,.032.051.047.151.047h1a.2.2,0,0,0,.109-.027.08.08,0,0,0,.042-.067,1.12,1.12,0,0,0-.235-.7,1.5,1.5,0,0,0-.658-.473,2.659,2.659,0,0,0-.984-.168,2.281,2.281,0,0,0-1.336.355,1.12,1.12,0,0,0-.507.965.9.9,0,0,0,.255.672A1.979,1.979,0,0,0-18.5-3.5a4.34,4.34,0,0,0,.855.227,2.6,2.6,0,0,1,.477.114.2.2,0,0,1,.151.183.224.224,0,0,1-.143.2.818.818,0,0,1-.376.073.873.873,0,0,1-.439-.1.283.283,0,0,1-.172-.246v-.046c0-.032-.051-.047-.151-.047H-19.33a.157.157,0,0,0-.109.039.135.135,0,0,0-.041.1v.039a.945.945,0,0,0,.239.637,1.52,1.52,0,0,0,.678.43,3.164,3.164,0,0,0,1.034.152" transform="translate(19.48 6.917)" fill="#fff"/>
              </g>
              <g id="Group_4973" data-name="Group 4973" transform="translate(17.811 -8.6)">
                <path id="Path_15486" data-name="Path 15486" d="M-.015-.069A.042.042,0,0,1-.061-.1l-.37-1.269a.024.024,0,0,1,0-.013c0-.021.013-.032.037-.032h.18a.039.039,0,0,1,.042.034l.247.946c0,.006,0,.008.008.008s.006,0,.008-.008L.34-1.381a.04.04,0,0,1,.042-.035H.546a.039.039,0,0,1,.042.035l.26.946s0,.008.008.008.006,0,.008-.008l.258-.949a.039.039,0,0,1,.042-.034l.179,0a.038.038,0,0,1,.031.013.036.036,0,0,1,0,.033L1-.1a.035.035,0,0,1-.016.025.046.046,0,0,1-.029.01H.772A.042.042,0,0,1,.726-.1L.473-.981c0-.006,0-.008-.009-.008s-.006,0-.008.008L.215-.1a.039.039,0,0,1-.042.035Zm1.808-1.55a.176.176,0,0,1-.126-.046.158.158,0,0,1-.049-.121.158.158,0,0,1,.049-.121.176.176,0,0,1,.126-.046.171.171,0,0,1,.124.046.161.161,0,0,1,.047.121.161.161,0,0,1-.047.121.171.171,0,0,1-.124.046M1.7-.069A.039.039,0,0,1,1.676-.08a.036.036,0,0,1-.011-.029V-1.378a.036.036,0,0,1,.011-.029A.036.036,0,0,1,1.7-1.418h.175a.039.039,0,0,1,.03.011.039.039,0,0,1,.01.029V-.109a.039.039,0,0,1-.01.029.043.043,0,0,1-.03.011Zm.551-.7a.041.041,0,0,1-.029-.011.043.043,0,0,1-.011-.029V-.949a.039.039,0,0,1,.011-.029.037.037,0,0,1,.029-.011h.793a.036.036,0,0,1,.029.011.039.039,0,0,1,.011.029v.141a.043.043,0,0,1-.011.029.039.039,0,0,1-.029.011ZM3.963-1.7a.246.246,0,0,0-.18.05.283.283,0,0,0-.048.191v.029a.012.012,0,0,0,.014.014H4.01a.036.036,0,0,1,.029.011.036.036,0,0,1,.011.029v.153a.036.036,0,0,1-.011.029.036.036,0,0,1-.029.011H3.748a.012.012,0,0,0-.014.014V-.109a.036.036,0,0,1-.011.029.039.039,0,0,1-.029.011H3.52A.039.039,0,0,1,3.491-.08.036.036,0,0,1,3.48-.109V-1.172a.012.012,0,0,0-.014-.014H3.3A.036.036,0,0,1,3.276-1.2a.039.039,0,0,1-.011-.029v-.153a.039.039,0,0,1,.011-.029A.036.036,0,0,1,3.3-1.418h.162a.012.012,0,0,0,.014-.014v-.045a.713.713,0,0,1,.041-.27.258.258,0,0,1,.139-.137.747.747,0,0,1,.276-.041h.077a.039.039,0,0,1,.029.011.039.039,0,0,1,.011.029v.143a.043.043,0,0,1-.011.03.039.039,0,0,1-.029.011Zm.527.082a.175.175,0,0,1-.125-.046.158.158,0,0,1-.049-.121.158.158,0,0,1,.049-.121.175.175,0,0,1,.125-.046.171.171,0,0,1,.124.046.161.161,0,0,1,.048.121.161.161,0,0,1-.048.121.171.171,0,0,1-.124.046M4.4-.069a.043.043,0,0,1-.03-.011.039.039,0,0,1-.011-.029V-1.378a.039.039,0,0,1,.011-.029.039.039,0,0,1,.03-.011h.175a.036.036,0,0,1,.029.011.036.036,0,0,1,.011.029V-.109a.036.036,0,0,1-.011.029.039.039,0,0,1-.029.011Z" transform="translate(0.434 1.953)" fill="#fff"/>
              </g>
              <path id="Path_15487" data-name="Path 15487" d="M0,.569H30v-30H0Z" fill="none"/>
            </g>
          </g>
        </g>
      </g>
      <g id="Group_7" data-name="Group 7" transform="translate(-1084 -5799)">
        <g id="Group_4" data-name="Group 4">
          <g transform="matrix(1, 0, 0, 1, 964, 5679)" filter="url(#Ellipse_6)">
            <circle id="Ellipse_6-2" data-name="Ellipse 6" cx="40" cy="40" r="40" transform="translate(356 560)" fill="#fff"/>
          </g>
          <g transform="matrix(1, 0, 0, 1, 964, 5679)" filter="url(#Ellipse_7)">
            <circle id="Ellipse_7-2" data-name="Ellipse 7" cx="40" cy="40" r="40" transform="translate(120 340)" fill="#fff"/>
          </g>
          <g transform="matrix(1, 0, 0, 1, 964, 5679)" filter="url(#Ellipse_8)">
            <circle id="Ellipse_8-2" data-name="Ellipse 8" cx="40" cy="40" r="40" transform="translate(340 120)" fill="#fff"/>
          </g>
          <g transform="matrix(1, 0, 0, 1, 964, 5679)" filter="url(#Ellipse_9)">
            <circle id="Ellipse_9-2" data-name="Ellipse 9" cx="40" cy="40" r="40" transform="translate(556 328.72)" fill="#fff"/>
          </g>
          <g id="Group_4895" data-name="Group 4895" transform="translate(220 -220)">
            <path id="Path_15446" data-name="Path 15446" d="M25,0A25,25,0,1,1,0,25,25,25,0,0,1,25,0Z" transform="translate(1099 6034)" fill="#040407"/>
            <g id="Group_4893" data-name="Group 4893" transform="translate(1119 6053.851)">
              <g id="Group_4892" data-name="Group 4892" transform="translate(0 -9.85)" clip-path="url(#clip-path-2)">
                <g id="Group_4891" data-name="Group 4891" transform="translate(0.002 0)">
                  <path id="Path_15423" data-name="Path 15423" d="M4.435,4.586a3.539,3.539,0,0,0-3.247,1.9V-2.242H-2.168V27.383h1.9a5.963,5.963,0,0,1,.746-1.9,3.172,3.172,0,0,0,3.247,2.275c4.106,0,4.106-4.291,4.106-5.111V8.467a4.45,4.45,0,0,0-.6-2.461,3.265,3.265,0,0,0-2.8-1.419m0,18.171c0,1.121-.56,1.94-1.642,1.94-1.605,0-1.605-1.267-1.605-2.388V9.773c0-.6.113-2.165,1.754-2.165C4.4,7.608,4.4,8.841,4.4,9.511V22.757Z" transform="translate(2.168 2.242)" fill="#edf0ec"/>
                </g>
              </g>
            </g>
          </g>
          <g id="Group_4922" data-name="Group 4922">
            <circle id="Ellipse_48" data-name="Ellipse 48" cx="25" cy="25" r="25" transform="translate(1099 6034)" fill="#32cb2a"/>
            <path id="Path_15427" data-name="Path 15427" d="M14.456-6.045h2.359v7.33H14.456Zm1.179-3.834a1.3,1.3,0,0,0-1.347,1.306,1.272,1.272,0,0,0,1.347,1.306,1.332,1.332,0,0,0,1.39-1.306,1.332,1.332,0,0,0-1.39-1.306m6.909,3.623A2.378,2.378,0,0,0,20.27-5.077l-.042.043H20.1l-.042-.085-.295-.926h-1.6v7.33h2.36V-2.928a1.3,1.3,0,0,1,1.432-1.221,1.326,1.326,0,0,1,1.221,1.305V1.285h2.36V-3.054a2.831,2.831,0,0,0-2.991-3.2m20.01,1.179-.042.043h-.168L42.3-5.119l-.295-.926H40.448v7.33h2.359V-2.254a1.608,1.608,0,0,1,1.685-1.811h.295v-1.98h-.295a2.04,2.04,0,0,0-1.938.968M50.305.948,49.8-.653a1.351,1.351,0,0,1-.59.127.732.732,0,0,1-.8-.8V-4.318h1.685V-6.045H48.409V-8.362H46.051v7.2c0,1.222.421,2.655,2.442,2.655A3.951,3.951,0,0,0,50.305.948m-20.431.421.59-1.895A1.773,1.773,0,0,1,29.2-2.38a1.77,1.77,0,0,1,1.853-1.938,2.487,2.487,0,0,1,.59.084L32.191-6a5.314,5.314,0,0,0-1.39-.211,3.763,3.763,0,0,0-4,3.834,3.721,3.721,0,0,0,3.075,3.749M39.142-2v-.59a3.342,3.342,0,0,0-3.5-3.665,4.043,4.043,0,0,0-2.065.59L32.107-.99A3.752,3.752,0,0,0,35.941,1.5,4.718,4.718,0,0,0,38.426.864L37.879-.779a3.466,3.466,0,0,1-1.812.506c-1.179,0-1.811-.506-1.938-1.559v-.126ZM34.256-3.307c.168-.843.674-1.306,1.348-1.306a1.261,1.261,0,0,1,1.305,1.306v.126h-2.7Z" transform="translate(1091.703 6070.879)" fill="#04060a"/>
            <path id="Path_15430" data-name="Path 15430" d="M19.066-1.932c-.066-.333-.132-.6-.2-.932V-2.93a4.839,4.839,0,0,0-.333-.864.231.231,0,0,0-.066-.132,4.2,4.2,0,0,0-1.2-.663,6.219,6.219,0,0,0-4.517,0A12.257,12.257,0,0,0,7.84-1.334,44.019,44.019,0,0,1,3.986,2.652c-1,.8-2.06,1.395-3.323.93a.231.231,0,0,0-.132.066c.066.132.132.333.2.465s.132.2.132.333l.2.4c.068.2.2.333.267.531l.132.2c.134.2.333.465.465.663.066.066.066.132.134.132a3.706,3.706,0,0,0,.465.533l.066.066a7.91,7.91,0,0,0,1.128.93A4.572,4.572,0,0,0,6.643,6.505C7.705,5.441,8.7,4.313,9.766,3.183A12.585,12.585,0,0,1,14.15-.138a6.68,6.68,0,0,1,2.259-.6,3.551,3.551,0,0,1,2.657.93c.066,0,.066,0,.132-.066V-.006a6.308,6.308,0,0,0-.132-1.926M17.14,3.116a5,5,0,0,0-3.257,1.395c-1.128,1-2.124,2.06-3.255,3.122A9.117,9.117,0,0,1,7.84,9.561v.066a7.6,7.6,0,0,0,1.727.132,9.754,9.754,0,0,0,8.569-5.048V4.644c.132-.265.267-.531.4-.864a1.442,1.442,0,0,0-1.395-.663M2.657-6.85c-.267.267-.4.467-.6.665l-.068.066a6.051,6.051,0,0,0-.465.665l-.066.066c-.132.2-.265.465-.4.663A.239.239,0,0,1,1-4.589a3.681,3.681,0,0,0-.333.729c0,.066-.066.134-.066.2-.066.2-.132.4-.2.663,0,.066-.066.132-.066.267A1.967,1.967,0,0,0,.2-2.066c0,.066-.066.2-.066.267a1.843,1.843,0,0,0-.066.6A.6.6,0,0,1,0-.87v.132a1.068,1.068,0,0,0,1.13.2,5.213,5.213,0,0,0,1.725-1.13c1.064-.93,1.928-2.058,2.99-2.99a12.674,12.674,0,0,1,4.385-2.79,8.3,8.3,0,0,1,5.381-.132h.066a9.768,9.768,0,0,0-13.02.729" transform="translate(1114.388 6051.24)" fill="#04060a"/>
          </g>
          <g id="Group_4923" data-name="Group 4923" transform="translate(236 220)">
            <circle id="Ellipse_48-2" data-name="Ellipse 48" cx="25" cy="25" r="25" transform="translate(1099 6034)" fill="#42bb74"/>
            <g id="Group_4932" data-name="Group 4932" transform="translate(93.375 -6.721)">
              <path id="Path_15435" data-name="Path 15435" d="M-.444-.232A1.884,1.884,0,0,1,.042,1.175V3.611H-1.191V1.365A1.113,1.113,0,0,0-1.413.61.814.814,0,0,0-2.054.36.981.981,0,0,0-2.8.649a1.2,1.2,0,0,0-.277.858v2.1H-4.308V-2.255h1.234V-.2A1.633,1.633,0,0,1-2.48-.576,2.1,2.1,0,0,1-1.721-.7,1.758,1.758,0,0,1-.444-.232" transform="translate(1019.953 6078.659)" fill="#04060a"/>
              <g id="Group_4929" data-name="Group 4929" transform="translate(1020.479 6077.952)">
                <path id="Path_15436" data-name="Path 15436" d="M-.13-.471a2.088,2.088,0,0,1-.835-.78,2.155,2.155,0,0,1-.3-1.129,2.145,2.145,0,0,1,.3-1.131,2.1,2.1,0,0,1,.834-.779,2.725,2.725,0,0,1,2.408,0,2.1,2.1,0,0,1,.83.779,2.152,2.152,0,0,1,.3,1.131,2.154,2.154,0,0,1-.3,1.129,2.088,2.088,0,0,1-.83.779,2.719,2.719,0,0,1-2.408,0ZM1.855-1.523a1.19,1.19,0,0,0,.3-.857,1.2,1.2,0,0,0-.3-.858,1.033,1.033,0,0,0-.779-.319,1.042,1.042,0,0,0-.783.319,1.183,1.183,0,0,0-.309.858,1.18,1.18,0,0,0,.309.857,1.037,1.037,0,0,0,.783.319,1.026,1.026,0,0,0,.779-.319" transform="translate(1.265 4.572)" fill="#04060a"/>
              </g>
              <g id="Group_4930" data-name="Group 4930" transform="translate(1025.65 6077.075)">
                <path id="Path_15437" data-name="Path 15437" d="M-.3-.573a1.266,1.266,0,0,1-.447.2A2.266,2.266,0,0,1-1.293-.3,1.658,1.658,0,0,1-2.471-.692a1.485,1.485,0,0,1-.412-1.139V-5.563h1.234v1.035H-.6v.949H-1.649v1.733a.593.593,0,0,0,.134.415.5.5,0,0,0,.387.145.844.844,0,0,0,.506-.158Z" transform="translate(2.883 5.563)" fill="#04060a"/>
              </g>
              <path id="Path_15438" data-name="Path 15438" d="M-.35-.378A1.437,1.437,0,0,0,.128-.69L.784.021A2.208,2.208,0,0,1-.972.709,2.769,2.769,0,0,1-2.247.428,2.055,2.055,0,0,1-3.1-.353a2.141,2.141,0,0,1-.3-1.13,2.182,2.182,0,0,1,.3-1.127,2.086,2.086,0,0,1,.815-.783,2.41,2.41,0,0,1,1.166-.275,2.385,2.385,0,0,1,1.108.255,1.989,1.989,0,0,1,.795.744,2.168,2.168,0,0,1,.3,1.148l-3.145.611a.946.946,0,0,0,.423.474A1.456,1.456,0,0,0-.937-.28a1.636,1.636,0,0,0,.587-.1m-1.531-2.06a1.192,1.192,0,0,0-.308.829l2.072-.4a.933.933,0,0,0-.356-.531,1.068,1.068,0,0,0-.648-.2,1.014,1.014,0,0,0-.76.3" transform="translate(1031.904 6081.625)" fill="#04060a"/>
              <path id="Path_15439" data-name="Path 15439" d="M-.046-.637a1.422,1.422,0,0,1-.4-1.084V-6.185H.784V-1.8a.578.578,0,0,0,.138.416.512.512,0,0,0,.391.146A.807.807,0,0,0,1.5-1.256a.622.622,0,0,0,.154-.056l.056.956a1.991,1.991,0,0,1-.64.1A1.561,1.561,0,0,1-.046-.637" transform="translate(1033.854 6082.587)" fill="#04060a"/>
              <path id="Path_15441" data-name="Path 15441" d="M-.21-.482-.8.1V1.188H-2.036V-4.68H-.8v3.32L1-3.068H2.471L.7-1.265,2.628,1.186H1.135Z" transform="translate(1038.003 6081.084)" fill="#04060a"/>
              <path id="Path_15442" data-name="Path 15442" d="M35.916-5.765H37.15v4.254H35.916Z" transform="translate(1005.087 6083.78)" fill="#04060a"/>
              <path id="Path_15443" data-name="Path 15443" d="M-.079,0A.683.683,0,0,1,.6.683a.684.684,0,0,1-.683.684A.684.684,0,0,1-.762.683.683.683,0,0,1-.079,0" transform="translate(1041.698 6076.098)" fill="#04060a"/>
              <path id="Path_15444" data-name="Path 15444" d="M-.3-.573a1.266,1.266,0,0,1-.447.2A2.266,2.266,0,0,1-1.293-.3,1.658,1.658,0,0,1-2.471-.692a1.485,1.485,0,0,1-.412-1.139V-5.563h1.234v1.035H-.6v.949H-1.649v1.733a.593.593,0,0,0,.134.415.5.5,0,0,0,.387.145.844.844,0,0,0,.506-.158Z" transform="translate(1045.903 6082.638)" fill="#04060a"/>
            </g>
            <g id="Group_4931" data-name="Group 4931" transform="translate(106.264 -33.079)">
              <path id="Path_15431" data-name="Path 15431" d="M8.614,5.009l-.649-.3a5.251,5.251,0,0,0,0-1.139l.632-.3a.53.53,0,0,0,.372-.646h0L8.83,2.1A.529.529,0,0,0,8.2,1.733l-.7.059a5.473,5.473,0,0,0-.564-1l.4-.573a.527.527,0,0,0,0-.747L6.95-.885a.527.527,0,0,0-.747,0l-.581.4a5.936,5.936,0,0,0-.995-.57l.056-.714a.529.529,0,0,0-.375-.646L3.8-2.546a.531.531,0,0,0-.64.375l-.313.655A5.638,5.638,0,0,0,1.729-1.5L1.41-2.178a.532.532,0,0,0-.649-.372L.25-2.411a.526.526,0,0,0-.369.646l.062.753a5.721,5.721,0,0,0-.956.555L-1.63-.879a.536.536,0,0,0-.75,0L-2.748-.5a.524.524,0,0,0,0,.744h0l.419.617a5.794,5.794,0,0,0-.564.959l-.735-.056a.528.528,0,0,0-.643.375l-.127.514a.529.529,0,0,0,.378.643l.646.307a5.652,5.652,0,0,0,0,1.139l-.629.3a.529.529,0,0,0-.4.632.032.032,0,0,1,0,.015l.139.508a.526.526,0,0,0,.646.372l.7-.056a5.714,5.714,0,0,0,.581,1l-.384.573a.529.529,0,0,0,0,.744l.375.375a.533.533,0,0,0,.747,0l.581-.4a5.737,5.737,0,0,0,.992.558l-.059.717a.529.529,0,0,0,.378.643l.508.139a.533.533,0,0,0,.646-.378l.313-.661A5.635,5.635,0,0,0,2.877,9.8l.322.673a.53.53,0,0,0,.646.372l.511-.139a.526.526,0,0,0,.369-.646l-.062-.75a5.721,5.721,0,0,0,.956-.555l.629.419a.527.527,0,0,0,.747,0l.36-.372a.527.527,0,0,0,0-.747h0l-.419-.611A5.8,5.8,0,0,0,7.5,6.482l.735.056a.53.53,0,0,0,.646-.372l.133-.511a.53.53,0,0,0-.384-.643c-.006,0-.009,0-.012,0M3.267,7.718a3.7,3.7,0,1,1,2.6-4.545.011.011,0,0,1,0,.009A3.708,3.708,0,0,1,3.267,7.718" transform="translate(1014.709 6089.784)" fill="#04060a"/>
              <path id="Path_15432" data-name="Path 15432" d="M6.358,3.226a.38.38,0,0,0,.322-.434l-.053-.381A.385.385,0,0,0,6.2,2.081H6.187l-.7-.024a3.924,3.924,0,0,0-.263-.629L5.685.906A.384.384,0,0,0,5.75.369l-.239-.3A.387.387,0,0,0,4.971,0L4.363.325a3.841,3.841,0,0,0-.546-.4l.136-.679a.384.384,0,0,0-.21-.5L3.386-1.4a.38.38,0,0,0-.5.21l-.378.605a3.834,3.834,0,0,0-.664-.062l-.224-.679a.388.388,0,0,0-.437-.325l-.381.056a.383.383,0,0,0-.322.434v0l-.027.72a4.074,4.074,0,0,0-.605.263L-.684-.646a.387.387,0,0,0-.54-.062l-.3.227A.381.381,0,0,0-1.59.056l.336.632a3.96,3.96,0,0,0-.393.522l-.705-.142a.387.387,0,0,0-.5.21l-.142.357a.384.384,0,0,0,.21.5h0l.6.378a4.127,4.127,0,0,0-.08.661l-.667.239a.381.381,0,0,0-.328.431v0l.053.378a.388.388,0,0,0,.437.328l.7.027a4.053,4.053,0,0,0,.266.629l-.457.514a.384.384,0,0,0-.062.537l.236.3a.387.387,0,0,0,.54.062L-.938,6.3a4.069,4.069,0,0,0,.549.4l-.139.685a.386.386,0,0,0,.21.5l.357.142a.387.387,0,0,0,.5-.21l.372-.59a3.875,3.875,0,0,0,.667.071l.23.661a.39.39,0,0,0,.437.328l.378-.056a.383.383,0,0,0,.325-.434l.027-.717a4.32,4.32,0,0,0,.6-.26l.543.475a.384.384,0,0,0,.54.062l.3-.236a.388.388,0,0,0,.065-.54L4.685,5.95a4.055,4.055,0,0,0,.393-.525l.7.145a.391.391,0,0,0,.5-.212L6.423,5a.387.387,0,0,0-.21-.5l-.605-.378a4.1,4.1,0,0,0,.086-.658ZM4.05,4.247A2.518,2.518,0,1,1,2.633.98a.023.023,0,0,0,.015.006,2.517,2.517,0,0,1,1.4,3.261Z" transform="translate(1011.259 6078.843)" fill="#04060a"/>
              <path id="Path_15433" data-name="Path 15433" d="M4.408,2.691l-.44-.239a2.668,2.668,0,0,0,.027-.375V1.991l.46-.192a.268.268,0,0,0,.212-.316s0,0,0,0l-.056-.263a.269.269,0,0,0-.316-.21h0l-.5.015A2.554,2.554,0,0,0,3.581.6l.3-.4a.267.267,0,0,0,.021-.378v0l-.18-.2a.268.268,0,0,0-.381-.021h0l-.419.263a2.676,2.676,0,0,0-.39-.254l.068-.5A.273.273,0,0,0,2.43-1.22L2.174-1.3a.272.272,0,0,0-.339.174L1.6-.689a2.668,2.668,0,0,0-.375-.027H1.135l-.21-.446a.27.27,0,0,0-.319-.212l-.263.056A.267.267,0,0,0,.134-1v0l.012.5a2.416,2.416,0,0,0-.419.21L-.651-.6a.272.272,0,0,0-.378-.018l-.21.18a.273.273,0,0,0-.021.381L-1,.365a3.038,3.038,0,0,0-.254.39l-.5-.068a.267.267,0,0,0-.336.174l-.086.257A.268.268,0,0,0-2,1.454h0l.44.239a2.678,2.678,0,0,0-.027.378v.086l-.463.189a.273.273,0,0,0-.21.319l.056.263a.268.268,0,0,0,.319.21l.5-.012a2.416,2.416,0,0,0,.21.419l-.292.393a.273.273,0,0,0-.021.381h0l.18.21a.268.268,0,0,0,.381.021L-.5,4.284a2.567,2.567,0,0,0,.387.254l-.068.5a.271.271,0,0,0,.171.339H0l.254.083a.275.275,0,0,0,.342-.174l.236-.437a3.205,3.205,0,0,0,.378.024h.086l.189.463a.269.269,0,0,0,.322.21h0l.263-.053a.272.272,0,0,0,.21-.319l-.015-.5a2.793,2.793,0,0,0,.419-.212l.4.307a.273.273,0,0,0,.381.021l.2-.183a.269.269,0,0,0,.021-.378l-.263-.419a3.08,3.08,0,0,0,.242-.413l.5.062a.272.272,0,0,0,.336-.171l.086-.248a.265.265,0,0,0-.165-.342s0,0-.006,0m-2.013.694A1.763,1.763,0,1,1,2.525.9h0a1.76,1.76,0,0,1-.13,2.488" transform="translate(1020.928 6082.088)" fill="#04060a"/>
              <path id="Path_15434" data-name="Path 15434" d="M3.177,1.467,2.84,1.405a2.1,2.1,0,0,0-.089-.331L3.015.854A.193.193,0,0,0,3.085.591L2.991.426A.2.2,0,0,0,2.737.352L2.415.467A1.875,1.875,0,0,0,2.173.225L2.291-.1a.2.2,0,0,0-.071-.263l-.165-.1a.194.194,0,0,0-.263.071L1.559-.12a1.609,1.609,0,0,0-.331-.089L1.17-.557A.2.2,0,0,0,.978-.752H.786A.191.191,0,0,0,.594-.56L.529-.221A1.878,1.878,0,0,0,.2-.135L-.011-.4A.193.193,0,0,0-.273-.469l-.168.094A.2.2,0,0,0-.524-.12l.115.334A1.875,1.875,0,0,0-.654.452L-.976.337A.188.188,0,0,0-1.235.4a.01.01,0,0,1,0,.006l-.1.165a.192.192,0,0,0,.068.263h0l.26.224a1.829,1.829,0,0,0-.091.331l-.336.059a.2.2,0,0,0-.195.192V1.83a.191.191,0,0,0,.189.192h0l.339.065a1.813,1.813,0,0,0,.086.331l-.263.21a.193.193,0,0,0-.071.263l.094.165a.192.192,0,0,0,.263.071l.325-.1a2.106,2.106,0,0,0,.242.245l-.118.322a.192.192,0,0,0,.068.263l.165.1a.192.192,0,0,0,.263-.068v0l.224-.26a1.9,1.9,0,0,0,.331.091l.062.336a.193.193,0,0,0,.189.195H.954a.191.191,0,0,0,.192-.192l.065-.336a2.1,2.1,0,0,0,.331-.089l.221.263a.193.193,0,0,0,.263.071l.168-.094a.192.192,0,0,0,.071-.26L2.15,3.28a2.059,2.059,0,0,0,.242-.239l.325.115a.189.189,0,0,0,.26-.068h0l.1-.168a.2.2,0,0,0-.065-.263h0l-.269-.221A2.188,2.188,0,0,0,2.826,2.1l.339-.059a.191.191,0,0,0,.192-.192V1.659a.2.2,0,0,0-.18-.192M1.465,2.787a1.2,1.2,0,1,1,.446-1.635,1.2,1.2,0,0,1-.446,1.635,0,0,0,0,0,0,0" transform="translate(1019.116 6076.218)" fill="#04060a"/>
            </g>
          </g>
          <g id="Group_4956" data-name="Group 4956" transform="translate(436 -11)">
            <g id="Group_4894" data-name="Group 4894" transform="translate(0 -0.277)">
              <path id="Path_15445" data-name="Path 15445" d="M25,0A25,25,0,1,1,0,25,25,25,0,0,1,25,0Z" transform="translate(1099 6034)" fill="#00569e"/>
            </g>
            <g id="Group_4955" data-name="Group 4955" transform="translate(-183 136.891)">
              <g id="Group_4939" data-name="Group 4939" transform="translate(1289 5903.832)">
                <path id="Path_15450" data-name="Path 15450" d="M8.151,0l-18.3,28.274h36.59Z" transform="translate(10.145)" fill="#fff"/>
              </g>
              <g id="Group_4952" data-name="Group 4952" transform="translate(1291.001 5918.255)">
                <g id="Group_4940" data-name="Group 4940" transform="translate(12.151)">
                  <path id="Path_15450-2" data-name="Path 15450" d="M1.326,1.457c0-.9.433-1.333,1.16-1.333a.919.919,0,0,1,.882.433,2.535,2.535,0,0,1,.243,1.3h2.8V1.561c0-1.9-1.037-3.374-3.944-3.374-2.994,0-4.049,1.661-4.049,3.632,0,4.62,5.311,3.133,5.311,5.8,0,.711-.294,1.472-1.315,1.472-1,0-1.262-.709-1.262-1.643V7.011h-2.8v.8c0,2.579,1.955,3.217,4.065,3.217C5.08,11.024,6.637,9.9,6.637,7.1c0-4.361-5.311-3.062-5.311-5.641" transform="translate(1.65 1.813)" fill="#00569e"/>
                </g>
                <g id="Group_4949" data-name="Group 4949" transform="translate(0 0.543)">
                  <path id="Path_15469" data-name="Path 15469" d="M3.548,0V.058L-4.416,12.3h3.032L.572,9.288H3.548V12.3H6.565V0Zm0,4.716V8.245h-2.3Z" transform="translate(4.416)" fill="#00569e"/>
                </g>
                <g id="Group_4950" data-name="Group 4950" transform="translate(21.609 0.543)">
                  <path id="Path_15470" data-name="Path 15470" d="M0,0V12.3H3.019v-3H5.995l1.955,3h3.032L3.019.058V0ZM3.019,4.716l2.3,3.531h-2.3Z" fill="#00569e"/>
                </g>
              </g>
            </g>
          </g>
        </g>
        <g transform="matrix(1, 0, 0, 1, 964, 5679)" filter="url(#Ellipse_20)">
          <circle id="Ellipse_20-2" data-name="Ellipse 20" cx="62.5" cy="62.5" r="62.5" transform="translate(314 316.72)" fill="#fff"/>
        </g>
        <circle id="Ellipse_21" data-name="Ellipse 21" cx="47.5" cy="47.5" r="47.5" transform="translate(1293 6010.723)" fill="#040407"/>
        <path id="Union_11" data-name="Union 11" d="M42.592,43.69l9.681-6.552V53.371l-9.681,6.552ZM28.9,57.8A28.9,28.9,0,1,1,55.455,17.48l-8.933,3.845A19.177,19.177,0,1,0,28.9,48.076H36.12V57.8ZM42.59,37.138H23.623V27.557h28.65v9.581Z" transform="translate(1313 6028.723)" fill="#fff" stroke="rgba(0,0,0,0)" stroke-miterlimit="10" stroke-width="1"/>
      </g>
    </g>
  </g>
</svg>
