<svg xmlns="http://www.w3.org/2000/svg" width="50" height="50" viewBox="0 0 50 50">
    <g transform="translate(-350 -6175)">
        <circle data-name="Ellipse 22" cx="25" cy="25" r="25" transform="translate(350 6175)" style="fill:#edf0ec"/>
        <path data-name="Path 15412" d="M8.833 44.478h3.333v5.833H8.833A.833.833 0 0 1 8 49.478v-4.167a.833.833 0 0 1 .833-.833zm19.583-10a2.917 2.917 0 0 0-1.25.282 2.917 2.917 0 1 0-1.666 2.769 2.917 2.917 0 1 0 2.917-3.051z" transform="translate(355.331 6158.855)" style="fill:#92e3ca"/>
        <path data-name="Path 15413" d="M386.49 6202.194a2.545 2.545 0 0 0-2.212-.441l-4.358 1a2.917 2.917 0 0 0-2.838-3.588h-5.216a3.314 3.314 0 0 0-2.357.976l-2.356 2.359h-2.988a1.667 1.667 0 0 0-1.667 1.667v4.167a1.667 1.667 0 0 0 1.667 1.667h10.833a.826.826 0 0 0 .2-.025l6.668-1.671a.723.723 0 0 0 .124-.042l4.049-1.723.046-.021a2.562 2.562 0 0 0 .413-4.325zm-22.325 1.973h2.5v4.167h-2.5zm21.19.855-3.957 1.683-6.5 1.626h-6.567v-4.653l2.357-2.356a1.652 1.652 0 0 1 1.178-.489h5.214a1.25 1.25 0 1 1 0 2.5h-2.916a.833.833 0 0 0 0 1.667h3.334a.866.866 0 0 0 .186-.021l6.979-1.605.032-.008a.9.9 0 0 1 .656 1.656zm-5.774-7.517a3.75 3.75 0 0 0 .615-.05 3.75 3.75 0 1 0 2.939-4.9 3.75 3.75 0 1 0-3.554 4.95zm6.25-1.25a2.083 2.083 0 1 1-2.083-2.083 2.083 2.083 0 0 1 2.083 2.078zm-6.25-4.583a2.083 2.083 0 0 1 2.005 1.522 3.75 3.75 0 0 0-1.562 2.6 2.127 2.127 0 0 1-.443.048 2.083 2.083 0 1 1 0-4.167z"/>
    </g>
</svg>
