<svg xmlns="http://www.w3.org/2000/svg" width="295.802" height="12.196" viewBox="0 0 295.802 12.196">
  <path id="Vector" d="M281.913,1.927c1.735.113,3.481.189,5.216.34.907.076,1.8.161,2.708.236a27.293,27.293,0,0,1,3.924.538,2.394,2.394,0,0,1,1.945,2.929A2.537,2.537,0,0,1,294.424,7.4a3.4,3.4,0,0,1-2.143.236c-.3-.057-.586-.1-.885-.142-1.9-.18-3.812-.3-5.725-.416-1.779-.113-3.559-.227-5.338-.321Q269.82,6.2,259.288,5.725c-2.387-.113-4.764-.265-7.15-.321l-10.091-.255-13.452-.34c-1.6-.047-3.2-.1-4.808-.1q-12.168-.028-24.36-.047c-4.774-.009-9.538.028-14.312.076l-22.946.2c-1.47.009-2.951.057-4.421.085-4.145.085-8.278.161-12.424.246q-11.123.213-22.249.435c-1.4.028-2.8.085-4.2.132q-6.249.2-12.489.406-10.3.326-20.6.671c-1.791.066-3.57.17-5.361.255q-6.482.312-12.965.614-10.4.5-20.79.983c-1.8.085-3.592.255-5.383.387l-13.33.964c-4.079.293-8.146.6-12.224.888-4.388.321-8.765.765-13.153,1.19a2.687,2.687,0,0,1-1.824-.642A2.1,2.1,0,0,1,0,9.986,2.063,2.063,0,0,1,.752,8.437,2.713,2.713,0,0,1,1.89,7.87c.232-.019.453-.047.685-.076,3.636-.35,7.262-.765,10.909-1.03l5.471-.4L44.277,4.526c4.521-.331,9.052-.491,13.584-.709q12.716-.609,25.433-1.209c4.476-.217,8.964-.34,13.44-.491q12.3-.411,24.592-.831c4.764-.161,9.517-.217,14.28-.321q12.335-.255,24.659-.52C165.35.331,170.423.312,175.507.255Q182.255.184,189.014.1c1.824-.019,3.636-.057,5.46-.057Q205.93.047,217.4.028c1.68-.009,3.361-.028,5.04-.028.752,0,1.493.009,2.244.019,2.576.047,5.162.113,7.737.17q6.946.156,13.894.3c2.133.047,4.277.047,6.41.142,6.467.274,12.932.51,19.4.831,3.261.161,6.533.283,9.793.463Z" transform="translate(0)" fill="#040407"/>
</svg>
