<svg xmlns="http://www.w3.org/2000/svg" width="50" height="50" viewBox="0 0 50 50"><g transform="translate(-1476 -1335.906)"><rect width="50" height="50" rx="25" transform="translate(1476 1335.906)" fill="#fff"/><path d="M25,1a24.007,24.007,0,0,0-9.342,46.114A24.006,24.006,0,0,0,34.342,2.886,23.849,23.849,0,0,0,25,1m0-1A25,25,0,1,1,0,25,25,25,0,0,1,25,0Z" transform="translate(1476 1335.906)" fill="#040407"/><path d="M6,15a1,1,0,0,1-.76-.349l-6-7a1,1,0,0,1,0-1.3l6-7a1,1,0,0,1,1.41-.108A1,1,0,0,1,6.759.651L1.317,7l5.442,6.349A1,1,0,0,1,6,15Z" transform="translate(1491 1353.906)" fill="#040407"/><path d="M20,1H0A1,1,0,0,1-1,0,1,1,0,0,1,0-1H20a1,1,0,0,1,1,1A1,1,0,0,1,20,1Z" transform="translate(1491 1360.906)" fill="#040407"/></g></svg>