<svg xmlns="http://www.w3.org/2000/svg" width="20.068" height="20" viewBox="0 0 20.068 20"><path d="M44.068,34.045a10.05,10.05,0,0,1-8.833,9.963.386.386,0,0,1-.429-.386V36.36h2.316a.772.772,0,0,0,.772-.823.788.788,0,0,0-.8-.721H34.806V32.5a1.544,1.544,0,0,1,1.544-1.544h1.544a.772.772,0,0,0,.772-.823.788.788,0,0,0-.8-.721H36.349A3.087,3.087,0,0,0,33.262,32.5v2.316H30.946a.772.772,0,0,0-.772.823.788.788,0,0,0,.8.721h2.29v7.263a.386.386,0,0,1-.428.386,10.031,10.031,0,1,1,11.234-9.965Z" transform="translate(-23.999 -24.012)" fill="#040407"/></svg>