<svg xmlns="http://www.w3.org/2000/svg" width="40" height="40" viewBox="0 0 40 40"><g transform="translate(0)"><g transform="translate(0 0)"><path d="M20,40h0A20,20,0,1,1,40,20,20,20,0,0,1,20,40" fill="#edf0ec"/><path d="M16.922,17.358l3.846-2.6V21.2l-3.846,2.6Zm-5.439,5.606A11.482,11.482,0,1,1,22.032,6.945L18.483,8.473a7.619,7.619,0,1,0-7,10.628h2.868v3.864Zm5.439-8.209H9.386V10.949H20.768v3.807Z" transform="translate(8.984 8.096)" fill="#040407"/><path d="M16.422,24.75V17.093l2.715-1.838H8.886V10.449H21.268V21.47Zm1-7.126v5.242l2.846-1.926V15.7ZM9.886,14.255H20.268V11.449H9.886Zm4.965,9.209H11.482A11.982,11.982,0,1,1,22.492,6.747l.2.459L18.222,9.13l-.2-.459a7.119,7.119,0,1,0-6.542,9.93h3.368ZM11.482.5a10.982,10.982,0,1,0,0,21.964h2.368V19.6H11.482A8.118,8.118,0,1,1,18.731,7.822l2.634-1.134A10.975,10.975,0,0,0,11.482.5Z" transform="translate(8.984 8.096)" fill="rgba(0,0,0,0)"/></g></g></svg>