<svg xmlns="http://www.w3.org/2000/svg" width="60" height="60" viewBox="0 0 60 60"><g transform="translate(370 515)"><g transform="translate(-370 -515)"><path d="M30,60h0A30,30,0,1,1,60,30,30,30,0,0,1,30,60" fill="#040407"/><path d="M25.383,26.037l5.77-3.9v9.674l-5.77,3.9Zm-8.159,8.409A17.223,17.223,0,1,1,33.049,10.417l-5.324,2.292a11.429,11.429,0,1,0-10.5,15.942h4.3v5.8Zm8.158-12.314h-11.3v-5.71H31.152v5.71Z" transform="translate(13.476 12.144)" fill="#fff"/><path d="M24.883,36.653V25.772l4.639-3.139H13.578v-6.71H31.652V32.072Zm1-10.351v8.466l4.77-3.228V23.075Zm-11.3-4.67H30.652v-4.71H14.578Zm7.448,13.314h-4.8A17.723,17.723,0,1,1,33.508,10.22l.2.459-6.242,2.687-.2-.459A10.929,10.929,0,1,0,17.223,28.151h4.8ZM17.223.5a16.723,16.723,0,1,0,0,33.447h3.8v-4.8h-3.8A11.927,11.927,0,1,1,27.977,12.056l4.408-1.9A16.712,16.712,0,0,0,17.223.5Z" transform="translate(13.476 12.144)" fill="rgba(0,0,0,0)"/></g></g></svg>