<svg xmlns="http://www.w3.org/2000/svg" width="22.965" height="25.007" viewBox="0 0 22.965 25.007"><g transform="translate(0.5 0.5)"><path d="M16.749,17.181,20.557,14.6H9.291V10.837H20.557V20.989l-3.808,2.576Zm-5.384,5.55A11.365,11.365,0,1,1,21.808,6.875L18.294,8.387a7.541,7.541,0,1,0-6.93,10.519H14.2v3.825Z" fill="#fff"/><path d="M16.249,24.507V16.915L18.925,15.1H8.791V10.337H21.057V14.1h1.131l-1.131.765v6.384Zm1-7.061v5.177l2.808-1.9V15.547ZM9.791,14.1H20.057V11.337H9.791ZM14.7,23.231h-3.34a11.865,11.865,0,1,1,10.9-16.554l.2.459L18.032,9.044l-.2-.459a7.041,7.041,0,1,0-6.47,9.821H14.7ZM11.365.5a10.865,10.865,0,0,0,0,21.731H13.7V19.406h-2.34A8.04,8.04,0,1,1,18.542,7.736l2.6-1.119A10.862,10.862,0,0,0,11.365.5Z" fill="rgba(0,0,0,0)"/></g></svg>