<svg xmlns="http://www.w3.org/2000/svg" width="30.772" height="33.442" viewBox="0 0 30.772 33.442"><g transform="translate(0.5 0.5)"><path d="M22.744,23.331l5.171-3.5h-15.3V14.716h15.3V28.5L22.744,32Zm-7.312,7.537A15.434,15.434,0,1,1,29.615,9.336l-4.772,2.054a10.24,10.24,0,1,0-9.41,14.284h3.856v5.194Z" fill="#040407"/><path d="M22.244,32.942V23.065l4.039-2.733H12.117V14.216h16.3v5.116h1.131l-1.131.765v8.669Zm1-9.346v7.462l4.171-2.822V20.774ZM13.117,19.332h14.3V15.216h-14.3Zm6.672,12.035H15.432A15.934,15.934,0,1,1,30.074,9.138l.2.459-5.691,2.449-.2-.459a9.74,9.74,0,1,0-8.951,13.586h4.356ZM15.432.5a14.934,14.934,0,0,0,0,29.867h3.356V26.173H15.432a10.739,10.739,0,1,1,9.661-15.436l3.856-1.66A14.927,14.927,0,0,0,15.432.5Z" fill="rgba(0,0,0,0)"/></g></svg>