<svg xmlns="http://www.w3.org/2000/svg" width="22.8" height="24.178" viewBox="0 0 22.8 24.178"><g transform="translate(0.5 0.5)"><path d="M16.617,16.587,20.395,14.1H9.218V10.462H20.395v9.8L16.617,22.75Zm-5.342,5.358A11.14,11.14,0,0,1,0,10.972,11.14,11.14,0,0,1,11.275,0,11.285,11.285,0,0,1,21.636,6.637L18.15,8.1a7.485,7.485,0,0,0-6.875-4.4,7.391,7.391,0,0,0-7.48,7.28,7.391,7.391,0,0,0,7.48,7.28h2.817v3.693Z" fill="#fff"/><path d="M16.117,23.678V16.317L18.726,14.6H8.718V9.962H20.895V13.6h1.169l-1.169.769v6.163Zm1-6.822v4.966l2.778-1.829V15.027ZM9.718,13.6H19.895V10.962H9.718Zm4.875,8.845H11.275A11.64,11.64,0,0,1-.5,10.972,11.64,11.64,0,0,1,11.275-.5,11.785,11.785,0,0,1,22.094,6.435L22.3,6.9,17.891,8.748l-.2-.448a6.985,6.985,0,0,0-6.418-4.107,6.89,6.89,0,0,0-6.98,6.78,6.89,6.89,0,0,0,6.98,6.78h3.317ZM11.275.5A10.639,10.639,0,0,0,.5,10.972,10.639,10.639,0,0,0,11.275,21.445h2.317V18.752H11.275a7.891,7.891,0,0,1-7.98-7.78,7.891,7.891,0,0,1,7.98-7.78,8,8,0,0,1,7.12,4.26l2.567-1.075A10.8,10.8,0,0,0,11.275.5Z" fill="rgba(0,0,0,0)"/></g></svg>