<svg xmlns="http://www.w3.org/2000/svg" width="25.891" height="27.428" viewBox="0 0 25.891 27.428"><g transform="translate(0.5 0.5)"><path d="M18.991,18.956l4.317-2.843H10.535V11.957H23.308v11.2L18.991,26ZM12.886,25.08A12.731,12.731,0,0,1,0,12.54,12.731,12.731,0,0,1,12.886,0,12.9,12.9,0,0,1,24.727,7.585L20.743,9.254A8.554,8.554,0,0,0,12.886,4.22,8.447,8.447,0,0,0,4.337,12.54a8.447,8.447,0,0,0,8.548,8.32h3.22v4.22Z" fill="#fff"/><path d="M18.491,26.928V18.687l3.149-2.073h-11.6V11.457H23.808v4.157h1.169l-1.169.769v7.044Zm1-7.7v5.846l3.317-2.184V17.042Zm-8.456-3.612H22.808V12.457H11.035Zm5.571,9.966h-3.72A13.231,13.231,0,0,1-.5,12.54,13.231,13.231,0,0,1,12.886-.5a13.4,13.4,0,0,1,12.3,7.883l.206.466L20.484,9.9l-.2-.448a8.054,8.054,0,0,0-7.4-4.736A7.945,7.945,0,0,0,4.837,12.54a7.945,7.945,0,0,0,8.048,7.82h3.72ZM12.886.5A12.23,12.23,0,0,0,.5,12.54,12.23,12.23,0,0,0,12.886,24.58h2.72v-3.22h-2.72a8.946,8.946,0,0,1-9.048-8.82A8.946,8.946,0,0,1,12.886,3.72a9.071,9.071,0,0,1,8.1,4.888l3.064-1.283A12.416,12.416,0,0,0,12.886.5Z" fill="rgba(0,0,0,0)"/></g></svg>