<svg xmlns="http://www.w3.org/2000/svg" width="16" height="13.722" viewBox="0 0 16 13.722"><path d="M214.956,4470.07a24.4,24.4,0,0,0,2.825-2.178c1.151-.985,2.163-1.926,2.4-2.151a3.383,3.383,0,0,0-.041-4.407,2.442,2.442,0,0,0-3.691,0,2,2,0,0,1-2.937,0,2.443,2.443,0,0,0-3.691,0,3.382,3.382,0,0,0-.037,4.412c.226.215,1.229,1.163,2.375,2.154a23.41,23.41,0,0,0,2.792,2.17m0,2.143c-1.316,0-6.6-5.069-6.6-5.069a5.365,5.365,0,0,1,0-7.168,4.441,4.441,0,0,1,6.627,0,4.441,4.441,0,0,1,6.627,0,5.367,5.367,0,0,1,0,7.168s-5.353,5.055-6.647,5.069Z" transform="translate(-206.985 -4458.491)" fill="#ff6058"/></svg>