<svg xmlns="http://www.w3.org/2000/svg" width="11.288" height="9.681" viewBox="0 0 11.288 9.681"><path d="M212.609,4465.958a36.235,36.235,0,0,0,3.264-2.761,1.78,1.78,0,0,0-.036-2.3,1.135,1.135,0,0,0-1.739,0,2,2,0,0,1-2.937,0,1.135,1.135,0,0,0-1.739,0,1.779,1.779,0,0,0-.032,2.3,34.632,34.632,0,0,0,3.22,2.756m0,2.214c-.929,0-4.658-3.576-4.658-3.576a3.784,3.784,0,0,1,0-5.057,3.132,3.132,0,0,1,4.676,0,3.132,3.132,0,0,1,4.676,0,3.785,3.785,0,0,1,0,5.057s-3.777,3.566-4.689,3.576Z" transform="translate(-206.985 -4458.491)" fill="rgba(255,255,255,0.8)"/></svg>