<svg xmlns="http://www.w3.org/2000/svg" width="50" height="50" viewBox="0 0 50 50"><g transform="translate(-350 -6175)"><circle cx="25" cy="25" r="25" transform="translate(350 6175)" fill="#edf0ec"/><g transform="translate(341 6165.965)"><path d="M82.769,77.385A5.385,5.385,0,1,1,77.385,72,5.385,5.385,0,0,1,82.769,77.385Z" transform="translate(-43.385 -43.385)" fill="#92e3ca"/><path d="M34,24A10,10,0,1,0,44,34,10,10,0,0,0,34,24Zm8.426,9.231H40.1A6.163,6.163,0,0,0,34.769,27.9V25.574A8.474,8.474,0,0,1,42.426,33.231Zm-9.2,0H29.45a4.624,4.624,0,0,1,3.781-3.781Zm0,1.538V38.55a4.624,4.624,0,0,1-3.781-3.781Zm1.538,0H38.55a4.624,4.624,0,0,1-3.781,3.781Zm0-1.538V29.45a4.624,4.624,0,0,1,3.781,3.781Zm-1.538-7.657V27.9A6.163,6.163,0,0,0,27.9,33.231H25.574A8.474,8.474,0,0,1,33.231,25.574Zm-7.657,9.2H27.9A6.163,6.163,0,0,0,33.231,40.1v2.322a8.474,8.474,0,0,1-7.657-7.657Zm9.2,7.657V40.1A6.163,6.163,0,0,0,40.1,34.769h2.322A8.474,8.474,0,0,1,34.769,42.426Z"/></g></g></svg>