<svg xmlns="http://www.w3.org/2000/svg" width="50" height="50" viewBox="0 0 50 50"><g transform="translate(-350 -6175)"><circle cx="25" cy="25" r="25" transform="translate(350 6175)" fill="#edf0ec"/><g transform="translate(353 6150)"><path d="M41.455,57.545c0,2.259-4.07,4.091-9.091,4.091a16.887,16.887,0,0,1-5.849-.959h0c4.344-.308,7.667-2,7.667-4.041v-3.1h0C38.332,53.916,41.455,55.566,41.455,57.545Zm-7.273-5.455c0-2.259-4.07-4.091-9.091-4.091S16,49.832,16,52.091s4.07,4.091,9.091,4.091S34.182,54.35,34.182,52.091Z" transform="translate(-7.091 -7.091)" fill="#92e3ca"/><path d="M28,45.633V45c0-2.85-4.3-5-10-5S8,42.15,8,45v4.545c0,2.374,2.983,4.26,7.273,4.825V55c0,2.85,4.3,5,10,5s10-2.15,10-5V50.455C35.273,48.1,32.384,46.214,28,45.633Zm5.455,4.822c0,1.5-3.5,3.182-8.182,3.182-.424,0-.844-.015-1.259-.042C26.465,52.7,28,51.25,28,49.545V47.47C31.394,47.976,33.455,49.349,33.455,50.455ZM15.273,52.528v-2.7a21.339,21.339,0,0,0,5.455,0v2.7a18.8,18.8,0,0,1-5.455,0Zm10.909-4.582v1.6c0,.953-1.41,1.977-3.636,2.6V49.489A10.694,10.694,0,0,0,26.182,47.947ZM18,41.818c4.683,0,8.182,1.68,8.182,3.182s-3.5,3.182-8.182,3.182S9.818,46.5,9.818,45,13.317,41.818,18,41.818ZM9.818,49.545v-1.6a10.694,10.694,0,0,0,3.636,1.542v2.656C11.228,51.523,9.818,50.5,9.818,49.545ZM17.091,55v-.474c.3.011.6.019.909.019.441,0,.872-.015,1.294-.04a13.853,13.853,0,0,0,1.433.427V57.6C18.5,56.977,17.091,55.953,17.091,55Zm5.455,2.983v-2.71a20.4,20.4,0,0,0,2.727.182A20.878,20.878,0,0,0,28,55.28v2.7a18.8,18.8,0,0,1-5.455,0Zm7.273-.384V54.943A10.694,10.694,0,0,0,33.455,53.4V55C33.455,55.953,32.044,56.977,29.818,57.6Z"/></g></g></svg>