<svg xmlns="http://www.w3.org/2000/svg" width="118.562" height="24.178" viewBox="0 0 118.562 24.178"><g transform="translate(-374.75 -49.306)"><g transform="translate(375.25 49.806)"><g transform="translate(0)"><g transform="translate(23.222 3.941)"><path d="M341.237,322.178h-3.548v8.572a2.938,2.938,0,0,1-3.12,3.244c-2.141,0-3-1.518-3-3.3v-8.512h-3.548v9.137a5.426,5.426,0,0,0,5.628,5.774,4.807,4.807,0,0,0,4.221-2.024,10.507,10.507,0,0,0,.122,1.607h3.395a22.988,22.988,0,0,1-.153-2.649Z" transform="translate(-328.024 -318.961)" fill="#fff"/><path d="M447.238,326.88l-2.263-.446a1.61,1.61,0,0,1-1.5-1.518,1.923,1.923,0,0,1,2.141-1.667,2.536,2.536,0,0,1,2.753,2.173l3-.833c-.245-1.429-1.591-4.048-5.75-4.048-3.089,0-5.475,2.143-5.475,4.673,0,1.994,1.376,3.661,4.007,4.226l2.2.476c1.193.238,1.743.833,1.743,1.607,0,.893-.765,1.667-2.233,1.667a2.765,2.765,0,0,1-3.028-2.47l-3.089.833c.184,1.637,1.835,4.375,6.148,4.375,3.793,0,5.628-2.441,5.628-4.643C451.52,329.142,450.051,327.476,447.238,326.88Z" transform="translate(-408.437 -317.77)" fill="#fff"/><path d="M533.166,320.65a4.981,4.981,0,0,0-4.4,2.351v-1.934H525.3v14.495h3.548V327.2c0-1.9,1.07-3.423,3.089-3.423,2.233,0,3.059,1.429,3.059,3.214v8.572h3.548v-9.167C538.549,323.21,536.806,320.65,533.166,320.65Z" transform="translate(-470.021 -317.85)" fill="#fff"/><path d="M389.908,320.541a7.7,7.7,0,0,0,.367,15.388A6.7,6.7,0,0,0,397,331.345l-3-.923a3.585,3.585,0,0,1-3.731,2.53c-2.214,0-3.6-1.867-3.969-3.78H397.1a4.957,4.957,0,0,0,.092-1.1C397.187,323.487,394.5,320.541,389.908,320.541Zm-3.535,6.1a3.705,3.705,0,0,1,3.566-3.214c2.447,0,3.609,1.518,3.67,3.214Z" transform="translate(-367.349 -317.77)" fill="#fff"/><path d="M586.971,320.541a7.7,7.7,0,0,0,.367,15.388,6.7,6.7,0,0,0,6.729-4.584l-3-.923a3.585,3.585,0,0,1-3.731,2.53c-2.214,0-3.6-1.867-3.968-3.78h10.789a4.976,4.976,0,0,0,.092-1.1C594.251,323.487,591.559,320.541,586.971,320.541Zm-3.535,6.1A3.705,3.705,0,0,1,587,323.428c2.447,0,3.609,1.518,3.67,3.214Z" transform="translate(-509.189 -317.77)" fill="#fff"/><path d="M492.444,310.381h-3.517V324.67a3.471,3.471,0,0,0,3.517,3.423h4.341v-3.269h-4.341v-8.161h4.341V313.6h-4.341Z" transform="translate(-443.837 -310.381)" fill="#fff"/><path d="M641.936,321.81v-5.147h4.341V313.6h-4.341v-3.217h-3.518V324.67a3.471,3.471,0,0,0,3.518,3.423h4.341v-3.269h-4.341V321.81Z" transform="translate(-551.437 -310.381)" fill="#fff"/></g><g transform="translate(0)"><path d="M16.617,16.587,20.395,14.1H9.218V10.462H20.395v9.8L16.617,22.75Zm-5.342,5.358A11.14,11.14,0,0,1,0,10.972,11.14,11.14,0,0,1,11.275,0,11.285,11.285,0,0,1,21.636,6.637L18.15,8.1a7.485,7.485,0,0,0-6.875-4.4,7.391,7.391,0,0,0-7.48,7.28,7.391,7.391,0,0,0,7.48,7.28h2.817v3.693Z" fill="#fff"/><path d="M16.117,23.678V16.317L18.726,14.6H8.718V9.962H20.895V13.6h1.169l-1.169.769v6.163Zm1-6.822v4.966l2.778-1.829V15.027ZM9.718,13.6H19.895V10.962H9.718Zm4.875,8.845H11.275A11.64,11.64,0,0,1-.5,10.972,11.64,11.64,0,0,1,11.275-.5,11.785,11.785,0,0,1,22.094,6.435L22.3,6.9,17.891,8.748l-.2-.448a6.985,6.985,0,0,0-6.418-4.107,6.89,6.89,0,0,0-6.98,6.78,6.89,6.89,0,0,0,6.98,6.78h3.317ZM11.275.5A10.639,10.639,0,0,0,.5,10.972,10.639,10.639,0,0,0,11.275,21.445h2.317V18.752H11.275a7.891,7.891,0,0,1-7.98-7.78,7.891,7.891,0,0,1,7.98-7.78,8,8,0,0,1,7.12,4.26l2.567-1.075A10.8,10.8,0,0,0,11.275.5Z" fill="rgba(0,0,0,0)"/></g></g></g></g></svg>