<svg xmlns="http://www.w3.org/2000/svg" width="50" height="50" viewBox="0 0 50 50"><g transform="translate(-350 -6175)"><circle cx="25" cy="25" r="25" transform="translate(350 6175)" fill="#edf0ec"/><g transform="translate(362.498 6166.005)"><path d="M8.833,44.478h3.333v5.833H8.833A.833.833,0,0,1,8,49.478V45.311A.833.833,0,0,1,8.833,44.478Zm19.583-10a2.917,2.917,0,0,0-1.25.282h0A2.917,2.917,0,1,0,25.5,37.529h0a2.917,2.917,0,1,0,2.917-3.051Z" transform="translate(-7.167 -7.15)" fill="#92e3ca"/><path d="M23.992,36.189a2.545,2.545,0,0,0-2.212-.441l-4.358,1a2.917,2.917,0,0,0-2.838-3.588H9.368a3.314,3.314,0,0,0-2.357.976L4.655,36.495H1.667A1.667,1.667,0,0,0,0,38.162v4.167a1.667,1.667,0,0,0,1.667,1.667H12.5a.826.826,0,0,0,.2-.025L19.368,42.3a.723.723,0,0,0,.124-.042l4.049-1.723.046-.021A2.562,2.562,0,0,0,24,36.189ZM1.667,38.162h2.5v4.167h-2.5Zm21.19.855L18.9,40.7l-6.5,1.626H5.833V37.673L8.19,35.317a1.652,1.652,0,0,1,1.178-.489h5.214a1.25,1.25,0,1,1,0,2.5H11.666a.833.833,0,0,0,0,1.667H15a.866.866,0,0,0,.186-.021l6.979-1.605.032-.008a.9.9,0,0,1,.656,1.656ZM17.083,31.5a3.75,3.75,0,0,0,.615-.05,3.75,3.75,0,1,0,2.939-4.9A3.75,3.75,0,1,0,17.083,31.5Zm6.25-1.25a2.083,2.083,0,1,1-2.083-2.083A2.083,2.083,0,0,1,23.333,30.245Zm-6.25-4.583a2.083,2.083,0,0,1,2.005,1.522,3.75,3.75,0,0,0-1.562,2.6,2.127,2.127,0,0,1-.443.048,2.083,2.083,0,1,1,0-4.167Z" transform="translate(0)"/></g></g></svg>