<svg xmlns="http://www.w3.org/2000/svg" width="20" height="20" viewBox="0 0 20 20"><path d="M42.462,24H25.538A1.538,1.538,0,0,0,24,25.538V42.462A1.538,1.538,0,0,0,25.538,44H42.462A1.538,1.538,0,0,0,44,42.462V25.538A1.538,1.538,0,0,0,42.462,24ZM30.923,38.615a.769.769,0,0,1-1.538,0V32.462a.769.769,0,0,1,1.538,0Zm-.769-7.692a1.154,1.154,0,1,1,1.154-1.154A1.154,1.154,0,0,1,30.154,30.923Zm9.231,7.692a.769.769,0,0,1-1.538,0V35.154a1.923,1.923,0,0,0-3.846,0v3.462a.769.769,0,0,1-1.538,0V32.462a.769.769,0,0,1,1.518-.171,3.462,3.462,0,0,1,5.4,2.863Z" transform="translate(-24 -24)" fill="#040407"/></svg>