<svg xmlns="http://www.w3.org/2000/svg" width="119.5" height="25.007" viewBox="0 0 119.5 25.007"><g transform="translate(-1445.499 -483.703)"><g transform="translate(1445.999 484.203)"><g transform="translate(23.407 4.082)"><path d="M341.342,322.178h-3.576v8.879c0,1.973-1.079,3.36-3.145,3.36-2.158,0-3.021-1.572-3.021-3.422v-8.817h-3.576v9.465c0,3.33,2.1,5.981,5.673,5.981a4.8,4.8,0,0,0,4.255-2.1,11.182,11.182,0,0,0,.123,1.665H341.5a24.459,24.459,0,0,1-.154-2.744Z" transform="translate(-328.024 -318.846)" fill="#fff"/><path d="M447.3,327.108l-2.281-.462a1.649,1.649,0,0,1-1.511-1.572,1.953,1.953,0,0,1,2.158-1.726,2.579,2.579,0,0,1,2.775,2.251l3.021-.863c-.247-1.48-1.6-4.193-5.8-4.193-3.114,0-5.518,2.22-5.518,4.84,0,2.065,1.387,3.792,4.039,4.378l2.22.493c1.2.247,1.757.863,1.757,1.665,0,.925-.771,1.726-2.25,1.726a2.812,2.812,0,0,1-3.052-2.559l-3.114.863c.185,1.7,1.85,4.532,6.2,4.532,3.823,0,5.673-2.528,5.673-4.809C451.613,329.45,450.133,327.724,447.3,327.108Z" transform="translate(-408.188 -317.671)" fill="#fff"/><path d="M533.228,320.65a4.985,4.985,0,0,0-4.439,2.435v-2H525.3V336.1h3.576v-8.663c0-1.973,1.079-3.545,3.114-3.545,2.251,0,3.083,1.48,3.083,3.33V336.1h3.576v-9.5C538.654,323.3,536.9,320.65,533.228,320.65Z" transform="translate(-469.582 -317.749)" fill="#fff"/><path d="M389.966,320.541c-3.792,0-7.307,3.145-7.307,7.892,0,5.087,3.607,8.047,7.677,8.047a6.763,6.763,0,0,0,6.782-4.748l-3.021-.956a3.621,3.621,0,0,1-3.761,2.621c-2.232,0-3.629-1.934-4-3.915H397.21a5.275,5.275,0,0,0,.093-1.141C397.3,323.593,394.59,320.541,389.966,320.541Zm-3.563,6.32c.45-2.013,1.781-3.33,3.594-3.33a3.363,3.363,0,0,1,3.7,3.33Z" transform="translate(-367.227 -317.671)" fill="#fff"/><path d="M587.029,320.541c-3.792,0-7.307,3.145-7.307,7.892,0,5.087,3.607,8.047,7.677,8.047a6.763,6.763,0,0,0,6.782-4.748l-3.021-.956A3.622,3.622,0,0,1,587.4,333.4c-2.232,0-3.629-1.934-4-3.915h10.875a5.287,5.287,0,0,0,.093-1.141C594.366,323.593,591.653,320.541,587.029,320.541Zm-3.563,6.32c.45-2.013,1.781-3.33,3.594-3.33a3.363,3.363,0,0,1,3.7,3.33Z" transform="translate(-508.628 -317.671)" fill="#fff"/><path d="M492.472,310.381h-3.545v14.8a3.545,3.545,0,0,0,3.545,3.545h4.375v-3.386h-4.375v-8.453h4.375v-3.175h-4.375Z" transform="translate(-443.479 -310.381)" fill="#fff"/><path d="M641.964,322.22v-5.331h4.375v-3.175h-4.375v-3.332h-3.545v14.8a3.545,3.545,0,0,0,3.545,3.545h4.375v-3.386h-4.375V322.22Z" transform="translate(-550.746 -310.381)" fill="#fff"/></g><g transform="translate(0)"><path d="M16.749,17.181,20.557,14.6H9.291V10.837H20.557V20.989l-3.808,2.576Zm-5.384,5.55A11.365,11.365,0,1,1,21.808,6.875L18.294,8.387a7.541,7.541,0,1,0-6.93,10.519H14.2v3.825Z" fill="#fff"/><path d="M16.249,24.507V16.915L18.925,15.1H8.791V10.337H21.057V14.1h1.131l-1.131.765v6.384Zm1-7.061v5.177l2.808-1.9V15.547ZM9.791,14.1H20.057V11.337H9.791ZM14.7,23.231h-3.34a11.865,11.865,0,1,1,10.9-16.554l.2.459L18.032,9.044l-.2-.459a7.041,7.041,0,1,0-6.47,9.821H14.7ZM11.365.5a10.865,10.865,0,0,0,0,21.731H13.7V19.406h-2.34A8.04,8.04,0,1,1,18.542,7.736l2.6-1.119A10.862,10.862,0,0,0,11.365.5Z" fill="rgba(0,0,0,0)"/></g></g></g></svg>