<svg xmlns="http://www.w3.org/2000/svg" width="162.096" height="33.442" viewBox="0 0 162.096 33.442"><g transform="translate(0.5 0.5)"><g transform="translate(0)"><g transform="translate(31.785 5.544)"><path d="M346.11,322.178h-4.856v12.057c0,2.68-1.465,4.563-4.27,4.563-2.931,0-4.1-2.135-4.1-4.647V322.178h-4.856V335.03c0,4.521,2.847,8.122,7.7,8.122,2.387,0,4.773-1,5.778-2.847a15.183,15.183,0,0,0,.167,2.261h4.647a33.231,33.231,0,0,1-.209-3.726Z" transform="translate(-328.024 -317.653)" fill="#040407"/><path d="M450,329.458l-3.1-.628a2.239,2.239,0,0,1-2.051-2.135c0-1.256,1.214-2.344,2.93-2.344a3.5,3.5,0,0,1,3.768,3.056l4.1-1.172c-.335-2.01-2.177-5.694-7.871-5.694-4.228,0-7.493,3.014-7.493,6.573,0,2.8,1.884,5.149,5.484,5.945l3.014.67c1.633.335,2.386,1.172,2.386,2.261,0,1.256-1.047,2.344-3.056,2.344a3.818,3.818,0,0,1-4.145-3.475l-4.228,1.172c.251,2.3,2.512,6.154,8.415,6.154,5.191,0,7.7-3.433,7.7-6.531C455.862,332.64,453.852,330.3,450,329.458Z" transform="translate(-396.892 -316.644)" fill="#040407"/><path d="M536.064,320.65a6.77,6.77,0,0,0-6.029,3.307v-2.721H525.3v20.388h4.857V329.86c0-2.679,1.465-4.814,4.228-4.814,3.056,0,4.186,2.01,4.186,4.521v12.057h4.856V328.73C543.433,324.25,541.046,320.65,536.064,320.65Z" transform="translate(-449.635 -316.711)" fill="#040407"/><path d="M392.581,320.541c-5.149,0-9.922,4.27-9.922,10.717,0,6.908,4.9,10.927,10.424,10.927a9.184,9.184,0,0,0,9.21-6.447l-4.1-1.3A4.918,4.918,0,0,1,393.083,338c-3.031,0-4.928-2.626-5.432-5.317h14.768a7.169,7.169,0,0,0,.126-1.549C402.545,324.685,398.861,320.541,392.581,320.541Zm-4.839,8.582c.611-2.734,2.418-4.521,4.88-4.521,3.349,0,4.94,2.135,5.024,4.521Z" transform="translate(-361.703 -316.644)" fill="#040407"/><path d="M589.644,320.541c-5.149,0-9.922,4.27-9.922,10.717,0,6.908,4.9,10.927,10.424,10.927a9.184,9.184,0,0,0,9.21-6.447l-4.1-1.3A4.918,4.918,0,0,1,590.146,338c-3.031,0-4.928-2.626-5.432-5.317h14.768a7.175,7.175,0,0,0,.126-1.549C599.608,324.685,595.924,320.541,589.644,320.541Zm-4.839,8.582c.61-2.734,2.418-4.521,4.88-4.521,3.349,0,4.94,2.135,5.024,4.521Z" transform="translate(-483.18 -316.644)" fill="#040407"/><path d="M493.742,310.381h-4.815v20.1a4.814,4.814,0,0,0,4.815,4.815h5.942v-4.6h-5.942V319.218h5.942v-4.312h-5.942Z" transform="translate(-427.211 -310.381)" fill="#040407"/><path d="M643.233,326.457v-7.239h5.941v-4.312h-5.941v-4.525h-4.814v20.1a4.814,4.814,0,0,0,4.814,4.815h5.941v-4.6h-5.941v-4.239Z" transform="translate(-519.363 -310.381)" fill="#040407"/></g><path d="M22.744,23.331l5.171-3.5h-15.3V14.716h15.3V28.5L22.744,32Zm-7.312,7.537A15.434,15.434,0,1,1,29.615,9.336l-4.772,2.054a10.24,10.24,0,1,0-9.41,14.284h3.856v5.194Z" fill="#040407"/><path d="M22.244,32.942V23.065l4.039-2.733H12.117V14.216h16.3v5.116h1.131l-1.131.765v8.669Zm1-9.346v7.462l4.171-2.822V20.774ZM13.117,19.332h14.3V15.216h-14.3Zm6.672,12.035H15.432A15.934,15.934,0,1,1,30.074,9.138l.2.459-5.691,2.449-.2-.459a9.74,9.74,0,1,0-8.951,13.586h4.356ZM15.432.5a14.934,14.934,0,0,0,0,29.867h3.356V26.173H15.432a10.739,10.739,0,1,1,9.661-15.436l3.856-1.66A14.927,14.927,0,0,0,15.432.5Z" fill="rgba(0,0,0,0)"/></g></g></svg>