<svg xmlns="http://www.w3.org/2000/svg" xmlns:xlink="http://www.w3.org/1999/xlink" width="927" height="653" viewBox="0 0 927 653"><defs><filter id="a" x="0" y="0" width="927" height="653" filterUnits="userSpaceOnUse"><feOffset dx="-6" dy="6" input="SourceAlpha"/><feGaussianBlur stdDeviation="88" result="b"/><feFlood flood-opacity="0.059"/><feComposite operator="in" in2="b"/><feComposite in="SourceGraphic"/></filter></defs><g transform="translate(270 236)"><g transform="translate(-430 -2961.672)"><g transform="matrix(1, 0, 0, 1, 160, 2725.67)" filter="url(#a)"><rect width="399" height="125" rx="8" transform="translate(270 258)" fill="#fff"/></g><g transform="translate(1.172 -48.328)"><text transform="translate(448.828 3090)" fill="#040407" font-size="16" font-family="SegoeUI-Light, Segoe UI" font-weight="300"><tspan x="0" y="17">sconto del 10% sul vostro trattamento benessere alle </tspan><tspan x="0" y="41">ore 16.00</tspan></text><text transform="translate(448.828 3070)" fill="#040407" font-size="18" font-family="SegoeUI, Segoe UI"><tspan x="0" y="0">SPA Lastminute:</tspan></text></g></g><g transform="translate(-110 -3050)"><g transform="translate(0 49)"><circle cx="20" cy="20" r="20" transform="translate(449 3003)" fill="#1954d3"/></g><g transform="translate(390 3043)"><g transform="matrix(0.985, -0.174, 0.174, 0.985, 67.19, 18.947)"><g transform="translate(3 2)"><g transform="translate(-1.632 0.047)"><g transform="translate(0 0)"><path d="M8.5,15.848c5.639,0,8.248-.723,8.5-3.627,0-2.9-1.819-2.715-1.819-6.275C15.181,3.164,12.545,0,8.5,0S1.819,3.164,1.819,5.945C1.819,9.505,0,9.319,0,12.221.253,15.135,2.862,15.848,8.5,15.848Z" transform="translate(0 0)" fill="none" stroke="#fff" stroke-linecap="round" stroke-linejoin="round" stroke-miterlimit="10" stroke-width="1.5"/><path d="M4.869,0A3.165,3.165,0,0,1,0,0" transform="translate(6.019 18.857)" fill="none" stroke="#fff" stroke-linecap="round" stroke-linejoin="round" stroke-miterlimit="10" stroke-width="1.5"/></g></g></g></g><g transform="translate(62 6.2)"><circle cx="7" cy="7" r="7" transform="translate(24 0.8)" fill="#ff6058" opacity="0.499"/><circle cx="3" cy="3" r="3" transform="translate(28 4.8)" fill="#ff6058"/></g></g></g></g></svg>