<svg xmlns="http://www.w3.org/2000/svg" width="40" height="40" viewBox="0 0 40 40"><g transform="translate(-449 -3052)"><g transform="translate(0 49)"><circle cx="20" cy="20" r="20" transform="translate(449 3003)" fill="#1954d3"/></g><g transform="translate(390 3043)"><g transform="matrix(0.985, 0.174, -0.174, 0.985, 71.374, 15.52)"><g transform="translate(3 2)"><g transform="translate(-1.632 0.047)"><g transform="translate(0 0)"><path d="M8.5,15.848c5.639,0,8.248-.723,8.5-3.627,0-2.9-1.819-2.715-1.819-6.275C15.181,3.164,12.545,0,8.5,0S1.819,3.164,1.819,5.945C1.819,9.505,0,9.319,0,12.221.253,15.135,2.862,15.848,8.5,15.848Z" transform="translate(0 0)" fill="none" stroke="#fff" stroke-linecap="round" stroke-linejoin="round" stroke-miterlimit="10" stroke-width="1.5"/><path d="M4.869,0A3.165,3.165,0,0,1,0,0" transform="translate(6.019 18.857)" fill="none" stroke="#fff" stroke-linecap="round" stroke-linejoin="round" stroke-miterlimit="10" stroke-width="1.5"/></g></g></g></g><g transform="translate(62 6.2)"><circle cx="5" cy="5" r="5" transform="translate(26 2.8)" fill="#ff6058" opacity="0.499"/><circle cx="3" cy="3" r="3" transform="translate(28 4.8)" fill="#ff6058"/></g></g></g></svg>