<svg xmlns="http://www.w3.org/2000/svg" width="21.231" height="23.517" viewBox="0 0 21.231 23.517"><g transform="matrix(0.985, -0.174, 0.174, 0.985, -0.834, 2.042)"><g transform="translate(3 2)"><g transform="translate(-1.632 0.047)"><g transform="translate(0 0)"><path d="M8.5,15.848c5.639,0,8.248-.723,8.5-3.627,0-2.9-1.819-2.715-1.819-6.275C15.181,3.164,12.545,0,8.5,0S1.819,3.164,1.819,5.945C1.819,9.505,0,9.319,0,12.221.253,15.135,2.862,15.848,8.5,15.848Z" transform="translate(0 0)" fill="none" stroke="#fff" stroke-linecap="round" stroke-linejoin="round" stroke-miterlimit="10" stroke-width="1.5"/><path d="M4.869,0A3.165,3.165,0,0,1,0,0" transform="translate(6.019 18.857)" fill="none" stroke="#fff" stroke-linecap="round" stroke-linejoin="round" stroke-miterlimit="10" stroke-width="1.5"/></g></g></g></g></svg>