<svg xmlns="http://www.w3.org/2000/svg" width="40" height="40.156" viewBox="0 0 40 40.156"><g transform="translate(-449 -3052)"><g transform="translate(0 49.156)"><circle cx="20" cy="20" r="20" transform="translate(449 3003)" fill="#1954d3"/></g><g transform="translate(390 3043)"><g transform="translate(62 6.2)"><circle cx="5" cy="5" r="5" transform="translate(26 2.8)" fill="#ff6058" opacity="0.499"/><circle cx="3" cy="3" r="3" transform="translate(28 4.8)" fill="#ff6058"/></g><g transform="translate(66.816 16.907)"><path d="M3.568,9.664a.75.75,0,0,1,.75-.75H20.36a.75.75,0,0,1,0,1.5H4.318A.75.75,0,0,1,3.568,9.664Z" fill="#fff" fill-rule="evenodd"/><path d="M15.975,2.25a.75.75,0,0,1,.75.75V5.962a.75.75,0,0,1-1.5,0V3A.75.75,0,0,1,15.975,2.25Z" fill="#fff" fill-rule="evenodd"/><path d="M8.7,2.25a.75.75,0,0,1,.75.75V5.962a.75.75,0,1,1-1.5,0V3A.75.75,0,0,1,8.7,2.25Z" fill="#fff" fill-rule="evenodd"/><path d="M4.873,4.953A5.168,5.168,0,0,1,8.528,3.672h7.62a5.163,5.163,0,0,1,3.658,1.281A4.847,4.847,0,0,1,21.184,8.6h0v8.212A4.875,4.875,0,0,1,19.8,20.465a5.16,5.16,0,0,1-3.659,1.286H8.528a5.117,5.117,0,0,1-3.66-1.308,4.978,4.978,0,0,1-1.384-3.7V8.6A4.859,4.859,0,0,1,4.873,4.953ZM5.907,6.04A3.376,3.376,0,0,0,4.984,8.6v8.146a3.5,3.5,0,0,0,.928,2.62,3.635,3.635,0,0,0,2.616.885h7.613a3.679,3.679,0,0,0,2.623-.871,3.392,3.392,0,0,0,.92-2.566V8.6a3.364,3.364,0,0,0-.913-2.559,3.683,3.683,0,0,0-2.623-.867H8.528A3.687,3.687,0,0,0,5.907,6.04Z" fill="#fff" fill-rule="evenodd"/><path d="M16.1,12.692a.75.75,0,0,1,0,1.061L12.48,17.371a.75.75,0,0,1-1.061,0L9.664,15.613a.75.75,0,1,1,1.062-1.06L11.95,15.78l3.086-3.087A.75.75,0,0,1,16.1,12.692Z" fill="#fff" fill-rule="evenodd"/></g></g></g></svg>