<svg xmlns="http://www.w3.org/2000/svg" width="174.222" height="7.036" viewBox="0 0 174.222 7.036"><path d="M166.041,1.112c1.022.065,2.05.109,3.072.2.534.044,1.061.093,1.595.136a16.392,16.392,0,0,1,2.311.311,1.382,1.382,0,0,1,1.146,1.69,1.474,1.474,0,0,1-.755.823,2.038,2.038,0,0,1-1.262.136c-.176-.033-.345-.06-.521-.082-1.12-.1-2.245-.174-3.372-.24-1.048-.065-2.1-.131-3.144-.185q-6.192-.319-12.4-.594c-1.406-.065-2.806-.153-4.211-.185l-5.944-.147-7.923-.2c-.943-.027-1.888-.06-2.832-.06q-7.167-.016-14.348-.027c-2.812-.005-5.618.016-8.43.044l-13.515.114c-.866.005-1.738.033-2.6.049-2.441.049-4.876.093-7.317.142q-6.551.123-13.1.251c-.827.016-1.647.049-2.474.076q-3.681.114-7.356.234-6.064.188-12.134.387c-1.055.038-2.1.1-3.157.147q-3.818.18-7.636.354-6.123.286-12.245.567c-1.061.049-2.116.147-3.17.223l-7.851.556c-2.4.169-4.8.343-7.2.512-2.584.185-5.162.442-7.747.687A1.6,1.6,0,0,1,.443,6.661,1.2,1.2,0,0,1,0,5.761a1.181,1.181,0,0,1,.443-.894,1.611,1.611,0,0,1,.671-.327c.137-.011.267-.027.4-.044,2.142-.2,4.277-.442,6.425-.594l3.222-.229L26.079,2.611c2.663-.191,5.332-.283,8-.409q7.49-.352,14.979-.7c2.637-.125,5.28-.2,7.916-.283Q64.22.984,71.459.741C74.265.649,77.064.616,79.87.556q7.265-.147,14.523-.3C97.388.191,100.376.18,103.37.147q3.974-.041,7.955-.087c1.074-.011,2.142-.033,3.216-.033q6.747,0,13.5-.011c.99-.005,1.979-.016,2.968-.016.443,0,.879.005,1.321.011,1.517.027,3.04.065,4.557.1q4.091.09,8.183.174c1.256.027,2.519.027,3.775.082,3.809.158,7.617.294,11.425.48,1.92.093,3.848.164,5.768.267Z" transform="translate(0 0)" fill="#fff"/></svg>