<svg xmlns="http://www.w3.org/2000/svg" width="301.995" height="12.196" viewBox="0 0 301.995 12.196"><path d="M287.815,1.927c1.771.113,3.554.189,5.326.34.926.076,1.84.161,2.764.236a28.414,28.414,0,0,1,4.006.538A2.4,2.4,0,0,1,301.9,5.971,2.555,2.555,0,0,1,300.588,7.4a3.532,3.532,0,0,1-2.188.236c-.305-.057-.6-.1-.9-.142-1.941-.18-3.892-.3-5.845-.416-1.817-.113-3.633-.227-5.45-.321q-10.732-.553-21.486-1.03c-2.437-.113-4.863-.265-7.3-.321l-10.3-.255-13.734-.34c-1.635-.047-3.272-.1-4.909-.1q-12.422-.028-24.87-.047c-4.874-.009-9.738.028-14.612.076l-23.427.2c-1.5.009-3.013.057-4.514.085-4.231.085-8.451.161-12.684.246q-11.356.213-22.715.435c-1.433.028-2.855.085-4.288.132q-6.38.2-12.751.406-10.511.326-21.034.671c-1.828.066-3.645.17-5.473.255q-6.618.312-13.236.614-10.613.5-21.225.983c-1.839.085-3.667.255-5.5.387l-13.609.964c-4.164.293-8.316.6-12.48.888-4.48.321-8.948.765-13.428,1.19a2.779,2.779,0,0,1-1.862-.642A2.081,2.081,0,0,1,0,9.986,2.047,2.047,0,0,1,.767,8.437,2.792,2.792,0,0,1,1.93,7.87c.237-.019.463-.047.7-.076,3.713-.35,7.414-.765,11.138-1.03l5.586-.4L45.2,4.526c4.615-.331,9.242-.491,13.868-.709q12.982-.609,25.965-1.209c4.57-.217,9.151-.34,13.722-.491q12.559-.411,25.107-.831c4.863-.161,9.716-.217,14.579-.321q12.593-.255,25.175-.52c5.191-.113,10.37-.132,15.561-.189Q186.071.184,192.971.1c1.862-.019,3.712-.057,5.574-.057q11.7,0,23.4-.019C223.664.019,225.38,0,227.094,0c.768,0,1.524.009,2.29.019,2.63.047,5.27.113,7.9.17q7.091.156,14.184.3c2.178.047,4.366.047,6.544.142,6.6.274,13.2.51,19.8.831,3.329.161,6.669.283,10,.463Z" transform="translate(0 0)" fill="#fff"/></svg>