<svg xmlns="http://www.w3.org/2000/svg" width="20" height="20" viewBox="0 0 20 20">
  <g id="circuitry-duotone" transform="translate(-32 -32)">
    <path id="Pfad_1225" data-name="Pfad 1225" d="M57.5,40H40.833a.833.833,0,0,0-.833.833V57.5a.833.833,0,0,0,.833.833H57.5a.833.833,0,0,0,.833-.833V40.833A.833.833,0,0,0,57.5,40ZM45,55a1.667,1.667,0,1,1,1.667-1.667A1.667,1.667,0,0,1,45,55Zm8.333-6.667A1.667,1.667,0,1,1,55,46.667,1.667,1.667,0,0,1,53.333,48.333Z" transform="translate(-7.167 -7.167)" fill="#92e3ca"/>
    <path id="Pfad_1226" data-name="Pfad 1226" d="M50.333,32H33.667A1.667,1.667,0,0,0,32,33.667V50.333A1.667,1.667,0,0,0,33.667,52H50.333A1.667,1.667,0,0,0,52,50.333V33.667A1.667,1.667,0,0,0,50.333,32Zm-12.5,13.333a.833.833,0,1,1-.833.833A.833.833,0,0,1,37.833,45.333ZM33.667,33.667H37V43.81a2.5,2.5,0,1,0,1.667,0V40.678l5,5v4.655h-10ZM50.333,50.333h-5v-5a.833.833,0,0,0-.244-.59l-6.423-6.422V33.667H42v2.5a.833.833,0,0,0,.244.59l1.667,1.667a2.473,2.473,0,0,0-.244,1.077,2.5,2.5,0,1,0,2.5-2.5,2.473,2.473,0,0,0-1.077.245l-1.423-1.423V33.667h6.667ZM46.167,38.667a.833.833,0,1,1-.833.833A.833.833,0,0,1,46.167,38.667Z"/>
  </g>
</svg>
