<svg xmlns="http://www.w3.org/2000/svg" width="25.891" height="27.428" viewBox="0 0 25.891 27.428">
  <g id="G" transform="translate(0.5 0.5)">
    <path id="Vereinigungsmenge_8" data-name="Vereinigungsmenge 8" d="M18.991,18.956l4.317-2.843H10.535V11.957H23.308v11.2L18.991,26ZM12.886,25.08A12.731,12.731,0,0,1,0,12.54,12.731,12.731,0,0,1,12.886,0,12.9,12.9,0,0,1,24.727,7.585L20.743,9.254A8.554,8.554,0,0,0,12.886,4.22,8.447,8.447,0,0,0,4.337,12.54a8.447,8.447,0,0,0,8.548,8.32h3.22v4.22Z" fill="#fff" stroke="rgba(0,0,0,0)" stroke-width="1"/>
  </g>
</svg>
