<svg xmlns="http://www.w3.org/2000/svg" width="11.288" height="9.68" viewBox="0 0 11.288 9.68">
  <g id="Heart" transform="translate(-206.985 -4458.492)" fill="none" stroke-linejoin="round">
    <path d="M217.3,4464.6s-3.777,3.566-4.689,3.576-4.662-3.576-4.662-3.576a3.784,3.784,0,0,1,0-5.057,3.133,3.133,0,0,1,4.676,0,3.133,3.133,0,0,1,4.676,0A3.785,3.785,0,0,1,217.3,4464.6Z" stroke="none"/>
    <path d="M 212.6090850830078 4465.95751953125 C 213.3633117675781 4465.4248046875 214.6887664794922 4464.31005859375 215.8727722167969 4463.19677734375 C 216.422607421875 4462.55810546875 216.410400390625 4461.51806640625 215.8363494873047 4460.89697265625 C 215.5263977050781 4460.56201171875 215.1922607421875 4460.49169921875 214.9665222167969 4460.49169921875 C 214.7409515380859 4460.49169921875 214.4071044921875 4460.56201171875 214.0976867675781 4460.896484375 C 213.7191619873047 4461.30615234375 213.1868591308594 4461.5390625 212.6292114257812 4461.5390625 C 212.0715637207031 4461.5390625 211.5392303466797 4461.30615234375 211.1606292724609 4460.89697265625 C 210.8509521484375 4460.56201171875 210.5168609619141 4460.49169921875 210.2911224365234 4460.49169921875 C 210.0654754638672 4460.49169921875 209.7315673828125 4460.56201171875 209.4217224121094 4460.89697265625 C 208.8459167480469 4461.51953125 208.8351593017578 4462.5634765625 209.3894500732422 4463.20166015625 C 210.5517272949219 4464.31201171875 211.8606719970703 4465.42578125 212.6090850830078 4465.95751953125 M 212.6114959716797 4468.171875 C 211.6827697753906 4468.171875 207.9535369873047 4464.595703125 207.9535369873047 4464.595703125 C 206.6622161865234 4463.19970703125 206.6622161865234 4460.93505859375 207.9535369873047 4459.5390625 C 209.2443695068359 4458.14208984375 211.3377380371094 4458.14208984375 212.6290588378906 4459.5390625 C 213.9199523925781 4458.14208984375 216.0128784179688 4458.14208984375 217.3045654296875 4459.5390625 C 218.5954895019531 4460.93505859375 218.5954895019531 4463.19970703125 217.3045654296875 4464.595703125 C 217.3045654296875 4464.595703125 213.5278472900391 4468.16162109375 212.6152648925781 4468.171875 C 212.6140289306641 4468.171875 212.6127319335938 4468.171875 212.6114959716797 4468.171875 Z" stroke="none" fill="rgba(255,255,255,0.8)"/>
  </g>
</svg>
