<svg xmlns="http://www.w3.org/2000/svg" width="20" height="20" viewBox="0 0 20 20">
  <path id="instagram-logo-fill" d="M38.615,24H29.385A5.39,5.39,0,0,0,24,29.385v9.231A5.39,5.39,0,0,0,29.385,44h9.231A5.39,5.39,0,0,0,44,38.615V29.385A5.39,5.39,0,0,0,38.615,24ZM34,38.615A4.615,4.615,0,1,1,38.615,34,4.615,4.615,0,0,1,34,38.615Zm5.769-9.231a1.154,1.154,0,1,1,1.154-1.154A1.154,1.154,0,0,1,39.769,29.385ZM37.077,34A3.077,3.077,0,1,1,34,30.923,3.077,3.077,0,0,1,37.077,34Z" transform="translate(-24 -24)" fill="#040407"/>
</svg>
