<svg xmlns="http://www.w3.org/2000/svg" width="135.427" height="27.428" viewBox="0 0 135.427 27.428">
  <g id="Logo" transform="translate(-319.5 -48.5)">
    <g id="Icon" transform="translate(0 -1.681)">
      <g id="Logo_Guestnet" data-name="Logo Guestnet" transform="translate(-1125.999 -433.522)">
        <g id="Gruppe_4681" data-name="Gruppe 4681" transform="translate(1445.999 484.203)">
          <g id="Gruppe_4672" data-name="Gruppe 4672" transform="translate(26.539 4.504)">
            <path id="Pfad_1173" data-name="Pfad 1173" d="M343.125,322.178H339.07v9.8c0,2.177-1.223,3.708-3.565,3.708-2.447,0-3.426-1.735-3.426-3.776v-9.728h-4.055v10.443c0,3.674,2.377,6.6,6.432,6.6,1.993,0,3.985-.816,4.824-2.313a12.009,12.009,0,0,0,.14,1.837h3.88a26.27,26.27,0,0,1-.175-3.027Z" transform="translate(-328.024 -318.502)" fill="#fff"/>
            <path id="Pfad_1174" data-name="Pfad 1174" d="M448.308,327.786l-2.587-.51a1.841,1.841,0,0,1-1.713-1.735,2.2,2.2,0,0,1,2.447-1.9,2.9,2.9,0,0,1,3.146,2.483l3.426-.952c-.28-1.633-1.818-4.626-6.572-4.626-3.531,0-6.257,2.449-6.257,5.34,0,2.279,1.573,4.184,4.579,4.83l2.517.544c1.363.272,1.992.952,1.992,1.837,0,1.02-.874,1.9-2.551,1.9a3.16,3.16,0,0,1-3.461-2.823l-3.531.952c.21,1.871,2.1,5,7.026,5,4.334,0,6.432-2.789,6.432-5.306C453.2,330.371,451.524,328.466,448.308,327.786Z" transform="translate(-403.965 -317.375)" fill="#fff"/>
            <path id="Pfad_1175" data-name="Pfad 1175" d="M534.289,320.65a5.692,5.692,0,0,0-5.034,2.687v-2.211H525.3v16.565h4.055v-9.558c0-2.177,1.223-3.912,3.53-3.912,2.552,0,3.5,1.633,3.5,3.674v9.8h4.055V327.215C540.441,323.575,538.448,320.65,534.289,320.65Z" transform="translate(-462.124 -317.45)" fill="#fff"/>
            <path id="Pfad_1176" data-name="Pfad 1176" d="M390.944,320.541a8.8,8.8,0,0,0,.42,17.586,7.652,7.652,0,0,0,7.69-5.238l-3.426-1.055a4.1,4.1,0,0,1-4.264,2.891c-2.531,0-4.115-2.134-4.536-4.32h12.33a5.668,5.668,0,0,0,.1-1.258C399.263,323.908,396.187,320.541,390.944,320.541Zm-4.04,6.973c.51-2.221,2.019-3.674,4.075-3.674,2.8,0,4.125,1.735,4.195,3.674Z" transform="translate(-365.162 -317.375)" fill="#fff"/>
            <path id="Pfad_1177" data-name="Pfad 1177" d="M588.006,320.541a8.8,8.8,0,0,0,.419,17.586,7.652,7.652,0,0,0,7.69-5.238l-3.426-1.055a4.1,4.1,0,0,1-4.264,2.891c-2.531,0-4.115-2.134-4.535-4.32h12.33a5.685,5.685,0,0,0,.105-1.258C596.326,323.908,593.25,320.541,588.006,320.541Zm-4.04,6.973c.51-2.221,2.019-3.674,4.075-3.674,2.8,0,4.125,1.735,4.195,3.674Z" transform="translate(-499.113 -317.375)" fill="#fff"/>
            <path id="Pfad_1178" data-name="Pfad 1178" d="M492.947,310.381h-4.02v16.33a3.967,3.967,0,0,0,4.02,3.912h4.961v-3.735h-4.961v-9.326h4.961v-3.5h-4.961Z" transform="translate(-437.396 -310.381)" fill="#fff"/>
            <path id="Pfad_1179" data-name="Pfad 1179" d="M642.439,323.443v-5.882H647.4v-3.5h-4.961v-3.676h-4.02v16.33a3.967,3.967,0,0,0,4.02,3.912H647.4v-3.735h-4.961v-3.444Z" transform="translate(-539.012 -310.381)" fill="#fff"/>
          </g>
          <g id="G" transform="translate(0)">
            <path id="Vereinigungsmenge_8" data-name="Vereinigungsmenge 8" d="M18.991,18.956l4.317-2.843H10.535V11.957H23.308v11.2L18.991,26ZM12.886,25.08A12.731,12.731,0,0,1,0,12.54,12.731,12.731,0,0,1,12.886,0,12.9,12.9,0,0,1,24.727,7.585L20.743,9.254A8.554,8.554,0,0,0,12.886,4.22,8.447,8.447,0,0,0,4.337,12.54a8.447,8.447,0,0,0,8.548,8.32h3.22v4.22Z" fill="#fff" stroke="rgba(0,0,0,0)" stroke-width="1"/>
          </g>
        </g>
      </g>
    </g>
  </g>
</svg>
