<svg xmlns="http://www.w3.org/2000/svg" width="20" height="15.714" viewBox="0 0 20 15.714">
  <path id="youtube-logo-fill" d="M35.494,42.636A2.143,2.143,0,0,0,34.2,41.171C31.139,39.989,26.268,40,26,40s-5.139-.011-8.2,1.171a2.143,2.143,0,0,0-1.294,1.464A21.274,21.274,0,0,0,16,47.857a21.274,21.274,0,0,0,.506,5.221A2.143,2.143,0,0,0,17.8,54.544c2.932,1.131,7.521,1.171,8.141,1.171h.118c.62,0,5.212-.039,8.141-1.171a2.143,2.143,0,0,0,1.294-1.465A21.286,21.286,0,0,0,36,47.857,21.274,21.274,0,0,0,35.494,42.636Zm-6.438,5.519L24.77,51.012a.357.357,0,0,1-.555-.3V45a.357.357,0,0,1,.555-.3l4.286,2.857a.357.357,0,0,1,0,.595Z" transform="translate(-16 -40)" fill="#040407"/>
</svg>
