<svg xmlns="http://www.w3.org/2000/svg" width="210" height="210" viewBox="0 0 210 210">
    <defs>
        <clipPath id="uqg1s68s0b">
            <path data-name="Path 15981" d="M0 46.578h100v-78.2H0z" transform="translate(0 31.619)" style="fill:none"/>
        </clipPath>
        <filter id="0sesfikzla" x="0" y="0" width="210" height="210" filterUnits="userSpaceOnUse">
            <feOffset dy="10"/>
            <feGaussianBlur stdDeviation="15" result="blur"/>
            <feFlood flood-opacity=".302"/>
            <feComposite operator="in" in2="blur"/>
            <feComposite in="SourceGraphic"/>
        </filter>
    </defs>
    <g data-name="App Icon-Light">
        <g style="filter:url(#0sesfikzla)">
            <path data-name="Path 15409" d="M24 0h72a24 24 0 0 1 24 24v72a24 24 0 0 1-24 24H24A24 24 0 0 1 0 96V24A24 24 0 0 1 24 0z" transform="translate(45 35)" style="fill:#fff"/>
        </g>
        <g data-name="Group 5506">
            <g data-name="Group 5452" transform="translate(55 55.901)" style="clip-path:url(#uqg1s68s0b)">
                <g data-name="Group 5403">
                    <path data-name="Path 15932" d="M1.405 2.733H-.954c.079 0 .668-.012.668-.6v-3.379a.612.612 0 0 0-.668-.608h2.025C2.454-1.874 3.483-1.461 3.5.3a2.163 2.163 0 0 1-2.1 2.431M2.689.282c-.02-1.62-.779-2.038-1.637-2.065-.146-.007-.413 0-.552.007V2.05c0 .512.242.6.6.6h.314c.853-.064 1.3-.942 1.271-2.372" transform="translate(43.348 32.534)" style="fill:#243045"/>
                </g>
                <g data-name="Group 5404">
                    <path data-name="Path 15933" d="M2.9 2.884H.868s.65-.072.428-.648L.843 1.042H-.651L-1.064 2.1c-.158.406-.027.747.458.786h-1.363c.294-.02.608-.282.8-.774l1.624-4.07s.007.025.02.057l1.7 4.209a.825.825 0 0 0 .722.576M-.193-.15-.626.97H.823L.363-.281C.239-.6.188-.7.121-.7c-.092 0-.19.237-.314.552M2.9 2.884h.02z" transform="translate(49.908 32.383)" style="fill:#243045"/>
                </g>
                <g data-name="Group 5405">
                    <path data-name="Path 15934" d="M1.511.359a1.426 1.426 0 0 0-1.6-.381.732.732 0 0 0-.3.786c.087.428.42.695 1.128.846 1.324.29 1.761.807 1.645 1.712s-.885 1.2-1.64 1.2a3.14 3.14 0 0 1-1.763-.492l-.007-1.343A2.705 2.705 0 0 0 .666 4.3c.616.143 1.291.032 1.331-.6.035-.467-.215-.925-1.506-1.239C-.658 2.182-.939 1.65-.892.97-.848.184-.141-.249.765-.244a2.8 2.8 0 0 1 1.31.314l.007 1.024a2.381 2.381 0 0 0-.571-.735" transform="translate(55.635 30.851)" style="fill:#243045"/>
                </g>
                <g data-name="Group 5406">
                    <path data-name="Path 15935" d="M4.652 3.767 4.1 6.19h-7.258a1.162 1.162 0 0 0 1.2-1.162v-6.472a1.1 1.1 0 0 0-1.2-1.113H3.7l.428 2.213A5.489 5.489 0 0 0 2.7-1.78a3.8 3.8 0 0 0-2.612-.65h-.61v4.011H.03A1.848 1.848 0 0 0 1.89.205v2.948A1.846 1.846 0 0 0 .03 1.729h-.552v3.188c0 1.086.65 1.162 1 1.162h.574A3.624 3.624 0 0 0 3.2 5.265a4.9 4.9 0 0 0 1.449-1.5" transform="translate(3.158 42.43)" style="fill:#243045"/>
                </g>
                <g data-name="Group 5407">
                    <path data-name="Path 15936" d="M2.68 5.211h-4.5c.151 0 1.274-.025 1.274-1.138v-6.447a1.169 1.169 0 0 0-1.273-1.162h3.861c2.636-.037 4.6.749 4.637 4.11.037 2.676-1.514 4.588-4 4.637M5.128.537C5.091-2.549 3.642-3.348 2-3.4c-.275-.012-.786 0-1.049.012v7.3c0 .974.462 1.148 1.15 1.148h.6c1.625-.124 2.473-1.8 2.424-4.523" transform="translate(13.185 43.409)" style="fill:#243045"/>
                </g>
                <g data-name="Group 5408">
                    <path data-name="Path 15937" d="M4.652 3.767 4.1 6.19h-7.258a1.162 1.162 0 0 0 1.2-1.162v-6.472a1.1 1.1 0 0 0-1.2-1.113H3.7l.428 2.213A5.489 5.489 0 0 0 2.7-1.78a3.8 3.8 0 0 0-2.612-.65h-.61v4.011h.549A1.849 1.849 0 0 0 1.89.205v2.948A1.847 1.847 0 0 0 .027 1.729h-.549v3.188c0 1.086.65 1.162 1 1.162h.576A3.637 3.637 0 0 0 3.2 5.265a4.9 4.9 0 0 0 1.449-1.5" transform="translate(26.35 42.43)" style="fill:#243045"/>
                </g>
                <g data-name="Group 5409">
                    <path data-name="Path 15938" d="M4.525 3.706 4 6.231h-7.072a1.154 1.154 0 0 0 1.2-1.276V-1.3A1.091 1.091 0 0 0-3.01-2.516H.7A1.1 1.1 0 0 0-.448-1.3v6.181C-.448 5.855 0 6.118.6 6.118H1a4.343 4.343 0 0 0 3.525-2.412" transform="translate(37.693 42.39)" style="fill:#243045"/>
                </g>
                <g data-name="Group 5410">
                    <path data-name="Path 15939" d="M8.724 0a2.218 2.218 0 0 0-1.65 1.575L4.163 9.16s-1.538-3.388-2.624-5.8l-2.263 5.8L-4.408 1a1.557 1.557 0 0 0-1.514-1h4.338s-1.439.126-.95 1.313c.234.562 1.024 2.424 1.872 4.336.126.237.339.688.564.688.2 0 .3-.025.6-.762.275-.688.314-.789.95-2.414L.476 1a1.572 1.572 0 0 0-1.511-1h4.323s-1.425.126-.95 1.313c.237.561 1.024 2.424 1.875 4.335.126.237.336.688.561.688.2 0 .314-.114.589-.789.312-.786.574-1.449 1.5-3.848C7.237.737 6.812.037 5.776 0z" transform="translate(48.707 39.874)" style="fill:#243045"/>
                </g>
                <g data-name="Group 5411">
                    <path data-name="Path 15940" d="M4.652 3.767 4.1 6.19h-7.258a1.162 1.162 0 0 0 1.2-1.162v-6.472a1.1 1.1 0 0 0-1.2-1.113H3.7l.428 2.213A5.489 5.489 0 0 0 2.7-1.78a3.8 3.8 0 0 0-2.612-.65h-.61v4.011H.03A1.848 1.848 0 0 0 1.89.205v2.948A1.846 1.846 0 0 0 .03 1.729h-.552v3.188c0 1.086.65 1.162 1 1.162h.574A3.624 3.624 0 0 0 3.2 5.265a4.9 4.9 0 0 0 1.449-1.5" transform="translate(62.863 42.43)" style="fill:#243045"/>
                </g>
                <g data-name="Group 5412">
                    <path data-name="Path 15941" d="M2.285 5.21h-3.836A1.149 1.149 0 0 0-.352 4v-6.325a1.132 1.132 0 0 0-1.2-1.212h3.837a1.139 1.139 0 0 0-1.212 1.212V4a1.157 1.157 0 0 0 1.212 1.21" transform="translate(74.023 43.41)" style="fill:#243045"/>
                </g>
                <g data-name="Group 5413">
                    <path data-name="Path 15942" d="M2.88.685A2.728 2.728 0 0 0-.169-.04a1.389 1.389 0 0 0-.574 1.5c.161.814.8 1.326 2.149 1.612 2.523.549 3.361 1.538 3.136 3.262-.2 1.711-1.687 2.285-3.124 2.285a5.982 5.982 0 0 1-3.361-.935l-.012-2.562A5.137 5.137 0 0 0 1.267 8.2c1.175.275 2.461.062 2.537-1.138C3.867 6.17 3.392 5.295.931 4.7c-2.189-.54-2.725-1.554-2.639-2.853C-1.619.349-.268-.477 1.455-.465a5.284 5.284 0 0 1 2.5.6l.012 1.949A4.493 4.493 0 0 0 2.88.685" transform="translate(83.519 40.201)" style="fill:#243045"/>
                </g>
                <g data-name="Group 5414">
                    <path data-name="Path 15943" d="M2.88.685A2.727 2.727 0 0 0-.169-.04a1.389 1.389 0 0 0-.574 1.5c.163.814.8 1.326 2.149 1.612 2.525.549 3.361 1.538 3.136 3.262-.2 1.711-1.687 2.285-3.124 2.285a5.982 5.982 0 0 1-3.361-.935l-.012-2.562A5.137 5.137 0 0 0 1.267 8.2c1.175.275 2.461.062 2.537-1.138C3.867 6.17 3.392 5.295.931 4.7c-2.186-.54-2.725-1.554-2.636-2.853C-1.619.349-.268-.477 1.455-.465a5.3 5.3 0 0 1 2.5.6l.012 1.949A4.532 4.532 0 0 0 2.88.685" transform="translate(95.423 40.201)" style="fill:#243045"/>
                </g>
                <g data-name="Group 5415">
                    <path data-name="Path 15944" d="M.056.506A.184.184 0 0 0 .15.53.186.186 0 0 0 .313.437l.287-.5a.186.186 0 0 0-.067-.255.189.189 0 0 0-.257.067l-.289.5a.189.189 0 0 0 .069.257" transform="translate(52.636 7.414)" style="fill:#243045"/>
                </g>
                <g data-name="Group 5416">
                    <path data-name="Path 15945" d="m.38.354-.289-.5a.187.187 0 0 0-.255-.069.187.187 0 0 0-.069.257l.289.5a.187.187 0 0 0 .161.094.184.184 0 0 0 .094-.025A.187.187 0 0 0 .38.354" transform="translate(52.856 16.822)" style="fill:#243045"/>
                </g>
                <g data-name="Group 5417">
                    <path data-name="Path 15946" d="M3.37 4.233a.165.165 0 0 0-.062-.062 1.146 1.146 0 0 0 .185-.623 1.127 1.127 0 0 0-.072-.388 1.117 1.117 0 0 0 .388.074 1.138 1.138 0 0 0 .591-2.11.194.194 0 0 0 .012-.054.177.177 0 0 0-.012-.052 1.141 1.141 0 0 0 .551-.97 1.142 1.142 0 0 0-1.14-1.14 1.116 1.116 0 0 0-.388.072 1.127 1.127 0 0 0 .072-.388 1.146 1.146 0 0 0-.185-.623.185.185 0 0 0 .062-.062l.289-.5a.186.186 0 0 0-.069-.255.189.189 0 0 0-.257.067l-.279.481a1.111 1.111 0 0 0-.7-.25 1.139 1.139 0 0 0-1.021.643 1.143 1.143 0 0 0-1.026-.642 1.122 1.122 0 0 0-.71.255l-.168-.292a.187.187 0 0 0-.257-.069.188.188 0 0 0-.067.255l.23.4a1.142 1.142 0 0 0-.168.589 1.077 1.077 0 0 0 .074.391 1.138 1.138 0 0 0-.388-.072A1.143 1.143 0 0 0-2.288.051a1.133 1.133 0 0 0 .547.967.2.2 0 0 0-.012.052.235.235 0 0 0 .012.057 1.137 1.137 0 0 0-.547.967 1.143 1.143 0 0 0 1.143 1.142 1.173 1.173 0 0 0 .385-.072 1.088 1.088 0 0 0-.072.383 1.128 1.128 0 0 0 .168.589l-.23.4a.186.186 0 0 0 .067.255.187.187 0 0 0 .094.027.191.191 0 0 0 .163-.094l.17-.291a1.122 1.122 0 0 0 .71.255 1.138 1.138 0 0 0 1.024-.643 1.135 1.135 0 0 0 1.021.643 1.123 1.123 0 0 0 .7-.247l.277.48a.191.191 0 0 0 .163.094.184.184 0 0 0 .094-.025.19.19 0 0 0 .069-.257zm.44-1.375a.765.765 0 1 1 .764-.767.767.767 0 0 1-.764.767m.765-2.81a.767.767 0 0 1-.764.767.767.767 0 0 1-.767-.767.767.767 0 0 1 .767-.767.767.767 0 0 1 .764.767M2.354-2.173a.765.765 0 0 1 .764.764.767.767 0 0 1-.764.767.767.767 0 0 1-.767-.767.765.765 0 0 1 .767-.764m-2.045 0a.765.765 0 0 1 .767.764.767.767 0 0 1-.767.767.767.767 0 0 1-.764-.767.765.765 0 0 1 .764-.764M-1.145-.716a.767.767 0 0 1 .764.767.767.767 0 0 1-.764.767.767.767 0 0 1-.767-.767.767.767 0 0 1 .767-.767m-.767 2.809a.767.767 0 0 1 .767-.764.766.766 0 0 1 .764.764.767.767 0 0 1-.764.767.767.767 0 0 1-.767-.767M.309 4.314a.765.765 0 1 1 .767-.767.767.767 0 0 1-.767.767m1.024-1.263a1.143 1.143 0 0 0-1.024-.643 1.113 1.113 0 0 0-.386.072 1.113 1.113 0 0 0 .072-.386 1.139 1.139 0 0 0-.643-1.022A1.139 1.139 0 0 0-.005.051 1.087 1.087 0 0 0-.08-.34a1.138 1.138 0 0 0 .388.072 1.138 1.138 0 0 0 1.025-.643 1.135 1.135 0 0 0 1.021.643 1.138 1.138 0 0 0 .388-.072 1.129 1.129 0 0 0-.074.388 1.137 1.137 0 0 0 .646 1.022 1.137 1.137 0 0 0-.645 1.021 1.117 1.117 0 0 0 .074.388 1.122 1.122 0 0 0-1.41.571m1.021 1.264a.765.765 0 1 1 .764-.767.767.767 0 0 1-.764.767" transform="translate(48.856 11.194)" style="fill:#243045"/>
                </g>
                <g data-name="Group 5418">
                    <path data-name="Path 15947" d="M.187.466A.191.191 0 0 0 .35.56.184.184 0 0 0 .444.535.189.189 0 0 0 .511.278l-.289-.5a.186.186 0 0 0-.255-.069.19.19 0 0 0-.067.257z" transform="translate(47.342 7.58)" style="fill:#243045"/>
                </g>
                <g data-name="Group 5419">
                    <path data-name="Path 15948" d="M12.569 10.671a.188.188 0 0 0-.015-.064 11.307 11.307 0 0 1-.22-.524.189.189 0 0 0-.141-.114l-.25-.465a.187.187 0 0 0 .1-.225c-.054-.173-.111-.354-.166-.547a.192.192 0 0 0-.232-.129.186.186 0 0 0-.121.114L9.544 5.02l1.731-3.245c-.035.136-.067.27-.1.406a.19.19 0 0 0 .146.223.226.226 0 0 0 .04 0 .188.188 0 0 0 .183-.148c.037-.183.082-.368.129-.554a.186.186 0 0 0-.134-.228.179.179 0 0 0-.114.007l.257-.477a.211.211 0 0 0 .057.01.19.19 0 0 0 .178-.129c.059-.176.124-.354.2-.532a.192.192 0 0 0 0-.148l.319-.6a.124.124 0 0 0 .03-.032q.122-.252.26-.5a.173.173 0 0 0 .022-.092v-.02a.167.167 0 0 0-.017-.057v-.022c0-.007-.007 0-.01-.01l-.022-.022a.169.169 0 0 0-.124-.059l-.324-.01a.178.178 0 0 0-.064-.02c-.151-.017-.341-.04-.564-.072a.174.174 0 0 0-.168.067l-.529-.017a.184.184 0 0 0-.146-.2 12.966 12.966 0 0 1-.556-.129.188.188 0 0 0-.228.136.189.189 0 0 0 .042.166l-4.2-.131-1.962-3.139c.1.1.205.2.312.292a.183.183 0 0 0 .124.049.188.188 0 0 0 .141-.064.188.188 0 0 0-.015-.265 10.773 10.773 0 0 1-.415-.388.187.187 0 0 0-.265 0 .178.178 0 0 0-.049.1l-.288-.456a.187.187 0 0 0 .017-.262q-.185-.211-.364-.438a.182.182 0 0 0-.129-.069l-.354-.566a.173.173 0 0 0-.02-.049c-.1-.151-.2-.307-.3-.467l-.007-.012h-.007a.19.19 0 0 0-.057-.061.088.088 0 0 1-.022-.01.174.174 0 0 0-.062-.015h-.025a.222.222 0 0 0-.067.017l-.015.007a.178.178 0 0 0-.057.057l-.2.326-.007.007c-.1.161-.213.314-.322.465a.169.169 0 0 0-.032.106l-.314.5a.181.181 0 0 0-.181.059Q.7-5.467.51-5.263A.187.187 0 0 0 .52-5a.15.15 0 0 0 .059.037l-2.2 3.534-4.533.146a.2.2 0 0 0 0-.077.188.188 0 0 0-.226-.14c-.2.045-.386.082-.561.114a.194.194 0 0 0-.146.136l-.584.02a.167.167 0 0 0-.116-.027c-.354.04-.559.049-.564.049a.158.158 0 0 0-.082.025.087.087 0 0 0-.02.012.242.242 0 0 0-.042.045l-.01.012c-.003.005 0 .007 0 .01a.191.191 0 0 0-.017.064v.02c0 .008 0 0 0 0a.2.2 0 0 0 .012.08l.153.284a.175.175 0 0 0 .015.069c.062.138.138.314.22.524a.185.185 0 0 0 .138.106l.252.472a.191.191 0 0 0-.1.225c.057.171.114.354.168.547a.19.19 0 0 0 .181.136.188.188 0 0 0 .052-.007.188.188 0 0 0 .121-.106l1.978 3.71-1.731 3.232c.035-.136.067-.272.094-.408a.187.187 0 0 0-.143-.223.189.189 0 0 0-.223.146c-.037.183-.082.368-.129.554a.186.186 0 0 0 .134.228.168.168 0 0 0 .047.007.191.191 0 0 0 .072-.025l-.262.487a.189.189 0 0 0-.235.119 7.082 7.082 0 0 1-.2.532.176.176 0 0 0 0 .146l-.319.594a.165.165 0 0 0-.03.04q-.122.252-.26.5v.007a.14.14 0 0 0-.01.03.132.132 0 0 0-.01.04v.027a.188.188 0 0 0 .007.04.2.2 0 0 0 .01.022.027.027 0 0 1 0 .012l.01.007a.054.054 0 0 0 .012.02.143.143 0 0 0 .03.025l.012.012a.163.163 0 0 0 .077.022s.21.007.564.049h.022a.189.189 0 0 0 .092-.027l.589.02a.188.188 0 0 0 .143.134c.176.03.364.069.561.111a.109.109 0 0 0 .04 0 .188.188 0 0 0 .183-.146.175.175 0 0 0 0-.072l4.533.161 2.2 3.514a.2.2 0 0 0-.054.035.19.19 0 0 0-.01.267q.193.2.378.423a.184.184 0 0 0 .143.067c.01 0 .02-.01.03-.012l.322.512a.17.17 0 0 0 .032.1c.109.151.218.307.322.467l.205.331a.178.178 0 0 0 .057.057.2.2 0 0 0 .092.025.106.106 0 0 0 .04-.012.123.123 0 0 0 .095.023.191.191 0 0 0 .069-.064v-.007c.1-.161.2-.319.3-.472a.166.166 0 0 0 .017-.045l.359-.576a.174.174 0 0 0 .126-.067c.119-.148.24-.294.364-.435a.186.186 0 0 0-.015-.26l.287-.46a.176.176 0 0 0 .047.1.187.187 0 0 0 .134.057.194.194 0 0 0 .131-.054 8.8 8.8 0 0 1 .415-.388.188.188 0 0 0 .015-.265.183.183 0 0 0-.265-.015c-.1.089-.2.185-.3.279l1.938-3.108 4.194-.143a.187.187 0 0 0-.035.158.19.19 0 0 0 .183.141.273.273 0 0 0 .045 0c.2-.049.381-.092.556-.129a.183.183 0 0 0 .146-.2l.532-.02a.182.182 0 0 0 .138.067.111.111 0 0 0 .027 0c.223-.035.413-.057.564-.072a.254.254 0 0 0 .062-.017l.326-.012a.188.188 0 0 0 .158-.277zm-6.669.411V7.431l5.99 3.445zm-3.607 5.337v-6.9l3.161 1.825zm-3.549-5.07 3.173-1.833v6.907zm-6.428-.47 5.977-3.452v3.663zm2.639-5.6L-1.892 7.1l-5.977 3.452zM-7.869-.53l5.977 3.47-3.153 1.82zm6.163-.519v3.663l-5.978-3.47zM1.917-6.4V.524l-3.173-1.833zm3.536 5.1L2.293.524V-6.4zm6.437.445L5.9 2.606v-3.647zM9.257 4.76 6.089 2.933l5.99-3.465zm2.822 5.792-5.99-3.445L9.257 5.28zM2.2 9.029a.183.183 0 0 0-.188 0l-3.018 1.741.057-.094a.189.189 0 0 0-.069-.257.19.19 0 0 0-.257.069l-.054.1V7.1a.19.19 0 0 0-.094-.163l-3.036-1.751a.187.187 0 0 0 .1-.166.187.187 0 0 0-.1-.166L-1.424 3.1a.193.193 0 0 0 .094-.16V-.544l.054.1a.186.186 0 0 0 .163.094.184.184 0 0 0 .094-.025.189.189 0 0 0 .07-.261l-.057-.1 3.017 1.747a.183.183 0 0 0 .188 0L5.241-.745a.183.183 0 0 0 .092.171.187.187 0 0 0 .094.027.2.2 0 0 0 .1-.035v3.515a.181.181 0 0 0 .094.161l3.047 1.76a.184.184 0 0 0 0 .331L5.622 6.947a.181.181 0 0 0-.094.161v3.512a.185.185 0 0 0-.2 0 .18.18 0 0 0-.092.171z" transform="translate(48.082 7.244)" style="fill:#243045"/>
                </g>
                <g data-name="Group 5420">
                    <path data-name="Path 15949" d="M.455 0h-.576a.188.188 0 0 0-.188.188.188.188 0 0 0 .188.188h.576a.188.188 0 0 0 0-.376" transform="translate(44.527 12.076)" style="fill:#243045"/>
                </g>
                <g data-name="Group 5421">
                    <path data-name="Path 15950" d="M.455 0h-.576a.188.188 0 0 0-.188.188.188.188 0 0 0 .188.188h.576a.188.188 0 0 0 0-.376" transform="translate(45.97 12.076)" style="fill:#243045"/>
                </g>
                <g data-name="Group 5422">
                    <path data-name="Path 15951" d="M.112.224h.576a.188.188 0 0 0 0-.376H.112a.188.188 0 0 0 0 .376" transform="translate(55.281 12.228)" style="fill:#243045"/>
                </g>
                <g data-name="Group 5423">
                    <path data-name="Path 15952" d="M.112.224h.576a.188.188 0 0 0 0-.376H.112a.188.188 0 0 0 0 .376" transform="translate(53.838 12.228)" style="fill:#243045"/>
                </g>
                <g data-name="Group 5424">
                    <path data-name="Path 15953" d="M.47.176C.3.08.126-.012-.047-.1A.186.186 0 0 0-.3-.017a.187.187 0 0 0 .085.253C-.049.32.119.409.287.5a.17.17 0 0 0 .092.027A.188.188 0 0 0 .47.176" transform="translate(45.401 19.765)" style="fill:#243045"/>
                </g>
                <g data-name="Group 5425">
                    <path data-name="Path 15954" d="M.475.139a12.346 12.346 0 0 0-.542-.22.185.185 0 0 0-.242.106A.187.187 0 0 0-.2.268c.176.067.351.138.529.215A.2.2 0 0 0 .4.5.2.2 0 0 0 .573.387a.191.191 0 0 0-.1-.247" transform="translate(44.086 19.155)" style="fill:#243045"/>
                </g>
                <g data-name="Group 5426">
                    <path data-name="Path 15955" d="M.475.1C.285.043.1-.014-.083-.063a.185.185 0 0 0-.233.128A.188.188 0 0 0-.185.3c.176.049.359.1.547.163a.145.145 0 0 0 .057.01A.185.185 0 0 0 .6.34.187.187 0 0 0 .475.1" transform="translate(42.717 18.675)" style="fill:#243045"/>
                </g>
                <g data-name="Group 5427">
                    <path data-name="Path 15956" d="M.173.018a.188.188 0 0 0-.205.314c.158.1.314.21.47.322a.178.178 0 0 0 .108.034A.187.187 0 0 0 .655.35C.5.233.334.125.173.018" transform="translate(46.449 20.378)" style="fill:#243045"/>
                </g>
                <g data-name="Group 5428">
                    <path data-name="Path 15957" d="M.183.026a.188.188 0 1 0-.24.289C.087.434.23.557.371.689A.187.187 0 0 0 .624.412 9.897 9.897 0 0 0 .183.026" transform="translate(47.616 21.239)" style="fill:#243045"/>
                </g>
                <g data-name="Group 5429">
                    <path data-name="Path 15958" d="M.055.208c.168.1.339.2.507.292a.2.2 0 0 0 .091.022.183.183 0 0 0 .163-.1.187.187 0 0 0-.074-.254 12.452 12.452 0 0 1-.495-.282.186.186 0 0 0-.257.065.186.186 0 0 0 .065.257" transform="translate(54.1 4.155)" style="fill:#243045"/>
                </g>
                <g data-name="Group 5430">
                    <path data-name="Path 15959" d="M.064.213C.245.3.423.376.6.448a.2.2 0 0 0 .073.015.19.19 0 0 0 .173-.114A.19.19 0 0 0 .745.1C.571.03.4-.046.223-.128a.19.19 0 0 0-.25.092.19.19 0 0 0 .092.25" transform="translate(55.382 4.836)" style="fill:#243045"/>
                </g>
                <g data-name="Group 5431">
                    <path data-name="Path 15960" d="M.074.217C.262.284.448.343.628.4a.24.24 0 0 0 .057.007.185.185 0 0 0 .178-.131A.187.187 0 0 0 .74.041Q.476-.04.2-.137a.185.185 0 0 0-.237.114.186.186 0 0 0 .114.24" transform="translate(56.726 5.381)" style="fill:#243045"/>
                </g>
                <g data-name="Group 5432">
                    <path data-name="Path 15961" d="M.325.407a.194.194 0 0 0 .106.034A.188.188 0 0 0 .54.1a14.5 14.5 0 0 1-.458-.336.187.187 0 0 0-.264.036.188.188 0 0 0 .034.261C.008.182.166.3.325.407" transform="translate(53.092 3.478)" style="fill:#243045"/>
                </g>
                <g data-name="Group 5433">
                    <path data-name="Path 15962" d="M.149.565a.084.084 0 0 0 .025 0A.186.186 0 0 0 .335.352a15.693 15.693 0 0 1-.062-.564.186.186 0 0 0-.2-.171A.188.188 0 0 0-.1-.18c.017.2.04.391.064.581a.189.189 0 0 0 .185.164" transform="translate(59.157 13.392)" style="fill:#243045"/>
                </g>
                <g data-name="Group 5434">
                    <path data-name="Path 15963" d="M0 .256V.6a.188.188 0 0 0 .193.182.188.188 0 0 0 .188-.193V.02a.189.189 0 0 0-.188-.19C.089-.195 0-.088 0 .013z" transform="translate(59.003 11.736)" style="fill:#243045"/>
                </g>
                <g data-name="Group 5435">
                    <path data-name="Path 15964" d="M.182.56a.244.244 0 0 0 .042 0A.188.188 0 0 0 .365.33C.325.15.286-.036.249-.226a.186.186 0 0 0-.218-.151.188.188 0 0 0-.151.22q.056.293.12.571A.188.188 0 0 0 .182.56" transform="translate(59.378 14.816)" style="fill:#243045"/>
                </g>
                <g data-name="Group 5436">
                    <path data-name="Path 15965" d="M.1.565h.017A.188.188 0 0 0 .3.394C.32.209.342.018.367-.169a.191.191 0 0 0-.161-.213.191.191 0 0 0-.213.163c-.025.2-.047.388-.062.581A.186.186 0 0 0 .1.565" transform="translate(59.119 10.511)" style="fill:#243045"/>
                </g>
                <g data-name="Group 5437">
                    <path data-name="Path 15966" d="M.1 0a.184.184 0 0 0-.161.21c.019.19.042.375.061.568a.19.19 0 0 0 .183.171H.2a.188.188 0 0 0 .168-.2A11.155 11.155 0 0 0 .307.165.187.187 0 0 0 .1 0" transform="translate(40.949 10.555)" style="fill:#243045"/>
                </g>
                <g data-name="Group 5438">
                    <path data-name="Path 15967" d="M.087 0a.186.186 0 0 0-.141.228c.04.181.079.366.116.556a.185.185 0 0 0 .183.154.152.152 0 0 0 .035 0A.187.187 0 0 0 .431.715Q.375.422.312.144A.189.189 0 0 0 .087 0" transform="translate(40.687 9.138)" style="fill:#243045"/>
                </g>
                <g data-name="Group 5439">
                    <path data-name="Path 15968" d="M.158 0a.188.188 0 0 0-.2.171c-.017.186-.039.376-.064.564a.191.191 0 0 0 .161.213h.024A.191.191 0 0 0 .267.784C.292.589.314.4.329.2A.186.186 0 0 0 .158 0" transform="translate(40.996 13.436)" style="fill:#243045"/>
                </g>
                <g data-name="Group 5440">
                    <path data-name="Path 15969" d="M.226.314V-.03a.186.186 0 0 0-.198-.183.184.184 0 0 0-.181.193v.569a.189.189 0 0 0 .185.19.188.188 0 0 0 .191-.183z" transform="translate(41.147 12.206)" style="fill:#243045"/>
                </g>
                <g data-name="Group 5441">
                    <path data-name="Path 15970" d="M.112.386A.2.2 0 0 0 .2.366C.369.279.54.188.713.089a.186.186 0 0 0 .072-.255.187.187 0 0 0-.255-.072C.362-.144.194-.055.028.03a.188.188 0 0 0 .084.356" transform="translate(45.158 4.476)" style="fill:#243045"/>
                </g>
                <g data-name="Group 5442">
                    <path data-name="Path 15971" d="M.112.418a.186.186 0 0 0 .1-.03C.376.282.537.17.7.057a.189.189 0 0 0 .04-.262.187.187 0 0 0-.262-.042C.322-.136.166-.03.008.074a.189.189 0 0 0-.054.26.191.191 0 0 0 .158.084" transform="translate(46.409 3.724)" style="fill:#243045"/>
                </g>
                <g data-name="Group 5443">
                    <path data-name="Path 15972" d="M.112.354A.212.212 0 0 0 .179.341Q.446.237.72.119a.184.184 0 0 0 .1-.245.189.189 0 0 0-.247-.1Q.3-.11.045-.01a.188.188 0 0 0 .067.364" transform="translate(43.84 5.094)" style="fill:#243045"/>
                </g>
                <g data-name="Group 5444">
                    <path data-name="Path 15973" d="M.112.45A.193.193 0 0 0 .233.406C.381.282.527.153.673.02a.185.185 0 0 0 .01-.265.185.185 0 0 0-.265-.01 9.931 9.931 0 0 1-.427.374.188.188 0 0 0-.023.264.184.184 0 0 0 .144.067" transform="translate(47.569 2.836)" style="fill:#243045"/>
                </g>
                <g data-name="Group 5445">
                    <path data-name="Path 15974" d="M.112.322A.188.188 0 0 0 .164.315C.344.265.532.208.722.147a.187.187 0 0 0 .122-.235.188.188 0 0 0-.238-.121C.421-.15.238-.1.06-.046a.188.188 0 0 0 .052.368" transform="translate(42.47 5.581)" style="fill:#243045"/>
                </g>
                <g data-name="Group 5446">
                    <path data-name="Path 15975" d="M.406 0C.225.062.04.121-.148.188a.188.188 0 0 0-.116.24.187.187 0 0 0 .177.123.189.189 0 0 0 .062-.01Q.25.445.517.363A.188.188 0 0 0 .641.128.19.19 0 0 0 .406 0" transform="translate(56.95 18.721)" style="fill:#243045"/>
                </g>
                <g data-name="Group 5447">
                    <path data-name="Path 15976" d="M.357.013A7.09 7.09 0 0 0-.15.305a.186.186 0 0 0-.065.258.19.19 0 0 0 .161.091.2.2 0 0 0 .1-.027c.163-.1.329-.2.492-.284A.188.188 0 0 0 .611.088.189.189 0 0 0 .357.013" transform="translate(54.307 19.84)" style="fill:#243045"/>
                </g>
                <g data-name="Group 5448">
                    <path data-name="Path 15977" d="M.383.009C.208.083.027.162-.151.244a.188.188 0 0 0-.092.25A.186.186 0 0 0-.072.6.191.191 0 0 0 .007.585C.183.5.356.427.529.355A.188.188 0 0 0 .383.009" transform="translate(55.598 19.214)" style="fill:#243045"/>
                </g>
                <g data-name="Group 5449">
                    <path data-name="Path 15978" d="M.325.02C.166.132.008.245-.148.367a.188.188 0 0 0-.034.262A.186.186 0 0 0-.034.7.184.184 0 0 0 .082.663 14.5 14.5 0 0 1 .54.327.187.187 0 1 0 .325.02" transform="translate(53.092 20.603)" style="fill:#243045"/>
                </g>
                <g data-name="Group 5450">
                    <path data-name="Path 15979" d="M.339.015a.187.187 0 0 0-.257.069l-.282.5a.186.186 0 0 0 .062.255.187.187 0 0 0 .094.027.191.191 0 0 0 .163-.094l.289-.5A.189.189 0 0 0 .339.015" transform="translate(47.445 16.398)" style="fill:#243045"/>
                </g>
                <g data-name="Group 5451">
                    <path data-name="Path 15980" d="M.616.635.457.566C.27.482.129.4.129.259A.3.3 0 0 1 .45-.04.368.368 0 0 1 .8.182l.036.067.334-.213-.032-.059a.755.755 0 0 0-.68-.408.7.7 0 0 0-.739.68C-.282.637 0 .8.279.924l.156.07c.24.109.386.188.386.4a.406.406 0 0 1-.421.393.416.416 0 0 1-.4-.378l-.012-.082-.4.111.015.067a.809.809 0 0 0 .814.675.807.807 0 0 0 .821-.809c0-.43-.3-.6-.616-.737" transform="translate(15.342 66.467)" style="fill:#243045"/>
                </g>
            </g>
            <g data-name="Group 5453">
                <path data-name="Path 15982" d="M0 1.638h.45L.737.96h.922l.282.678h.45l-1.18-2.75zM1.2-.128l.3.698H.908z" transform="translate(72.631 122.869)" style="fill:#243045"/>
            </g>
            <g data-name="Group 5454">
                <path data-name="Path 15983" d="M0 0v2.528h1.068v-.391H.411V0z" style="fill:#243045" transform="translate(76.174 121.979)"/>
            </g>
            <g data-name="Group 5455">
                <path data-name="Path 15984" d="M.131 0v.391h1.078l-1.3 2.137h1.909v-.391H.608L1.909 0z" transform="translate(78.271 121.979)" style="fill:#243045"/>
            </g>
            <g data-name="Group 5460" transform="translate(55 55.901)" style="clip-path:url(#uqg1s68s0b)">
                <g data-name="Group 5456">
                    <path data-name="Path 15985" d="M.7.688a.62.62 0 0 0 .16-.44c0-.46-.309-.715-.868-.715h-.465v2.528h.626c.579 0 .925-.277.925-.737A.688.688 0 0 0 .7.688M-.033.582h-.03v-.658h.033c.339 0 .48.045.48.324S.294.582-.033.582m-.03.371H.1c.4 0 .574.109.574.351 0 .156-.057.366-.539.366h-.197z" transform="translate(26.834 66.546)" style="fill:#243045"/>
                </g>
                <g data-name="Group 5457">
                    <path data-name="Path 15986" d="M.854.91a.715.715 0 0 1-.1.465.566.566 0 0 1-.411.185.545.545 0 0 1-.423-.2A.759.759 0 0 1-.169.9V-.618H-.58V.945a.918.918 0 0 0 .255.742.968.968 0 0 0 .668.265.948.948 0 0 0 .692-.294.907.907 0 0 0 .23-.712V-.618H.854z" transform="translate(29.804 66.696)" style="fill:#243045"/>
                </g>
                <g data-name="Group 5458">
                    <path data-name="Path 15987" d="M.81.435c0-.485-.319-.73-.945-.73H-.55v2.528h.408v-.982l.678.982h.5l-.77-1.089A.685.685 0 0 0 .81.435M-.142.1h.007C.219.1.4.15.4.454.4.707.246.808-.132.808h-.01z" transform="translate(33.021 66.373)" style="fill:#243045"/>
                </g>
                <g data-name="Group 5459">
                    <path data-name="Path 15988" d="M.812.731v.391h.7a.763.763 0 0 1-.774.6.922.922 0 0 1-.621-.282A.88.88 0 0 1-.14.82a.914.914 0 0 1 .9-.925.9.9 0 0 1 .762.418l.047.069L1.87.1 1.831.048A1.316 1.316 0 0 0-.551.815a1.3 1.3 0 0 0 1.3 1.3 1.25 1.25 0 0 0 .937-.423A1.215 1.215 0 0 0 1.949.8V.728z" transform="translate(35.669 66.532)" style="fill:#243045"/>
                </g>
            </g>
            <g data-name="Group 5461">
                <path data-name="Path 15990" d="M.856 1.229-.037-.834-.581 2h.418L.114.546.856 2.2 1.6.544 1.877 2H2.3L1.751-.834z" transform="translate(96.363 122.506)" style="fill:#243045"/>
            </g>
            <g data-name="Group 5464" transform="translate(55 55.901)" style="clip-path:url(#uqg1s68s0b)">
                <g data-name="Group 5462">
                    <path data-name="Path 15991" d="M.784 0A1.314 1.314 0 0 0-.532 1.308a1.31 1.31 0 0 0 1.316 1.3 1.31 1.31 0 0 0 1.316-1.3A1.314 1.314 0 0 0 .784 0m0 2.218a.914.914 0 0 1 0-1.828.914.914 0 0 1 0 1.828" transform="translate(45.287 66.037)" style="fill:#243045"/>
                </g>
                <g data-name="Group 5463">
                    <path data-name="Path 15992" d="M.854.91a.712.712 0 0 1-.1.465.557.557 0 0 1-.411.185.545.545 0 0 1-.423-.2A.766.766 0 0 1-.172.9V-.618H-.58V.947a.913.913 0 0 0 .255.739.968.968 0 0 0 .668.265.939.939 0 0 0 .692-.294.9.9 0 0 0 .23-.71V-.618H.854z" transform="translate(49.25 66.695)" style="fill:#243045"/>
                </g>
            </g>
            <g data-name="Group 5465">
                <path data-name="Path 15994" d="M0 1.631h.411V-.1l1.857 1.943V-.9H1.86V.839L0-1.107z" transform="translate(106.93 122.876)" style="fill:#243045"/>
            </g>
            <g data-name="Group 5466">
                <path data-name="Path 15995" d="M0 0v.391h.576v2.137h.411V.391h.581V0z" style="fill:#243045" transform="translate(110.416 121.979)"/>
            </g>
            <g data-name="Group 5467">
                <path data-name="Path 15996" d="M0 1.638h.448L.737.96h.922l.279.678h.453l-1.18-2.75zM1.2-.128l.292.7H.905z" transform="translate(112.673 122.869)" style="fill:#243045"/>
            </g>
            <path data-name="Path 15997" d="M24.755-2.372h.411V-4.9h-.411z" transform="translate(91.467 126.88)" style="fill:#243045"/>
            <g data-name="Group 5468">
                <path data-name="Path 15998" d="M0 1.631h.411V-.1l1.857 1.943V-.9H1.86V.839L0-1.107z" transform="translate(118.061 122.876)" style="fill:#243045"/>
            </g>
            <g data-name="Group 5470" transform="translate(55 55.901)" style="clip-path:url(#uqg1s68s0b)">
                <g data-name="Group 5469">
                    <path data-name="Path 15999" d="M.81.435c0-.485-.319-.73-.945-.73H-.55v2.528h.408v-.982l.678.982h.5l-.77-1.089A.685.685 0 0 0 .81.435M-.142.1h.007C.219.1.4.15.4.454.4.707.246.808-.132.808h-.01z" transform="translate(69.354 66.373)" style="fill:#243045"/>
                </g>
            </g>
            <g data-name="Group 5471">
                <path data-name="Path 16001" d="M0 0v2.528h1.38v-.391H.411v-.792h.94v-.39h-.94V.391h.969V0z" style="fill:#243045" transform="translate(126.59 121.979)"/>
            </g>
            <g data-name="Group 5475" transform="translate(55 55.901)" style="clip-path:url(#uqg1s68s0b)">
                <g data-name="Group 5472">
                    <path data-name="Path 16002" d="M.616.635.457.566C.27.482.129.4.129.259A.3.3 0 0 1 .45-.04.368.368 0 0 1 .8.182l.036.067.334-.213-.032-.059a.755.755 0 0 0-.68-.408.7.7 0 0 0-.739.68C-.282.637 0 .8.279.924l.156.07c.24.109.386.188.386.4a.406.406 0 0 1-.421.393.416.416 0 0 1-.4-.378l-.012-.082-.4.111.015.067a.809.809 0 0 0 .814.675.807.807 0 0 0 .821-.809c0-.43-.3-.6-.616-.737" transform="translate(74.644 66.467)" style="fill:#243045"/>
                </g>
                <g data-name="Group 5473">
                    <path data-name="Path 16003" d="M.784 0A1.314 1.314 0 0 0-.532 1.308a1.31 1.31 0 0 0 1.316 1.3 1.31 1.31 0 0 0 1.316-1.3A1.314 1.314 0 0 0 .784 0m0 2.218a.914.914 0 0 1 0-1.828.914.914 0 0 1 0 1.828" transform="translate(77.604 66.037)" style="fill:#243045"/>
                </g>
                <g data-name="Group 5474">
                    <path data-name="Path 16004" d="M.81.435c0-.485-.319-.73-.945-.73H-.55v2.528h.408v-.982l.678.982h.5l-.77-1.089A.685.685 0 0 0 .81.435M-.142.1h.007C.219.1.4.15.4.454.4.707.246.808-.132.808h-.01z" transform="translate(81.543 66.373)" style="fill:#243045"/>
                </g>
            </g>
            <g data-name="Group 5476">
                <path data-name="Path 16006" d="M0 0v.391h.576v2.137h.411V.391h.581V0z" style="fill:#243045" transform="translate(138.507 121.979)"/>
            </g>
            <g data-name="Group 5477">
                <path data-name="Path 16007" d="M0 0v2.528h.411V1.345H1.2v-.39H.411V.391h.819V0z" style="fill:#243045" transform="translate(82.11 131.367)"/>
            </g>
            <g data-name="Group 5478">
                <path data-name="Path 16008" d="M0 1.638h.45L.737.96h.922l.282.678h.45l-1.177-2.75zM1.2-.128l.292.7H.905z" transform="translate(84.182 132.257)" style="fill:#243045"/>
            </g>
            <g data-name="Group 5479">
                <path data-name="Path 16009" d="M.856 1.229-.037-.834-.581 2h.418L.114.546.856 2.2 1.6.546 1.877 2H2.3L1.751-.834z" transform="translate(88.119 131.895)" style="fill:#243045"/>
            </g>
            <path data-name="Path 16010" d="M14.815 1.424h.411V-1.1h-.411z" transform="translate(76.824 132.472)" style="fill:#243045"/>
            <g data-name="Group 5480">
                <path data-name="Path 16011" d="M0 0v2.528h1.068v-.391H.411V0z" style="fill:#243045" transform="translate(93.462 131.367)"/>
            </g>
            <path data-name="Path 16012" d="M16.468 1.424h.411V-1.1h-.411z" transform="translate(79.259 132.472)" style="fill:#243045"/>
            <g data-name="Group 5481">
                <path data-name="Path 16013" d="M0 0v2.528h1.38v-.391H.411v-.792h.942v-.39H.411V.391h.969V0z" style="fill:#243045" transform="translate(97.551 131.367)"/>
            </g>
            <g data-name="Group 5482">
                <path data-name="Path 16014" d="M.885 0v.967H-.193V0H-.6v2.528h.408V1.36H.885v1.168H1.3V0z" transform="translate(102.975 131.367)" style="fill:#243045"/>
            </g>
            <g data-name="Group 5483">
                <path data-name="Path 16015" d="M0 0v2.528h1.38v-.391H.411v-.792h.94v-.39h-.94V.391h.969V0z" style="fill:#243045" transform="translate(105.692 131.367)"/>
            </g>
            <g data-name="Group 5484">
                <path data-name="Path 16016" d="M0 0v.391h.574v2.137h.413V.391h.581V0z" style="fill:#243045" transform="translate(108.245 131.367)"/>
            </g>
            <g data-name="Group 5485">
                <path data-name="Path 16017" d="M0 0v.391h.576v2.137h.411V.391h.581V0z" style="fill:#243045" transform="translate(110.805 131.367)"/>
            </g>
            <g data-name="Group 5486">
                <path data-name="Path 16018" d="M0 0v2.528h1.38v-.391H.411v-.792h.94v-.39h-.94V.391h.969V0z" style="fill:#243045" transform="translate(113.574 131.367)"/>
            </g>
            <g data-name="Group 5489" transform="translate(55 55.901)" style="clip-path:url(#uqg1s68s0b)">
                <g data-name="Group 5487">
                    <path data-name="Path 16019" d="M.812.731v.391h.7a.763.763 0 0 1-.774.6.922.922 0 0 1-.621-.282A.88.88 0 0 1-.14.82a.914.914 0 0 1 .9-.925.9.9 0 0 1 .762.418l.047.069L1.87.1 1.831.048A1.316 1.316 0 0 0-.551.815a1.3 1.3 0 0 0 1.3 1.3 1.25 1.25 0 0 0 .937-.423A1.215 1.215 0 0 0 1.949.8V.728z" transform="translate(61.747 75.922)" style="fill:#243045"/>
                </g>
                <g data-name="Group 5488">
                    <path data-name="Path 16020" d="M.812.731v.391h.7a.763.763 0 0 1-.774.6.922.922 0 0 1-.621-.282A.88.88 0 0 1-.14.82a.914.914 0 0 1 .9-.925.9.9 0 0 1 .762.418l.047.069L1.87.1 1.831.048A1.316 1.316 0 0 0-.551.815a1.3 1.3 0 0 0 1.3 1.3 1.25 1.25 0 0 0 .937-.423A1.215 1.215 0 0 0 1.949.8V.728z" transform="translate(65.413 75.922)" style="fill:#243045"/>
                </g>
            </g>
            <g data-name="Group 5490">
                <path data-name="Path 16022" d="M0 0v2.528h1.38v-.391H.411v-.792h.94v-.39h-.94V.391h.969V0z" style="fill:#243045" transform="translate(123.668 131.367)"/>
            </g>
            <g data-name="Group 5505" transform="translate(55 55.901)" style="clip-path:url(#uqg1s68s0b)">
                <g data-name="Group 5491">
                    <path data-name="Path 16023" d="M.488.857a.687.687 0 0 0 .544-.71c0-.485-.319-.73-.945-.73h-.418v2.529H.08V.961l.678.984h.5zM.08-.191h.007c.354 0 .534.054.534.356 0 .252-.153.356-.532.356H.08z" transform="translate(71.76 76.05)" style="fill:#243045"/>
                </g>
                <g data-name="Group 5492">
                    <path data-name="Path 16024" d="M2.1.224h-.559a.183.183 0 0 1-.18-.188.183.183 0 0 1 .181-.188H2.1a.185.185 0 0 1 .181.188.185.185 0 0 1-.181.188m-1.395 0H.149A.185.185 0 0 1-.032.036a.185.185 0 0 1 .181-.188h.556a.183.183 0 0 1 .181.188.183.183 0 0 1-.181.188m-1.392 0h-.556a.185.185 0 0 1-.181-.188.185.185 0 0 1 .181-.188h.556A.185.185 0 0 1-.5.036a.185.185 0 0 1-.187.188" transform="translate(33.567 71.995)" style="fill:#243045"/>
                </g>
                <g data-name="Group 5493">
                    <path data-name="Path 16025" d="M1.268.224H.712A.183.183 0 0 1 .531.036a.183.183 0 0 1 .181-.188h.556a.185.185 0 0 1 .181.188.185.185 0 0 1-.181.188m-1.392 0H-.68A.185.185 0 0 1-.861.036.185.185 0 0 1-.68-.152h.556a.183.183 0 0 1 .181.188.183.183 0 0 1-.181.188" transform="translate(37.18 71.995)" style="fill:#243045"/>
                </g>
                <g data-name="Group 5494">
                    <path data-name="Path 16026" d="M1.268.224H.712A.183.183 0 0 1 .531.036a.183.183 0 0 1 .181-.188h.556a.185.185 0 0 1 .181.188.185.185 0 0 1-.181.188m-1.392 0H-.68A.185.185 0 0 1-.861.036.185.185 0 0 1-.68-.152h.556a.183.183 0 0 1 .181.188.183.183 0 0 1-.181.188" transform="translate(39.963 71.995)" style="fill:#243045"/>
                </g>
                <g data-name="Group 5495">
                    <path data-name="Path 16027" d="M1.268.224H.712A.183.183 0 0 1 .531.036a.183.183 0 0 1 .181-.188h.556a.185.185 0 0 1 .181.188.185.185 0 0 1-.181.188m-1.392 0H-.68A.185.185 0 0 1-.861.036.185.185 0 0 1-.68-.152h.556a.183.183 0 0 1 .181.188.183.183 0 0 1-.181.188" transform="translate(42.747 71.995)" style="fill:#243045"/>
                </g>
                <g data-name="Group 5496">
                    <path data-name="Path 16028" d="M1.268.224H.712A.183.183 0 0 1 .531.036a.183.183 0 0 1 .181-.188h.556a.185.185 0 0 1 .181.188.185.185 0 0 1-.181.188m-1.392 0H-.68A.185.185 0 0 1-.861.036.185.185 0 0 1-.68-.152h.556a.183.183 0 0 1 .181.188.183.183 0 0 1-.181.188" transform="translate(45.53 71.995)" style="fill:#243045"/>
                </g>
                <g data-name="Group 5497">
                    <path data-name="Path 16029" d="M1.268.224H.712A.183.183 0 0 1 .531.036a.183.183 0 0 1 .181-.188h.556a.185.185 0 0 1 .181.188.185.185 0 0 1-.181.188m-1.392 0H-.68A.185.185 0 0 1-.861.036.185.185 0 0 1-.68-.152h.556a.183.183 0 0 1 .181.188.183.183 0 0 1-.181.188" transform="translate(62.232 71.995)" style="fill:#243045"/>
                </g>
                <g data-name="Group 5498">
                    <path data-name="Path 16030" d="M1.268.224H.712A.183.183 0 0 1 .531.036a.183.183 0 0 1 .181-.188h.556a.185.185 0 0 1 .181.188.185.185 0 0 1-.181.188m-1.392 0H-.68A.185.185 0 0 1-.861.036.185.185 0 0 1-.68-.152h.556a.183.183 0 0 1 .181.188.183.183 0 0 1-.181.188" transform="translate(65.015 71.995)" style="fill:#243045"/>
                </g>
                <g data-name="Group 5499">
                    <path data-name="Path 16031" d="M1.268.224H.712A.183.183 0 0 1 .531.036a.183.183 0 0 1 .181-.188h.556a.185.185 0 0 1 .181.188.185.185 0 0 1-.181.188m-1.392 0H-.68A.185.185 0 0 1-.861.036.185.185 0 0 1-.68-.152h.556a.183.183 0 0 1 .181.188.183.183 0 0 1-.181.188" transform="translate(66.407 71.995)" style="fill:#243045"/>
                </g>
                <g data-name="Group 5500">
                    <path data-name="Path 16032" d="M1.268.224H.712A.183.183 0 0 1 .531.036a.183.183 0 0 1 .181-.188h.556a.185.185 0 0 1 .181.188.185.185 0 0 1-.181.188m-1.392 0H-.68A.185.185 0 0 1-.861.036.185.185 0 0 1-.68-.152h.556a.183.183 0 0 1 .181.188.183.183 0 0 1-.181.188" transform="translate(48.314 71.995)" style="fill:#243045"/>
                </g>
                <g data-name="Group 5501">
                    <path data-name="Path 16033" d="M1.268.224H.712A.183.183 0 0 1 .531.036a.183.183 0 0 1 .181-.188h.556a.185.185 0 0 1 .181.188.185.185 0 0 1-.181.188m-1.392 0H-.68A.185.185 0 0 1-.861.036.185.185 0 0 1-.68-.152h.556a.183.183 0 0 1 .181.188.183.183 0 0 1-.181.188" transform="translate(51.097 71.995)" style="fill:#243045"/>
                </g>
                <g data-name="Group 5502">
                    <path data-name="Path 16034" d="M1.268.224H.712A.183.183 0 0 1 .531.036a.183.183 0 0 1 .181-.188h.556a.185.185 0 0 1 .181.188.185.185 0 0 1-.181.188m-1.392 0H-.68A.185.185 0 0 1-.861.036.185.185 0 0 1-.68-.152h.556a.183.183 0 0 1 .181.188.183.183 0 0 1-.181.188" transform="translate(53.881 71.995)" style="fill:#243045"/>
                </g>
                <g data-name="Group 5503">
                    <path data-name="Path 16035" d="M1.268.224H.712A.183.183 0 0 1 .531.036a.183.183 0 0 1 .181-.188h.556a.185.185 0 0 1 .181.188.185.185 0 0 1-.181.188m-1.392 0H-.68A.185.185 0 0 1-.861.036.185.185 0 0 1-.68-.152h.556a.183.183 0 0 1 .181.188.183.183 0 0 1-.181.188" transform="translate(56.665 71.995)" style="fill:#243045"/>
                </g>
                <g data-name="Group 5504">
                    <path data-name="Path 16036" d="M1.268.224H.712A.183.183 0 0 1 .531.036a.183.183 0 0 1 .181-.188h.556a.185.185 0 0 1 .181.188.185.185 0 0 1-.181.188m-1.392 0H-.68A.185.185 0 0 1-.861.036.185.185 0 0 1-.68-.152h.556a.183.183 0 0 1 .181.188.183.183 0 0 1-.181.188" transform="translate(59.448 71.995)" style="fill:#243045"/>
                </g>
            </g>
        </g>
    </g>
</svg>
