<svg xmlns="http://www.w3.org/2000/svg" width="210" height="210" viewBox="0 0 210 210">
    <defs>
        <clipPath id="qy460sdnlb">
            <path data-name="Path 16056" d="M0 23.018h100v-39.924H0z" transform="translate(0 16.906)" style="fill:none"/>
        </clipPath>
        <filter id="qx7ye6niia" x="0" y="0" width="210" height="210" filterUnits="userSpaceOnUse">
            <feOffset dy="10"/>
            <feGaussianBlur stdDeviation="15" result="blur"/>
            <feFlood flood-opacity=".302"/>
            <feComposite operator="in" in2="blur"/>
            <feComposite in="SourceGraphic"/>
        </filter>
    </defs>
    <g data-name="App Icon-Light">
        <g style="filter:url(#qx7ye6niia)">
            <path data-name="Path 15409" d="M24 0h72a24 24 0 0 1 24 24v72a24 24 0 0 1-24 24H24A24 24 0 0 1 0 96V24A24 24 0 0 1 24 0z" transform="translate(45 35)" style="fill:#fff"/>
        </g>
        <g data-name="Group 5526">
            <g data-name="Group 5507">
                <path data-name="Path 16038" d="m1.368 0-.5 1.833L-1 1.707.577 2.749-.089 4.5l1.457-1.21L2.825 4.5l-.708-1.751L3.7 1.707l-1.873.125z" transform="translate(86.521 106.844)" style="fill:#005423"/>
            </g>
            <g data-name="Group 5508">
                <path data-name="Path 16039" d="M1.344 0 .886 1.833l-1.873-.126L.6 2.749-.113 4.5l1.457-1.21L2.8 4.5l-.708-1.751 1.625-1.042-1.917.126z" transform="translate(92.457 106.844)" style="fill:#005423"/>
            </g>
            <g data-name="Group 5509">
                <path data-name="Path 16040" d="m1.368 0-.5 1.833L-1 1.707.577 2.749-.089 4.5l1.457-1.21L2.825 4.5l-.708-1.751L3.7 1.707l-1.873.125z" transform="translate(98.386 106.844)" style="fill:#005423"/>
            </g>
            <g data-name="Group 5510">
                <path data-name="Path 16041" d="M1.344 0 .886 1.833l-1.873-.126L.6 2.749-.113 4.5l1.457-1.21L2.8 4.5l-.708-1.751 1.625-1.042-1.917.126z" transform="translate(104.322 106.844)" style="fill:#005423"/>
            </g>
            <g data-name="Group 5525" transform="translate(55 75.038)" style="clip-path:url(#qy460sdnlb)">
                <g data-name="Group 5511">
                    <path data-name="Path 16042" d="M8.448 9.313h2.832c.583 0 .874-.29.874-.916-1.332 0-2.456-.04-3.372-.04a45.9 45.9 0 0 1 2.373-4.123A28.107 28.107 0 0 1 13.693.821a20.77 20.77 0 0 1 3.247-2.832 18.326 18.326 0 0 1 3.96-2.248 16.627 16.627 0 0 1 3.909-1.081 23.461 23.461 0 0 1 3.705-.293 14.91 14.91 0 0 1 3.372.375A8.636 8.636 0 0 1 34.8-4.051a3.952 3.952 0 0 1 1.665 1.79 3.376 3.376 0 0 1 .125 2.04 4.2 4.2 0 0 1-1.207 2 8.865 8.865 0 0 1-2.416 1.54 12.632 12.632 0 0 1-3.287.876 12.494 12.494 0 0 1-3.54-.085 6.33 6.33 0 0 1-2.789-1.082 6.314 6.314 0 0 1-1.5-1.5c-.29-.458-.5-.666-.666-.581s-.083.458.21 1.039a3.912 3.912 0 0 0 1.58 1.625 7.617 7.617 0 0 0 2.375 1.04 15.655 15.655 0 0 0 3.5.29 15.185 15.185 0 0 0 3.415-.583 8.657 8.657 0 0 0 2.706-1.332 7.01 7.01 0 0 0 1.915-1.915 4.454 4.454 0 0 0 .706-2.206 3.96 3.96 0 0 0-.5-2.083 5.164 5.164 0 0 0-1.374-1.5 8.561 8.561 0 0 0-2.123-1.167 13.525 13.525 0 0 0-2.624-.749 21.651 21.651 0 0 0-3.705-.25 17.909 17.909 0 0 0-5.911 1.249 25.346 25.346 0 0 0-4.872 2.664 22.7 22.7 0 0 0-4.537 4.454 33.958 33.958 0 0 0-4.121 6.83 15.688 15.688 0 0 1-2.04-.043c-.541-.043-.834.083-.874.333v.29c.04.293.914.418 2.5.375-1 1.915-2 4-3 6.2a28.979 28.979 0 0 1-2.957 5.245 7 7 0 0 1-2.789 2.456 5.534 5.534 0 0 1-2.373.5 4.979 4.979 0 0 0-1.665.165 1.307 1.307 0 0 0-.831.959c.04.541.541.874 1.54 1A7.647 7.647 0 0 0-1.335 24.8a12.2 12.2 0 0 0 2.789-2.331 16.66 16.66 0 0 0 2.624-4.289c.874-1.915 1.665-3.538 2.331-4.912.708-1.374 1.374-2.706 2.04-3.956" transform="translate(62.284 9.754)" style="fill:#005423"/>
                </g>
                <g data-name="Group 5512">
                    <path data-name="Path 16043" d="M2.568 1.92a13.634 13.634 0 0 1-1 1.79 3.493 3.493 0 0 1-1.04 1.041.959.959 0 0 1-1.082-.125c-.376-.293-.416-.748-.168-1.374a5.9 5.9 0 0 1 1.209-1.79A7.709 7.709 0 0 1 1.985.172c.458-.293.751-.21.874.165a2.232 2.232 0 0 1-.29 1.582M5.607-.912c-.375.043-.375.125-.708.085a1.82 1.82 0 0 1-.791-.21 6.236 6.236 0 0 1-.541-.248 1.706 1.706 0 0 0-.749-.125 1.751 1.751 0 0 0-1 .5C1.486-.619 1.068-.246.57.172a10.693 10.693 0 0 0-1.582 1.705A4.494 4.494 0 0 0-1.886 4.5 1.488 1.488 0 0 0-.221 6.083a2.9 2.9 0 0 0 1.955-.959 6.643 6.643 0 0 0 1.625-2.456A5 5 0 0 0 3.942.505C3.9.087 4.108-.078 4.608 0 5.107.13 5.9-.038 6.523.047c.458.04-.25-.208-.208-.5a.8.8 0 0 0-.708-.458" transform="translate(62.086 18.979)" style="fill:#005423"/>
                </g>
                <g data-name="Group 5513">
                    <path data-name="Path 16044" d="M3.385 4.128a18.282 18.282 0 0 1 2.706-2.914A7.836 7.836 0 0 1 8.214-.243c.458-.168.916-.29 1.332-.416a3.5 3.5 0 0 0 1.041-.5 1.473 1.473 0 0 0 .541-1 .936.936 0 0 0-.749-.874 2.935 2.935 0 0 0-1.457.373 10.873 10.873 0 0 0-1.456 1.043A28.777 28.777 0 0 0 5.3.465a34.206 34.206 0 0 0-3.122 3.914A41.6 41.6 0 0 0-.7 9.165 28.7 28.7 0 0 0-2.068 12.2a11.649 11.649 0 0 0-.418 1.625c0 .581.125.914.333.914a.6.6 0 0 0 .666-.541c.085-.373.168-.749.293-1.164a15.74 15.74 0 0 1 .5-1.582A5.293 5.293 0 0 1 .22 9.874a6.544 6.544 0 0 1 1.124-1.042 1.832 1.832 0 0 1 1.167-.416c.416 0 .416.458.083 1.374q-.563 1.371-1.124 2.5a1.919 1.919 0 0 0-.208 1.79 1.17 1.17 0 0 0 1.082.666 2.37 2.37 0 0 0 1.582-.706c.541-.458.708-.791.583-.959s-.375-.125-.749.168a3.333 3.333 0 0 1-.959.541.447.447 0 0 1-.583-.168c-.123-.165-.04-.623.293-1.332s.706-1.5 1.082-2.331a5.431 5.431 0 0 0 .583-1.748 1.194 1.194 0 0 0-.25-.791.926.926 0 0 0-.791-.293 2.19 2.19 0 0 0-1.082.333 13.846 13.846 0 0 0-1.54 1.082c1.082-1.79 2.038-3.29 2.872-4.414" transform="translate(55.108 10.359)" style="fill:#005423"/>
                </g>
                <g data-name="Group 5514">
                    <path data-name="Path 16045" d="M0 3.672a1.377 1.377 0 0 0 .541.874A2.885 2.885 0 0 0 2 4.962a2.528 2.528 0 0 0 1.665-.789A2.9 2.9 0 0 0 4.454 2.8a4.769 4.769 0 0 0 .085-1.54 5.722 5.722 0 0 0-.375-1.5c-.208-.458-.208-.791 0-1.041a.671.671 0 0 1 .749-.25 2.385 2.385 0 0 1 .791.418c.25.208.541.165.874-.085 0-.333-.083-.5-.208-.541A.944.944 0 0 1 6-1.991a3.5 3.5 0 0 0-.375-.416A1.477 1.477 0 0 0 4.7-2.7a2.411 2.411 0 0 0-1.289.5 1.784 1.784 0 0 0-.583 1A2.479 2.479 0 0 0 3.082.257a5.261 5.261 0 0 1 .333 1.79 1.922 1.922 0 0 1-.626 1.5.971.971 0 0 1-1.249.168q-.623-.375-.125-1c.333-.418.458-.708.333-.834a.2.2 0 0 0-.333-.081 1.438 1.438 0 0 0-.373.458 2.661 2.661 0 0 1-.583.623A1.109 1.109 0 0 0 0 3.672" transform="translate(47.252 20.183)" style="fill:#005423"/>
                </g>
                <g data-name="Group 5515">
                    <path data-name="Path 16046" d="M3.385 4.128a18.282 18.282 0 0 1 2.706-2.914A7.836 7.836 0 0 1 8.214-.243c.458-.168.916-.29 1.332-.416a3.5 3.5 0 0 0 1.041-.5 1.473 1.473 0 0 0 .541-1 .936.936 0 0 0-.749-.874 2.935 2.935 0 0 0-1.457.373 10.873 10.873 0 0 0-1.456 1.043A28.777 28.777 0 0 0 5.3.465a34.206 34.206 0 0 0-3.122 3.914A41.6 41.6 0 0 0-.7 9.165 28.7 28.7 0 0 0-2.068 12.2a11.649 11.649 0 0 0-.418 1.625c0 .581.125.914.333.914a.6.6 0 0 0 .666-.541c.085-.373.168-.749.293-1.164a15.74 15.74 0 0 1 .5-1.582A5.293 5.293 0 0 1 .22 9.874a6.544 6.544 0 0 1 1.124-1.042 1.832 1.832 0 0 1 1.167-.416c.416 0 .416.458.083 1.374q-.563 1.371-1.124 2.5a1.919 1.919 0 0 0-.208 1.79 1.17 1.17 0 0 0 1.082.666 2.37 2.37 0 0 0 1.582-.706c.541-.458 1.292-1.084 1.249-1.332 0-.333-.458.04-1.374.581a5.38 5.38 0 0 1-1 .5.447.447 0 0 1-.583-.168c-.123-.165-.04-.623.293-1.332s.706-1.5 1.082-2.331a5.431 5.431 0 0 0 .583-1.748 1.194 1.194 0 0 0-.25-.791.926.926 0 0 0-.791-.293 2.19 2.19 0 0 0-1.082.333 13.846 13.846 0 0 0-1.54 1.083c1.082-1.79 2.038-3.29 2.872-4.414" transform="translate(42.826 10.359)" style="fill:#005423"/>
                </g>
                <g data-name="Group 5516">
                    <path data-name="Path 16047" d="M2.52.648a3.024 3.024 0 0 1 1.042.168c.373.123.583.04.666-.168a1.034 1.034 0 0 0-.375-.791 2.206 2.206 0 0 0-1-.333 2.037 2.037 0 0 0-.956.25A4.853 4.853 0 0 0 .605.939a17.633 17.633 0 0 0-1.622 2.248 4.922 4.922 0 0 0-.834 2.166A1.722 1.722 0 0 0-1.476 6.6a1.48 1.48 0 0 0 1.082.375 2.017 2.017 0 0 0 1.5-.751A8.542 8.542 0 0 0 2.23 4.769c.29-.5.373-.791.248-.831s-.29 0-.5.208-.5.5-.874.874a1.371 1.371 0 0 1-1.249.458q-.687-.124-.375-1A10.88 10.88 0 0 1 .855 2.105C1.646 1.149 2.187.648 2.52.648" transform="translate(37.363 18.044)" style="fill:#005423"/>
                </g>
                <g data-name="Group 5517">
                    <path data-name="Path 16048" d="M.358.84a1.054 1.054 0 0 0 .666-.168.889.889 0 0 0 .25-.749c-.043-.333-.168-.5-.458-.541a1.763 1.763 0 0 0-.834.208c-.248.125-.29.375-.208.708A.757.757 0 0 0 .358.84" transform="translate(35.653 15.479)" style="fill:#005423"/>
                </g>
                <g data-name="Group 5518">
                    <path data-name="Path 16049" d="M1.1.87A23.832 23.832 0 0 0-.31 3.409 5.551 5.551 0 0 0-.811 5.7c0 .749.29 1.124.834 1.124a3.024 3.024 0 0 0 1.332-.29 12.583 12.583 0 0 0 1.039-.751 2.737 2.737 0 0 0 .626-.791c.043-.208 0-.333-.125-.416s-.333 0-.5.208a3.666 3.666 0 0 1-.914.708c-.418.25-.751.29-.916.125A.919.919 0 0 1 .4 4.7a12.033 12.033 0 0 1 .751-1.79 7.119 7.119 0 0 1 1.328-1.832A5.434 5.434 0 0 0 3.31.122a.6.6 0 0 0 0-.541c-.083-.168-.333-.25-.706-.21Q1.977-.565 1.1.87" transform="translate(31.951 18.196)" style="fill:#005423"/>
                </g>
                <g data-name="Group 5519">
                    <path data-name="Path 16050" d="M.336.289a.335.335 0 0 0 .416.25.914.914 0 0 1 .583.083.644.644 0 0 1 .333.458 3.274 3.274 0 0 1 0 .916 5.121 5.121 0 0 1-.416 1.289c-.25.5-.5 1.084-.791 1.75s-.5 1.124-.583 1.372a1.665 1.665 0 0 0-.125.583c.043.125.043.168.125.208.043.043.168.043.375.043a1.114 1.114 0 0 0 .667-.583 16.108 16.108 0 0 0 .791-1.54c.333-.708.706-1.5 1.207-2.373A5.875 5.875 0 0 1 4.124 1.08 1.444 1.444 0 0 1 5.331.955a5.8 5.8 0 0 0 1.374.208c.418 0 .959-.125.916-.29S8.37.081 8.663-.212c-.418 0-1.75.333-2 .293A3.769 3.769 0 0 1 6-.087a2.557 2.557 0 0 0-.916-.125 1.716 1.716 0 0 0-1.168.458 4.942 4.942 0 0 0-1.082 1.79A2.771 2.771 0 0 0 2.71.456a1.119 1.119 0 0 0-.626-.543 2.359 2.359 0 0 0-.749-.125 1.678 1.678 0 0 0-.623.125C.419-.127.336.038.336.289" transform="translate(26.141 17.821)" style="fill:#005423"/>
                </g>
                <g data-name="Group 5520">
                    <path data-name="Path 16051" d="M2.617 4.225A41.424 41.424 0 0 0-.255 9.012a28.6 28.6 0 0 0-1.374 3.039 7.035 7.035 0 0 0-.293 1.582c0 .666.293.959.834.959a2.974 2.974 0 0 0 1.249-.25 3.293 3.293 0 0 0 .874-.708 1.793 1.793 0 0 0 .541-.749c.043-.208 0-.333-.125-.416-.165-.085-.333 0-.581.248a5.02 5.02 0 0 1-.751.626c-.29.208-.5.25-.666.165s-.25-.29-.208-.666a6.992 6.992 0 0 1 .541-1.748C.118 10.3.619 9.22 1.327 7.848A26.443 26.443 0 0 1 3.7 4.057a18.606 18.606 0 0 1 2.7-2.914A7.99 7.99 0 0 1 8.528-.314C8.986-.479 9.444-.6 9.86-.73a3.035 3.035 0 0 0 1.041-.5 1.474 1.474 0 0 0 .541-1 .941.941 0 0 0-.749-.876 2.918 2.918 0 0 0-1.457.375 11.026 11.026 0 0 0-1.457 1.045A29.61 29.61 0 0 0 5.614.394a31.883 31.883 0 0 0-3 3.83" transform="translate(23.028 10.429)" style="fill:#005423"/>
                </g>
                <g data-name="Group 5521">
                    <path data-name="Path 16052" d="M4.489 9.769a12.36 12.36 0 0 1 .791-3 18.429 18.429 0 0 1 1.29-2.703A3.075 3.075 0 0 1 8.4 6.687a3.869 3.869 0 0 1-.831 3.207 6.917 6.917 0 0 1-3.207 2.04c0-.458.043-1.209.125-2.166m-.874-.333a17.715 17.715 0 0 0-.168 2.624 4.579 4.579 0 0 1-3.33-.543 4.11 4.11 0 0 1-1.705-2.37 7.521 7.521 0 0 1-.083-3.207A13 13 0 0 1-.591 2.692a11.769 11.769 0 0 1 2.208-3A20.543 20.543 0 0 1 5.2-3.262a16.446 16.446 0 0 1 4.118-2.165 20.153 20.153 0 0 1 3.247-.914 13.58 13.58 0 0 1 2.624-.168 11.979 11.979 0 0 0-3.124 2.04A25.156 25.156 0 0 0 8.818-1.1a25.908 25.908 0 0 0-2.664 4.125 4.564 4.564 0 0 0-1.665-.043 2.09 2.09 0 0 0-1.082.583 1.868 1.868 0 0 0-.543.959c-.083.373-.04.541.125.583s.333-.125.458-.458a1.5 1.5 0 0 1 .834-.749 2.718 2.718 0 0 1 1.457-.125 27.843 27.843 0 0 0-1.417 3.037 11.313 11.313 0 0 0-.706 2.624M22.475-.14a4.485 4.485 0 0 0-.751-1.83 3.1 3.1 0 0 0-1.082-1.041 3.18 3.18 0 0 0-.916-.29 3.232 3.232 0 0 0-1.041.083 4.641 4.641 0 0 0-1.457.791 6.56 6.56 0 0 0-1.58 1.955 8.7 8.7 0 0 0-1 2.5 8.762 8.762 0 0 0-.165 2.291 1.712 1.712 0 0 0 .708 1.457 1 1 0 0 0 1.249 0 2.345 2.345 0 0 0 .83-.876c.125-.29.125-.5-.043-.581s-.416.04-.706.416c-.293.333-.583.416-.874.125-.293-.25-.375-.791-.333-1.582a8.944 8.944 0 0 1 .541-2.334 6.543 6.543 0 0 1 1.332-2.083A3.589 3.589 0 0 1 18.935-2.3a1.532 1.532 0 0 1 1.5.416 3.668 3.668 0 0 1 .831 2.41 11.7 11.7 0 0 1-.456 4.163 17.823 17.823 0 0 1-1.958 4.5 21.246 21.246 0 0 1-3.252 4.078 15.289 15.289 0 0 1-3.868 2.833 6.445 6.445 0 0 1-3.247.831 4.508 4.508 0 0 1-2.456-1.082 4.325 4.325 0 0 1-1.415-2.914 7.838 7.838 0 0 0 3.372-2.208 5.122 5.122 0 0 0 1.332-2.916A5.988 5.988 0 0 0 8.9 5.19a3.861 3.861 0 0 0-1.83-1.915 35.264 35.264 0 0 1 2.291-3.58 21.715 21.715 0 0 1 2.581-2.914 20.055 20.055 0 0 1 2.371-2 5.675 5.675 0 0 1 1.75-.876c.5-.125.791-.333.791-.623s-.541-.458-1.625-.458a17.394 17.394 0 0 0-3.788.375A19.922 19.922 0 0 0 7.779-5.55a24.342 24.342 0 0 0-4 2.288A21.926 21.926 0 0 0 .2-.1a16.064 16.064 0 0 0-2.621 3.665A9.382 9.382 0 0 0-3.3 7.6a7.013 7.013 0 0 0 .583 3 4.663 4.663 0 0 0 1.457 1.83 4.977 4.977 0 0 0 2.208.834 7.391 7.391 0 0 0 2.539-.083 5.5 5.5 0 0 0 .713 2.166 4.743 4.743 0 0 0 1.415 1.582 5.447 5.447 0 0 0 1.5.749 4.767 4.767 0 0 0 1.289.168 8.724 8.724 0 0 0 1.707-.168 10.937 10.937 0 0 0 2.706-1.122 15.074 15.074 0 0 0 3.5-2.666 26.315 26.315 0 0 0 2.954-3.33 19.809 19.809 0 0 0 2.208-4 12.45 12.45 0 0 0 1.082-4.371 8.593 8.593 0 0 0-.086-2.329" transform="translate(3.296 7.175)" style="fill:#005423"/>
                </g>
                <g data-name="Group 5522">
                    <path data-name="Path 16053" d="M23.978.5h.375a.319.319 0 0 1 .165.168c.043.123.043.123.083.123a.04.04 0 0 0 .043-.04v-.08L24.6.336c0-.083 0-.083-.083-.083a.129.129 0 0 0-.081.047c-.043.083-.083.083-.25.083h-.749c-.125 0-.168 0-.208-.083-.043-.043-.043-.043-.085-.043S23.1.3 23.062.379l-.04.293v.082a.039.039 0 0 0 .04.04c.043 0 .043 0 .083-.083C23.187.5 23.4.5 23.478.5h.21v1.211c0 .125 0 .208-.125.208-.168 0-.168 0-.168.085 0 .04.043.04.083.04h.751c.04 0 .083 0 .083-.04s0-.043-.125-.043c-.165 0-.165-.043-.165-.208V.5zM21.73.5h.17c.208 0 .416.083.416.333a.383.383 0 0 1-.416.375h-.17zm0 .834h.29l.168.208c.29.416.375.5.666.5.043 0 .168 0 .168-.04v-.041l-.085-.043c-.125-.04-.333-.333-.458-.5l-.125-.168c.043-.04.125-.04.21-.125a.611.611 0 0 0 .083-.29.445.445 0 0 0-.5-.458h-.831c-.043 0-.083 0-.083.043s0 .04.165.083c.083 0 .083.083.083.25v1c0 .165 0 .208-.165.208-.043 0-.125 0-.125.083 0 .043.043.043.083.043h.708c.04 0 .083 0 .083-.043S22.021 2 21.938 2c-.165 0-.165-.043-.165-.25v-.413zM20.023.421c.541 0 .583.623.583.791a.9.9 0 0 1-.165.581.529.529 0 0 1-.375.168c-.25 0-.583-.168-.583-.791 0-.416.168-.749.541-.749M20.065.3a.873.873 0 0 0-.916.916.84.84 0 0 0 .916.874.873.873 0 0 0 .916-.916.917.917 0 0 0-.916-.874m-1.332.161c0-.083 0-.125-.043-.125A1.607 1.607 0 0 0 18.275.3a.47.47 0 0 0-.5.416c0 .208.125.293.375.5.29.208.333.333.333.458a.279.279 0 0 1-.25.29.4.4 0 0 1-.373-.29.5.5 0 0 0-.085-.21c-.04 0-.04.085-.04.125v.333c0 .085 0 .085.04.085a1.544 1.544 0 0 0 .418.083.549.549 0 0 0 .623-.5c0-.248-.208-.416-.333-.541-.29-.208-.375-.29-.375-.416a.216.216 0 0 1 .208-.208.35.35 0 0 1 .333.333c0 .04 0 .083.085.083.04 0 .04-.043.04-.125V.461zm-2.29 1.457v-.623h.293c.165 0 .248 0 .29.165 0 .085 0 .085.043.085s.04-.043.04-.085V1a.04.04 0 0 0-.04-.043c-.043 0-.043 0-.085.125s-.125.125-.333.125h-.29V.586h.623v.208c0 .085 0 .125.043.125s.043 0 .083-.083l.083-.208a.139.139 0 0 1 .043-.083.042.042 0 0 0-.045-.045h-1.247c-.043 0-.085 0-.085.043s.043.04.125.04c.125 0 .125.085.125.25v1c0 .125 0 .208-.125.208s-.125 0-.125.043a.042.042 0 0 0 .043.043h1.289c.043 0 .043 0 .085-.125l.083-.25c0-.043.043-.043.043-.083a.042.042 0 0 0-.043-.043c-.043 0-.043 0-.043.043a.451.451 0 0 1-.083.123.482.482 0 0 1-.416.168h-.375zM13.9-.162c.083 0 .125-.043.25-.043.416 0 .623.208.623.541 0 .418-.29.543-.666.543H13.9zM13.9 1h.416l.416.623c.293.458.5.5.751.5.04 0 .165 0 .165-.043v-.036L15.569 2c-.25-.085-.749-.834-.916-1.084a.678.678 0 0 0 .5-.623c0-.208-.125-.626-.834-.626h-.956c-.043 0-.085 0-.085.043s0 .043.125.083c.168.043.168.125.168.375v1.46c0 .208 0 .29-.168.333-.125 0-.165 0-.165.083 0 .043.04.043.083.043h.708c.04 0 .125 0 .125-.043s-.043-.04-.125-.083c-.168 0-.168-.125-.168-.29V1zm-1.54.123c-.125 0-.125 0-.125.168 0 .043 0 .043.125.043h.54c.083 0 .083 0 .083-.085v-.122h-.623zM10.947.421c.541 0 .583.623.583.791a.888.888 0 0 1-.168.581.519.519 0 0 1-.373.168c-.25 0-.583-.168-.583-.791-.043-.416.168-.749.541-.749m0-.125a.873.873 0 0 0-.916.916.841.841 0 0 0 .916.874.873.873 0 0 0 .916-.916.917.917 0 0 0-.916-.87M9.533.712c0-.165 0-.208.165-.208.085 0 .125 0 .125-.043s0-.04-.083-.04h-.708c-.04 0-.083 0-.083.04S9.032.5 9.032.5C9.157.5 9.2.5 9.2.754v.916c0 .208 0 .29-.168.29-.083 0-.125 0-.125.043s.043.04.085.04h.666A.039.039 0 0 0 9.7 2c0-.043-.04-.043-.125-.043-.165 0-.165-.083-.165-.25v-1zm-2 .208a1.21 1.21 0 0 1 .543.08.447.447 0 0 1 .25.456.431.431 0 0 1-.25.418 2 2 0 0 1-.418.04h-.333v-1zM7.325-.162c.085 0 .168-.043.293-.043a.485.485 0 0 1 .541.5.416.416 0 0 1-.25.416 1.02 1.02 0 0 1-.416.043h-.126v-.916zM7.034 1.46c0 .375 0 .458-.165.458-.125 0-.168 0-.168.085 0 .04.043.04.083.04h1.084a.931.931 0 0 0 .541-.125.563.563 0 0 0 .29-.541c0-.416-.416-.583-.708-.583a.585.585 0 0 0 .5-.581c0-.085-.043-.583-.791-.583h-.874c-.043 0-.083 0-.083.083 0 .043 0 .043.125.043.165 0 .165.083.165.373zM4.5.5h.165c.208 0 .416.083.416.333a.383.383 0 0 1-.416.375H4.5zm0 .834h.29l.168.208c.29.416.373.5.666.5.04 0 .165 0 .165-.04v-.041L5.7 1.918c-.125-.04-.333-.333-.458-.5l-.125-.168c.043-.04.125-.04.208-.125a.586.586 0 0 0 .085-.29.445.445 0 0 0-.5-.458h-.832c-.04 0-.083 0-.083.043s0 .04.168.083c.083 0 .083.083.083.25v1c0 .165 0 .208-.168.208-.04 0-.125 0-.125.083 0 .043.043.043.085.043h.706c.043 0 .085 0 .085-.043S4.786 2 4.7 2c-.168 0-.168-.043-.168-.25v-.413zm-1.79.581v-.62H3c.168 0 .25 0 .29.165 0 .085 0 .085.043.085s.043-.043.043-.085V1a.042.042 0 0 0-.047-.038c-.043 0-.043 0-.083.125s-.125.125-.333.125H2.62V.586h.626v.208c0 .085 0 .125.04.125s.043 0 .085-.083l.083-.207A.139.139 0 0 1 3.5.546.042.042 0 0 0 3.454.5H2.287C2.247.5 2.2.5 2.2.546s.043.04.125.04c.125 0 .125.085.125.25v1c0 .125 0 .208-.125.208s-.125 0-.125.043a.042.042 0 0 0 .043.043h1.294c.043 0 .043 0 .083-.125l.085-.25c0-.043.04-.043.04-.083 0 0 0-.043-.04-.043s-.043 0-.043.043a.527.527 0 0 1-.083.123.482.482 0 0 1-.416.168h-.458zM.372 1.711c0 .125 0 .208-.123.208s-.168 0-.168.043c.043.083.083.083.083.083h.874a.842.842 0 0 0 .876-.916.774.774 0 0 0-.876-.793H.164s-.082 0-.082.043.042.042.125.042C.372.421.372.5.372.629zm.293-.04v-1C.665.629.665.5.705.5.748.461.873.461.915.461A.7.7 0 0 1 1.5.712a.873.873 0 0 1 .125.5c0 .5-.29.706-.583.706a.637.637 0 0 1-.29-.04c-.083 0-.083-.043-.083-.208m-1.253-.125L-1.5.5c-.083-.121-.126-.121-.126-.121h-.458s-.083 0-.083.043.043.04.083.04c.085 0 .125 0 .168.043V1.67c0 .123 0 .208-.125.208s-.168 0-.168.04.043.043.085.043h.581a.042.042 0 0 0 .043-.043c0-.04 0-.04-.125-.04s-.165-.043-.165-.208V.629l1.081 1.289c.083.125.125.125.125.125.083 0 .083-.083.083-.165V.629C-.5.5-.5.461-.334.461c.04 0 .083 0 .083-.04.083-.043 0-.043 0-.043h-.541s-.083 0-.083.043.04.04.123.04c.168 0 .168.085.168.25zM-2.707.712c0-.165 0-.208.165-.208.085 0 .125 0 .125-.043s0-.04-.083-.04h-.708c-.04 0-.083 0-.083.04s.083.039.083.039c.125 0 .168 0 .168.25v.92c0 .208 0 .29-.168.29-.083 0-.125 0-.125.043s.043.04.085.04h.666A.039.039 0 0 0-2.542 2c0-.043-.04-.043-.125-.043-.165 0-.165-.083-.165-.25v-1zm-2.416.207a5.34 5.34 0 0 1 .708.708c.125.125.168.165.168.25s-.085.083-.168.125c-.125 0-.125 0-.125.083 0 .043.043.043.083.043h.957c.043 0 .083 0 .083-.043s-.04-.043-.083-.043c-.208-.04-.29-.083-.626-.5-.083-.085-.5-.541-.789-.791.083-.083.29-.293.581-.541.295-.29.334-.33.545-.372.04 0 .083 0 .083-.043a.091.091 0 0 0-.083-.083h-.751c-.04 0-.083 0-.083.043s0 .04.125.04c.04 0 .125 0 .125.125a.183.183 0 0 1-.043.125c-.208.25-.708.708-.831.834V.128c0-.208 0-.333.208-.333.083 0 .125 0 .125-.04S-5-.287-5-.287h-.749c-.043 0-.083 0-.083.043s.04.04.083.04c.208 0 .208.085.208.333v1.5c0 .29-.043.333-.165.333s-.125 0-.125.043.04.04.083.04h.708c.04 0 .083 0 .083-.04s-.043-.044-.166-.087c-.123 0-.165-.125-.165-.29V1zm-2.829.708c-.168.25-.293.25-.375.25a.337.337 0 0 1-.334-.377.428.428 0 0 1 .29-.416c.125.083.168.125.418.541M-8.2.919c-.17-.04-.378-.082-.378-.248a.234.234 0 0 1 .25-.21.237.237 0 0 1 .25.25.225.225 0 0 1-.122.208m.458.458A.736.736 0 0 0-8.077 1 .346.346 0 0 0-7.87.671a.369.369 0 0 0-.375-.335c-.333 0-.416.21-.416.375a.344.344 0 0 0 .208.333.643.643 0 0 0-.458.583.481.481 0 0 0 .5.5c.29 0 .416-.125.583-.375a.479.479 0 0 0 .208.208.451.451 0 0 0 .373.168.318.318 0 0 0 .293-.168c0-.043 0-.043-.043-.043h-.043a.148.148 0 0 0-.083.043c-.25 0-.458-.333-.5-.458.083-.125.125-.165.373-.541.125-.168.168-.25.25-.25.043 0 .083 0 .083-.04a.04.04 0 0 0-.04-.043h-.458s-.083 0-.083.043.04.04.083.04c.083 0 .125 0 .125.083A.318.318 0 0 1-7.371 1a1.031 1.031 0 0 0-.373.373m-3-.25-.248-.456a.477.477 0 0 0-.085-.125c0-.043.043-.043.168-.085.043 0 .083 0 .083-.04s-.04-.043-.083-.043h-.666c-.043 0-.083 0-.083.043s.04.04.083.083c.165 0 .165 0 .29.25l.293.541v.416c0 .168 0 .208-.168.208-.083 0-.125 0-.125.085 0 .04.043.04.085.04h.749c.043 0 .083 0 .083-.04s-.04-.043-.125-.085c-.125 0-.165-.04-.165-.165v-.455l.25-.5c.165-.29.208-.333.333-.333.04 0 .083 0 .083-.04s-.043-.043-.083-.043h-.543c-.04 0-.083 0-.083.043s.043.04.125.04c.043 0 .083 0 .083.085s-.04.125-.083.248zm-2 .125a1.147 1.147 0 0 1 .458.043.352.352 0 0 1 .168.29c0 .293-.293.293-.418.293h-.248v-.622zm0-.706h.208a.3.3 0 0 1 .293.333.272.272 0 0 1-.208.29h-.293zm-.29 1.164c0 .083 0 .208-.125.208s-.168 0-.168.043.043.043.085.043h.874c.541 0 .541-.375.541-.458a.513.513 0 0 0-.165-.333h-.293c.083-.043.375-.085.375-.418 0-.208-.125-.416-.583-.416h-.707c-.04 0-.04.043-.04.043 0 .04.04.04.125.04.125 0 .125.043.125.21v1.043zm-1.75-.373.25-.708.208.708zm.5.123.083.25c0 .043.043.083.043.125 0 .083-.043.125-.168.125-.083 0-.083 0-.083.043s.043.04.083.04h.751c.04 0 .083 0 .083-.04s0-.043-.125-.085c-.083 0-.165-.04-.25-.29L-14.2.586a.849.849 0 0 1-.04-.208c0-.043 0-.043-.085-.043h-.083c-.083 0-.083 0-.125.043a1.805 1.805 0 0 1-.125.375l-.29.831c-.083.168-.125.293-.25.333-.04 0-.125 0-.125.043s.043.04.123.04h.583c.043 0 .083 0 .083-.043s0-.043-.125-.043c-.083 0-.165-.04-.165-.125a.322.322 0 0 1 .04-.165l.085-.208h.416zm-2.453-.537A1.2 1.2 0 0 1-16.2 1a.447.447 0 0 1 .25.456.431.431 0 0 1-.25.418 1.976 1.976 0 0 1-.416.04h-.333v-1zm-.208-1.082c.083 0 .165-.043.29-.043a.485.485 0 0 1 .541.5c0 .165-.083.375-.248.416a.762.762 0 0 1-.458.083h-.125zm-.333 1.622c0 .375 0 .458-.168.458-.125 0-.165 0-.165.085 0 .04.04.04.083.04h1.082a.935.935 0 0 0 .543-.125.567.567 0 0 0 .29-.541c0-.416-.416-.583-.708-.583a.585.585 0 0 0 .5-.581c0-.085-.043-.583-.791-.583h-.874c-.043 0-.085 0-.085.083 0 .043 0 .043.125.043.168 0 .168.083.168.373z" transform="translate(28.311 27.847)" style="fill:#005423"/>
                </g>
                <g data-name="Group 5523">
                    <path data-name="Path 16054" d="M11.257.5h.168c.208 0 .416.083.416.333a.383.383 0 0 1-.416.375h-.168zm0 .791h.29l.168.208c.29.416.375.5.666.5.043 0 .168 0 .168-.043v-.038l-.085-.04c-.125-.043-.333-.333-.458-.5l-.125-.165c.043-.043.125-.043.21-.125a.621.621 0 0 0 .083-.293.446.446 0 0 0-.5-.458h-.831c-.043 0-.085 0-.085.043s0 .043.168.083c.083 0 .083.085.083.25v1c0 .168 0 .208-.165.208-.043 0-.125 0-.125.085 0 .04.04.04.083.04h.708c.04 0 .083 0 .083-.04s-.043-.043-.125-.043c-.165 0-.165-.043-.165-.25v-.418zM8.676.421c.541 0 .583.623.583.791a.888.888 0 0 1-.168.581.519.519 0 0 1-.373.168c-.25 0-.583-.168-.583-.791-.042-.416.165-.749.541-.749m0-.125a.873.873 0 0 0-.916.916.841.841 0 0 0 .916.874.873.873 0 0 0 .916-.916.917.917 0 0 0-.916-.87M6.345.671c0-.168 0-.21.165-.21.085 0 .125 0 .125-.04s0-.043-.083-.043h-.707c-.04 0-.083 0-.083.043s.083.04.083.04c.125 0 .168 0 .168.25v.916c0 .208 0 .29-.168.29-.083 0-.125 0-.125.043s.042.04.08.04h.67c.04 0 .04-.043.04-.043 0-.043-.04-.043-.125-.043-.165 0-.165-.083-.165-.248v-1zM3.348.5h.165c.208 0 .416.083.416.333a.383.383 0 0 1-.416.375h-.165zm0 .791h.29L3.8 1.5c.293.416.375.5.666.5.043 0 .168 0 .168-.043v-.039l-.083-.04c-.125-.043-.333-.333-.458-.5l-.125-.165c.043-.043.125-.043.208-.125a.6.6 0 0 0 .086-.294.445.445 0 0 0-.5-.458H2.93c-.04 0-.083 0-.083.043s0 .043.165.083c.085 0 .085.085.085.25v1c0 .168 0 .208-.168.208-.04 0-.125 0-.125.085 0 .04.043.04.085.04H3.6c.043 0 .085 0 .085-.04s-.043-.043-.125-.043c-.168 0-.168-.043-.168-.25v-.417zm-2.666.587v-.626h.293c.165 0 .248 0 .29.168 0 .083 0 .083.043.083s.04-.043.04-.083V.962a.04.04 0 0 0-.04-.043c-.043 0-.043 0-.085.125S1.1 1.17.89 1.17H.6V.546h.623v.208c0 .083 0 .125.043.125s.043 0 .083-.085l.084-.208A.15.15 0 0 1 1.473.5a.04.04 0 0 0-.04-.043H.184C.141.461.1.461.1.5s.041.046.124.046c.125 0 .125.083.125.248v1c0 .125 0 .21-.125.21S.1 2 .1 2.044a.042.042 0 0 0 .043.043h1.29c.04 0 .04 0 .083-.125l.083-.25c0-.04.043-.04.043-.083a.042.042 0 0 0-.042-.044c-.043 0-.043 0-.043.043a.5.5 0 0 1-.083.125.481.481 0 0 1-.416.165H.682zM-1.939.5c.083 0 .125-.043.208-.043a.363.363 0 0 1 .373.418.4.4 0 0 1-.416.458h-.165zm0 .916h.248a.61.61 0 0 0 .5-.168.53.53 0 0 0 .166-.411.745.745 0 0 0-.165-.416A.738.738 0 0 0-1.649.3H-2.4c-.043 0-.085 0-.085.04s0 .043.125.043.125.043.125.25v.956c0 .168 0 .25-.125.25s-.165 0-.165.083c0 0 0 .043.083.043h.749s.085 0 .085-.043-.043-.04-.168-.04c-.208 0-.208-.043-.208-.293V1.42zm-3.372-.125a.872.872 0 0 0 .125.583.781.781 0 0 0 .581.25c.666 0 .666-.5.666-.751V.837c0-.208 0-.29.125-.29.085 0 .125 0 .125-.043s-.083-.043-.083-.043H-4.4c-.043 0-.085 0-.085.043s.043.043.168.043c.165 0 .208.125.208.333v.5c0 .333 0 .666-.5.666-.416 0-.416-.29-.416-.666V.712c0-.125 0-.25.168-.25.083 0 .123 0 .123-.04s-.04-.043-.083-.043h-.666c-.04 0-.04.043-.04.043 0 .04.04.04.083.04.165 0 .165.085.165.25v.583zm-1.5-1.457c0-.125 0-.125-.043-.125a2.4 2.4 0 0 0-.58-.079.627.627 0 0 0-.708.583.72.72 0 0 0 .375.581c.581.418.706.5.706.751a.406.406 0 0 1-.458.416.675.675 0 0 1-.624-.461c-.043-.125-.043-.165-.083-.165s-.043.04-.043.123v.5a1.836 1.836 0 0 0 .666.125.741.741 0 0 0 .834-.708c0-.333-.25-.541-.541-.749-.457-.326-.542-.413-.542-.58a.369.369 0 0 1 .375-.376c.333 0 .458.21.541.5 0 .043 0 .083.043.083s.04-.04.04-.083v-.332z" transform="translate(39.658 37.506)" style="fill:#005423"/>
                </g>
                <g data-name="Group 5524">
                    <path data-name="Path 16055" d="M4.008 7.976c0 .125.125.125.168.168.04 0 .165.04.208-.043s-.085-.168-.168-.208h-.082c-.083 0-.125.04-.125.083M2.384 4.105a2.443 2.443 0 0 0 1.334-.916l.04-.043-.165-.125-.043.043a1.391 1.391 0 0 1-1.332.536 2.725 2.725 0 0 1-1.041-.7l-.165.125s.623 1.167 1.372 1.084m-1 6.952L.3 13.847l.168.083c.126-.13 2.874-3.373 2.166-6.37C1.8 4.105.636 3.48.594 3.48l-.123.168c0 .04 2.954 2.5.914 7.411M4.925-2.1a2.454 2.454 0 0 0 .333-2c-.333-.876-1.417-1.249-2.123-1.5l-.168-.043c-1.415-.5-3.2-.083-3.58.583a1.55 1.55 0 0 0-.087.713A24.642 24.642 0 0 0-.238-.766v.125A9.4 9.4 0 0 1-.03 1.231a2.82 2.82 0 0 1-.415 1.708c-.583.791-2.083.5-2.083.5l-.416-.083.333.25s1.374 1.082 2.456.043C.761 2.771.471.941.3-.226l-.08-.54a9.783 9.783 0 0 1 .208-3.58c.25-.458 2.166-.293 3.247.208a.9.9 0 0 1 .458.666A3.959 3.959 0 0 1 3.26-.516a.73.73 0 0 1-.583.29c-.458 0-.916-.541-1.249-1L1.094-1.6l-.168.125L2.011.275h.04C2.093.315 3.55.4 4.925-2.1m1.54 4.246-.208-.083c-.083.208-.416.831-.749.916a2.454 2.454 0 0 1-1.041.121s-.083 0-.083-.04a1.861 1.861 0 0 1-.125-.208l-.168-.333-.04.416v.043c0 .083.04.165.208.248a.844.844 0 0 0 1.082.25 2.708 2.708 0 0 0 1.123-1.328m-.042 6.119a9.649 9.649 0 0 1-.416-2.288 3.267 3.267 0 0 1 .125-.916 3.156 3.156 0 0 1 .375-.708l.083-.125.083-.208h-.125c-.083-.04-.125.043-.248.208a3.1 3.1 0 0 0-.375.751 4.843 4.843 0 0 0-.333 1.748 5.165 5.165 0 0 0 .165 1.332c.834 3.247 2.208 3.54 2.291 3.54l.29.04-.208-.208a10.582 10.582 0 0 1-1.707-3.166m5.705-4.537a4.51 4.51 0 0 0-.085-2.373L12 1.231c-.248-.54-.539-1.166-1.372-1.166A8.162 8.162 0 0 0 8.67.44l.043.208H10a2 2 0 0 1 1.83 1.457A1.6 1.6 0 0 1 11.5 3.4a1.338 1.338 0 0 1-.583.458c-.623.083-1.124 0-1.289-.25a8.718 8.718 0 0 0-.958-1.085l-.17-.167v.25c0 .333-.083.375-.125.416A.089.089 0 0 0 8.3 3.1c0 .085.04.085.125.21l.5.5a2.083 2.083 0 0 0 2.166.791 1.354 1.354 0 0 0 1.041-.874m2.706 4.537c-.708-3.5-1.667-4.5-1.707-4.537l-.333-.293.125.418a24.229 24.229 0 0 1 1.039 4.329c.25 2.083-1.705 4.414-2.081 4.829-.083.083-.043.125 0 .168 0 .04.083.083.165.04.333-.165 3.332-2.331 2.791-4.955m4.038-7.078a14.576 14.576 0 0 0 .538-3.785 5.115 5.115 0 0 0-1.75-2.872.537.537 0 0 0-.5-.043 6.909 6.909 0 0 1-2.083.293l-.04.208a10.249 10.249 0 0 1 2.248 1A3.312 3.312 0 0 1 18.995-1.6v.25c0 .708.043 1.625-1.289 1.707a2.977 2.977 0 0 1-2.291-.666 2.446 2.446 0 0 1-.666-1.707v-.29l-.208.208a1.764 1.764 0 0 0-.458 1.332 1.914 1.914 0 0 0 .751 1.289 5.037 5.037 0 0 0 3.871.708zm2.331.418-.125-.168-2.04 1.707c-.125.083-1.249.791-1.249 4.662v.418c.083 4.371.5 5.661.541 5.746l.208-.043c0-.043-.29-3.58-.248-5.5.04-3.58 2.872-6.787 2.914-6.827" transform="translate(78.797 25.953)" style="fill:#005423"/>
                </g>
            </g>
        </g>
    </g>
</svg>
