<svg xmlns="http://www.w3.org/2000/svg" width="210" height="210" viewBox="0 0 210 210">
    <defs>
        <filter id="j64szwpena" x="0" y="0" width="210" height="210" filterUnits="userSpaceOnUse">
            <feOffset dy="10"/>
            <feGaussianBlur stdDeviation="15" result="blur"/>
            <feFlood flood-opacity=".302"/>
            <feComposite operator="in" in2="blur"/>
            <feComposite in="SourceGraphic"/>
        </filter>
    </defs>
    <g data-name="App Icon-Light">
        <g style="filter:url(#j64szwpena)">
            <path data-name="Path 15409" d="M24 0h72a24 24 0 0 1 24 24v72a24 24 0 0 1-24 24H24A24 24 0 0 1 0 96V24A24 24 0 0 1 24 0z" transform="translate(45 35)" style="fill:#84827a"/>
        </g>
        <g data-name="Group 5271">
            <g data-name="Group 5214">
                <path data-name="Path 15744" d="M5.2 12.026a.394.394 0 0 1-.323-.166L-4.326-.981a.4.4 0 0 1 0-.467L.416-7.873a.4.4 0 0 1 .319-.162.4.4 0 0 1 .319.159l2.623 3.523 4.182-5.657a.4.4 0 0 1 .557-.083.5.5 0 0 1 .083.083l6.29 8.5a.4.4 0 0 1 0 .469L5.523 11.86a.394.394 0 0 1-.323.166M-3.512-1.21 5.2 10.946l8.78-12.211-5.8-7.841-4 5.419 1.62 2.18a.409.409 0 0 1 .079.238v2.422a.4.4 0 0 1-.4.4H1.894a.4.4 0 0 1-.4-.4v-2.422a.406.406 0 0 1 .076-.238l1.613-2.18L.739-6.972zM2.291.756h2.794v-1.9l-1.4-1.883-1.394 1.886z" transform="translate(99.767 74.96)" style="fill:#fff"/>
            </g>
            <g data-name="Group 5216">
                <path data-name="Path 15746" d="M0 5.5V-4.653h5.757V-3h-3.8v2.037h3.034V.685H1.953V5.5z" transform="translate(60.572 97.322)" style="fill:#fff"/>
            </g>
            <g data-name="Group 5217">
                <path data-name="Path 15747" d="M3.26 4.608v1.65h-6.017V-3.9H3.1v1.65H-.806v2.041h3.154v1.65H-.806v3.167z" transform="translate(72.066 96.567)" style="fill:#fff"/>
            </g>
            <g data-name="Group 5218">
                <path data-name="Path 15748" d="M0 0h1.955v6.495a1.967 1.967 0 1 0 3.92.34 2.216 2.216 0 0 0 0-.34V0h1.966v6.582a3.657 3.657 0 0 1-3.948 3.773A3.616 3.616 0 0 1 0 6.582z" style="fill:#fff" transform="translate(78.378 92.669)"/>
            </g>
            <g data-name="Group 5220">
                <path data-name="Path 15750" d="M3.26 4.608v1.65h-6.017V-3.9H3.1v1.65H-.806v2.041h3.154v1.65H-.806v3.167z" transform="translate(92.49 96.567)" style="fill:#fff"/>
            </g>
            <g data-name="Group 5221">
                <path data-name="Path 15751" d="m2.751 3.509 2.735 3.819H3.1L.958 4.188a5.034 5.034 0 0 1-1.331.044v3.094h-1.954V-2.739C2-3.58 4.325-2.017 4.325.571a3.6 3.6 0 0 1-1.576 2.938M-.376 2.481C1.361 2.728 2.315 1.772 2.315.6c0-1.1-.882-2.01-2.691-1.707z" transform="translate(101.287 95.497)" style="fill:#fff"/>
            </g>
            <g data-name="Group 5222">
                <path data-name="Path 15752" d="M3.08 1.238A4.782 4.782 0 0 0 1.055.716c-.9 0-1.416.478-1.416 1.028 0 .694.694 1.056 1.676 1.563C3.6 4.492 4.093 5.52 4.064 6.749 4.021 8.558 2.587 9.527.636 9.512A5.628 5.628 0 0 1-2.605 8.6l.753-1.563a4.985 4.985 0 0 0 2.329.738C1.561 7.777 2.1 7.3 2.1 6.72c0-.82-.929-1.228-2-1.866-1.55-.91-2.429-1.735-2.429-3.21C-2.328.428-1.287-1.047.9-1.047a6.547 6.547 0 0 1 2.717.607z" transform="translate(111.17 93.515)" style="fill:#fff"/>
            </g>
            <g data-name="Group 5224">
                <path data-name="Path 15754" d="M3.8.894H1.27V9.4H-.686V.894h-2.529v-1.65H3.8z" transform="translate(120.285 93.425)" style="fill:#fff"/>
            </g>
            <g data-name="Group 5225">
                <path data-name="Path 15755" d="M3.26 4.608v1.65h-6.017V-3.9H3.1v1.65H-.806v2.041h3.154v1.65H-.806v3.167z" transform="translate(129.666 96.567)" style="fill:#fff"/>
            </g>
            <path data-name="Path 15756" d="M36.943-185.586H38.9v-10.155h-1.957z" transform="translate(99.191 288.411)" style="fill:#fff"/>
            <g data-name="Group 5226">
                <path data-name="Path 15757" d="M4.185.056V10.21H2.262V6.116l-3.9-2.632v6.726h-1.9V.04l.26-.087L2.262 3.8V.058z" transform="translate(145.244 92.615)" style="fill:#fff"/>
            </g>
            <g data-name="Group 5227">
                <path data-name="Path 15758" d="m0 1.55.264-.063c.059-.015.065-.024.065-.111V-.953c0-.059-.007-.074-.057-.083L0-1.106v-.205h.6L2.134.7V-.933c0-.076-.009-.089-.059-.1l-.288-.077v-.2H2.8v.2l-.275.068c-.046.009-.055.028-.055.087v2.706h-.231L.677-.283v1.667c0 .065 0 .083.05.092l.3.072v.2H0z" transform="translate(72.6 110.273)" style="fill:#fff"/>
            </g>
            <g data-name="Group 5228">
                <path data-name="Path 15759" d="m0 1.55.205-.059c.07-.02.087-.033.109-.092l1.072-2.71h.2l1.048 2.693c.026.068.05.087.133.109l.188.059v.2H1.711v-.2l.247-.063c.072-.02.087-.041.059-.12L1.851.9H.845l-.175.476c-.022.068-.017.092.057.109l.236.063v.2H0zM1.761.655l-.4-1.139L.939.655z" transform="translate(76.158 110.273)" style="fill:#fff"/>
            </g>
            <g data-name="Group 5229">
                <path data-name="Path 15760" d="m.324 1.55.384-.079c.037-.009.046-.022.046-.05V-1.04h-.4c-.065 0-.087.022-.12.087l-.27.553-.238-.038.063-.873H2.3l.063.873-.232.038-.279-.553c-.031-.059-.063-.087-.113-.087h-.4v2.461c0 .033.009.041.044.05l.384.079v.2H.322z" transform="translate(79.858 110.273)" style="fill:#fff"/>
            </g>
            <g data-name="Group 5230">
                <path data-name="Path 15761" d="M.181.206C.181.127.172.114.1.1L-.153.027v-.2H1.1v.2L.849.1C.777.114.766.127.766.21V1.8c0 .618.247.869.653.869s.65-.262.65-.864V.225c0-.1-.013-.111-.089-.129L1.713.029v-.2H2.8v.2L2.549.1c-.081.017-.089.037-.089.129v1.655a1.019 1.019 0 0 1-.97 1.069.8.8 0 0 1-.161 0C.576 2.949.183 2.565.183 1.895z" transform="translate(83.341 109.134)" style="fill:#fff"/>
            </g>
            <g data-name="Group 5231">
                <path data-name="Path 15762" d="m0 1.549.271-.068c.035-.011.044-.024.044-.05V-.983a.049.049 0 0 0-.041-.059L0-1.109v-.2h1.3c.685 0 1.1.286 1.1.829a.936.936 0 0 1-.6.853l.591.949a.541.541 0 0 0 .443.231v.179a.785.785 0 0 1-.36.068.671.671 0 0 1-.663-.364l-.572-1H.9v1c0 .031.009.039.046.05l.271.068v.2H0zM1.069.211c.489 0 .744-.238.744-.668 0-.415-.268-.609-.749-.609H.9V.211z" transform="translate(87.164 110.274)" style="fill:#fff"/>
            </g>
            <g data-name="Group 5232">
                <path data-name="Path 15763" d="m0 1.55.271-.068c.035-.011.044-.024.044-.052V-.992c0-.026 0-.041-.044-.05L0-1.11v-.2h2.2l.065.731-.235.034-.238-.439a.134.134 0 0 0-.146-.081H.9v1.1h.456c.079 0 .1-.013.129-.083l.13-.252h.21v.936h-.217L1.482.352a.1.1 0 0 0-.118-.07H.9V1.5h.836c.079 0 .1-.02.142-.111L2.1.946l.234.037-.065.77H0z" transform="translate(90.857 110.273)" style="fill:#fff"/>
            </g>
            <g data-name="Group 5233">
                <path data-name="Path 15764" d="m0 1.55.271-.068c.035-.011.044-.024.044-.052V-.992c0-.026 0-.041-.044-.05L0-1.11v-.2h2.2l.065.731-.235.034-.238-.439a.135.135 0 0 0-.146-.081H.9V.073h.456c.076 0 .092-.013.127-.087l.129-.247h.21v.932h-.214L1.48.383a.106.106 0 0 0-.118-.068H.9v1.111c0 .031.009.039.044.05l.354.072v.2H0z" transform="translate(95.87 110.273)" style="fill:#fff"/>
            </g>
            <g data-name="Group 5234">
                <path data-name="Path 15765" d="m0 1.55.205-.059c.07-.02.087-.033.109-.092l1.071-2.71h.2l1.05 2.693a.154.154 0 0 0 .133.109l.188.059v.2H1.71v-.2l.247-.063c.072-.02.085-.041.059-.12L1.852.9H.844l-.172.474c-.024.068-.02.092.055.109l.238.063v.2H0zM1.76.655l-.4-1.139L.937.655z" transform="translate(98.601 110.273)" style="fill:#fff"/>
            </g>
            <g data-name="Group 5235">
                <path data-name="Path 15766" d="m0 1.55.266-.068c.055-.02.063-.028.068-.087l.308-2.35c.011-.063.007-.072-.055-.089L.369-1.11v-.2h.77L2.017.843l.849-2.154h.81v.2l-.205.07c-.07.022-.079.031-.07.1l.292 2.318c.015.076.024.081.079.1l.251.068v.2h-1.24v-.2l.271-.068c.046-.013.055-.028.046-.1L2.879-.455l-.888 2.208h-.2L.886-.455.67 1.391c0 .065 0 .079.05.092l.28.069v.2H0z" transform="translate(102.069 110.273)" style="fill:#fff"/>
            </g>
            <g data-name="Group 5236">
                <path data-name="Path 15767" d="m0 1.55.268-.068c.037-.011.046-.024.046-.052V-.992c0-.026 0-.041-.046-.05L0-1.11v-.2h1.211v.2l-.266.068C.91-1.034.9-1.019.9-.992V1.43c0 .033.009.041.044.05l.266.07v.2H0z" transform="translate(107.066 110.273)" style="fill:#fff"/>
            </g>
            <g data-name="Group 5237">
                <path data-name="Path 15768" d="m0 1.55.271-.068c.035-.011.044-.024.044-.052V-.992c0-.026 0-.041-.044-.05L0-1.11v-.2h1.212v.2l-.271.068C.9-1.034.9-1.019.9-.992V1.5h.718c.079 0 .1-.02.137-.107L2.02.837l.238.039-.074.873H0z" transform="translate(109.377 110.273)" style="fill:#fff"/>
            </g>
            <g data-name="Group 5238">
                <path data-name="Path 15769" d="m.38 1.55.32-.078c.063-.013.072-.026.072-.085V.4L-.046-.968a.181.181 0 0 0-.122-.1l-.153-.042v-.2H.927v.2l-.255.059c-.079.02-.083.037-.05.1L1.213.118l.568-1.067c.037-.07.026-.087-.041-.107l-.247-.054v-.2h.947v.2l-.14.046c-.063.024-.076.037-.127.118L1.357.4v.986c0 .059 0 .074.07.087l.314.079v.2H.375z" transform="translate(112.399 110.273)" style="fill:#fff"/>
            </g>
            <g data-name="Group 5239">
                <path data-name="Path 15770" d="m0 1.549.268-.068c.037-.011.046-.024.046-.05V-.983a.049.049 0 0 0-.041-.059L0-1.109v-.2h1.3c.685 0 1.1.286 1.1.829a.936.936 0 0 1-.6.853l.591.949a.541.541 0 0 0 .443.231v.179a.785.785 0 0 1-.36.068.671.671 0 0 1-.663-.364l-.57-1H.9v1c0 .031.009.039.044.05l.271.068v.2H0zM1.069.211c.489 0 .744-.238.744-.668 0-.415-.268-.609-.749-.609H.895V.211z" transform="translate(117.376 110.274)" style="fill:#fff"/>
            </g>
            <g data-name="Group 5240">
                <path data-name="Path 15771" d="m0 1.55.268-.068c.037-.011.046-.024.046-.052V-.992c0-.026 0-.041-.046-.05L0-1.11v-.2h2.2l.065.731-.235.034-.238-.439a.132.132 0 0 0-.146-.081H.9v1.1h.456c.079 0 .1-.013.129-.083L1.613-.3h.212v.936h-.217L1.482.352c-.029-.052-.046-.07-.12-.07H.9V1.5h.836c.079 0 .1-.02.142-.111L2.1.946l.234.037-.065.77H0z" transform="translate(121.068 110.273)" style="fill:#fff"/>
            </g>
            <g data-name="Group 5241">
                <path data-name="Path 15772" d="m0 1.171.238-.033.277.685a.145.145 0 0 0 .067.077.98.98 0 0 0 .356.046.515.515 0 0 0 .562-.465.438.438 0 0 0 0-.055c0-.292-.1-.428-.744-.74C.228.431.027.2.027-.182c0-.48.388-.807 1.1-.807A1.682 1.682 0 0 1 1.97-.8v.735l-.234.031-.279-.589a.142.142 0 0 0-.068-.083.736.736 0 0 0-.275-.037.444.444 0 0 0-.5.386.106.106 0 0 0 0 .026c0 .273.113.4.7.69s.777.522.777.923c0 .526-.443.908-1.157.908A2.449 2.449 0 0 1 0 2.018z" transform="translate(124.544 109.894)" style="fill:#fff"/>
            </g>
            <g data-name="Group 5242">
                <path data-name="Path 15773" d="M0 .887A1.5 1.5 0 0 1 1.355-.746h.057C2.269-.75 2.8-.25 2.8.782a1.506 1.506 0 0 1-1.349 1.652l-.068.007C.506 2.441 0 1.923 0 .887m2.195-.07c0-.947-.33-1.3-.8-1.3C.951-.486.6-.056.6.843c0 .943.33 1.327.8 1.327.443 0 .79-.443.79-1.353" transform="translate(127.677 109.648)" style="fill:#fff"/>
            </g>
            <g data-name="Group 5243">
                <path data-name="Path 15774" d="m0 1.549.271-.068c.035-.011.044-.024.044-.05V-.983a.049.049 0 0 0-.041-.059L0-1.109v-.2h1.3c.685 0 1.1.286 1.1.829a.936.936 0 0 1-.6.853l.591.949a.541.541 0 0 0 .443.231v.179a.785.785 0 0 1-.36.068.671.671 0 0 1-.663-.364l-.572-1H.9v1c0 .031.009.039.046.05l.271.068v.2H0zM1.069.211c.489 0 .744-.238.744-.668 0-.415-.268-.609-.749-.609H.9V.211z" transform="translate(131.482 110.274)" style="fill:#fff"/>
            </g>
            <g data-name="Group 5244">
                <path data-name="Path 15775" d="m.324 1.55.384-.079c.037-.009.046-.022.046-.05V-1.04h-.4c-.065 0-.087.022-.12.087l-.27.553-.238-.038.063-.873H2.3l.063.873-.228.038-.279-.553c-.033-.059-.063-.087-.113-.087h-.4v2.461c0 .033.009.041.046.05l.384.079v.2H.324z" transform="translate(135.198 110.273)" style="fill:#fff"/>
            </g>
            <g data-name="Group 5246">
                <path data-name="Path 15777" d="M.376 1.869 1.5 1.252l1.122.618L2.377.612l.934-.875-1.27-.159L1.5-1.581.952-.422l-1.27.159.934.875z" transform="translate(92.558 123.342)" style="fill:#fff"/>
            </g>
            <g data-name="Group 5247">
                <path data-name="Path 15778" d="M.375 1.869 1.5 1.252l1.122.618L2.376.612l.934-.875-1.27-.159-.54-1.159L.951-.422l-1.268.159.932.875z" transform="translate(98.064 123.342)" style="fill:#fff"/>
            </g>
            <g data-name="Group 5248">
                <path data-name="Path 15779" d="M.376 1.869 1.5 1.252l1.122.618L2.377.612l.934-.875-1.27-.159L1.5-1.581.952-.422l-1.27.159.936.875z" transform="translate(103.568 123.342)" style="fill:#fff"/>
            </g>
            <g data-name="Group 5249">
                <path data-name="Path 15780" d="M.375 1.869 1.5 1.252l1.122.618L2.376.612l.934-.875-1.27-.159-.54-1.159L.951-.422l-1.268.159.932.875z" transform="translate(109.074 123.342)" style="fill:#fff"/>
            </g>
            <g data-name="Group 5250">
                <path data-name="Path 15781" d="M.376 1.869 1.5 1.252l1.122.618L2.377.612l.934-.875-1.27-.159L1.5-1.581.952-.422l-1.27.159.936.875z" transform="translate(114.578 123.342)" style="fill:#fff"/>
            </g>
        </g>
    </g>
</svg>
