<svg xmlns="http://www.w3.org/2000/svg" width="210" height="210" viewBox="0 0 210 210">
    <defs>
        <filter id="hkoc8q75za" x="0" y="0" width="210" height="210" filterUnits="userSpaceOnUse">
            <feOffset dy="10"/>
            <feGaussianBlur stdDeviation="15" result="blur"/>
            <feFlood flood-opacity=".302"/>
            <feComposite operator="in" in2="blur"/>
            <feComposite in="SourceGraphic"/>
        </filter>
    </defs>
    <g data-name="App Icon-Light">
        <g style="filter:url(#hkoc8q75za)">
            <path data-name="Path 15409" d="M24 0h72a24 24 0 0 1 24 24v72a24 24 0 0 1-24 24H24A24 24 0 0 1 0 96V24A24 24 0 0 1 24 0z" transform="translate(45 35)" style="fill:#040407"/>
        </g>
        <g data-name="Group 5273">
            <g data-name="Group 4983">
                <path data-name="Path 15494" d="M9.688 1.522c-.7.066-1.4.112-2.067.142a.08.08 0 0 0-.076.078v7.115A29.812 29.812 0 0 1-4.494 7.051V-.087a.082.082 0 0 0-.052-.073c-.7-.266-1.389-.566-2.065-.889a.076.076 0 0 0-.076 0 .075.075 0 0 0-.037.066v15.92a.082.082 0 0 0 .044.073c.679.325 1.377.625 2.077.893a.068.068 0 0 0 .071-.01.079.079 0 0 0 .037-.063V8.889a29.939 29.939 0 0 0 12.039 1.8v6.974a.079.079 0 0 0 .024.056.077.077 0 0 0 .056.022 42.096 42.096 0 0 0 2.075-.142.082.082 0 0 0 .073-.081V1.6a.078.078 0 0 0-.027-.059.072.072 0 0 0-.061-.02" transform="translate(81.78 61.111)" style="fill:#fff"/>
            </g>
            <g data-name="Group 4984">
                <path data-name="Path 15495" d="M8.986 0C7.133.4 5.251.851 3.43 1.287c-3.146.754-6.4 1.535-9.6 2.063a.083.083 0 0 0-.066.078v1.6a.081.081 0 0 0 .029.061.082.082 0 0 0 .063.017c1.856-.306 3.85-.711 6.452-1.314v14.214a.081.081 0 0 0 .029.061.078.078 0 0 0 .049.02h.02c.691-.161 1.379-.325 2.07-.491a.078.078 0 0 0 .061-.076V3.267l.9-.217c1.828-.439 3.72-.891 5.582-1.291a.079.079 0 0 0 .061-.078V.079a.074.074 0 0 0-.028-.061A.071.071 0 0 0 8.986 0" transform="translate(101.551 58.77)" style="fill:#fff"/>
            </g>
            <g data-name="Group 4985">
                <path data-name="Path 15496" d="M12.1 1.457A27.82 27.82 0 0 0 9.2.261a.081.081 0 0 0-.091.029C6.824 3.605 4.481 7.337 1.945 11.7A313.803 313.803 0 0 0-5.337-.972a.081.081 0 0 0-.078-.039c-.93.11-1.911.249-2.919.417a.081.081 0 0 0-.066.079V15.4a.081.081 0 0 0 .029.061.082.082 0 0 0 .063.017 65.642 65.642 0 0 1 1.911-.288.081.081 0 0 0 .068-.081V1.367c3.039 4.977 5.36 9.115 7.516 13.389a.081.081 0 0 0 .071.044 7.647 7.647 0 0 1 1.22.124.08.08 0 0 0 .088-.039A106.012 106.012 0 0 1 9.944 2.778v13.781a.081.081 0 0 0 .049.076c.686.264 1.374.559 2.043.881a.078.078 0 0 0 .034.007.082.082 0 0 0 .041-.012.075.075 0 0 0 .037-.066V1.528a.079.079 0 0 0-.044-.071" transform="translate(122.794 58.605)" style="fill:#fff"/>
            </g>
            <g data-name="Group 4987">
                <path data-name="Path 15498" d="M0 0h1.128v4.194h4.865V0h1.125v9.254H5.993V5.138H1.128v4.116H0z" style="fill:#fff" transform="translate(75.212 96.198)"/>
            </g>
            <g data-name="Group 4988">
                <path data-name="Path 15499" d="M4.669 2.811v-.1c0-2.072-1.216-3.754-3.351-3.754S-2.073.534-2.073 2.733v.1A3.482 3.482 0 0 0 1.342 6.6c2.058 0 3.327-1.55 3.327-3.789m-7.909.039v-.1a4.485 4.485 0 0 1 4.557-4.7 4.448 4.448 0 0 1 4.519 4.671v.1a4.469 4.469 0 0 1-4.494 4.714A4.511 4.511 0 0 1-3.24 2.85" transform="translate(87.317 98.033)" style="fill:#fff"/>
            </g>
            <g data-name="Group 4990">
                <path data-name="Path 15501" d="M1.589.542H-1.1v-.918h6.51v.918H2.715v8.336H1.589z" transform="translate(94.824 96.575)" style="fill:#fff"/>
            </g>
            <g data-name="Group 4991">
                <path data-name="Path 15502" d="M0 0h5.4v.918H1.128v3.146h3.441v.918H1.128v3.354h4.5v.918H0z" style="fill:#fff" transform="translate(101.816 96.198)"/>
            </g>
            <g data-name="Group 4992">
                <path data-name="Path 15503" d="M0 0h1.128v8.336h4.23v.918H0z" style="fill:#fff" transform="translate(109.108 96.198)"/>
            </g>
            <g data-name="Group 4993">
                <path data-name="Path 15504" d="M1.589.542H-1.1v-.918h6.51v.918H2.715v8.336H1.589z" transform="translate(86.203 109.994)" style="fill:#fff"/>
            </g>
            <g data-name="Group 4994">
                <path data-name="Path 15505" d="M0 0h1.128v4.194h4.865V0h1.125v9.254H5.993V5.138H1.128v4.116H0z" style="fill:#fff" transform="translate(93.195 109.618)"/>
            </g>
            <g data-name="Group 4995">
                <path data-name="Path 15506" d="M0 0h5.4v.918H1.128v3.146h3.441v.918H1.128v3.354h4.5v.918H0z" style="fill:#fff" transform="translate(102.644 109.618)"/>
            </g>
            <g data-name="Group 4996">
                <path data-name="Path 15507" d="M1.689 2.559c1.32 0 2.031-.569 2.031-1.709V.8c0-1.257-.776-1.67-2.031-1.67H-.044v3.43zm-2.861-4.335h2.783c1.775 0 3.237.725 3.237 2.575V.85a2.488 2.488 0 0 1-2.293 2.524l2.836 4.1H4.135L1.379 3.453H-.044v4.025h-1.128z" transform="translate(111.108 111.394)" style="fill:#fff"/>
            </g>
            <g data-name="Group 4998">
                <path data-name="Path 15509" d="M0 0h1.567l2.861 7.208L7.2 0h1.551v9.254H7.623V1.462L4.557 9.254h-.351L1.035 1.462v7.792H0z" style="fill:#fff" transform="translate(118.138 109.618)"/>
            </g>
            <g data-name="Group 4999">
                <path data-name="Path 15510" d="M0 0h5.4v.918H1.128v3.146h3.441v.918H1.128v3.354h4.5v.918H0z" style="fill:#fff" transform="translate(129.089 109.618)"/>
            </g>
            <g data-name="Group 5000">
                <path data-name="Path 15511" d="M0 0h1.567l2.861 7.208L7.2 0h1.551v9.254H7.623V1.462L4.557 9.254h-.351L1.035 1.462v7.792H0z" style="fill:#fff" transform="translate(77.924 123.061)"/>
            </g>
            <g data-name="Group 5001">
                <path data-name="Path 15512" d="M0 0h5.4v.918H1.128v3.146h3.441v.918H1.128v3.354h4.5v.918H0z" style="fill:#fff" transform="translate(89.174 123.061)"/>
            </g>
            <g data-name="Group 5002">
                <path data-name="Path 15513" d="M1.689 2.559c1.32 0 2.031-.569 2.031-1.709V.8c0-1.257-.776-1.67-2.031-1.67H-.044v3.43zm-2.861-4.335h2.783c1.775 0 3.237.725 3.237 2.575V.85a2.488 2.488 0 0 1-2.293 2.524l2.836 4.1H4.135L1.379 3.453H-.044v4.025h-1.128z" transform="translate(97.638 124.838)" style="fill:#fff"/>
            </g>
            <g data-name="Group 5004">
                <path data-name="Path 15515" d="M1.337 3.362h3.21L2.941-1.4zm.918-5.695h1.477l3.132 9.254H5.75l-.905-2.666H1.027L.134 6.921H-.928z" transform="translate(105.082 125.394)" style="fill:#fff"/>
            </g>
            <g data-name="Group 5005">
                <path data-name="Path 15516" d="M0 0h1.462l4.506 7.65V0h1.074v9.254h-1.3L1.074 1.321v7.933H0z" style="fill:#fff" transform="translate(113.581 123.061)"/>
            </g>
            <g data-name="Group 5006">
                <path data-name="Path 15517" d="M5.013 2.8v-.1a4.031 4.031 0 0 0-4-4.247A4.028 4.028 0 0 0-3 2.731v.1a4.071 4.071 0 0 0 4.039 4.262A4.032 4.032 0 0 0 5.013 2.8m-8.492.039v-.1a4.521 4.521 0 0 1 4.494-4.68 4.484 4.484 0 0 1 4.477 4.635v.1A4.527 4.527 0 0 1 1.039 7.5a4.524 4.524 0 0 1-4.518-4.66" transform="translate(125.848 124.911)" style="fill:#fff"/>
            </g>
            <g data-name="Group 5007">
                <path data-name="Path 15518" d="M3 3.359a20.714 20.714 0 0 0 6.85-1.643C13.7.324 17.671-1.113 21.564 1.7a.1.1 0 0 0 .1.01.1.1 0 0 0 .054-.088V-.6a.091.091 0 0 0-.041-.078c-3.976-2.878-8-1.421-11.895-.012C5.939.7 1.963 2.143-1.93-.674a.1.1 0 0 0-.1-.007.093.093 0 0 0-.054.081v2.2a.1.1 0 0 0 .039.081A8.387 8.387 0 0 0 3 3.359" transform="translate(95.148 86.535)" style="fill:#fff"/>
            </g>
        </g>
    </g>
</svg>
