<svg xmlns="http://www.w3.org/2000/svg" width="210" height="210" viewBox="0 0 210 210">
    <defs>
        <filter id="x76xw9033a" x="0" y="0" width="210" height="210" filterUnits="userSpaceOnUse">
            <feOffset dy="10"/>
            <feGaussianBlur stdDeviation="15" result="blur"/>
            <feFlood flood-opacity=".302"/>
            <feComposite operator="in" in2="blur"/>
            <feComposite in="SourceGraphic"/>
        </filter>
    </defs>
    <g data-name="App Icon-Light">
        <g style="filter:url(#x76xw9033a)">
            <path data-name="Path 15409" d="M24 0h72a24 24 0 0 1 24 24v72a24 24 0 0 1-24 24H24A24 24 0 0 1 0 96V24A24 24 0 0 1 24 0z" transform="translate(45 35)" style="fill:#fff"/>
        </g>
        <g data-name="Group 5275">
            <g data-name="Group 5150">
                <path data-name="Path 15677" d="M.3.274v3.582h1.28c.962 0 1.455-.788 1.455-1.793S2.549.274 1.592.274zM1.6-.2a2.018 2.018 0 0 1 1.974 2.26 2.025 2.025 0 0 1-1.987 2.265H-.218V-.2z" transform="translate(76.853 129.141)" style="fill:#002138"/>
            </g>
            <g data-name="Group 5151">
                <path data-name="Path 15678" d="M1.282 2.443A1.645 1.645 0 0 0 2.947.571 1.644 1.644 0 0 0 1.282-1.3 1.646 1.646 0 0 0-.39.571a1.649 1.649 0 0 0 1.672 1.872m0-4.211A2.129 2.129 0 0 1 3.485.571a2.131 2.131 0 0 1-2.2 2.344A2.128 2.128 0 0 1-.928.571a2.124 2.124 0 0 1 2.21-2.339" transform="translate(84.458 130.631)" style="fill:#002138"/>
            </g>
            <g data-name="Group 5153">
                <path data-name="Path 15680" d="M0 0v4.525h2.651v-.474H.519V0z" style="fill:#002138" transform="translate(91.318 128.942)"/>
            </g>
            <g data-name="Group 5154">
                <path data-name="Path 15681" d="M1.282 2.443A1.645 1.645 0 0 0 2.947.571 1.644 1.644 0 0 0 1.282-1.3 1.646 1.646 0 0 0-.39.571a1.649 1.649 0 0 0 1.672 1.872m0-4.211A2.129 2.129 0 0 1 3.485.571a2.131 2.131 0 0 1-2.2 2.344A2.128 2.128 0 0 1-.928.571a2.124 2.124 0 0 1 2.21-2.339" transform="translate(97.638 130.631)" style="fill:#002138"/>
            </g>
            <g data-name="Group 5156">
                <path data-name="Path 15683" d="M2.354 0 .7 3.949-.963 0H-1.7v4.525h.512V.781L.387 4.532H1L2.559.781h.012v3.744h.512V0z" transform="translate(106.202 128.942)" style="fill:#002138"/>
            </g>
            <path data-name="Path 15684" d="M86.978-118.565h.522v-4.525h-.519z" transform="translate(25.957 252.03)" style="fill:#002138"/>
            <g data-name="Group 5157">
                <path data-name="Path 15685" d="M0 0v.472h1.658v4.051h.519V.472H3.83V0z" style="fill:#002138" transform="translate(116.635 128.942)"/>
            </g>
            <g data-name="Group 5158">
                <path data-name="Path 15686" d="M0 0v4.525h3.139v-.474H.517V2.382h2.2V1.91h-2.2V.472h2.622V0z" style="fill:#002138" transform="translate(123.649 128.942)"/>
            </g>
            <g data-name="Group 5159">
                <path data-name="Path 15687" d="M1.742 1.915c0-1.181-2.91-.255-2.91-2.034 0-.826.707-1.267 1.658-1.267s1.7.374 1.746 1.329L1.78.024h-.031C1.683-.688 1.144-.919.47-.919c-.65 0-1.1.269-1.1.8C-.632 1.062 2.28.15 2.28 1.86c0 1.089-.909 1.44-1.752 1.44-.9 0-1.743-.341-1.789-1.338l.46-.1h.033c.05.755.641.972 1.31.972.576 0 1.2-.188 1.2-.917" transform="translate(131.083 130.247)" style="fill:#002138"/>
            </g>
            <g data-name="Group 5160">
                <path data-name="Path 15688" d="M9.834 5.565C9.834.1 6.955-3.5 2.585-3.5c-4.344 0-7.224 3.6-7.224 9.065s2.879 9.064 7.223 9.064c4.37 0 7.25-3.6 7.25-9.062m-16.952 0a9.434 9.434 0 0 1 9.7-9.6 9.441 9.441 0 0 1 9.729 9.6 9.441 9.441 0 0 1-9.729 9.6 9.434 9.434 0 0 1-9.7-9.6" transform="translate(69.813 92.466)" style="fill:#002138"/>
            </g>
            <path data-name="Path 15689" d="M65.884-76.434h84.6v-77.091h-84.6z" transform="translate(-3.187 209.981)" style="fill:none"/>
            <g data-name="Group 5162">
                <path data-name="Path 15690" d="M1.376 5.875h4.5a4.491 4.491 0 0 0 4.744-4.8 4.492 4.492 0 0 0-4.744-4.8h-4.5zM14.463 14.4h-2.717a4.753 4.753 0 0 1-1.388-1.548L7.533 7.9a3.822 3.822 0 0 0-1.625-1.492H1.376v8H-1v-18.66h7.335c3.863 0 6.769 2.263 6.769 5.3 0 2.772-2.317 4.88-5.6 5.278A4.667 4.667 0 0 1 10.36 8.3l2.4 4.08a6.585 6.585 0 0 0 1.703 2.02" transform="translate(92.934 92.959)" style="fill:#002138"/>
            </g>
            <path data-name="Path 15692" d="M88.81-125.177h2.37V-137.2h-2.37z" transform="translate(28.488 232.537)" style="fill:#002138"/>
            <g data-name="Group 5164">
                <path data-name="Path 15693" d="M0 .93a1.6 1.6 0 1 1 1.6 1.6A1.6 1.6 0 0 1 0 .93z" transform="translate(123.401 86.149)" style="fill:#002138"/>
            </g>
            <g data-name="Group 5166">
                <path data-name="Path 15695" d="m4.747 0-8.183 18.655h.748l2.424-5.516h9.329l2.4 5.516h2.482L5.788 0zM4.4 2.451l4.425 10.155H-.049z" transform="translate(133.359 88.706)" style="fill:#002138"/>
            </g>
            <g data-name="Group 5167">
                <path data-name="Path 15696" d="M0 8.164h.588c0 2.584 2.61 4.53 5.916 4.53 3.039 0 5.2-1.493 5.2-3.544 0-2.239-2.479-3.277-5.33-4.4C3.68 3.66.426 2.353.426-.872c0-2.958 2.746-5.037 6.449-5.037 3.387 0 5.995 2.079 5.995 4.825h-.583c0-2.427-2.213-4.239-5.144-4.239-2.8 0-4.878 1.546-4.878 3.572 0 2.291 2.665 3.384 5.3 4.423 3.091 1.174 6.023 2.32 6.023 5.492 0 3.118-2.825 5.116-6.771 5.116C3.013 13.282 0 11.07 0 8.164" transform="translate(132.441 62.362)" style="fill:#002138"/>
            </g>
            <g data-name="Group 5169">
                <path data-name="Path 15698" d="M8.534 0v15.459L-4.179 0h-2v18.658h.638V1.917L8.268 18.658h.907V0z" transform="translate(114.96 56.72)" style="fill:#002138"/>
            </g>
            <g data-name="Group 5170">
                <path data-name="Path 15699" d="M0 0v18.658h13.139v-.536H2.372v-8.66h8.369v-.536H2.372V.531h10.5V0z" style="fill:#002138" transform="translate(86.066 56.72)"/>
            </g>
            <g data-name="Group 5171">
                <path data-name="Path 15700" d="M0 8.164h.588c0 2.584 2.61 4.53 5.916 4.53 3.039 0 5.2-1.493 5.2-3.544 0-2.239-2.479-3.277-5.33-4.4C3.68 3.66.426 2.353.426-.872c0-2.958 2.746-5.037 6.449-5.037 3.387 0 5.995 2.079 5.995 4.825h-.583c0-2.427-2.213-4.239-5.144-4.239-2.8 0-4.878 1.546-4.878 3.572 0 2.291 2.665 3.384 5.3 4.423 3.091 1.174 6.023 2.32 6.023 5.492 0 3.118-2.825 5.116-6.771 5.116C3.013 13.282 0 11.07 0 8.164" transform="translate(63.964 62.362)" style="fill:#002138"/>
            </g>
        </g>
    </g>
</svg>
