<svg xmlns="http://www.w3.org/2000/svg" width="210" height="210" viewBox="0 0 210 210">
    <defs>
        <filter id="vnkxtb9nja" x="0" y="0" width="210" height="210" filterUnits="userSpaceOnUse">
            <feOffset dy="10"/>
            <feGaussianBlur stdDeviation="15" result="blur"/>
            <feFlood flood-opacity=".302"/>
            <feComposite operator="in" in2="blur"/>
            <feComposite in="SourceGraphic"/>
        </filter>
    </defs>
    <g data-name="App Icon-Light">
        <g style="filter:url(#vnkxtb9nja)">
            <path data-name="Path 15409" d="M24 0h72a24 24 0 0 1 24 24v72a24 24 0 0 1-24 24H24A24 24 0 0 1 0 96V24A24 24 0 0 1 24 0z" transform="translate(45 35)" style="fill:#392739"/>
        </g>
        <g data-name="Group 5270">
            <g data-name="Group 5076">
                <path data-name="Path 15595" d="M4.237 2.119A3.519 3.519 0 0 0 .719 5.637 3.519 3.519 0 0 0-2.8 2.119 3.519 3.519 0 0 0 .719-1.4a3.519 3.519 0 0 0 3.518 3.519" transform="translate(80.785 76.899)" style="fill:#fff"/>
            </g>
            <g data-name="Group 5077">
                <path data-name="Path 15596" d="M2.648 1.324a2.2 2.2 0 0 0-2.2 2.2 2.2 2.2 0 0 0-2.2-2.2 2.2 2.2 0 0 0 2.2-2.2 2.2 2.2 0 0 0 2.2 2.2" transform="translate(72.401 80.413)" style="fill:#fff"/>
            </g>
            <g data-name="Group 5078">
                <path data-name="Path 15597" d="M2.648 1.324a2.2 2.2 0 0 0-2.2 2.2 2.2 2.2 0 0 0-2.2-2.2 2.2 2.2 0 0 0 2.2-2.2 2.2 2.2 0 0 0 2.2 2.2" transform="translate(80.978 103.548)" style="fill:#fff"/>
            </g>
            <g data-name="Group 5079">
                <path data-name="Path 15598" d="M1.942.972A1.614 1.614 0 0 0 .328 2.585 1.612 1.612 0 0 0-1.283.972 1.612 1.612 0 0 0 .328-.642 1.614 1.614 0 0 0 1.942.972" transform="translate(88.83 102.398)" style="fill:#fff"/>
            </g>
            <g data-name="Group 5080">
                <path data-name="Path 15599" d="M1.942.972A1.614 1.614 0 0 0 .328 2.585 1.612 1.612 0 0 0-1.283.972 1.612 1.612 0 0 0 .328-.642 1.614 1.614 0 0 0 1.942.972" transform="translate(84.728 111.566)" style="fill:#fff"/>
            </g>
            <g data-name="Group 5081">
                <path data-name="Path 15600" d="M0 0c7.688 9.1 12.439 11.235 31.241 11.235 4.192 0 19.775.8 19.775 6.63 0 3.961-10.355 8.08-23.736 8.08A64.593 64.593 0 0 1 6.8 22.648c5.014 2.7 13.271 4.047 21.406 4.047 12.125 0 23.975-2.988 24.39-8.92.462-6.633-18.566-6.856-23.224-7.045C14.947 10.149 8.588 9.943 0 0" style="fill:#fff" transform="translate(84.309 82.401)"/>
            </g>
            <g data-name="Group 5082">
                <path data-name="Path 15601" d="M-11.57-5.553C-3.306 3.186 6.632 4.6 18.9 5.1c3.637.09 18.946.382 18.79 3.421-.118 2.247-8.7 3.107-15.779 3.107a38.9 38.9 0 0 1-8.593-.671C9.047 9.648 15.7 8.431 17.452 8.4c-7.739.03-14 3.491 3.489 3.883.684.015 1.345.023 1.988.023 11.695 0 16.817-2.433 16.817-3.84 0-3.061-14.746-3.95-18.146-4.048-9.75-.277-23.727-.618-33.17-9.971" transform="translate(89.915 91.855)" style="fill:#fff"/>
            </g>
            <g data-name="Group 5083">
                <path data-name="Path 15602" d="M31.436 0C27.8 5.245 18.334 8.1 7.42 8.1a64.163 64.163 0 0 1-28.192-6.431c6.462 4.255 18 7.249 28.808 7.249 9.92 0 19.222-2.523 23.4-8.917" transform="translate(105.012 105.584)" style="fill:#fff"/>
            </g>
            <g data-name="Group 5084">
                <path data-name="Path 15603" d="M4.261.039a3.36 3.36 0 0 1 .033.447c0 .349-.05.731-.249.731-.181 0-.181-.4-.166-.847C3.25.354 2.454.321 1.793.321c-.266 0-.566 0-.829.018a6.922 6.922 0 0 1-1 0A10.35 10.35 0 0 0-1.058.321c-.035.814-.05 1.691-.05 2.456 0 .862.015 1.875.05 2.719a9.851 9.851 0 0 0 1.043.033h.78a12.557 12.557 0 0 0 1.606 0c.018-.364.018-.581.166-.581.234-.015.266.415.281.829 0 .4 0 .714-.264.681-.151-.018-.166-.266-.116-.581-.317 0-.829-.018-1.194-.018-.711 0-1.591 0-2.237-.033a8.519 8.519 0 0 0-.065 1.061c0 .332.015.681.033 1.013.015.281.033.548.033.829 0 .148.015.3.015.447 0 .317.018.613.035.912.015.2.033.415.033.613a4.542 4.542 0 0 0 .166 1.377c.382-.033.646 0 .711.216.05.166-.43.166-.91.166h-.5a4.091 4.091 0 0 1-.447.018c-.43 0-.762-.035-.746-.151.018-.231.281-.264.681-.281v-1.011c0-.314.015-.628.015-.945 0-.166.018-.332.033-.5a3.906 3.906 0 0 0 .018-.613c0-.033-.033-.148-.05-.281v-.662c0-.249 0-.5-.015-.731a10.3 10.3 0 0 1-.083-1.242l-.034-1.327c-.03-1.013-.066-2.008-.066-3.034 0-.382 0-.895.018-1.294-.266 0-.681.018-.7-.216-.018-.166.214-.214.4-.214 1.855 0 4.64.033 6.678.065" transform="translate(57.815 86.476)" style="fill:#fff"/>
            </g>
            <g data-name="Group 5085">
                <path data-name="Path 15604" d="M.339.28C.008.3-.209.247-.224.064c-.018-.249.4-.249.794-.249h.1c.249 0 .447.033.711.613 0 0 1.01 1.659 1.757 2.621l.349.5.329.563a1.716 1.716 0 0 0 .216.3c.068.1.2.281.2.281A21.416 21.416 0 0 0 5.61 6.566l1.241-1.709L9.4.463c.281-.631.729-.6.729-.6h.171c.483-.018.93-.033.895.266-.015.148-.2.148-.364.148h-.314a9.772 9.772 0 0 1-.05 1.244c-.015.281 0 .6 0 .862 0 .216-.015.566 0 .764a8.513 8.513 0 0 1-.015.912c-.018.5-.018 1-.018 1.508 0 .631 0 1.277-.033 1.908-.018.332-.018.681-.018 1.028 0 .2-.015.515-.015.7-.033.4-.033.8-.033 1.161 0 .533.033 1.161.065 1.659.364-.015.581-.015.613.151.1.249-.231.314-.646.314-.133 0-.183-.015-.314-.015-.2-.018-.483-.018-.648-.018-.332.018-.613.05-.628-.2 0-.216.166-.216.38-.234a1.747 1.747 0 0 0 .367-.033 6.838 6.838 0 0 0 0-1 3.808 3.808 0 0 1-.024-.458c-.018-.415-.018-.862-.018-1.292v-.53c0-.234.018-.432.035-.616 0-.083.015-.166.015-.249a6.51 6.51 0 0 0-.015-.794 6.011 6.011 0 0 1-.035-.6c0-.133.018-.4.018-.53.018-.415.033-.945.018-1.345a12.621 12.621 0 0 1 .05-1.774A12.176 12.176 0 0 0 9.619.81c-.181.317-.563 1-.711 1.277A16.3 16.3 0 0 1 7.8 4.012L6.6 5.92 5.823 7l-.116.181c-.148.216-.249.465-.3.465-.033 0-.116-.166-.329-.415a6.059 6.059 0 0 0-.566-.679L3.7 5.422c-.214-.317-.43-.7-.661-1.028-.234-.349-.465-.764-.731-1.1l-.131-.166A2.108 2.108 0 0 1 2 2.9l-.07-.132L.852 1.275c0 .083-.015.447-.015.581a9.2 9.2 0 0 0 .048 1.558v.548c0 .231.018.465.018.714.018.5.033.978.033 1.443v.6c0 .281 0 .7.018.978 0 .332.015.646.015.963 0 .38 0 .779-.015 1.161 0 .314-.018.628-.018.945 0 .465.018.895.05 1.277.447-.033.679.065.679.266-.015.2-.347.181-.679.166-.065 0-.133-.018-.2-.018H.538c-.332 0-.613 0-.6-.249.015-.166.181-.166.4-.183.05 0 .249-.015.3-.015C.621 11.525.6 10.944.6 10.482c0-.234.018-.731.018-.963.02-.519.02-1.013.02-1.51a24.9 24.9 0 0 0-.035-1.126C.588 6.385.555 5.9.571 5.4v-.641c0-.548-.015-1.244-.033-1.774 0-.3-.015-.731-.033-1.028A48.862 48.862 0 0 1 .473.4z" transform="translate(75.725 86.55)" style="fill:#fff"/>
            </g>
            <g data-name="Group 5086">
                <path data-name="Path 15605" d="M1.049.274a4.56 4.56 0 0 1-.018.681V.938c-.015.166-.015.349-.015.48 0 .234.015.432.033.648s.033.447.033.646c.033.847.033 2.257.033 3.2v1.36c.035.7.068 1.392.068 2.074 0 .281 0 .581-.018.844a1.783 1.783 0 0 1-.015.266c-.018.266-.05.548-.05.8a2.255 2.255 0 0 0 .083.679h.281c.314 0 .513.018.5.3 0 .1-.216.1-.483.083-.1 0-.2-.015-.3-.015-.133 0-.382 0-.548.015a4.541 4.541 0 0 1-.5.018c-.38 0-.711-.033-.7-.2.018-.2.515-.2.829-.183C.353 11.056.37 9.993.37 9c0-1.774-.1-3.632-.216-5.19-.033-.317-.033-.681-.033-1 0-.249 0-.548-.018-.814-.014-.312-.014-.626-.014-.943A6.444 6.444 0 0 1 .137.174 3.27 3.27 0 0 0-.376.141c-.166 0-.3.018-.314-.1-.018-.035.05-.151.181-.183.033 0 .05-.018.083-.018h.166a4.889 4.889 0 0 0 .548.018c.249 0 .43 0 .679-.018.083 0 .148-.015.231-.015.382-.018.664-.018.648.133S1.68.126 1.5.126a1.322 1.322 0 0 0-.364.033z" transform="translate(90.097 86.639)" style="fill:#fff"/>
            </g>
            <g data-name="Group 5087">
                <path data-name="Path 15606" d="M1.059 1.438c-.018.332-.033.631-.033.945 0 .216.015.415.015.648 0 .4.018.794 0 1.194 0 .131-.015.249-.015.364v.978c0 .183 0 .415-.018.6a3.485 3.485 0 0 0 0 .4v1.074c-.015.249-.015.5-.015.731 0 .214 0 .513.015.711v.581c0 .465 0 1.03-.015 1.493a3.29 3.29 0 0 0 1.061.033 4.808 4.808 0 0 1 .661 0 6.427 6.427 0 0 0 .847.035h.895c.513 0 1.159-.035 1.606 0-.033-.465-.05-.862.083-.88.183.018.231.266.231.48a1.892 1.892 0 0 1-.015.7.841.841 0 0 1-.3 0c-.083 0-.2-.015-.264-.015-.93.05-2.006.05-3.066.05H1.16c-.234 0-.483 0-.714.015h.017a4.414 4.414 0 0 1-.648.018h-.08c-.183-.018-.382-.018-.364-.2.015-.151.364-.216.646-.151C0 10.775 0 10.179 0 9.714c0-.631 0-1.244.016-1.857.015-.764.033-1.543.033-2.3V1.586c0-.762 0-1.541-.018-2.139C-.333-.586-.665-.618-.7-.817-.713-.9-.647-.935-.5-.95h.581c.314 0 .48.015.812.015h.183c.48 0 .827 0 .844.133-.02.232-.446.282-.843.232z" transform="translate(95.639 87.399)" style="fill:#fff"/>
            </g>
            <g data-name="Group 5088">
                <path data-name="Path 15607" d="M1.049.274a4.56 4.56 0 0 1-.018.681V.938c-.015.166-.015.349-.015.48 0 .234.015.432.033.648s.033.447.033.646c.033.847.033 2.257.033 3.2v1.36c.035.7.068 1.392.068 2.074 0 .281 0 .581-.018.844a1.783 1.783 0 0 1-.015.266c-.018.266-.05.548-.05.8a2.255 2.255 0 0 0 .083.679h.281c.314 0 .513.018.5.3 0 .1-.216.1-.483.083-.1 0-.2-.015-.3-.015-.133 0-.382 0-.548.015a4.541 4.541 0 0 1-.5.018c-.38 0-.711-.033-.7-.2.018-.2.515-.2.829-.183C.353 11.056.37 9.993.37 9c0-1.774-.1-3.632-.216-5.19-.033-.317-.033-.681-.033-1 0-.249 0-.548-.018-.814-.014-.312-.014-.626-.014-.943A6.444 6.444 0 0 1 .137.174 3.27 3.27 0 0 0-.376.141c-.166 0-.3.018-.314-.1-.018-.035.05-.151.181-.183.033 0 .05-.018.083-.018h.166a4.889 4.889 0 0 0 .548.018c.249 0 .43 0 .679-.018.083 0 .148-.015.231-.015.382-.018.664-.018.648.133S1.68.126 1.5.126a1.322 1.322 0 0 0-.364.033z" transform="translate(104.682 86.639)" style="fill:#fff"/>
            </g>
            <g data-name="Group 5089">
                <path data-name="Path 15608" d="M3.237.26c.083-.281.2-.432.5-.432.2 0 .43.018.646.018H4.8c.281 0 .447 0 .462.116.018.151-.166.2-.6.216A5.294 5.294 0 0 0 5.027 1.5c.231.7.4 1.161.53 1.626l.249.829.314.812c.083.2.133.432.2.631.4 1.176.829 2.488 1.194 3.664 0 .05.264.731.465 1.244.033.068.033.116.214.6a5 5 0 0 0 .447.978c.349 0 .646.05.631.266-.018.2-.53.166-.844.166a14.029 14.029 0 0 0-1.144-.018c-.266 0-.48-.065-.48-.264 0-.183.314-.183.827-.151a5.171 5.171 0 0 1-.679-1.526c-.116-.281-.216-.581-.332-.862a7.156 7.156 0 0 1-.332-1.194 8.41 8.41 0 0 0-.462-1.312c-1.558 0-4.68-.05-4.68-.05s-.327.832-.525 1.33c-.015.065-.033.048-.05.116 0 0-.2.5-.3.679-.083.166-.148.349-.216.5a35.11 35.11 0 0 1-.746 1.727l-.1.181c-.068.116-.1.249-.249.483.364-.018.812-.035.8.214-.018.151-.216.151-.483.151h-.083a3.082 3.082 0 0 0-.545.015h.015a1.4 1.4 0 0 1-.794-.1c-.05-.266.166-.266.38-.266.118 0 .183-.015.349-.015l.281-.465c.1-.166.216-.415.314-.6 0 0-.015-.015.018-.1.181-.45.711-1.825.993-2.355.183-.45.4-.98.566-1.445C.8 6.863.9 6.6.9 6.6c.216-.729.166-.48.234-.631l.1-.264.382-.865.364-.844c.083-.2.181-.415.249-.613.347-.88.415-1.03.43-1.111C2.89 1.62 3.237.26 3.237.26zm.382.314-.166.4c-.2.6-.4 1.194-.646 1.807-.415 1.161-.5 1.392-.6 1.641-.116.317-.231.515-.364.847-.181.4-.324.736-.49 1.169 1.4.028 2.835.063 4.273.043l-.236-.9c-.181-.6-.4-1.342-.613-1.955-.065-.2-.166-.45-.249-.648-.083-.231-.148-.447-.214-.664-.15-.614-.514-1.141-.695-1.74z" transform="translate(111.061 86.653)" style="fill:#fff"/>
            </g>
            <g data-name="Group 5090">
                <path data-name="Path 15609" d="M.339.28C.008.3-.209.247-.224.064c-.018-.249.4-.249.794-.249h.1c.249 0 .447.033.711.613 0 0 1.01 1.659 1.757 2.621l.349.5.329.563a1.716 1.716 0 0 0 .216.3C4.1 4.51 5.062 5.9 5.61 6.566l1.241-1.709L9.4.463c.281-.631.729-.6.729-.6h.171c.483-.018.93-.033.895.266-.015.148-.2.148-.364.148h-.314a9.772 9.772 0 0 1-.05 1.244c-.015.281 0 .6 0 .862 0 .216-.015.566 0 .764a8.513 8.513 0 0 1-.015.912c-.018.5-.018 1-.018 1.508 0 .631 0 1.277-.033 1.908-.018.332-.018.681-.018 1.028 0 .2-.015.515-.015.7-.033.4-.033.8-.033 1.161 0 .533.033 1.161.065 1.659.364-.015.581-.015.613.151.1.249-.231.314-.646.314-.133 0-.183-.015-.314-.015-.2-.018-.483-.018-.648-.018-.332.018-.613.05-.628-.2 0-.216.166-.216.38-.234a1.747 1.747 0 0 0 .367-.033 6.838 6.838 0 0 0 0-1 3.808 3.808 0 0 1-.024-.458c-.018-.415-.018-.862-.018-1.292v-.53c0-.234.018-.432.035-.616 0-.083.015-.166.015-.249a6.51 6.51 0 0 0-.015-.794 6.011 6.011 0 0 1-.035-.6c0-.133.018-.4.018-.53.018-.415.033-.945.018-1.345a12.621 12.621 0 0 1 .05-1.774A12.176 12.176 0 0 0 9.619.81c-.181.317-.563 1-.711 1.277A16.3 16.3 0 0 1 7.8 4.012L6.6 5.92 5.823 7l-.116.181c-.148.216-.249.465-.3.465-.033 0-.116-.166-.329-.415a6.059 6.059 0 0 0-.566-.679L3.7 5.422c-.214-.317-.43-.7-.661-1.028-.234-.349-.465-.764-.731-1.1l-.131-.166A2.108 2.108 0 0 1 2 2.9l-.07-.132L.852 1.275c0 .083-.015.447-.015.581a9.012 9.012 0 0 0 .05 1.558v.548c0 .231.015.465.015.714.018.5.033.978.033 1.443v.6c0 .281 0 .7.018.978 0 .332.015.646.015.963 0 .38 0 .779-.015 1.161 0 .314-.018.628-.018.945 0 .465.018.895.05 1.277.447-.033.679.065.679.266-.015.2-.347.181-.679.166-.065 0-.133-.018-.2-.018H.538c-.332 0-.613 0-.6-.249.015-.166.181-.166.4-.183.05 0 .249-.015.3-.015C.621 11.525.6 10.944.6 10.482c0-.234.018-.731.018-.963.02-.519.02-1.013.02-1.51a24.9 24.9 0 0 0-.035-1.126C.588 6.385.555 5.9.571 5.4v-.641c0-.548-.015-1.244-.033-1.774 0-.3-.015-.731-.033-1.028A48.862 48.862 0 0 1 .473.4z" transform="translate(122.544 86.55)" style="fill:#fff"/>
            </g>
            <g data-name="Group 5091">
                <path data-name="Path 15610" d="M1.039.3a13.887 13.887 0 0 0-.134 2.4c0 .447.018.895.018 1.342v2.144c0 .249-.018.53-.033.812-.017.365-.035.732-.035 1.111A6.6 6.6 0 0 0 1.006 9.7a3.609 3.609 0 0 0 .862 1.724 2.414 2.414 0 0 0 1.79.8 3.556 3.556 0 0 0 .827-.1 7.228 7.228 0 0 0 1.015-.333 3.436 3.436 0 0 0 .5-.364l.266-.249A2.94 2.94 0 0 0 7.3 9.454a9.14 9.14 0 0 0 .183-2.224c0-.231 0-.447.015-.661.018-.234.035-.45.035-.681 0-.6-.035-1.211-.083-1.724v.015c-.018-.249-.018-.53-.018-.779 0-.364 0-.714.018-1.078 0-.314.015-.646.015-.963S7.453.612 7.435.28c-.05 0-.2-.015-.264-.015-.216-.033-.4-.05-.415-.2-.035-.234.329-.249.7-.249h.214c.432-.035.895-.018.862.2-.015.2-.231.2-.5.216H7.8c.018.3.033.664.033.945 0 .2-.015.613-.015.812-.018.465-.035.93-.018 1.428l.1 1.991c0 .314-.015.646-.033.96-.015.367-.033.714-.015 1.078 0 .166.015.332.015.515a9.5 9.5 0 0 1-.116 1.41 3.459 3.459 0 0 1-.993 2.041 4.988 4.988 0 0 1-2.966 1.126 4.748 4.748 0 0 1-1.309-.181A3.4 3.4 0 0 1 .061 9.6a7.967 7.967 0 0 1-.116-1.541v-.578c0-.234.015-.483.015-.714 0-.382.018-.764.05-1.161.018-.382.05-.814.05-1.229a4.564 4.564 0 0 0-.018-.5V3.9c-.015-.3-.033-.581-.033-.88 0-.447.033-1 .05-1.425C.078 1.177.094.695.094.3a1.78 1.78 0 0 0-.38-.035C-.5.247-.668.247-.686.066c-.015-.216.234-.2.53-.183H-.17a3.372 3.372 0 0 0 .729-.018.831.831 0 0 1 .347 0 3.154 3.154 0 0 0 .4.018c.3 0 .513.018.513.2.018.183-.183.183-.415.183h-.232z" transform="translate(136.926 86.55)" style="fill:#fff"/>
            </g>
            <g data-name="Group 5092">
                <path data-name="Path 15611" d="M3.639.551c-.018-.364-.018-.664.133-.681C4-.146 4 .251 4 .633a3.4 3.4 0 0 0 .018.447v-.014c.033.447.065 1.259-.183 1.259-.181 0-.181-.3-.181-.563a1.407 1.407 0 0 0-.05-.447A2.982 2.982 0 0 0 2.711.45L2.628.4a2.6 2.6 0 0 0-1.209-.43A3.3 3.3 0 0 0-.488.485 2.776 2.776 0 0 0-1.68 2.242a1.516 1.516 0 0 0 .5 1.511 13.848 13.848 0 0 0 2.58 1.54 12.685 12.685 0 0 1 1.822.93 3.211 3.211 0 0 1 1.246 1.443 4.81 4.81 0 0 1 .214 1.211A3.386 3.386 0 0 1 4.053 11a3.566 3.566 0 0 1-2.669 1.309 3.409 3.409 0 0 1-1.707-.216 3.463 3.463 0 0 1-.895-.53l-.563-.382a1.707 1.707 0 0 0-.015.5c0 .216 0 .364-.151.382-.231.018-.231-.447-.231-.912v-.266c-.017-.565-.032-1.085.217-1.085.065 0 .166.1.166.249a4.481 4.481 0 0 0 .033.6 5.116 5.116 0 0 1 .48.415 4.809 4.809 0 0 0 .877.548 3.254 3.254 0 0 0 1.342.3 2.876 2.876 0 0 0 1.294-.183 2.584 2.584 0 0 0 1.061-.6 2.411 2.411 0 0 0 .646-1.443 5.948 5.948 0 0 0-.1-.945 2.447 2.447 0 0 0-.646-1.327 6.476 6.476 0 0 0-1.277-.862c-.281-.166-.927-.364-2.1-.978a4.022 4.022 0 0 1-1.859-1.442 3.837 3.837 0 0 1-.349-1.126v-.017a2.344 2.344 0 0 1 .281-1.41A3.845 3.845 0 0 1-.355-.048a3.463 3.463 0 0 1 1.641-.314 2.512 2.512 0 0 1 1.508.515 1.429 1.429 0 0 0 .38.281l.447.314z" transform="translate(150.318 86.745)" style="fill:#fff"/>
            </g>
            <g data-name="Group 5093">
                <path data-name="Path 15612" d="M3.237.26c.083-.281.2-.432.5-.432.2 0 .43.018.646.018H4.8c.281 0 .447 0 .462.116.018.151-.166.2-.6.216A5.294 5.294 0 0 0 5.027 1.5c.231.7.4 1.161.53 1.626l.249.829.314.812c.083.2.133.432.2.631.4 1.176.829 2.488 1.194 3.664 0 .05.264.731.465 1.244.033.068.033.116.214.6a5 5 0 0 0 .447.978c.349 0 .646.05.631.266-.018.2-.53.166-.844.166a14.029 14.029 0 0 0-1.144-.018c-.266 0-.48-.065-.48-.264 0-.183.314-.183.827-.151a5.171 5.171 0 0 1-.679-1.526c-.116-.281-.216-.581-.332-.862a7.156 7.156 0 0 1-.332-1.194 8.41 8.41 0 0 0-.462-1.312c-1.558 0-4.677-.05-4.677-.05s-.329.832-.528 1.33c-.015.065-.033.048-.05.116 0 0-.2.5-.3.679-.083.166-.148.349-.216.5a35.11 35.11 0 0 1-.746 1.727l-.1.181c-.068.116-.1.249-.249.483.364-.018.812-.035.8.214-.018.151-.216.151-.483.151h-.083a3.082 3.082 0 0 0-.545.015h.015a1.4 1.4 0 0 1-.794-.1c-.05-.266.166-.266.38-.266.118 0 .183-.015.349-.015l.281-.465c.1-.166.216-.415.314-.6 0 0-.015-.015.018-.1.181-.45.711-1.825.993-2.355.183-.45.4-.98.566-1.445.033-.131.1-.281.131-.415 0 0 .166-.462.234-.613l.1-.264.382-.865.364-.844c.083-.2.181-.415.249-.613.347-.88.415-1.03.43-1.111A15.437 15.437 0 0 0 3.237.243zm.382.314-.166.4c-.2.6-.4 1.194-.646 1.807-.415 1.161-.5 1.392-.6 1.641-.116.317-.231.515-.364.847-.181.4-.324.736-.49 1.169 1.4.028 2.835.063 4.273.043l-.236-.9c-.181-.6-.4-1.342-.613-1.955-.065-.2-.166-.45-.249-.648-.083-.231-.148-.447-.214-.664-.15-.614-.514-1.141-.695-1.74" transform="translate(64.236 86.655)" style="fill:#fff"/>
            </g>
        </g>
    </g>
</svg>
