<svg xmlns="http://www.w3.org/2000/svg" width="210" height="210" viewBox="0 0 210 210">
    <defs>
        <filter id="6l3qahfjia" x="0" y="0" width="210" height="210" filterUnits="userSpaceOnUse">
            <feOffset dy="10"/>
            <feGaussianBlur stdDeviation="15" result="blur"/>
            <feFlood flood-opacity=".302"/>
            <feComposite operator="in" in2="blur"/>
            <feComposite in="SourceGraphic"/>
        </filter>
    </defs>
    <g data-name="App Icon-Light">
        <g style="filter:url(#6l3qahfjia)">
            <path data-name="Path 15409" d="M24 0h72a24 24 0 0 1 24 24v72a24 24 0 0 1-24 24H24A24 24 0 0 1 0 96V24A24 24 0 0 1 24 0z" transform="translate(45 35)" style="fill:#fff"/>
        </g>
        <g data-name="Group 5302">
            <g data-name="Group 5115">
                <path data-name="Path 15641" d="M106.46 58.708c-1.757 0-3.999.113-4.85.113-.311 0-2.608-.113-4.336-.113-.427 0-.624.084-.624.311 0 .142.142.229.311.229a6.436 6.436 0 0 1 1.3.113c1.281.253 1.559.878 1.65 2.182.084 1.22.084 2.3.084 8.279v6.749c0 3.685 0 6.72-.2 8.335-.142 1.106-.342 1.957-1.106 2.1a5.267 5.267 0 0 1-1.162.142c-.229 0-.313.113-.313.227 0 .227.2.311.624.311 1.162 0 3.572-.113 3.685-.113.2 0 2.608.113 4.707.113.424 0 .624-.113.624-.311 0-.113-.087-.227-.313-.227-.34 0-1.191-.087-1.728-.142-1.164-.142-1.391-.993-1.5-2.1-.2-1.615-.2-4.649-.2-8.335V60.808c0-.4.084-.651.311-.735a4.963 4.963 0 0 1 1.646-.227 6.655 6.655 0 0 1 5.25 1.923 8.116 8.116 0 0 1 2.155 5.9 6.375 6.375 0 0 1-6.636 6.267c-.793 0-1.048.029-1.048.34 0 .2.227.255.424.255a7.58 7.58 0 0 0 .8.029c5.442 0 9.441-3.685 9.441-9.13a6.594 6.594 0 0 0-1.936-4.567c-.538-.538-2.268-2.155-7.06-2.155"/>
            </g>
            <g data-name="Group 5116">
                <path data-name="Path 15642" d="M57.777 109.602a10.094 10.094 0 0 1 2.07-.171 3.368 3.368 0 0 1 2.353.711 2.3 2.3 0 0 1 .737 1.76 2.421 2.421 0 0 1-.653 1.786 3.423 3.423 0 0 1-2.579.935 2.929 2.929 0 0 1-.88-.084v3.371h-1.077v-8.308zm1.077 4.054a3.88 3.88 0 0 0 .906.085c1.333 0 2.1-.651 2.1-1.786s-.793-1.673-1.986-1.673a6.353 6.353 0 0 0-1.02.087z"/>
            </g>
            <g data-name="Group 5117">
                <path data-name="Path 15643" d="M67.02 109.631a11.183 11.183 0 0 1 2.07-.2 3.382 3.382 0 0 1 2.437.711 2.045 2.045 0 0 1 .653 1.586 2.187 2.187 0 0 1-1.588 2.128v.029a2.213 2.213 0 0 1 1.249 1.7 19.711 19.711 0 0 0 .624 2.3H71.33a10.152 10.152 0 0 1-.537-2.013c-.255-1.162-.711-1.588-1.7-1.644h-1.025v3.624h-1.077v-8.221zm1.106 3.8h1.107c1.162 0 1.9-.622 1.9-1.586 0-1.077-.8-1.559-1.928-1.559a4.157 4.157 0 0 0-1.079.111z"/>
            </g>
            <path data-name="Path 15645" d="M76.348 117.911h1.106v-8.422h-1.106z"/>
            <g data-name="Group 5119">
                <path data-name="Path 15646" d="M86.301 113.969h-3.262v3.034h3.659v.906h-4.736v-8.421h4.536v.909h-3.459v2.665h3.262z"/>
            </g>
            <g data-name="Group 5120">
                <path data-name="Path 15647" d="M90.582 116.577a3.684 3.684 0 0 0 1.928.537c1.106 0 1.757-.566 1.757-1.444 0-.766-.453-1.249-1.588-1.673-1.36-.51-2.21-1.218-2.21-2.382a2.428 2.428 0 0 1 2.721-2.295 3.593 3.593 0 0 1 1.844.424l-.313.88a3 3 0 0 0-1.586-.4c-1.135 0-1.588.68-1.588 1.249 0 .793.511 1.162 1.673 1.615 1.417.566 2.126 1.249 2.126 2.468 0 1.3-.935 2.437-2.919 2.437a4.549 4.549 0 0 1-2.156-.536z"/>
            </g>
            <g data-name="Group 5122">
                <path data-name="Path 15649" d="M101.102 110.424h-2.553v-.935h6.238v.935h-2.579v7.487h-1.106z"/>
            </g>
            <g data-name="Group 5123">
                <path data-name="Path 15650" d="M112.641 113.969h-3.262v3.034h3.659v.906h-4.736v-8.421h4.565v.909h-3.459v2.665h3.261v.906z"/>
            </g>
            <g data-name="Group 5124">
                <path data-name="Path 15651" d="M117.064 109.631a11.183 11.183 0 0 1 2.07-.2 3.382 3.382 0 0 1 2.437.711 2.045 2.045 0 0 1 .653 1.586 2.187 2.187 0 0 1-1.588 2.128v.029a2.213 2.213 0 0 1 1.249 1.7 19.711 19.711 0 0 0 .624 2.3h-1.135a10.152 10.152 0 0 1-.537-2.013c-.255-1.162-.711-1.588-1.7-1.644h-1.025v3.624h-1.077v-8.221zm1.106 3.8h1.107c1.162 0 1.9-.622 1.9-1.586 0-1.077-.8-1.559-1.928-1.559a4.157 4.157 0 0 0-1.079.111z"/>
            </g>
            <g data-name="Group 5126">
                <path data-name="Path 15653" d="M130.73 113.969h-3.261v3.034h3.63v.906h-4.736v-8.421h4.565v.909h-3.459v2.665h3.261z"/>
            </g>
            <g data-name="Group 5127">
                <path data-name="Path 15654" d="M141.562 117.541a7.326 7.326 0 0 1-2.608.456 4.28 4.28 0 0 1-3.148-1.109 4.255 4.255 0 0 1-1.162-3.119 4.214 4.214 0 0 1 4.57-4.336 4.76 4.76 0 0 1 2.1.4l-.284.88a4.44 4.44 0 0 0-1.87-.369 3.141 3.141 0 0 0-3.383 3.37 3.087 3.087 0 0 0 3.237 3.403 3.711 3.711 0 0 0 1.446-.229v-2.491h-1.706v-.881h2.779v4.025z"/>
            </g>
            <g data-name="Group 5128">
                <path data-name="Path 15655" d="M152.251 117.541a7.326 7.326 0 0 1-2.608.456 4.28 4.28 0 0 1-3.148-1.109 4.255 4.255 0 0 1-1.162-3.119 4.214 4.214 0 0 1 4.57-4.336 4.76 4.76 0 0 1 2.1.4l-.284.88a4.44 4.44 0 0 0-1.87-.369 3.141 3.141 0 0 0-3.383 3.37 3.087 3.087 0 0 0 3.237 3.403 3.711 3.711 0 0 0 1.446-.229v-2.491h-1.706v-.881h2.779v4.025z"/>
            </g>
            <g data-name="Group 5129">
                <path data-name="Path 15656" d="M71.585 126.472a6.332 6.332 0 0 1 1.191-.084 1.981 1.981 0 0 1 1.333.4 1.3 1.3 0 0 1 .424.993 1.371 1.371 0 0 1-.369 1.022 1.95 1.95 0 0 1-1.444.509 1.347 1.347 0 0 1-.482-.055v1.923h-.624v-4.708zm.6 2.3a2.507 2.507 0 0 0 .511.055c.738 0 1.191-.369 1.191-1.02-.002-.626-.458-.937-1.14-.937a2.269 2.269 0 0 0-.562.053z"/>
            </g>
            <g data-name="Group 5130">
                <path data-name="Path 15657" d="M75.668 128.825c0-.4 0-.738-.029-1.077h.54l.029.68h.026a1.023 1.023 0 0 1 .964-.738h.171v.6c-.057-.002-.113-.029-.199-.029a.88.88 0 0 0-.819.791 1.027 1.027 0 0 0-.027.284v1.842h-.627v-2.353z"/>
            </g>
            <g data-name="Group 5131">
                <path data-name="Path 15658" d="M78.701 129.591a1.092 1.092 0 0 0 1.162 1.191 2.391 2.391 0 0 0 .935-.169l.116.453a3.031 3.031 0 0 1-1.135.231 1.593 1.593 0 0 1-1.673-1.735 1.676 1.676 0 0 1 1.615-1.841 1.466 1.466 0 0 1 1.42 1.615.7.7 0 0 1-.029.284h-2.411zm1.815-.453c0-.4-.171-1.022-.851-1.022a1.045 1.045 0 0 0-.964 1.022z"/>
            </g>
            <g data-name="Group 5132">
                <path data-name="Path 15659" d="M82.246 128.688c0-.369-.029-.653-.029-.935h.54l.029.535h.026a1.216 1.216 0 0 1 1.078-.623 1.014 1.014 0 0 1 .964.68 1.576 1.576 0 0 1 .4-.453 1.2 1.2 0 0 1 .735-.227c.453 0 1.133.282 1.133 1.473v2.012h-.593v-1.926c0-.653-.258-1.05-.74-1.05a.791.791 0 0 0-.735.569.992.992 0 0 0-.058.311v2.125h-.6v-2.07c0-.537-.255-.935-.709-.935a.826.826 0 0 0-.758.624 1.069 1.069 0 0 0-.055.311v2.07h-.628z"/>
            </g>
            <g data-name="Group 5133">
                <path data-name="Path 15660" d="M88.824 127.181a.358.358 0 0 1-.369-.368.373.373 0 0 1 .4-.4.366.366 0 0 1 .369.4.366.366 0 0 1-.4.369m-.311.6h.624v3.43h-.629z"/>
            </g>
            <g data-name="Group 5134">
                <path data-name="Path 15661" d="M93.417 130.244a8.936 8.936 0 0 0 .029.935h-.54l-.029-.566h-.026a1.225 1.225 0 0 1-1.135.624c-.538 0-1.191-.314-1.191-1.504v-2.013h.624v1.9c0 .653.2 1.106.766 1.106a.886.886 0 0 0 .822-.566 1.1 1.1 0 0 0 .055-.313v-2.1h.624z"/>
            </g>
            <g data-name="Group 5135">
                <path data-name="Path 15662" d="M94.807 128.688c0-.369-.029-.653-.029-.935h.54l.029.535h.026a1.216 1.216 0 0 1 1.078-.623 1.014 1.014 0 0 1 .964.68 1.576 1.576 0 0 1 .4-.453 1.2 1.2 0 0 1 .735-.227c.453 0 1.133.282 1.133 1.473v2.012h-.622v-1.926c0-.653-.255-1.051-.738-1.051a.791.791 0 0 0-.733.569.992.992 0 0 0-.058.311v2.126h-.6v-2.07c0-.537-.255-.935-.709-.935a.821.821 0 0 0-.763.624.992.992 0 0 0-.058.311v2.07h-.6z"/>
            </g>
            <g data-name="Group 5137">
                <path data-name="Path 15664" d="M105.411 128.968h-1.843v1.73h2.07v.509h-2.693v-4.763h2.579v.511h-1.956v1.5h1.843z"/>
            </g>
            <g data-name="Group 5138">
                <path data-name="Path 15665" d="M110.118 131.037a3.036 3.036 0 0 1-1.249.227 2.233 2.233 0 0 1-2.352-2.41 2.367 2.367 0 0 1 2.494-2.495 3.257 3.257 0 0 1 1.135.2l-.142.511a2.222 2.222 0 0 0-.964-.2 1.779 1.779 0 0 0-1.87 1.955 1.721 1.721 0 0 0 1.813 1.9 2.733 2.733 0 0 0 1.022-.2z"/>
            </g>
            <g data-name="Group 5139">
                <path data-name="Path 15666" d="M113.123 131.264a2.176 2.176 0 0 1-2.155-2.41 2.26 2.26 0 0 1 2.213-2.495 2.175 2.175 0 0 1 2.154 2.41 2.23 2.23 0 0 1-2.212 2.495m.029-.482c.964 0 1.53-.906 1.53-1.988 0-.938-.482-1.928-1.531-1.928s-1.53.968-1.53 1.988c0 .993.537 1.928 1.531 1.928"/>
            </g>
            <g data-name="Group 5140">
                <path data-name="Path 15667" d="M118.34 126.5a6.961 6.961 0 0 1 1.191-.113 2.075 2.075 0 0 1 1.388.4 1.2 1.2 0 0 1 .369.906 1.258 1.258 0 0 1-.906 1.22v.029a1.3 1.3 0 0 1 .709.964 12.086 12.086 0 0 0 .369 1.3h-.654a6.64 6.64 0 0 1-.311-1.135c-.142-.651-.4-.906-.964-.935h-.567v2.07h-.624zm.624 2.155h.624c.651 0 1.077-.369 1.077-.906 0-.624-.456-.88-1.106-.88a2.5 2.5 0 0 0-.6.055z"/>
            </g>
            <g data-name="Group 5141">
                <path data-name="Path 15668" d="M122.848 129.591a1.092 1.092 0 0 0 1.162 1.191 2.391 2.391 0 0 0 .935-.169l.116.453a3.031 3.031 0 0 1-1.135.231 1.593 1.593 0 0 1-1.673-1.735 1.676 1.676 0 0 1 1.615-1.841 1.466 1.466 0 0 1 1.42 1.615.7.7 0 0 1-.029.284h-2.411zm1.815-.453c0-.4-.171-1.022-.851-1.022a1.045 1.045 0 0 0-.964 1.022z"/>
            </g>
            <g data-name="Group 5142">
                <path data-name="Path 15669" d="M126.307 130.555a1.757 1.757 0 0 0 .822.225c.453 0 .653-.227.653-.511s-.171-.451-.624-.62c-.624-.229-.909-.569-.909-.964a1.065 1.065 0 0 1 1.193-.993 1.351 1.351 0 0 1 .822.227l-.14.453a1.33 1.33 0 0 0-.709-.2c-.369 0-.566.2-.566.453 0 .284.2.4.651.6.6.227.906.511.906 1.022 0 .6-.48 1.02-1.275 1.02a2.013 2.013 0 0 1-.964-.227z"/>
            </g>
            <g data-name="Group 5143">
                <path data-name="Path 15670" d="M130.957 131.264a1.64 1.64 0 0 1-1.644-1.757 1.684 1.684 0 0 1 1.7-1.815 1.61 1.61 0 0 1 1.645 1.757 1.666 1.666 0 0 1-1.701 1.815m.029-.453c.6 0 1.048-.566 1.048-1.333 0-.566-.284-1.3-1.02-1.3s-1.05.676-1.05 1.329a1.123 1.123 0 0 0 1.022 1.3"/>
            </g>
            <g data-name="Group 5144">
                <path data-name="Path 15671" d="M133.793 128.825c0-.4 0-.738-.029-1.077h.54l.029.68h.026a1.023 1.023 0 0 1 .964-.738h.171v.6c-.057-.002-.113-.029-.226-.029a.876.876 0 0 0-.822.791c0 .084-.029.2-.029.284v1.842h-.624z"/>
            </g>
            <g data-name="Group 5145">
                <path data-name="Path 15672" d="M137.223 126.955v.822h.88v.478h-.88v1.848c0 .424.113.651.453.651a1.1 1.1 0 0 0 .369-.055l.029.482a2.1 2.1 0 0 1-.54.084.918.918 0 0 1-.675-.256 1.4 1.4 0 0 1-.227-.906v-1.873h-.54v-.482h.54v-.622z"/>
            </g>
        </g>
    </g>
</svg>
