<svg xmlns="http://www.w3.org/2000/svg" xmlns:xlink="http://www.w3.org/1999/xlink" width="210" height="210" viewBox="0 0 210 210">
  <defs>
    <filter id="Path_15409" x="0" y="0" width="210" height="210" filterUnits="userSpaceOnUse">
      <feOffset dy="10" input="SourceAlpha"/>
      <feGaussianBlur stdDeviation="15" result="blur"/>
      <feFlood flood-opacity="0.302"/>
      <feComposite operator="in" in2="blur"/>
      <feComposite in="SourceGraphic"/>
    </filter>
  </defs>
  <g id="Group_5625" data-name="Group 5625" transform="translate(-167 16)">
    <g transform="matrix(1, 0, 0, 1, 167, -16)" filter="url(#Path_15409)">
      <path id="Path_15409-2" data-name="Path 15409" d="M24,0H96a24,24,0,0,1,24,24V96a24,24,0,0,1-24,24H24A24,24,0,0,1,0,96V24A24,24,0,0,1,24,0Z" transform="translate(45 35)" fill="#fff"/>
    </g>
    <g id="Group_5303" data-name="Group 5303" transform="translate(-174.974 1736.041)">
      <g id="Group_5252" data-name="Group 5252" transform="translate(446.697 -1680.672)">
        <path id="Path_15783" data-name="Path 15783" d="M.208.344A.276.276,0,0,0,.115-.2c-.106.046-.188.076-.223.19A.275.275,0,0,0,.208.344" transform="translate(0.121 0.2)" fill="#ff7544"/>
      </g>
      <g id="Group_5253" data-name="Group 5253" transform="translate(433.279 -1667.33)">
        <path id="Path_15784" data-name="Path 15784" d="M.157,0c-.12.049-.2.073-.236.2a.273.273,0,0,0,.3.353A.276.276,0,0,0,.157,0" transform="translate(0.092 0)" fill="#ff7544"/>
      </g>
      <g id="Group_5254" data-name="Group 5254" transform="translate(460.135 -1667.33)">
        <path id="Path_15785" data-name="Path 15785" d="M.157,0A.276.276,0,0,0-.082.207a.275.275,0,0,0,.3.342A.276.276,0,0,0,.157,0" transform="translate(0.091 0)" fill="#ff7544"/>
      </g>
      <g id="Group_5255" data-name="Group 5255" transform="translate(446.697 -1653.774)">
        <path id="Path_15786" data-name="Path 15786" d="M.149,0C.043.046-.035.076-.073.19A.274.274,0,0,0,.247.541.275.275,0,0,0,.149,0" transform="translate(0.087 0)" fill="#ff7544"/>
      </g>
      <g id="Group_5256" data-name="Group 5256" transform="translate(433.477 -1680.469)">
        <path id="Path_15787" data-name="Path 15787" d="M.675,5.533A13.226,13.226,0,0,1,5.067-.318,12.658,12.658,0,0,1,7.622-1.843,17.788,17.788,0,0,1,9.76-2.6c.372-.111.756-.155,1.158-.239.294-.063.6-.065.921-.12l.628-.046a1.35,1.35,0,0,1-.011-.212A13.574,13.574,0,0,0,7.461-2,13.142,13.142,0,0,0,4.993-.53,13.366,13.366,0,0,0,.137,6.446c-.149.473-.236.973-.348,1.487-.038.25-.073.5-.109.747l-.073.864a1.333,1.333,0,0,1,.212.011A12.317,12.317,0,0,1,.675,5.533" transform="translate(0.393 3.221)" fill="#ff7544"/>
      </g>
      <g id="Group_5257" data-name="Group 5257" transform="translate(447.613 -1680.471)">
        <path id="Path_15788" data-name="Path 15788" d="M1.29.3A15.85,15.85,0,0,1,3.168.834c.438.171.845.348,1.258.53a9.325,9.325,0,0,1,1.133.631A13.263,13.263,0,0,1,9.18,5.272,12.722,12.722,0,0,1,10.688,7.78a17.852,17.852,0,0,1,.777,2.152c.114.38.163.775.25,1.185.06.288.065.592.117.9l.049.592a1.717,1.717,0,0,1,.207-.016c-.011-.155-.014-.28-.03-.467-.06-.353-.063-.7-.13-1.025-.117-.56-.2-1.084-.359-1.593a18.432,18.432,0,0,0-.772-2,13.462,13.462,0,0,0-1.875-2.9,9.744,9.744,0,0,0-.769-.834,7.581,7.581,0,0,0-.647-.606c-.359-.288-.7-.6-1.084-.867A13.862,13.862,0,0,0,1.776.187a14.744,14.744,0,0,0-1.8-.3C-.284-.148-.5-.153-.74-.172c0,.076-.008.141-.011.212a10.09,10.09,0,0,1,1.3.13L1.29.3" transform="translate(0.751 0.172)" fill="#ff7544"/>
      </g>
      <g id="Group_5258" data-name="Group 5258" transform="translate(447.596 -1666.423)">
        <path id="Path_15789" data-name="Path 15789" d="M7.987.239c-.03.288-.057.622-.09.867a15.767,15.767,0,0,1-.611,2.566,13.149,13.149,0,0,1-.818,1.875c-.315.541-.62,1.065-.976,1.56A13.068,13.068,0,0,1,.274,11.39c-.351.155-.717.307-1.087.451-.351.133-.726.226-1.1.334-.435.13-.889.182-1.362.277a8.249,8.249,0,0,1-1.381.139V12.6a.417.417,0,0,1,.027.2,8.117,8.117,0,0,0,1.258-.12c.291-.043.647-.087.959-.163a16.134,16.134,0,0,0,2.093-.644A13.371,13.371,0,0,0,7.18,4.53a13.206,13.206,0,0,0,.712-2.185c.073-.323.109-.573.168-.913C8.1,1.119,8.145.861,8.175.5,8.188.29,8.2.084,8.216-.123a.733.733,0,0,1-.207-.016C8-.011,7.993.114,7.987.239" transform="translate(4.65 0.139)" fill="#ff7544"/>
      </g>
      <g id="Group_5259" data-name="Group 5259" transform="translate(433.473 -1666.416)">
        <path id="Path_15790" data-name="Path 15790" d="M6.866,7.888a13.371,13.371,0,0,1-2.15-.633A13.17,13.17,0,0,1-2.709.123a14.942,14.942,0,0,1-.739-2.218c-.082-.323-.141-.644-.209-.987a8.308,8.308,0,0,1-.128-1.508A1.933,1.933,0,0,0-4-4.584a8.825,8.825,0,0,0,.144,1.552c.073.37.114.655.2,1A14.905,14.905,0,0,0-2.877.262,13.236,13.236,0,0,0,1.637,5.838c.489.351,1.014.65,1.549.959a13.547,13.547,0,0,0,1.927.834,16.323,16.323,0,0,0,2.541.6c.329.038.587.076.845.087l.353.022a.662.662,0,0,1,.03-.215,8.059,8.059,0,0,1-1.188-.092c-.291-.052-.554-.082-.829-.149" transform="translate(3.997 4.592)" fill="#ff7544"/>
      </g>
      <g id="Group_5260" data-name="Group 5260" transform="translate(444.985 -1660.057)">
        <path id="Path_15791" data-name="Path 15791" d="M1.719,1.441H1.695L1.206.012H.771Q.53.709.29,1.411-.093.286-.476-.834L-1-.839l1.109,3.1.348.008C.632,1.746.806,1.226.983.7H.988c.179.516.359,1.035.541,1.549.117,0,.236.005.356.005Q2.46.71,3.032-.839H2.5Q2.109.3,1.719,1.441" transform="translate(1.001 0.839)" fill="#ff7544"/>
      </g>
      <g id="Group_5261" data-name="Group 5261" transform="translate(441.532 -1675.728)">
        <path id="Path_15792" data-name="Path 15792" d="M.306.669C.3.557.3.449.3.337.3.1.309-.146.312-.388.214-.4.024-.282-.128-.28c0,.027,0,.052-.005.079a1,1,0,0,1,.209.019A5.081,5.081,0,0,1,.051.979a.676.676,0,0,1-.223.043.171.171,0,0,0,0,.084H.548c0-.03.005-.057.008-.084-.079,0-.19-.008-.226-.057C.285.9.32.769.306.669" transform="translate(0.178 0.389)" fill="#ff7544"/>
      </g>
      <g id="Group_5262" data-name="Group 5262" transform="translate(451.308 -1675.732)">
        <path id="Path_15793" data-name="Path 15793" d="M.531.819A1.759,1.759,0,0,1-.021.843C.006.754.148.664.2.6A1.544,1.544,0,0,0,.542.109.421.421,0,0,0,.1-.472a.491.491,0,0,0-.4.321A.09.09,0,0,0-.252-.1C-.173-.165-.119-.249,0-.282c.3-.076.391.25.313.478A2.269,2.269,0,0,1-.3.96c0,.019,0,.035.005.054H0a2.909,2.909,0,0,0,.617-.005A.936.936,0,0,0,.748.631C.732.626.718.618.7.612.618.623.6.778.531.819" transform="translate(0.309 0.477)" fill="#ff7544"/>
      </g>
      <g id="Group_5263" data-name="Group 5263" transform="translate(449.903 -1675.83)">
        <path id="Path_15794" data-name="Path 15794" d="M.377.953C.091,1.013-.077.559.034.307.067.233.167.22.222.2.646.192.7.883.377.953M.355.056A1.032,1.032,0,0,0,.089.149,1.219,1.219,0,0,1,.765-.473.087.087,0,0,0,.73-.555c-.084.035-.168.068-.255.1A1.3,1.3,0,0,0-.167.211a.656.656,0,0,0,.207.81A.552.552,0,0,0,.776.345.38.38,0,0,0,.355.056" transform="translate(0.219 0.555)" fill="#ff7544"/>
      </g>
      <g id="Group_5264" data-name="Group 5264" transform="translate(442.777 -1675.732)">
        <path id="Path_15795" data-name="Path 15795" d="M.466.809A.215.215,0,0,1,.325.942C.24.972-.094,1-.064.592A.471.471,0,0,1,.123.35C.276.4.553.57.466.809M.18-.379A.271.271,0,0,1,.439.007.639.639,0,0,1,.311.184.344.344,0,0,1,.175.111C-.037-.031-.132-.311.18-.379m.2.617S.379.233.379.23A.576.576,0,0,0,.626-.025C.719-.289.452-.474.219-.471a.433.433,0,0,0-.348.177A.407.407,0,0,0,.045.3V.3C-.051.385-.2.45-.249.575-.366.863,0,1.1.3,1.048A.412.412,0,0,0,.384.238" transform="translate(0.271 0.471)" fill="#ff7544"/>
      </g>
      <g id="Group_5265" data-name="Group 5265" transform="translate(445.552 -1676.619)">
        <path id="Path_15796" data-name="Path 15796" d="M1.426,1.593a.6.6,0,0,1-.217.1,2.619,2.619,0,0,1-.576.027H-.379v-.9H.616a2.037,2.037,0,0,1,.717.063.4.4,0,0,1,.245.315.4.4,0,0,1-.152.394M-.379-.476H.6a1.793,1.793,0,0,1,.625.052.372.372,0,0,1,.239.3.426.426,0,0,1-.321.47A1.944,1.944,0,0,1,.627.37H-.379ZM1.763.677a.715.715,0,0,0-.242-.13,1.571,1.571,0,0,0,.139-.1A.8.8,0,0,0,1.893.09.784.784,0,0,0,1.725-.6a.9.9,0,0,0-.511-.294,3.27,3.27,0,0,0-.72-.027H-.83v3.1H.51a3.468,3.468,0,0,0,.783-.038,1.265,1.265,0,0,0,.451-.2A.805.805,0,0,0,1.763.677" transform="translate(0.83 0.927)" fill="#ff7544"/>
      </g>
      <g id="Group_5266" data-name="Group 5266" transform="translate(434.35 -1679.581)">
        <path id="Path_15797" data-name="Path 15797" d="M13.962,3.75a3.434,3.434,0,0,0-2.742.669C9.567,5.66,9.366,8.1,8.711,10.223a12.453,12.453,0,0,1-.91,2.691c-.005,0-.008,0-.011.005a2.351,2.351,0,0,0-.269-.747,2.615,2.615,0,0,0-1.2-1.139,2.669,2.669,0,0,0-.913-.239v-.005a2.142,2.142,0,0,0,.837-.413,3.007,3.007,0,0,0,.78-.946c.12-.258.242-.516.361-.777.12-.193.236-.386.353-.579-.13-.155-.264-.307-.394-.462a4.309,4.309,0,0,0-1.824-1.68,3.43,3.43,0,0,0-.666-.171,3.224,3.224,0,0,0-.989.046,3.834,3.834,0,0,0-1.446.726,1.643,1.643,0,0,1-.538.34.787.787,0,0,1-.538-.163c-.09.005-.223.068-.177.188.054.141.236.212.315.342a2.423,2.423,0,0,1,.1,1.041v5.194a2.563,2.563,0,0,1-.269-.508C1.088,12.5.9,12.014.7,11.506.131,10.044-.143,8.321-.714,6.848c-.1-.266-.182-.533-.3-.791A4.033,4.033,0,0,0-2.149,4.486a3.239,3.239,0,0,0-1.443-.726,3.935,3.935,0,0,0-1.641.057c-.125.041-.247.084-.372.125A9.911,9.911,0,0,1-4.554,2.538c.1-.109.2-.215.3-.321A2.884,2.884,0,0,1-3.839,1.8c.079-.076.16-.155.239-.234.2-.16.383-.334.584-.492.321-.245.639-.5.987-.72A13.122,13.122,0,0,1,1.107-1.09a13.331,13.331,0,0,1,1.962-.4c.264-.033.489-.049.736-.063l.37-.016a11.927,11.927,0,0,1,7.832,2.633,11.2,11.2,0,0,1,2.606,2.883,3.268,3.268,0,0,0-.652-.193M4.319,10.155a1.337,1.337,0,0,1-.758-1.6,1.182,1.182,0,0,1,.168-.348c.31-.508,1.391-.745,1.622.022a.454.454,0,0,0-.291.709.5.5,0,0,0,.8-.071A1.136,1.136,0,0,0,5.9,7.892a1.406,1.406,0,0,0-1.715-.707A1.718,1.718,0,0,0,2.909,8.663a1.749,1.749,0,0,0,0,.571,2.578,2.578,0,0,0,.109.416,1.926,1.926,0,0,0,1.416,1.171,4.026,4.026,0,0,0-.486.215,2.214,2.214,0,0,0-.734.666,3.792,3.792,0,0,0-.283.492c-.168.332-.332.674-.525.981a1.219,1.219,0,0,1-.217.345V8.158a1.182,1.182,0,0,1,.182-.633,1.794,1.794,0,0,1,.315-.4,3.534,3.534,0,0,1,1.152-.666A2.2,2.2,0,0,1,6.6,7.892a1.716,1.716,0,0,1,.054.492A1.858,1.858,0,0,1,5.64,10.071a1.641,1.641,0,0,1-1.321.084m1.832,3.06a.517.517,0,0,0-.842-.359.5.5,0,0,0,.188.84c-.049.277-.549.5-.968.427a1.276,1.276,0,0,1-.717-.389,1.432,1.432,0,0,1-.25-.448,1.455,1.455,0,0,1,.775-1.767,2.185,2.185,0,0,1,.326-.109l.188-.024A2.086,2.086,0,0,1,7,12.571a2.522,2.522,0,0,1,.155.484,2.249,2.249,0,0,1,.052.516,2.413,2.413,0,0,1-.087.552,2.732,2.732,0,0,1-.791,1.106,2.353,2.353,0,0,1-.891.432A3.114,3.114,0,0,1,2.9,15.118c-.171-.122-.663-.465-.674-.7.071-.082.144-.166.217-.247.133-.168.269-.329.394-.5a.962.962,0,0,0,.13-.193h.005a1.773,1.773,0,0,0,1.362,1.25A1.537,1.537,0,0,0,6.1,13.89a1.45,1.45,0,0,0,.046-.674m9.4-7.408a2.759,2.759,0,0,1,.163,1.3,4.087,4.087,0,0,1-.109.554,2.665,2.665,0,0,1-.486.9A1.7,1.7,0,0,1,12.643,8.5c-.2-.34-.207-1.082.193-1.207a.614.614,0,0,0,.938.75.781.781,0,0,0,.149-.864.858.858,0,0,0-.622-.525c-.954-.242-1.612.717-1.394,1.65a1.62,1.62,0,0,0,.832,1.109,1.176,1.176,0,0,0,.367.16c-.057.188-.008.535.149.6.024-.024.014-.065.022-.109a.363.363,0,0,1,.16-.239c0,.4.168.747.56.747.03-.09-.057-.223-.079-.321a.521.521,0,0,1,.13-.427c.122-.152.326-.155.541-.22.117-.046.234-.092.351-.136a2.243,2.243,0,0,0,1.1-1.188,1.766,1.766,0,0,0,.185-.508h.005A13.192,13.192,0,0,1,16.5,9.544c.043.5.019,1.266.014,1.432a9.433,9.433,0,0,1-.073.943,11.108,11.108,0,0,1-.4,1.93A11.9,11.9,0,0,1,11.8,19.993a11.044,11.044,0,0,1-2.218,1.348c-.364.16-.742.318-1.131.467a10.735,10.735,0,0,1-1.451.4c-.4.087-.7.117-1.114.179a14.9,14.9,0,0,1-2.348.019c-.386-.043-.9-.082-1.253-.141-.383-.084-.764-.155-1.12-.266a15.451,15.451,0,0,1-1.72-.641,12.016,12.016,0,0,1-2.506-1.571,11.794,11.794,0,0,1-3.933-5.816A14.36,14.36,0,0,1-7.411,12.1a7.984,7.984,0,0,1-.092-.853c-.022-.294-.016-.56-.016-.832,0-.144,0-.288.005-.432.027-.31.03-.78.1-1.15.033-.2.063-.391.1-.587.027-.141.057-.285.087-.429h.005a2.7,2.7,0,0,0,1,1.489,2.472,2.472,0,0,0,.5.247c.34.13.652.1.756.473.06.212-.071.345-.071.527a.334.334,0,0,0,.2-.035.689.689,0,0,0,.37-.7h0a.376.376,0,0,1,.158.231,1.1,1.1,0,0,0,.014.114c.141-.033.234-.413.16-.579A1.709,1.709,0,0,0-2.926,8.337a1.414,1.414,0,0,0-.592-1.59,1.142,1.142,0,0,0-.429-.117,1.027,1.027,0,0,0-.5.065c-.492.19-.837,1.041-.264,1.4a.615.615,0,0,0,.864-.8c.4.125.389.829.209,1.182a1.577,1.577,0,0,1-1.775.522,1.684,1.684,0,0,1-.533-.264,2.689,2.689,0,0,1-.731-2.593A2.671,2.671,0,0,1-6.16,5.062a2.75,2.75,0,0,1,3.134-.427A4.5,4.5,0,0,1-1.154,7.508c.179.568.386,1.166.514,1.767-.082-.052-.226-.147-.348-.1-.063.217.2.383.291.514-.269-.13-.848-.014-.788.3a1.859,1.859,0,0,0,.41.084,1.2,1.2,0,0,1,.677.361,5.537,5.537,0,0,1,.582,1.359,13.363,13.363,0,0,0,.859,1.949c.125.209.193.389.351.617a2.763,2.763,0,0,1-.5.443,4.313,4.313,0,0,1-1.731.853,3.346,3.346,0,0,1-.633.09,4.465,4.465,0,0,1-1.079-.063A2.417,2.417,0,0,1-4.5,14.232a2.1,2.1,0,0,1-.147-.829.544.544,0,0,0,.451-.65h.005a.486.486,0,0,0,.334.348c.215.054.473-.168.419-.378-.024-.1-.111-.144-.171-.209a.676.676,0,0,0,.565-.155c.043-.046.1-.155.046-.236-.117-.174-.783.008-.834-.215-.03-.114.125-.212.2-.253a1.921,1.921,0,0,1,1.43-.179,1.358,1.358,0,0,1,.916.875,1.012,1.012,0,0,1-.2,1.063,1.015,1.015,0,0,1-.443.141.6.6,0,0,0-.693-.9.667.667,0,0,0-.446.571.989.989,0,0,0,.1.5,1.406,1.406,0,0,0,1.905.174A1.712,1.712,0,0,0-.7,12.052,1.935,1.935,0,0,0-1.972,10.9,2.568,2.568,0,0,0-3.3,10.867a2.353,2.353,0,0,0-1.285.745,3.947,3.947,0,0,0-.31.438c-.079.13-.144.313-.226.44a1.022,1.022,0,0,1-.981.462c-.12-.022-.215-.073-.321-.084-.035.1.06.231.1.3a.764.764,0,0,0,1.046.155c0,.12,0,.242.005.361a3.611,3.611,0,0,0,.155.712A2.953,2.953,0,0,0-2.8,16.273a4.848,4.848,0,0,0,1.481.1,5.128,5.128,0,0,0,1.027-.212,4.637,4.637,0,0,0,1.28-.644,2.221,2.221,0,0,1,.674-.424c.236-.038.4.182.522.28a4.961,4.961,0,0,0,1.1.693,4.292,4.292,0,0,0,.829.261,3.508,3.508,0,0,0,.851.049,3.473,3.473,0,0,0,.516-.084,3.424,3.424,0,0,0,1.688-1.014,5.3,5.3,0,0,0,.435-.557,4.282,4.282,0,0,0,.622.644,4.965,4.965,0,0,0,1.614.834,3.767,3.767,0,0,0,2.267.008,2.94,2.94,0,0,0,2.136-2.881.76.76,0,0,0,1.035-.16c.035-.054.141-.19.109-.28v-.011a1.951,1.951,0,0,0-.326.076,1.009,1.009,0,0,1-.72-.177.9.9,0,0,1-.25-.236l-.082-.228a2.853,2.853,0,0,0-.337-.565,2.568,2.568,0,0,0-2.53-.9,2.208,2.208,0,0,0-.56.207,1.968,1.968,0,0,0-1.03,1.37A1.5,1.5,0,0,0,11.6,14.175a1.006,1.006,0,0,0,.4-.318.808.808,0,0,0-.141-1.15.6.6,0,0,0-.881.31.62.62,0,0,0,.114.622.039.039,0,0,1,.005.016c-.7.092-1.068-.563-.867-1.228a1.345,1.345,0,0,1,.954-.938,2.044,2.044,0,0,1,1.3.114c.13.054.274.111.307.264.052.269-.736.1-.84.269-.152.253.386.454.628.378-.054.057-.122.092-.163.16-.092.163.063.337.163.394.253.149.535-.1.568-.31l.016.212a.493.493,0,0,0,.451.435,1.137,1.137,0,0,1-.041.443,2.389,2.389,0,0,1-.508,1.008,2.806,2.806,0,0,1-2.8.842,3.865,3.865,0,0,1-1.527-.747,3.966,3.966,0,0,1-.576-.554,1.6,1.6,0,0,1-.247-.38c.182-.334.337-.587.481-.881a10.127,10.127,0,0,0,.565-1.587,7.891,7.891,0,0,1,.264-.864,1.363,1.363,0,0,1,.217-.3,1.142,1.142,0,0,1,.628-.315c.084-.022.348-.03.383-.09.03-.076-.057-.16-.1-.2A.652.652,0,0,0,9.659,9.7c.1-.133.323-.272.3-.5-.1-.082-.258.03-.342.071.111-.429.223-.856.332-1.285a5.391,5.391,0,0,1,1.707-3.1,3.285,3.285,0,0,1,1-.481c.12-.024.239-.046.359-.068l.2-.011a2.207,2.207,0,0,1,2.34,1.487M4.5-2.183A12.626,12.626,0,1,0,17.125,10.443,12.642,12.642,0,0,0,4.5-2.183" transform="translate(8.128 2.183)" fill="#ff7544"/>
      </g>
      <g id="Group_5267" data-name="Group 5267" transform="translate(439.243 -1636.258)">
        <path id="Path_15798" data-name="Path 15798" d="M9.525,1.762h2.049V1.371H9.916V-.966H9.525ZM5.853-.966V1.762h2.3V1.371H6.244V.537h.929V.143H6.244V-.575H8.087V-.966Zm-3.577,0v.391h.957V1.762h.391V-.575h.959V-.966ZM-.245,1.428A1.037,1.037,0,0,1-1.316.4,1.037,1.037,0,0,1-.245-.632,1.036,1.036,0,0,1,.825.4,1.036,1.036,0,0,1-.245,1.428m0,.394A1.415,1.415,0,0,0,1.217.4,1.413,1.413,0,0,0-.245-1.026,1.415,1.415,0,0,0-1.708.4,1.413,1.413,0,0,0-.245,1.822m-5.3-.06h.391V.529h1.6V1.762h.391V-.966H-3.55v1.1h-1.6v-1.1h-.391Z" transform="translate(5.545 1.026)"/>
      </g>
      <g id="Group_5268" data-name="Group 5268" transform="translate(392.711 -1647.189)">
        <path id="Path_15799" data-name="Path 15799" d="M68.593,4.528V4.281H67.83V-2.141h.764v-.247h-1.78v3.1H63.367v-3.1H61.584v.247h.764V4.281h-.764v.247h1.783V1.1h3.446V4.528ZM60.484,4.1V3.664a2.809,2.809,0,0,1-1.783.742c-1.769,0-2.989-1.359-2.989-3.585,0-1.832,1.019-3.087,2.6-3.087a2.554,2.554,0,0,1,1.728.834l.318.772h.128V-2.2l-.245-.03-.4-.092a5.141,5.141,0,0,0-1.783-.31A3.411,3.411,0,0,0,54.63.821c0,2.47,1.527,3.954,3.585,3.954A3.55,3.55,0,0,0,60.484,4.1m-8.9-1.976H49.36L50.485-.6Zm2.9,2.408V4.281h-.764s-.329-.606-.4-.794l-1.843-4.2a5.469,5.469,0,0,1-.647-1.924h-.139a5.925,5.925,0,0,1-.563,1.913L48.322,3.5c-.084.185-.435.783-.435.783h-.764v.247h2.109V4.281h-.761l.041-.114.669-1.614h2.576l.7,1.728h-.764v.247Zm-7.827-1.8A2.175,2.175,0,0,0,45.6.916L44.283,0a2.085,2.085,0,0,1-.924-1.4c0-.609.669-.978,1.294-.978a1.517,1.517,0,0,1,1.158.484,1.494,1.494,0,0,1,.391.935h.128V-2.326l-.288-.033a4.479,4.479,0,0,0-1.536-.277A1.941,1.941,0,0,0,42.522-.959,2.334,2.334,0,0,0,43.753,1l1.177.813a1.629,1.629,0,0,1,.837,1.421c0,.8-.625,1.3-1.622,1.3a1.214,1.214,0,0,1-.976-.37,1.924,1.924,0,0,1-.592-1.112h-.128l.128,1.43.285.03a4.3,4.3,0,0,0,1.473.269,2.1,2.1,0,0,0,2.321-2.049m-5.628,0a2.177,2.177,0,0,0-1.06-1.81L38.652,0a2.091,2.091,0,0,1-.921-1.4c0-.609.669-.978,1.294-.978a1.514,1.514,0,0,1,1.155.484,1.476,1.476,0,0,1,.391.935H40.7V-2.326l-.285-.033a4.5,4.5,0,0,0-1.538-.277A1.94,1.94,0,0,0,36.894-.959,2.336,2.336,0,0,0,38.122,1L39.3,1.81a1.629,1.629,0,0,1,.837,1.421c0,.8-.625,1.3-1.62,1.3a1.208,1.208,0,0,1-.976-.37,1.92,1.92,0,0,1-.6-1.112h-.128l.128,1.43.288.03a4.291,4.291,0,0,0,1.473.269,2.1,2.1,0,0,0,2.321-2.049m-5.656,1.8V4.281h-.764V-2.141h.764v-.247H32.828v.247h.764V4.281h-.764v.247Zm-3.8-.432V3.047h-.255s-.255,1.234-2.163,1.234H28.26V1.163h1.769l.351.307.158-.144V.565L30.38.432l-.351.3H28.26v-2.87h.815c1.718,0,1.728,1.348,1.728,1.348h.253v-1.1a2.026,2.026,0,0,0-1.652-.62c-.636,0-1.144.125-2.163.125h-.764v.247h.764V4.281h-.764v.247h.764c1.019,0,1.527.125,2.375.125A3.2,3.2,0,0,0,31.567,4.1M21.824-2.141,21.283-.763,20.71-2.141Zm4.082,0v-.247H23.879v.247h.764L22.756,2.737,21.525-.2l.8-1.943h.891v-.247H19.047v.247h.644l1.1,2.655-.859,2.223L17.889-2.141h.519v-.247h-2.3v.247h.764l2.076,4.992A5.469,5.469,0,0,1,19.6,4.775h.139A5.95,5.95,0,0,1,20.3,2.859l.72-1.8.753,1.791a5.469,5.469,0,0,1,.647,1.924h.139a5.95,5.95,0,0,1,.563-1.916l2.025-5ZM11.649-.649C11.649.6,11.021.832,10.168.832H9.3V-2.141h.739c1.011,0,1.606.247,1.606,1.492m2.492,5.177V4.281h-.247a.939.939,0,0,1-.8-.495L11.413,1.068a1.664,1.664,0,0,0,1.3-1.728c0-1.234-.8-1.853-2.171-1.853-.247,0-1.234.125-1.976.125H7.573v.247h.742V4.281H7.573v.247h2.47V4.281H9.3V1.109c.4.043.894.1,1.049.1h.041l1.832,3.076v.247Zm-7.762,0V4.281H5.638V-2.141h.742v-.247H3.909v.247h.739V4.281H3.909v.247ZM.42,2.12H-1.744L-.651-.6ZM3.23,4.528V4.281H2.488S2.17,3.675,2.1,3.487L.305-.712A5.578,5.578,0,0,1-.322-2.636H-.456A6.054,6.054,0,0,1-1-.723L-2.752,3.5c-.082.185-.421.783-.421.783h-.742v.247h2.049V4.281h-.742l.041-.114.65-1.614h2.5l.679,1.728H.523v.247Zm-7.411,0V4.281h-.742l-.938-6.794h-.152A8.378,8.378,0,0,1-6.538-.908L-8.177,2.316l-1.9-3.234a6.984,6.984,0,0,1-.587-1.6H-10.8l-.959,6.794H-12.5v.247h1.9V4.281h-.739l.584-4.56L-8.8,3.047l.188.41h.2l.185-.41,1.69-3.335.617,4.568h-.742v.247Zm-9.24,0V4.281h-.739V-2.141h.739v-.247H-15.15v3.1H-18.5v-3.1h-1.728v.247h.739V4.281h-.739v.247H-18.5V1.1h3.345V4.528ZM-21.11,4.1V3.664a2.693,2.693,0,0,1-1.728.742c-1.72,0-2.9-1.359-2.9-3.585,0-1.832.987-3.087,2.522-3.087a2.465,2.465,0,0,1,1.677.834l.307.772h.125V-2.2l-.236-.03-.391-.092a4.861,4.861,0,0,0-1.728-.31A3.365,3.365,0,0,0-26.793.821c0,2.47,1.484,3.954,3.479,3.954a3.388,3.388,0,0,0,2.2-.679M-29.788,2.12h-2.161L-30.859-.6Zm2.81,2.408V4.281h-.742s-.318-.606-.389-.794L-29.9-.712a5.561,5.561,0,0,1-.631-1.924h-.133a6.077,6.077,0,0,1-.544,1.913L-32.957,3.5c-.084.185-.424.783-.424.783h-.739v.247h2.046V4.281h-.739l.041-.114.647-1.614h2.5l.679,1.728h-.742v.247Zm-8.631-1.965a1.657,1.657,0,0,1-1.783,1.718H-38.2V.821h.679a1.769,1.769,0,0,1,1.916,1.742m-.372-3.471A1.445,1.445,0,0,1-37.463.5H-38.2V-2.152h.978A1.117,1.117,0,0,1-35.981-.908m1.37,3.46A1.908,1.908,0,0,0-36.351.688,1.6,1.6,0,0,0-35-.908c0-1.112-.864-1.606-2.337-1.606-.258,0-.946.125-1.843.125h-.75v.247h.742V4.281h-.742v.247h.864c1,0,1.348.125,1.75.125,1.348,0,2.707-.62,2.707-2.1" transform="translate(39.933 2.636)"/>
      </g>
    </g>
  </g>
</svg>
