<svg xmlns="http://www.w3.org/2000/svg" width="210" height="210" viewBox="0 0 210 210">
    <defs>
        <clipPath id="8hrrjunqzb">
            <path data-name="Path 15858" d="M0 18.623h104.825v-29.3H0z" transform="translate(0 10.677)" style="fill:none"/>
        </clipPath>
        <filter id="i0txerw3la" x="0" y="0" width="210" height="210" filterUnits="userSpaceOnUse">
            <feOffset dy="10"/>
            <feGaussianBlur stdDeviation="15" result="blur"/>
            <feFlood flood-opacity=".302"/>
            <feComposite operator="in" in2="blur"/>
            <feComposite in="SourceGraphic"/>
        </filter>
    </defs>
    <g data-name="App Icon-Light">
        <g style="filter:url(#i0txerw3la)">
            <path data-name="Path 15409" d="M24 0h72a24 24 0 0 1 24 24v72a24 24 0 0 1-24 24H24A24 24 0 0 1 0 96V24A24 24 0 0 1 24 0z" transform="translate(45 35)" style="fill:#edf0ec"/>
        </g>
        <g data-name="Group 5334">
            <g data-name="Group 5333" transform="translate(52.587 80)" style="clip-path:url(#8hrrjunqzb)">
                <g data-name="Group 5317">
                    <path data-name="Path 15842" d="M0 6.065c.889 0 1.6-.178 1.6-1.548v-5.76c0-1.271-.966-1.32-1.6-1.372v-.354l3.249-.508v2.259H3.3a2.951 2.951 0 0 1 2.74-2.259 1.008 1.008 0 0 1 1.04.963.953.953 0 0 1-1.015.991c-.634 0-.914-.508-1.191-.508-.381 0-1.625.837-1.625 3.351v3.172c0 1.369.711 1.548 1.6 1.548v.379H0z" transform="translate(0 18.439)" style="fill:#776b5e"/>
                </g>
                <g data-name="Group 5318">
                    <path data-name="Path 15843" d="M2.791 5.969c2.109 0 2.538-2.613 2.538-4.369S4.9-2.761 2.791-2.761.252-.148.252 1.6c0 1.778.431 4.366 2.538 4.366M-1.6 1.63c0-3.148 1.7-5.052 4.391-5.052s4.391 1.9 4.391 5.052S5.48 6.68 2.791 6.68-1.6 4.775-1.6 1.63" transform="translate(11.547 18.408)" style="fill:#776b5e"/>
                </g>
                <g data-name="Group 5319">
                    <path data-name="Path 15844" d="M3.63 1.629A2.2 2.2 0 0 0 1.473-.248c-.788 0-1.751.329-1.751 1.32 0 1.191 1.8 1.8 2.994 2.486 1.065.585 1.954 1.167 1.954 2.767 0 1.8-1.548 2.843-3.883 2.843a8.6 8.6 0 0 1-2.714-.381l-.154-2.335h.535A2.435 2.435 0 0 0 .94 8.482a1.929 1.929 0 0 0 2.08-1.7c0-1.5-2.689-2.234-3.858-3.1a2.181 2.181 0 0 1-1.089-2.003c0-1.954 1.776-2.613 3.5-2.613a9.4 9.4 0 0 1 2.411.354l.154 2.209z" transform="translate(24.717 15.921)" style="fill:#776b5e"/>
                </g>
                <g data-name="Group 5320">
                    <path data-name="Path 15845" d="M3.823 2.065C3.823.948 3.442-.5 1.817-.5.22-.5-.441 1.305-.441 2.065zm1.6 6.471a7.017 7.017 0 0 1-2.514.381c-3.274 0-5.1-1.8-5.1-5.329 0-3.071 1.243-4.772 4.265-4.772a3.3 3.3 0 0 1 3.6 3.5v.458H-.441c0 1.776.864 5.379 4.391 5.379a3.261 3.261 0 0 0 1.474-.277z" transform="translate(35.334 16.171)" style="fill:#776b5e"/>
                </g>
                <g data-name="Group 5321">
                    <path data-name="Path 15846" d="M0 6.065c.889 0 1.6-.178 1.6-1.548v-5.76c0-1.271-.991-1.32-1.6-1.372v-.354l3.249-.508v2.791H3.3c.3-.788 1.243-2.766 3.326-2.766 2.231 0 2.434 1.218 2.434 3.172v4.8c0 1.369.711 1.548 1.6 1.548v.354H5.812v-.357c.886 0 1.6-.178 1.6-1.548V.178c0-1.8-.025-2.64-1.422-2.64-1.243 0-2.766 2.385-2.766 4.391v2.588c0 1.369.711 1.548 1.6 1.548v.354H0z" transform="translate(44.411 18.439)" style="fill:#776b5e"/>
                </g>
                <g data-name="Group 5322">
                    <path data-name="Path 15847" d="M3.548 3.323c-.991.025-3.68.2-3.68 2.157a1.662 1.662 0 0 0 1.421 1.827 2.518 2.518 0 0 0 2.259-2.766zm3.12 4.7A5.687 5.687 0 0 1 5.12 8.2c-1.22 0-1.572-.64-1.572-1.554H3.5A3.386 3.386 0 0 1 .5 8.2a2.4 2.4 0 0 1-2.534-2.391c0-3.043 3.957-3.043 5.557-3.2V1.8c0-1.471-.025-3.019-1.8-3.019C.428-1.219.249-.662.249 0a.991.991 0 0 1-.99 1.089A.955.955 0 0 1-1.757.15c0-1.369 2.031-2.055 3.5-2.055 2.9 0 3.4 1.4 3.4 3.351v5.228c0 .735.252.988.911.988a4.346 4.346 0 0 0 .56-.074v.431z" transform="translate(60.607 16.867)" style="fill:#776b5e"/>
                </g>
                <g data-name="Group 5323">
                    <path data-name="Path 15848" d="M0 9.065c.889 0 1.6-.178 1.6-1.548v-10.48c0-1.243-.966-1.3-1.6-1.372v-.354L3.249-5.2V7.517c0 1.369.711 1.548 1.6 1.548v.354H0z" transform="translate(70.22 15.439)" style="fill:#776b5e"/>
                </g>
                <g data-name="Group 5324">
                    <path data-name="Path 15849" d="M3.436 5.936c1.8 0 2.283-2.511 2.283-4.265 0-1.852-.329-4.262-2.283-4.262-1.674 0-2.157 2.462-2.157 4.262-.025 1.981.557 4.265 2.157 4.265m-5.406 4.643c.889 0 1.6-.2 1.6-1.548v-10.2c0-1.271-.991-1.32-1.6-1.372V-2.9l3.249-.5v1.548h.049A2.834 2.834 0 0 1 3.741-3.4c2.917 0 3.883 2.486 3.883 5.049 0 2.64-.939 5.049-3.883 5.049a2.875 2.875 0 0 1-2.412-1.624h-.05v3.957c0 1.345.711 1.548 1.6 1.548v.357H-1.97z" transform="translate(79.98 18.365)" style="fill:#776b5e"/>
                </g>
                <g data-name="Group 5325">
                    <path data-name="Path 15850" d="M6.839 2.92a15.434 15.434 0 0 0-2.664 2.994 7.271 7.271 0 0 0 0-1.828 1.086 1.086 0 0 1-.406.154 9.433 9.433 0 0 1-.127 2.36v.1a21.888 21.888 0 0 0-1.979 4.034 6.381 6.381 0 0 0 .049-.659A12.907 12.907 0 0 0-3.641-1.674a3.31 3.31 0 0 1-.28.329 12.488 12.488 0 0 1 5.2 11.4c-.077 1.013-.357 2.689-.357 2.689v.049c-.1.3-.176.634-.277.939-.508 1.88-.864 3.2-1.144 4.114-.025-2.006-.329-5.763-1.8-7.868a1.566 1.566 0 0 1-.329.252c1.9 2.717 1.726 8.526 1.7 8.883l-.1.406c-.126.508-.151.634.052.686.228.049.228.049.609-1.347l.1-.379a6.814 6.814 0 0 1 2-2.818 3.184 3.184 0 0 1-.2-.379 5.123 5.123 0 0 0-1.32 1.345l.763-2.818c1.268-4.72 3.45-8.474 6.114-10.683-.025-.025-.049-.025-.074-.052a1.775 1.775 0 0 1-.178-.151" transform="translate(95.077 6.332)" style="fill:#776b5e"/>
                </g>
                <g data-name="Group 5326">
                    <path data-name="Path 15851" d="M3.405.462a2.2 2.2 0 0 1 .252 1.572A3.248 3.248 0 0 1 .639 4.726h-.2a1.846 1.846 0 0 1-1.373-.763 2.185 2.185 0 0 1-.356-1.75A2.072 2.072 0 0 1 .664.486h.128a1.154 1.154 0 0 1 .886.508 1.455 1.455 0 0 1 .228 1.142A1.355 1.355 0 0 1 .537 3.253a.774.774 0 0 1-.585-.329.939.939 0 0 1-.152-.736.912.912 0 0 1 .837-.735h.054a.543.543 0 0 1 .379.228.629.629 0 0 1 .1.483.59.59 0 0 1-.557.48H.537v-.127h.052a.462.462 0 0 0 .431-.406.565.565 0 0 0-.077-.411.484.484 0 0 0-.3-.178.759.759 0 0 0-.76.637.827.827 0 0 0 .117.663.8.8 0 0 0 .508.28 1.243 1.243 0 0 0 1.248-1.016 1.324 1.324 0 0 0-.2-1.04A1.153 1.153 0 0 0 .74.588H.614a1.985 1.985 0 0 0-1.852 1.649 2.055 2.055 0 0 0 .329 1.65 1.638 1.638 0 0 0 1.3.711A3.108 3.108 0 0 0 3.507 2.01 1.953 1.953 0 0 0 2.949.132 3.174 3.174 0 0 0-.934.816a3.059 3.059 0 0 0-.255 4.289 3.04 3.04 0 0 0 4.265-.354A3.1 3.1 0 0 0 3.405.462" transform="translate(88.03 .264)" style="fill:#a0331e"/>
                </g>
                <g data-name="Group 5327">
                    <path data-name="Path 15852" d="M1.3 2.6h-.148a1.472 1.472 0 0 1-1.117-.588A1.736 1.736 0 0 1 1.481-.727a1 1 0 0 1 .735.379 1.1 1.1 0 0 1 .178.889 1.092 1.092 0 0 1-1.117.889.7.7 0 0 1-.483-.255A.678.678 0 0 1 .669.59a.756.756 0 0 1 .71-.581h.049a.437.437 0 0 1 .329.176.542.542 0 0 1 .078.405.508.508 0 0 1-.483.41H1.3V.87h.025a.379.379 0 0 0 .381-.3.413.413 0 0 0-.052-.3.262.262 0 0 0-.225-.135H1.4a.622.622 0 0 0-.581.508.613.613 0 0 0 .1.508.5.5 0 0 0 .406.2h.052a1 1 0 0 0 .941-.81 1.1 1.1 0 0 0-.154-.812A.788.788 0 0 0 1.53-.6h-.077A1.635 1.635 0 0 0-.067.692a1.628 1.628 0 0 0 .252 1.3A1.353 1.353 0 0 0 1.2 2.52h.126A2.564 2.564 0 0 0 3.663.719 2.122 2.122 0 0 0 2.57-1.287 2.314 2.314 0 0 0-.448-.044a2.34 2.34 0 0 0 .787 3.173 2.314 2.314 0 0 0 3.019-1.243 2.6 2.6 0 0 0 .255-.735A2.749 2.749 0 0 1 1.3 2.6" transform="translate(90.032 13.711)" style="fill:#a0331e"/>
                </g>
                <g data-name="Group 5328">
                    <path data-name="Path 15853" d="M0 0a3.893 3.893 0 0 1 .557.1A3.352 3.352 0 0 0 0 0" style="fill:#776b5e" transform="translate(91.816 12.171)"/>
                </g>
                <g data-name="Group 5329">
                    <path data-name="Path 15854" d="M0 0" style="fill:#776b5e" transform="translate(99.378 8.795)"/>
                </g>
                <g data-name="Group 5330">
                    <path data-name="Path 15855" d="M.636.944H.559A.861.861 0 0 1 .052.716.55.55 0 0 1-.075.209.7.7 0 0 1 .611-.3h.05a.507.507 0 0 1 .329.152.448.448 0 0 1 .1.357.461.461 0 0 1-.454.329H.611a.312.312 0 0 1-.228-.1.256.256 0 0 1-.051-.229.307.307 0 0 1 .329-.228.158.158 0 0 1 .154.074.221.221 0 0 1 .049.178.222.222 0 0 1-.228.154H.587v-.1h.024c.049 0 .1-.027.1-.077a.091.091 0 0 0-.1-.1c-.1 0-.2.049-.2.151a.336.336 0 0 0 .022.151C.458.461.51.461.587.489h.024A.379.379 0 0 0 .966.233a.241.241 0 0 0-.077-.252.407.407 0 0 0-.253-.129H.587a.56.56 0 0 0-.56.406.538.538 0 0 0 .1.434.794.794 0 0 0 .406.2.965.965 0 0 0 .992-.634A.87.87 0 0 0 1.4-.2l-.028-.022c-.025-.027-.049-.077-.077-.1A.967.967 0 0 0-.05-.2a.962.962 0 0 0-.074 1.347.97.97 0 0 0 1.345-.126 1.069 1.069 0 0 0 .227-.357 1.294 1.294 0 0 1-.812.28" transform="translate(98.21 9.297)" style="fill:#a0331e"/>
                </g>
                <g data-name="Group 5331">
                    <path data-name="Path 15856" d="M1.682.221A1.751 1.751 0 0 0-.73.5a1.761 1.761 0 0 0 .637 2.36 2.071 2.071 0 0 0 1.117.354 1.773 1.773 0 0 1-1.169-1.75A1.094 1.094 0 0 1 .261.677 1.107 1.107 0 0 1 1.2.473a1.147 1.147 0 0 1 .914 1.194.644.644 0 0 1-.28.508.725.725 0 0 1-.606.126.782.782 0 0 1-.609-.785.483.483 0 0 1 .176-.357.452.452 0 0 1 .405-.076.52.52 0 0 1 .406.535.265.265 0 0 1-.126.228.352.352 0 0 1-.28.049.379.379 0 0 1-.277-.354v-.025h.1v.025a.24.24 0 0 0 .176.228.16.16 0 0 0 .178-.049.181.181 0 0 0 .077-.154.405.405 0 0 0-.3-.406.384.384 0 0 0-.329.077.308.308 0 0 0-.129.252.636.636 0 0 0 .504.661.649.649 0 0 0 .532-.1.662.662 0 0 0 .231-.431A1.06 1.06 0 0 0 1.125.55a1.076 1.076 0 0 0-.84.178.927.927 0 0 0-.354.711 1.712 1.712 0 0 0 1.32 1.726h.077a1.528 1.528 0 0 0 .963-.609A1.66 1.66 0 0 0 1.682.221" transform="translate(102.264 6.595)" style="fill:#a0331e"/>
                </g>
                <g data-name="Group 5332">
                    <path data-name="Path 15857" d="M1.56.209a1.583 1.583 0 0 0-2.234.28 1.623 1.623 0 0 0 .585 2.182 2.116 2.116 0 0 0 .735.3 1.763 1.763 0 0 1-.812-1.442.808.808 0 0 1 .357-.686 1.051 1.051 0 0 1 .886-.151 1.178 1.178 0 0 1 .914 1.117.546.546 0 0 1-.228.456.671.671 0 0 1-.585.1.782.782 0 0 1-.609-.735.365.365 0 0 1 .154-.3.539.539 0 0 1 .406-.077.544.544 0 0 1 .406.508.323.323 0 0 1-.1.228.36.36 0 0 1-.56-.277V1.68H1v.027a.24.24 0 0 0 .176.228.214.214 0 0 0 .178-.025c.052-.027.052-.077.052-.129A.4.4 0 0 0 1.1 1.4a.41.41 0 0 0-.3.049.246.246 0 0 0-.1.228.7.7 0 0 0 .508.637.531.531 0 0 0 .48-.077.5.5 0 0 0 .178-.381A1.072 1.072 0 0 0 1.028.843.994.994 0 0 0 .215.97a.885.885 0 0 0-.3.609 1.613 1.613 0 0 0 .934 1.446l.025.027a1.491 1.491 0 0 0 1.218-.585A1.592 1.592 0 0 0 1.56.209" transform="translate(97.437 19.853)" style="fill:#a0331e"/>
                </g>
            </g>
        </g>
    </g>
</svg>
