<svg xmlns="http://www.w3.org/2000/svg" width="210" height="210" viewBox="0 0 210 210">
    <defs>
        <clipPath id="c405syjt0b">
            <path data-name="Path 16065" d="M0 44.238h100v-69.167H0z" transform="translate(0 24.929)" style="fill:none"/>
        </clipPath>
        <filter id="lpfql2j7ya" x="0" y="0" width="210" height="210" filterUnits="userSpaceOnUse">
            <feOffset dy="10"/>
            <feGaussianBlur stdDeviation="15" result="blur"/>
            <feFlood flood-opacity=".302"/>
            <feComposite operator="in" in2="blur"/>
            <feComposite in="SourceGraphic"/>
        </filter>
    </defs>
    <g data-name="App Icon-Light">
        <g style="filter:url(#lpfql2j7ya)">
            <path data-name="Path 15409" d="M24 0h72a24 24 0 0 1 24 24v72a24 24 0 0 1-24 24H24A24 24 0 0 1 0 96V24A24 24 0 0 1 24 0z" transform="translate(45 35)" style="fill:#fff"/>
        </g>
        <g data-name="Group 5557">
            <path data-name="Path 16057" d="M0 .332h99.956v-.519H0z" transform="translate(55 129.252)" style="fill:#a09081"/>
            <g data-name="Group 5537" transform="translate(55 60.417)" style="clip-path:url(#c405syjt0b)">
                <g data-name="Group 5530">
                    <path data-name="Path 16058" d="M11.116 11.536a1.431 1.431 0 0 1-.58-1.193 1.352 1.352 0 0 1 .214-.771 1.224 1.224 0 0 1 .658-.447.566.566 0 0 0 .275-.205.77.77 0 0 0 .125-.438c0-.38-.228-1-1.229-1.709A10.179 10.179 0 0 0 7.1 5.238C5.525 4.772 2.615 4.026 1.3 3.59a16.585 16.585 0 0 1-4.112-1.864 8 8 0 0 1-3.016-3.86 6.621 6.621 0 0 1-.436-2.175 2.567 2.567 0 0 1 .4-1.49A1.582 1.582 0 0 1-4.58-6.5a1.321 1.321 0 0 1 .766.239A1.664 1.664 0 0 1-3.4-5.8a1.5 1.5 0 0 1 .233.782 1.27 1.27 0 0 1-.236.738 1.141 1.141 0 0 1-.663.433c-.122.047-.144.055-.28.236a.9.9 0 0 0-.139.524 1.615 1.615 0 0 0 .047.38A4.237 4.237 0 0 0-2.771-.669a13.854 13.854 0 0 0 4.295 1.995c.236.072.463.139.683.2a3.79 3.79 0 0 1-.65-1.937 2 2 0 0 1 .067-.519 1.517 1.517 0 0 1 1.421-1.179 1.426 1.426 0 0 1 .344.044 1.647 1.647 0 0 1 .674.4 1.366 1.366 0 0 1 .437.971 1.373 1.373 0 0 1-.047.347 1.119 1.119 0 0 1-.473.635c-.1.086-.117.105-.18.316a.591.591 0 0 0-.02.17 1.335 1.335 0 0 0 .244.716 3.406 3.406 0 0 0 1.121.893c.719.2 1.274.355 1.7.469a13.232 13.232 0 0 1 4.106 1.737A6.122 6.122 0 0 1 13.055 7.2l-.469.2-.036.014.036-.014.469-.2.006.008a6.124 6.124 0 0 1 .477 2.253 2.775 2.775 0 0 1-.413 1.584 1.565 1.565 0 0 1-1.257.732 1.318 1.318 0 0 1-.749-.244" transform="translate(34.629 6.502)" style="fill:#f42d81"/>
                </g>
                <g data-name="Group 5531">
                    <path data-name="Path 16059" d="M1.549 11.536a1.317 1.317 0 0 1-.749.244 1.569 1.569 0 0 1-1.26-.732 2.775 2.775 0 0 1-.413-1.584A6.124 6.124 0 0 1-.4 7.211l.01-.011.469.2.036.014L.079 7.4l-.469-.2a6.122 6.122 0 0 1 2.106-2.611 13.218 13.218 0 0 1 4.109-1.737c.422-.114.979-.266 1.7-.469a3.418 3.418 0 0 0 1.116-.893 1.343 1.343 0 0 0 .247-.716A.582.582 0 0 0 8.866.6C8.8.394 8.782.374 8.685.288a1.143 1.143 0 0 1-.477-.635 1.367 1.367 0 0 1-.044-.347 1.354 1.354 0 0 1 .436-.974 1.637 1.637 0 0 1 .677-.4 1.4 1.4 0 0 1 .341-.044A1.514 1.514 0 0 1 11.041-.93a1.886 1.886 0 0 1 .067.519 3.764 3.764 0 0 1-.649 1.939l.683-.2a13.84 13.84 0 0 0 4.3-1.995A4.244 4.244 0 0 0 17.1-2.708a1.615 1.615 0 0 0 .047-.38.92.92 0 0 0-.136-.524c-.136-.18-.158-.189-.283-.236a1.128 1.128 0 0 1-.66-.433 1.294 1.294 0 0 1-.239-.738 1.5 1.5 0 0 1 .236-.782 1.616 1.616 0 0 1 .416-.461 1.321 1.321 0 0 1 .766-.239 1.582 1.582 0 0 1 1.282.7 2.546 2.546 0 0 1 .4 1.49 6.621 6.621 0 0 1-.436 2.175 8.008 8.008 0 0 1-3.013 3.862 16.641 16.641 0 0 1-4.112 1.864c-1.318.436-4.228 1.182-5.8 1.648a10.2 10.2 0 0 0-3.481 1.534C1.086 7.477.858 8.1.858 8.482a.77.77 0 0 0 .125.438.566.566 0 0 0 .275.205 1.224 1.224 0 0 1 .658.447 1.352 1.352 0 0 1 .214.771 1.431 1.431 0 0 1-.58 1.193" transform="translate(52.716 6.502)" style="fill:#f42d81"/>
                </g>
                <g data-name="Group 5532">
                    <path data-name="Path 16060" d="M0 0h.019H0" transform="translate(47.657 20.475)" style="fill:#f42d81"/>
                </g>
                <g data-name="Group 5533">
                    <path data-name="Path 16061" d="M5.249 0a1.1 1.1 0 0 1 .893 1.307S1.015 15.549.432 17.879c0 0 4.653-5.136 7.788-5.136 1.384 0 3.349.982 3.349 3.9 0 4.772-4.406 12.785-8.3 12.785-1.529 0-1.784-.766-1.784-1.382 0-1.532 1.021-1.532 1.384-1.532a.962.962 0 0 1 1.021.91c0 .4.069.694.583.694 1.673 0 4.916-6.193 4.916-10.6 0-.621 0-2.805-2.222-2.805S1.809 18.354.208 20.792c-1.321 2.014-2.7 6.481-3.166 8.193A15.282 15.282 0 0 0 3.265 30.3 15.209 15.209 0 0 0 5.249 0" transform="translate(46.668 19.985)" style="fill:#f42d81"/>
                </g>
                <g data-name="Group 5534">
                    <path data-name="Path 16062" d="M6.8 3.164c-.7-1.132.261-3 2.156-4.181.089-.055.178-.105.266-.155a.04.04 0 0 1 .019-.006 6.146 6.146 0 0 1 1.493-.6A15.19 15.19 0 0 0 3.463 26.37C5.064 21.878 8.94 8.866 10.6 3.55c-1.618.691-3.207.569-3.8-.386" transform="translate(38.437 21.654)" style="fill:#f42d81"/>
                </g>
                <g data-name="Group 5535">
                    <path data-name="Path 16063" d="M2.126 4.286A3.246 3.246 0 0 1-1.2.934a3.245 3.245 0 0 1 3.326-3.349A3.245 3.245 0 0 1 5.45.934a3.246 3.246 0 0 1-3.324 3.352m0-6.107A2.6 2.6 0 0 0-.5.934a2.6 2.6 0 0 0 2.626 2.758A2.6 2.6 0 0 0 4.745.934a2.6 2.6 0 0 0-2.619-2.755" transform="translate(1.288 61.73)" style="fill:#a09081"/>
                </g>
                <g data-name="Group 5536">
                    <path data-name="Path 16064" d="M0 0h1.9c1.055 0 2.054.4 2.054 1.6A1.374 1.374 0 0 1 2.827 3v.017a1.479 1.479 0 0 1 1.44 1.6c0 .413-.269 1.765-2.322 1.765H0zm.649 2.791h1.3c.621 0 1.3-.3 1.3-1.115 0-.261-.136-1.082-1.36-1.082H.649zm0 2.991h1.243c.935 0 1.673-.369 1.673-1.207s-.557-1.243-1.592-1.243H.649z" style="fill:#a09081" transform="translate(10.736 59.477)"/>
                </g>
            </g>
            <g data-name="Group 5538">
                <path data-name="Path 16066" d="M.415 3.7h3.413v.594H-.234v-6.378H3.72v.594H.415V.682H3.5v.594H.415z" transform="translate(74.344 121.978)" style="fill:#a09081"/>
            </g>
            <g data-name="Group 5540" transform="translate(55 60.417)" style="clip-path:url(#c405syjt0b)">
                <g data-name="Group 5539">
                    <path data-name="Path 16067" d="M.415 4.078h-.649V-2.3H1.73c1.3 0 2.1.558 2.1 1.7A1.62 1.62 0 0 1 2.2 1.054l1.836 3.024h-.794L1.5 1.115H.415zm0-3.557h1.152C2.729.521 3.126.016 3.126-.6s-.397-1.1-1.559-1.1H.415z" transform="translate(27.386 61.776)" style="fill:#a09081"/>
                </g>
            </g>
            <g data-name="Group 5541">
                <path data-name="Path 16069" d="M.415 4.078h-.649V-2.3h3.846v.6H.415V.465h2.972v.6H.415z" transform="translate(90.428 122.193)" style="fill:#a09081"/>
            </g>
            <g data-name="Group 5545" transform="translate(55 60.417)" style="clip-path:url(#c405syjt0b)">
                <g data-name="Group 5542">
                    <path data-name="Path 16070" d="M2.126 4.286A3.246 3.246 0 0 1-1.2.934a3.245 3.245 0 0 1 3.326-3.349A3.245 3.245 0 0 1 5.45.934a3.246 3.246 0 0 1-3.324 3.352m0-6.107A2.6 2.6 0 0 0-.493.934a2.6 2.6 0 0 0 2.619 2.758A2.6 2.6 0 0 0 4.748.934a2.6 2.6 0 0 0-2.622-2.755" transform="translate(43.668 61.73)" style="fill:#a09081"/>
                </g>
                <g data-name="Group 5543">
                    <path data-name="Path 16071" d="M.415 4.078h-.649V-2.3H1.73c1.3 0 2.1.558 2.1 1.7A1.62 1.62 0 0 1 2.2 1.054l1.836 3.024h-.794L1.5 1.115H.415zm0-3.557h1.152C2.729.521 3.126.016 3.126-.6s-.397-1.1-1.559-1.1H.415z" transform="translate(53.349 61.776)" style="fill:#a09081"/>
                </g>
                <g data-name="Group 5544">
                    <path data-name="Path 16072" d="M2.2.777A1.389 1.389 0 0 0 .963.156 1.211 1.211 0 0 0-.4 1.307c0 1.72 3.266.813 3.266 3.107a1.98 1.98 0 0 1-2.1 1.848 2.4 2.4 0 0 1-2.009-.946l.588-.425A1.6 1.6 0 0 0 .8 5.666a1.276 1.276 0 0 0 1.368-1.16c0-1.8-3.268-.8-3.268-3.135A1.861 1.861 0 0 1 .963-.438a2.2 2.2 0 0 1 1.8.774z" transform="translate(61.979 59.754)" style="fill:#a09081"/>
                </g>
            </g>
            <g data-name="Group 5546">
                <path data-name="Path 16074" d="M1.78 4.078h-.649V-1.7H-1v-.6h4.913v.6H1.78z" transform="translate(124.132 122.193)" style="fill:#a09081"/>
            </g>
            <g data-name="Group 5547">
                <path data-name="Path 16075" d="M0 0h.649v2.763h3.474V0h.649v6.376h-.649V3.36H.649v3.016H0z" style="fill:#a09081" transform="translate(131.738 119.894)"/>
            </g>
            <g data-name="Group 5549" transform="translate(55 60.417)" style="clip-path:url(#c405syjt0b)">
                <g data-name="Group 5548">
                    <path data-name="Path 16076" d="M2.126 4.286A3.246 3.246 0 0 1-1.2.934a3.245 3.245 0 0 1 3.326-3.349A3.243 3.243 0 0 1 5.447.934a3.244 3.244 0 0 1-3.321 3.352m0-6.107A2.6 2.6 0 0 0-.5.934a2.6 2.6 0 0 0 2.626 2.758A2.6 2.6 0 0 0 4.745.934a2.6 2.6 0 0 0-2.619-2.755" transform="translate(86.707 61.73)" style="fill:#a09081"/>
                </g>
            </g>
            <g data-name="Group 5550">
                <path data-name="Path 16078" d="M0 0v6.376h.649V3.36h2.972v-.6H.649V.594h3.2V0z" style="fill:#a09081" transform="translate(151.153 119.895)"/>
            </g>
            <path data-name="Path 16079" d="M0-4.158h99.956v-.519H0z" transform="translate(55 121.284)" style="fill:#a09081"/>
            <g data-name="Group 5551">
                <path data-name="Path 16080" d="m.994.9.693-1.408L2.384.9l1.557.222-1.124 1.1.269 1.548-1.393-.73L.3 3.776l.266-1.551L-.56 1.132z" transform="translate(148.563 108.076)" style="fill:#a09081"/>
            </g>
            <g data-name="Group 5552">
                <path data-name="Path 16081" d="m.994.9.693-1.408L2.384.9l1.557.222-1.124 1.1.269 1.548-1.393-.73L.3 3.776l.266-1.551L-.56 1.132z" transform="translate(143.269 108.076)" style="fill:#a09081"/>
            </g>
            <g data-name="Group 5553">
                <path data-name="Path 16082" d="m.994.9.693-1.408L2.384.9l1.557.222-1.124 1.1.269 1.548-1.393-.73L.3 3.776l.266-1.551L-.56 1.132z" transform="translate(137.974 108.076)" style="fill:#a09081"/>
            </g>
            <g data-name="Group 5554">
                <path data-name="Path 16083" d="m.994.9.693-1.408L2.384.9l1.557.222-1.124 1.1.269 1.548-1.393-.73L.3 3.776l.266-1.551L-.56 1.132z" transform="translate(132.68 108.076)" style="fill:#a09081"/>
            </g>
            <g data-name="Group 5556" transform="translate(55 60.417)" style="clip-path:url(#c405syjt0b)">
                <g data-name="Group 5555">
                    <path data-name="Path 16084" d="M.784.291A.391.391 0 0 0 .607.133.614.614 0 0 0 .374.086.63.63 0 0 0 .2.108a.473.473 0 0 0-.154.066.3.3 0 0 0-.111.117.343.343 0 0 0-.041.172A.335.335 0 0 0-.081.6.29.29 0 0 0 0 .7a.642.642 0 0 0 .143.093 1.975 1.975 0 0 0 .225.083C.454.9.54.932.621.965a.9.9 0 0 1 .216.119.6.6 0 0 1 .15.183.612.612 0 0 1 .055.275.6.6 0 0 1-.067.291.607.607 0 0 1-.175.206.763.763 0 0 1-.252.122 1.149 1.149 0 0 1-.491.022.826.826 0 0 1-.189-.055.693.693 0 0 1-.172-.094.613.613 0 0 1-.136-.144l.23-.189a.445.445 0 0 0 .2.189.624.624 0 0 0 .275.064.634.634 0 0 0 .175-.026.476.476 0 0 0 .16-.075.443.443 0 0 0 .117-.122.342.342 0 0 0 .044-.169.365.365 0 0 0-.036-.169.3.3 0 0 0-.108-.114.809.809 0 0 0-.183-.086L.168 1.1a1.854 1.854 0 0 1-.222-.086A.694.694 0 0 1-.231.9.5.5 0 0 1-.348.724.62.62 0 0 1-.392.485.608.608 0 0 1-.328.2.638.638 0 0 1-.156 0a.806.806 0 0 1 .244-.122.975.975 0 0 1 .286-.042 1 1 0 0 1 .35.058A.725.725 0 0 1 1 .1z" transform="translate(98.861 46.224)" style="fill:#a09081"/>
                </g>
            </g>
        </g>
    </g>
</svg>
