<svg xmlns="http://www.w3.org/2000/svg" width="210" height="210" viewBox="0 0 210 210">
    <defs>
        <filter id="lpidzausba" x="0" y="0" width="210" height="210" filterUnits="userSpaceOnUse">
            <feOffset dy="10"/>
            <feGaussianBlur stdDeviation="15" result="blur"/>
            <feFlood flood-opacity=".302"/>
            <feComposite operator="in" in2="blur"/>
            <feComposite in="SourceGraphic"/>
        </filter>
    </defs>
    <g data-name="App Icon-Light">
        <g style="filter:url(#lpidzausba)">
            <path data-name="Path 15409" d="M24 0h72a24 24 0 0 1 24 24v72a24 24 0 0 1-24 24H24A24 24 0 0 1 0 96V24A24 24 0 0 1 24 0z" transform="translate(45 35)" style="fill:#fff"/>
        </g>
        <g data-name="Group 5272">
            <g data-name="Group 5187">
                <path data-name="Path 15716" d="M9.678 7.9C2.824 11.792-5.7 9.886-5.7 9.886s2.583-8.208 9.437-12.1 15.381-1.978 15.381-1.978S16.532 4.016 9.678 7.9" transform="translate(110.545 78.484)" style="fill:#e6dbc4"/>
            </g>
            <g data-name="Group 5188">
                <path data-name="Path 15717" d="M8.047 9.507C4.089 16.24-4.267 18.78-4.267 18.78S-6.209 10.4-2.251 3.666 10.064-5.6 10.064-5.6s1.941 8.374-2.017 15.107" transform="translate(109.175 69.659)" style="fill:#e6dbc4"/>
            </g>
            <g data-name="Group 5189">
                <path data-name="Path 15718" d="M8.047 5.834c3.958 6.733 2.017 15.113 2.017 15.113s-8.356-2.54-12.315-9.273S-4.267-3.439-4.267-3.439 4.089-.9 8.047 5.834" transform="translate(95.029 67.492)" style="fill:#e6dbc4"/>
            </g>
            <g data-name="Group 5190">
                <path data-name="Path 15719" d="M9.678 1.541c6.854 3.888 9.44 12.1 9.44 12.1s-8.531 1.906-15.386-1.982S-5.7-.441-5.7-.441 2.824-2.347 9.678 1.541" transform="translate(86.044 74.734)" style="fill:#e6dbc4"/>
            </g>
            <g data-name="Group 5191">
                <path data-name="Path 15720" d="M7.481 8.857c0 7.776-5.946 14.078-5.946 14.078S-4.41 16.633-4.41 8.857 1.536-5.221 1.536-5.221s5.946 6.3 5.946 14.078" transform="translate(103.214 65.382)" style="fill:#93806a"/>
            </g>
            <g data-name="Group 5192">
                <path data-name="Path 15721" d="m.087 8.793-.113-.024-.025-.109C.267 7.722 2.942.3 9.357-3.339a17.986 17.986 0 0 1 4.821-1.844A17.35 17.35 0 0 1 12.3-.448C8.6 5.851 1.049 8.477.087 8.793" transform="translate(104.889 79.561)" style="fill:#d6c5a1"/>
            </g>
            <g data-name="Group 5193">
                <path data-name="Path 15722" d="M3.033 1.16c6.409 3.635 9.087 11.05 9.405 12l-.022.113-.113.022c-.955-.31-8.51-2.939-12.215-9.241A17.255 17.255 0 0 1-1.788-.684 18.055 18.055 0 0 1 3.033 1.16" transform="translate(92.655 75.064)" style="fill:#d6c5a1"/>
            </g>
            <g data-name="Group 5194">
                <path data-name="Path 15723" d="M3.962 3.071c0 7.156-5.037 13.067-5.838 13.962-.178-.842-1.707-8.675 2.033-15.038A17.408 17.408 0 0 1 3.22-1.81a17.112 17.112 0 0 1 .742 4.881" transform="translate(106.734 71.28)" style="fill:#665c4b"/>
            </g>
            <g data-name="Group 5195">
                <path data-name="Path 15724" d="M3.985 11.846c-.124.146-.221.259-.289.332l-.291-.1C2.389 10.921-2.349 5.154-2.349-1.79a17.285 17.285 0 0 1 .836-5.193 17.751 17.751 0 0 1 3.4 4.117C5.33 3 4.308 10.1 3.985 11.846" transform="translate(101.155 76.14)" style="fill:#665c4b"/>
            </g>
            <g data-name="Group 5197">
                <path data-name="Path 15726" d="m0 17.919 12.66-28.482h.83l12.619 28.482H25.05L20.541 7.783H5.571L1.06 17.919zM13.075-9.142 5.962 6.834H20.11z" transform="translate(66.861 111.521)" style="fill:#665c4b"/>
            </g>
            <g data-name="Group 5198">
                <path data-name="Path 15727" d="M4.319 8.246C1.639 5.3-.23 3.174-.23.92c0-3.931 3.551-5.781 6.981-5.781 3.605 0 6.577 2.216 6.577 5.781 0 1.772-1.283 3.3-2.856 4.552A23.262 23.262 0 0 1 8 7.162c-.785.475-1.532.887-2.136 1.235l9.5 9.33c1.683-2.138 3.179-4.611 3.179-7.189v-.075h.971l-.005.078a13.915 13.915 0 0 1-3.468 7.892l5.73 5.547H20.33l-4.924-4.835c-2.351 2.575-5.557 5.234-9.02 5.234-4.824 0-8.933-3.136-8.933-7.9 0-3.926 4-6.49 6.865-8.238m2.069 15.191c3.309 0 6.353-2.723 8.345-4.951l-9.7-9.564c-.7.429-1.448.893-2.192 1.4a17.82 17.82 0 0 0-2.16 1.7 6.184 6.184 0 0 0-2.262 4.463c.121 4.46 3.813 6.951 7.968 6.951M5.139 7.729c.591-.361 1.327-.774 2.1-1.232a26.431 26.431 0 0 0 2.397-1.57c1.527-1.151 2.726-2.489 2.726-4.007 0-3.176-2.71-4.832-5.611-4.832C3.564-3.912.738-2.256.736.912c.28 2.7 2.616 5.061 4.4 6.817" transform="translate(98.41 105.46)" style="fill:#d6c5a1"/>
            </g>
            <g data-name="Group 5200">
                <path data-name="Path 15729" d="M0 17.919v-28.482h.965V16.97h18.118v.949z" transform="translate(124.057 111.521)" style="fill:#665c4b"/>
            </g>
        </g>
    </g>
</svg>
