<svg xmlns="http://www.w3.org/2000/svg" width="210" height="210" viewBox="0 0 210 210">
    <defs>
        <filter id="v2kta6sn3a" x="0" y="0" width="210" height="210" filterUnits="userSpaceOnUse">
            <feOffset dy="10"/>
            <feGaussianBlur stdDeviation="15" result="blur"/>
            <feFlood flood-opacity=".302"/>
            <feComposite operator="in" in2="blur"/>
            <feComposite in="SourceGraphic"/>
        </filter>
    </defs>
    <g data-name="App Icon-Light">
        <g style="filter:url(#v2kta6sn3a)">
            <path data-name="Path 15409" d="M24 0h72a24 24 0 0 1 24 24v72a24 24 0 0 1-24 24H24A24 24 0 0 1 0 96V24A24 24 0 0 1 24 0z" transform="translate(45 35)" style="fill:#5c5b52"/>
        </g>
        <g data-name="Group 5274">
            <g data-name="Group 5202">
                <path data-name="Path 15731" d="M7.4.113A1.874 1.874 0 0 0 6.781 1.6v.183A4.786 4.786 0 0 0 3.237.445C-.357.327-2.693 2.282-3.046 5.526a5.171 5.171 0 0 0 5.713 5.993A5.662 5.662 0 0 0 6.143 9.83a8.924 8.924 0 0 0 .638-.779l-.016.3-.018.316v.627a6.943 6.943 0 0 1-4.547 1.69c-3.175.131-5.243-1.126-6.317-3.528a5.687 5.687 0 0 1-.452-2.747C-4.34 2.3-1.92.129 2.231-.052c.2-.018.418-.018.638-.018H7.6L7.521 0zm4.443 5.01c-.591.091-.97.348-1.924 1.56a4.71 4.71 0 0 0-.859 1.872 3.983 3.983 0 0 0-.118.761 4.452 4.452 0 0 0 .165 1.994l4.61-2.394zm3.27 4.307a7.424 7.424 0 0 0 1.62 2.582h-1.66a20.575 20.575 0 0 0-1.032-2.465 2.482 2.482 0 0 0-.22-.426L8 12.167a6.218 6.218 0 0 1 1.755-5.894 7.486 7.486 0 0 1 1.931-1.445l-.065-.167C11.062 3.4 10.578 2.943 9.7 2.7l.429.013.17.01.993.029h.172c.823.01.484-.429 1.657 2.164.5 1.16 1.009 2.323 1.009 2.323l.18.41s.395.891.8 1.78m3.667 2.271c-.078-.167-.144-.335-.144-.335l-.34-.839-.353-.839s-.183-.426-.353-.852c-.144-.348-.3-.7-.457-1.03a24.612 24.612 0 0 0-2.182-4.051 1.543 1.543 0 0 1-.146-.193l-.34-.45-.3-.389h2.509c-.225.737-.091 1.537 1.045 4 .209.478.457.967 1.111 2.18l.444.826.157.3.1.178.157.259.144-.259.17-.3.392-.721.353-.646.431-.8.5-.928.2-.387s.327-.632.653-1.278c.693-1.354.653-1.882-.118-2.36l-.144-.065h1.986l-.157.233-.078.144-.6 1.108-.17.321s-.431.774-.849 1.537a78.52 78.52 0 0 0-1.372 2.642c-.314.606-.693 1.38-1.673 3.445m8.259-7.03c-.588.091-.967.348-1.921 1.56a4.675 4.675 0 0 0-.862 1.871 3.983 3.983 0 0 0-.118.761 4.412 4.412 0 0 0 .165 1.994l4.608-2.394zm3.228 6.889a20.145 20.145 0 0 0-1.032-2.465 2.122 2.122 0 0 0-.22-.426l-5.818 3.045a6.216 6.216 0 0 1 1.75-5.891 7.5 7.5 0 0 1 1.934-1.445l-.065-.167C26.827 3.4 26.343 2.943 25.468 2.7l.431.013.17.01.993.029h.17c.823.01.484-.429 1.66 2.164.5 1.16 1.006 2.323 1.006 2.323l.183.41s.392.891.8 1.78a7.462 7.462 0 0 0 1.62 2.582zm8.369-.627-.131.3-.128.35-.144.34a9.125 9.125 0 0 0-2.052-.254c-.5-.01-1.009-.034-1.009-.034l-.439-.008-.747-.024-.439-.01h-.48a1.357 1.357 0 0 0 .246-.943V3.335c0-.572-.193-.839-.815-1.158l-.3-.136L32.684 2l-.374-.125h2.608v9.652c.311.308.57.361 1.911.235a5.762 5.762 0 0 0 2.519-.724zm6.534 0-.131.3-.128.35-.141.34a9.173 9.173 0 0 0-2.054-.254c-.5-.01-1.009-.034-1.009-.034l-.439-.008-.747-.024-.442-.01h-.476a1.357 1.357 0 0 0 .246-.943V3.335c0-.572-.2-.839-.815-1.158l-.3-.136L39.218 2l-.374-.125h2.608v9.652c.311.308.567.361 1.913.235a5.761 5.761 0 0 0 2.517-.724zm1.383-.5V4.431c0-.747-.193-1.038-1.116-1.568a1.844 1.844 0 0 0-.468-.178h2.621v8.2a2.161 2.161 0 0 0 .209 1.126h-1.494a1.886 1.886 0 0 0 .246-1.126m3.387-1.061a3.1 3.1 0 0 0 .8 1.934c.089.089.167.178.256.254h-1.843a2.258 2.258 0 0 0 .348-.9 4.338 4.338 0 0 0 .1-.494V3.445s-.141-.115-.269-.24a1.654 1.654 0 0 0-.967-.52h1.934l6.343 7.566V4.483a1.86 1.86 0 0 0-.928-1.594c-.118-.076-.22-.152-.22-.152l-.078-.052h1.573v9.688l-7.049-8.536zm14.631-6.81a4.04 4.04 0 0 0-2.412 0 4.236 4.236 0 0 0-2.872 4.354 4.226 4.226 0 0 0 2.872 4.357 4.081 4.081 0 0 0 2.412 0 4.229 4.229 0 0 0 2.872-4.357 4.224 4.224 0 0 0-2.872-4.354m3.873 6.113a5.134 5.134 0 0 1-5.081 3.113c-3.238 0-5.379-2.054-5.379-4.872S60.7 2.5 63.934 2.5c3.918 0 6.327 3.141 5.081 6.631M48.161 1.8V-.07H45.54a3.066 3.066 0 0 1 2.621 1.87" transform="translate(72.621 96.203)" style="fill:#fff"/>
            </g>
            <g data-name="Group 5203">
                <path data-name="Path 15732" d="M7.417 1.157V-.717H4.8a3.067 3.067 0 0 1 2.617 1.874m-9.008 2.569v7.023c0 .146.238.314 1.215.23a3.526 3.526 0 0 0 .591-.1c2.2-.528 3.327-1.916 3.275-3.735a3.59 3.59 0 0 0-2.465-3.3c-1.942-.776-2.616-.363-2.616-.115m2.956-2.018a1.393 1.393 0 0 0-1.116-2 2.46 2.46 0 0 0-.69.05 2.5 2.5 0 0 0-1.3.693 1.774 1.774 0 0 1 .152.745v1.816l.405.05a2.511 2.511 0 0 0 2.549-1.354M.839 3.248c.186.031.389.05.575.1 2.9.546 4.2 2.676 3.358 5.039C4.182 10 2.46 11.11-1.2 11.342a12.076 12.076 0 0 1-1.738-.016V1.447A1.754 1.754 0 0 0-4.427-.471L-4.6-.5a2.074 2.074 0 0 1 .34-.118 2.038 2.038 0 0 1 2.415.842A4.615 4.615 0 0 1-.274-.568a4.139 4.139 0 0 1 1.738-.1c1.082.183 1.571 1.009 1.2 1.835A3.211 3.211 0 0 1 1.6 2.4a5.888 5.888 0 0 1-.962.646 1.615 1.615 0 0 1-.287.165l.235.016zm5.494 6.944V3.82c0-.763-.206-1.058-1.171-1.6a1.936 1.936 0 0 0-.491-.183h2.752v8.157a2.152 2.152 0 0 0 .22 1.15H6.074a1.871 1.871 0 0 0 .259-1.15m6.505-5.781c-.588.091-.967.348-1.921 1.56a4.71 4.71 0 0 0-.862 1.871 3.983 3.983 0 0 0-.118.761A4.452 4.452 0 0 0 10.1 10.6l4.612-2.4zm2.2 4.425a2.476 2.476 0 0 0-.217-.426L9 11.455a6.229 6.229 0 0 1 1.751-5.9 7.534 7.534 0 0 1 1.934-1.443l-.065-.17c-.562-1.262-1.045-1.714-1.921-1.958l.427.016.17.01.993.026h.17c.823.013.484-.426 1.66 2.167.5 1.16 1.009 2.323 1.009 2.323l.18.41s.392.891.8 1.78a7.424 7.424 0 0 0 1.62 2.584h-1.66a20.679 20.679 0 0 0-1.035-2.465m4.762.342a3.11 3.11 0 0 0 .8 1.934c.091.089.167.178.259.254h-1.845a2.314 2.314 0 0 0 .348-.9c.089-.418.1-.455.1-.494V2.8s-.141-.115-.269-.24a1.654 1.654 0 0 0-.967-.52h1.934L26.5 9.6V3.833a1.86 1.86 0 0 0-.928-1.594c-.118-.076-.22-.152-.22-.152l-.078-.052h1.573v9.688L19.8 3.188zm17.738-7a1.437 1.437 0 0 0-.5 1.163v.144a3.946 3.946 0 0 0-2.867-1.048c-2.909-.091-4.8 1.435-5.081 3.967a4.106 4.106 0 0 0 4.615 4.683 4.651 4.651 0 0 0 2.812-1.32 6.645 6.645 0 0 0 .517-.609l-.013.235-.013.243v.491a5.73 5.73 0 0 1-3.682 1.32c-2.569.1-4.239-.878-5.109-2.755a4.284 4.284 0 0 1-.366-2.146c.188-2.661 2.146-4.354 5.5-4.5.165-.016.34-.016.517-.016H37.7l-.068.052zm7.007.186a4.04 4.04 0 0 0-2.412 0 4.239 4.239 0 0 0-2.872 4.354 4.224 4.224 0 0 0 2.872 4.354 4.04 4.04 0 0 0 2.412 0 4.221 4.221 0 0 0 2.872-4.354 4.221 4.221 0 0 0-2.872-4.352m3.876 6.113a5.134 5.134 0 0 1-5.081 3.113c-3.238 0-5.379-2.054-5.379-4.872s2.14-4.872 5.379-4.872c3.915 0 6.327 3.141 5.081 6.631" transform="translate(82.924 112.224)" style="fill:#fff"/>
            </g>
            <g data-name="Group 5204">
                <path data-name="Path 15733" d="M.834 0C.037 0-.46.282-.46.839c0 .476.345.687 1.1.862.557.133.75.227.75.489 0 .238-.246.35-.5.35-.453 0-.565-.17-.565-.44v-.082h-.842v.115c0 .528.374.831 1.328.831.915 0 1.451-.269 1.451-.873 0-.35-.162-.57-.795-.758l-.651-.191C.458 1.038.382.93.382.755S.484.423.863.423c.324 0 .457.157.457.423h.808v-.08C2.128.22 1.584 0 .834 0" transform="translate(118.268 129.991)" style="fill:#a3a29b"/>
            </g>
            <g data-name="Group 5205">
                <path data-name="Path 15734" d="M.878 1.568C.379 1.568.3 1.276.3.507S.379-.551.878-.551s.58.3.58 1.058-.084 1.061-.58 1.061m0-2.54C-.387-.972-.544-.358-.544.507S-.387 1.992.878 1.992 2.3 1.375 2.3.507 2.143-.972.878-.972m7.064 2.54c-.5 0-.58-.293-.58-1.061s.084-1.058.58-1.058.58.3.58 1.058-.081 1.061-.58 1.061m0-2.54C6.68-.972 6.52-.358 6.52.507s.16 1.485 1.422 1.485S9.367 1.375 9.367.507 9.207-.972 7.942-.972" transform="translate(93.771 130.964)" style="fill:#a3a29b"/>
            </g>
            <path data-name="Path 15736" d="M147.043-181.263h-.843v2.851h.842zm3.625 0H148v.47h.912v2.381h.842v-2.381h.915zm3.275 0h-2.334v2.851H154v-.47h-1.55v-.768h1.406v-.47h-1.406v-.672h1.492z" transform="translate(-37.12 311.31)" style="fill:#a3a29b"/>
            <g data-name="Group 5207">
                <path data-name="Path 15737" d="M0 0v2.851h.771V.575h.013L.8.63V0z" style="fill:#a3a29b" transform="translate(104.197 130.047)"/>
            </g>
            <g data-name="Group 5208">
                <path data-name="Path 15738" d="M1.8 0H.549l-.6 2.012h-.01L-.663 0h-.45v.632l.727 2.219H.27L1.012.575h.01v2.276H1.8z" transform="translate(106.112 130.047)" style="fill:#a3a29b"/>
            </g>
            <g data-name="Group 5209">
                <path data-name="Path 15739" d="M.52 1.5V-.508h.358c.643 0 .721.332.721.98C1.6 1.248 1.481 1.5.893 1.5zm.538-2.429h-1.38v2.851h1.328c1.119 0 1.435-.455 1.435-1.466 0-.839-.212-1.385-1.383-1.385m7.117 0H7.33v2.851h2.337v-.47H8.175z" transform="translate(89.79 130.977)" style="fill:#a3a29b"/>
            </g>
            <g data-name="Group 5210">
                <path data-name="Path 15740" d="M4.741 4.478a.795.795 0 1 1-.795-.778.785.785 0 0 1 .795.776M45.554 32.22a3.348 3.348 0 0 0-.34-.991A20.149 20.149 0 0 0 43.753 29c-1.181-1.644-2.4-3.34-2.47-5.423-2.412-.632-4.869-1.665-5.047-4.446a3.61 3.61 0 0 1 .206-1.255 4.217 4.217 0 0 0 .136-2.337 5.727 5.727 0 0 0-.444-1.234c-.073-.154-.17-.355-.3-.646a4.338 4.338 0 0 1-.107-2.188c.366-1.322 2.161-3.845 3.664-3.845a2.391 2.391 0 0 1 2.355 2.415 17.975 17.975 0 0 1-1.291 4.908l-.037.1a2.974 2.974 0 0 0 .214 2.117 9.39 9.39 0 0 0 1.986 1.443l.136.078a4.52 4.52 0 0 0 1.631.538c.23.031.316.005.355-.055.06-.1-.013-.308-.058-.4a16.156 16.156 0 0 1-.839-2.632 11.758 11.758 0 0 1-.175-1.641 20.103 20.103 0 0 0-.06-.886c-.068-.742-.1-1.393-.139-2.023a22.047 22.047 0 0 0-.345-3.3 2.364 2.364 0 0 0-1.76-2.088 2.439 2.439 0 0 0-.63-.073 6.182 6.182 0 0 0-1.641.274 11.071 11.071 0 0 0-3.032 2.695c-.8.9-1.2 1.328-1.482 1.328a3.41 3.41 0 0 1-1.215-.429 6.872 6.872 0 0 0-2-.7 6.62 6.62 0 0 0-1.942 0 9.607 9.607 0 0 0-2.4.666l-.1.037a9.45 9.45 0 0 0-1.487.755 7.61 7.61 0 0 1-2.381 1.032 9.856 9.856 0 0 1-2.1.264 8.219 8.219 0 0 1-1.984-.264c-3.254-.643-4.145-3.021-4.859-4.932C13.726 5.194 11.68.662 9.594-.313a5.11 5.11 0 0 1-.421-.259 2.348 2.348 0 0 0-.973-.439L7.976-.8c-.136.162-.29.348-.5.348-.277 0-.541-.282-.821-.578s-.609-.646-.849-.554c-.118.044-.251.434-.35.719a2.507 2.507 0 0 1-.438.905 8.675 8.675 0 0 0-2.661 4 16.832 16.832 0 0 0-.272 3.4c-.018.361 0 2.914 0 3.33a1.108 1.108 0 0 0 .515.274c.081-.013.107-.073.149-.214s.11-.363.355-.363.332.254.382.423l.089.209.052.008a1.372 1.372 0 0 0 .538-.2 4.293 4.293 0 0 1 2.028-2.47 3.484 3.484 0 0 0 1.875-2.692l.05-.371.191.324q.094.157.172.282c.389.632.565.92.178 1.688a3.433 3.433 0 0 1-.217.3 12.8 12.8 0 0 0-2.37 4.43 8.688 8.688 0 0 0 .491 5.941 9.956 9.956 0 0 0 1.393 2.107 3.363 3.363 0 0 1 .744 1.161c.1.959-.943 1.336-1.952 1.7a7.673 7.673 0 0 0-1.244.528c-3.463 1.686-6.165 4.72-8.042 9.017a.307.307 0 0 0-.008.3c.112.18.468.246.6.256a1.672 1.672 0 0 0 .936-.084l.005-.314c.6-6.16 6.479-7.786 12.446-8.925a4.86 4.86 0 0 0 3.209-2.71l.029-.06.065-.01a5.578 5.578 0 0 1 1.234-.042 3.054 3.054 0 0 1 .815.2 4.032 4.032 0 0 0 .991.24 10.446 10.446 0 0 0 1.513.11 13.852 13.852 0 0 0 8.282-3.165c.1-.084.112-.094.162-.094h.081l.037.071a11.365 11.365 0 0 0 2.789 3.523 7.772 7.772 0 0 0 2.749 1.079l2.177.314c4.453.473 6.581 4.519 7.854 6.936.431.821.839 1.594 1.061 1.594.031 0 .768.141 1.069.149M7.464-2.652c-.039.065.055.227.131.358l.024.039c.063.11.311.18.646.18h.118c.118 0 1.092.052 3.076 1.683 2.334 1.8 3.892 5.112 4.728 6.892a9.953 9.953 0 0 0 .473.949c.18.282.395.429.51.429l.086-.055c.05-.078.4-.886-1.837-4.717-3.23-4.409-4.744-5.878-7.326-5.878-.512 0-.609.094-.627.123M1.252 1.864c-.016.434.078.565.107.6l.044.021c.024 0 .243-.021.669-.734A4.215 4.215 0 0 1 3.376.3 4.045 4.045 0 0 0 4-.235c.063-.089.125-.235.1-.285l-.146-.036a1.977 1.977 0 0 0-.525.1 4.165 4.165 0 0 0-2.177 2.32M-2.4 28.838c-.431.591-.591 1.048-.528 1.192a.588.588 0 0 0 .572.293.934.934 0 0 0 .5-.136 1.935 1.935 0 0 0 .254-.4 15.706 15.706 0 0 1 3.782-4.5 13.464 13.464 0 0 1 4.96-2.525c-1.816.191-5.982 1.176-9.537 6.077m45.037 2.252a4.343 4.343 0 0 0 .444.1 3.774 3.774 0 0 0-.371-.821c-1.793-3.62-4.255-5.823-6.931-6.212l-.2-.029c-1.547-.227-1.547-.227-2.433-.395l-.348-.065a5.92 5.92 0 0 1-2.154-.795 5.894 5.894 0 0 0 3.732 1.853l1.994.4a8.186 8.186 0 0 1 5.467 4.833c.308.609.554 1.09.8 1.132" transform="translate(84.649 59.819)" style="fill:#fff"/>
            </g>
        </g>
    </g>
</svg>
