<svg xmlns="http://www.w3.org/2000/svg" width="210" height="210" viewBox="0 0 210 210">
    <defs>
        <clipPath id="hpmtf5xf0b">
            <path data-name="Path 15818" d="M0 24.254h100v-42.242H0z" transform="translate(0 17.988)" style="fill:none"/>
        </clipPath>
        <filter id="kk8xofxisa" x="0" y="0" width="210" height="210" filterUnits="userSpaceOnUse">
            <feOffset dy="10"/>
            <feGaussianBlur stdDeviation="15" result="blur"/>
            <feFlood flood-opacity=".302"/>
            <feComposite operator="in" in2="blur"/>
            <feComposite in="SourceGraphic"/>
        </filter>
    </defs>
    <g data-name="App Icon-Light">
        <g style="filter:url(#kk8xofxisa)">
            <path data-name="Path 15409" d="M24 0h72a24 24 0 0 1 24 24v72a24 24 0 0 1-24 24H24A24 24 0 0 1 0 96V24A24 24 0 0 1 24 0z" transform="translate(45 35)" style="fill:#4e3a31"/>
        </g>
        <path data-name="Rectangle 173" transform="translate(56 76)" style="fill:#fff" d="M0 0h98v39H0z"/>
        <g data-name="Group 5301">
            <g data-name="Group 5295" transform="translate(55 73.879)" style="clip-path:url(#hpmtf5xf0b)">
                <g data-name="Group 5294">
                    <path data-name="Path 15817" d="M.264 0H-.2v.836h.413C.492.836.842.766.842.4.842.066.523 0 .264 0" transform="translate(82.695 37.076)" style="fill:#4e3a31"/>
                </g>
            </g>
            <g data-name="Group 5296">
                <path data-name="Path 15819" d="M0 .707h.9L.456-.524z" transform="translate(104.807 111.737)" style="fill:#4e3a31"/>
            </g>
            <g data-name="Group 5621">
                <g data-name="Group 5297">
                    <path data-name="Path 15820" d="M4.706 1.222A4.8 4.8 0 0 0 2.472-.586a4.4 4.4 0 0 0-1.608-.32A4.048 4.048 0 0 0-2.6.785a4.325 4.325 0 0 0-.89 2.562 4.787 4.787 0 0 0 .69 2.642A4.158 4.158 0 0 0-.677 7.656a4.787 4.787 0 0 0 4.892-1.268 4.518 4.518 0 0 0 .935-2.055l.023-.251a7.2 7.2 0 0 0 .049-1.073 4.937 4.937 0 0 0-.517-1.787m-.451 2.44A3.549 3.549 0 0 1 2.7 6.341a3.718 3.718 0 0 1-3.1.186 2.823 2.823 0 0 1-1.928-1.811 4.291 4.291 0 0 1 .176-2.6A4.919 4.919 0 0 1-1.238.874 3.264 3.264 0 0 1-.228.3 3.922 3.922 0 0 1 .634.113 3.668 3.668 0 0 1 3 .879a3.618 3.618 0 0 1 1.255 2.783" transform="translate(116.423 90.322)" style="fill:#4e3a31"/>
                </g>
                <g data-name="Group 5298">
                    <path data-name="Path 15821" d="M2.342.284a2.519 2.519 0 0 0-2.128-.43A2.5 2.5 0 0 0-1.16.69a2.766 2.766 0 0 0-.517 1.242 2.427 2.427 0 0 0 .611 2.306 2.976 2.976 0 0 0 2.872.55 2.62 2.62 0 0 0 1.55-2.231A2.3 2.3 0 0 0 2.342.284" transform="translate(116.475 91.469)" style="fill:#4e3a31"/>
                </g>
                <g data-name="Group 5299">
                    <path data-name="Path 15822" d="M1.075 2.42A4.258 4.258 0 0 0 2.9.517c.362-.73.587-1.919-.2-2.24a1.328 1.328 0 0 0-.895.009A3.822 3.822 0 0 0 .007.05a6.161 6.161 0 0 0-.761 3.358s1.3-.658 1.829-.989" transform="translate(137.71 91.537)" style="fill:#4e3a31"/>
                </g>
                <path data-name="Path 15823" d="M0 24.254h100v-42.242H0zm0-42.242 67.548 9.459a6.252 6.252 0 0 1 2.7-.23 45.786 45.786 0 0 1 8 1.024c.42.256.061.643-.078.9-.261.474-.869.2-1.414.327a20.182 20.182 0 0 1-4.138.045c-1.148 0-2.02-.132-3.252-.193a3.3 3.3 0 0 1-2-.5 2.13 2.13 0 0 1 .188-1.367m-64.961-1.8a.747.747 0 0 1-.3-.691 2.24 2.24 0 0 1 .491-1.249 8.313 8.313 0 0 1 5.156-3.318 5.27 5.27 0 0 1 .749-.063 6.893 6.893 0 0 1 4.349 1.43 5.173 5.173 0 0 1 2 4.549 3.834 3.834 0 0 1-.263.873c-.456.979-1.242 1.707-1.428 1.583s-.049-.34.308-1.456c.6-2.149-1.158-3.638-2.569-4.474a5.5 5.5 0 0 0-2.286-.725 6.191 6.191 0 0 0-2.355.432 8.564 8.564 0 0 0-.975.481 5.973 5.973 0 0 0-.876.634 7.494 7.494 0 0 0-1.071 1.144c-.181.235-.648 1.01-.93.85M12.808-2A10.266 10.266 0 0 1 9.044-.549C8.94.719 8.9 1.41 8.769 3.15c0 1.071-.308 4.349-.371 5.26a520.618 520.618 0 0 1-.261 3.638c-.054.408-.162 1.742-.326 2.555a.178.178 0 0 1-.193.15c-.4 0-1.242-.726-1.214-1.047 0-.573.068-2.788.164-5.331l.082-2.118c.061-1.489.124-2.973.181-4.208.052-1.139.1-2.067.127-2.6a7.509 7.509 0 0 1-3.184-1.2 1.391 1.391 0 0 1-.552-1.062c0-.216.085-.378.23-.387a.419.419 0 0 1 .237.08 6.342 6.342 0 0 0 3.37.74c.014-.11.021-.216.021-.216.009-.092.035-.371.068-.777.15-1.778.385-5.984.409-7.416 0-.31.061-.951.061-1.282 0-.641.225-1.188 1.017-1.188.5 0 1.313.364 1.313 1.073 0 1.761-.2 2.506-.277 3.847-.153 1.531-.24 3.093-.383 4.56-.026.441-.1.853-.122 1.393a4.711 4.711 0 0 0 2.313-.7 8.528 8.528 0 0 0 1.47-1.007 7 7 0 0 0 1.5-1.592 8.73 8.73 0 0 0 .858-1.515 8.964 8.964 0 0 0 .665-3.1v-.117c.012-.357.052-.516.2-.516.225 0 .27.432.359.815l.1.77.033.425A6.771 6.771 0 0 1 16.6-7.6a6.556 6.556 0 0 1-.439 1.757 8.223 8.223 0 0 1-1.933 2.771A8.018 8.018 0 0 1 12.808-2m12.486 7.449a3.206 3.206 0 0 1-.892.907 5.155 5.155 0 0 1-1.226.632 5.771 5.771 0 0 1-4.485-.5 4.917 4.917 0 0 1-1.869-1.747 4.9 4.9 0 0 1-.869-3.13A4.838 4.838 0 0 1 17.329-1.8a5.479 5.479 0 0 1 1.423-1.015 5.75 5.75 0 0 1 1.435-.458 6.023 6.023 0 0 1 4.3.749A2.773 2.773 0 0 1 25.729-1.1a.7.7 0 0 1-.082.733c-.12.106-.341.012-.69-.463a3.129 3.129 0 0 0-1.212-.956 5.182 5.182 0 0 0-2.449-.472 3.637 3.637 0 0 0-2.346.853A2.968 2.968 0 0 0 17.9.2a4.7 4.7 0 0 0-.077 2.844 3.761 3.761 0 0 0 2.445 2.362 3.933 3.933 0 0 0 2.557.122 3.4 3.4 0 0 0 1.886-1.216 3.471 3.471 0 0 0 .9-1.848 3.38 3.38 0 0 0 0-1.759C25.552.479 25.536.348 25.5.2c-.042-.169.329-.024.479.12a2.132 2.132 0 0 1 .348 1.188 6.162 6.162 0 0 1 .028.622 5.251 5.251 0 0 1-1.061 3.321M36.014-5.8c-.026.1-.035.228-.373.15a1.373 1.373 0 0 1-.6-.244 2.147 2.147 0 0 0-1.472-.634 2 2 0 0 0-1.989 1.7 2.328 2.328 0 0 0 .02 1.106 5.843 5.843 0 0 0 .178.722c.305.975.526 1.651.73 2.144A17.3 17.3 0 0 1 33.8 2.567 3.961 3.961 0 0 1 32.635 6.2a3.829 3.829 0 0 1-1.623.914 6.481 6.481 0 0 1-1.036.153 8.475 8.475 0 0 1-1.752-.047 4.7 4.7 0 0 1-.594-.12c-.362-.115-.874-.74-.766-.878.279-.348 1.045.047 2.372-.139a3.668 3.668 0 0 0 2.231-.93 2.711 2.711 0 0 0 .543-2.623A7.541 7.541 0 0 0 30.93.038a12.8 12.8 0 0 1-1.684-4.016 3.761 3.761 0 0 1 .9-3.328 3.837 3.837 0 0 1 2.294-1.2 4.088 4.088 0 0 1 1.9.331 3.093 3.093 0 0 1 1.2.977 2.21 2.21 0 0 1 .465 1.4M40.169 12c-.054.55-.181 1.512-.434 1.51 0 0-.326-.223-.333-.366-.007-.11.2-3.628.284-7.437.174-2.454.27-5.047.639-7.444.077-.5.19-1.216.791-1.216a.489.489 0 0 1 .456.545c0 4.288-.813 7.959-1.115 12.207-.176 1.94-.1.411-.287 2.2M43.611.468c-.416 2.745-.5 4.431-.831 7.21-.289 2.454-.336 3.49-.667 5.981-.028.164-.1.216-.181.214s-.291-.08-.312-.254a15.581 15.581 0 0 1 .021-3.572c.268-4.535.484-7.216.989-11.2a7.63 7.63 0 0 1 .42-1.806.556.556 0 0 1 .524-.352.412.412 0 0 1 .434.3c.061.362-.272 2.306-.4 3.478m4.443-5.077c-.261.477-.869.2-1.416.326a20.159 20.159 0 0 1-4.135.045c-1.148 0-2.022-.132-3.252-.193a3.318 3.318 0 0 1-2-.5 2.135 2.135 0 0 1 .189-1.368 6.245 6.245 0 0 1 2.7-.23 45.844 45.844 0 0 1 8 1.024c.42.256.061.644-.077.9m3.173 26.583-.279-.7H49.56l-.263.7h-.942l1.5-3.586h.845l1.489 3.586zm.027-24.719a1.53 1.53 0 0 0-.2.026.14.14 0 0 0-.136.1c0 .012-.162.657-.3 1.324a28.306 28.306 0 0 0-.425 2.818c-.376 3.511-.387 3.443-.437 4.518-.089 1.9-.028 1.294-.11 2.682 0 .157-.04.362-.268.387-.108.012-.47-.016-.521-.251a7.135 7.135 0 0 1-.363-2.817c-.009-.522.045-1.224.054-1.747a57.122 57.122 0 0 1 1.341-9.065 44.647 44.647 0 0 1 1.24-4.347c.023-.059.094-.258.209-.28.319-.056.834.465.81.66-.07.632-.625 3.074-.824 3.981 0 .019-.028.108-.045.181a.131.131 0 0 0 .136.162l.1-.009a11.482 11.482 0 0 1 2.426-.089h.059a.137.137 0 0 0 .129-.092c0-.012.042-.124.1-.324.115-.4.2-.716.4-1.522.566-2.031.921-2.975 1.6-5.333a.469.469 0 0 1 .237-.31c.221-.1.89.362.89.564 0 .385-.528 1.775-.82 3.027-.726 3.163-.838 3.969-1.336 7.106a30.469 30.469 0 0 0-.355 6c.016.171-.467.479-.669.383-.129-.061-.174-.207-.341-.822a21.743 21.743 0 0 1-.186-4.108c.042-1.007.106-1.646.162-2.522.014-.113.026-.211.026-.263a.134.134 0 0 0-.134-.136c-.038 0-.12.021-.35.047-1.09.1-1.987.061-2.1.071m4.268 24.812a1.89 1.89 0 1 1 1.357-3.25l-.587.587a.894.894 0 0 0-.726-.329 1.033 1.033 0 0 0-1.033 1.1 1.013 1.013 0 0 0 1.019 1.1.911.911 0 0 0 .759-.366l.6.568a1.785 1.785 0 0 1-1.393.592m6.261-.1h-.867v-1.5h-1.4v1.5h-.867v-3.584h.867v1.357h1.4v-1.357h.867zm4.607 0h-2.5v-3.584h2.412v.735H64.73v.677h1.489v.693H64.73v.747h1.67zm1.148-19.327c-.1.853-.782 3.4-2.87 4.112a7.012 7.012 0 0 1-2.247.47 6.593 6.593 0 0 1-2.64-.451A5.568 5.568 0 0 1 58.166 5.4a4.375 4.375 0 0 1-1.047-2.362A5.741 5.741 0 0 1 57.171.67a5.336 5.336 0 0 1 1.86-2.935A5.176 5.176 0 0 1 61.344-3.3a6.507 6.507 0 0 1 .921-.087 4.959 4.959 0 0 1 2.153.444A7.59 7.59 0 0 1 66.334-1.5 4.927 4.927 0 0 1 67.485.987a3.987 3.987 0 0 1 .054 1.658M71.6 21.974h-.982l-1.447-2.344h-.014l.021 2.344h-.841v-3.586h.986l1.44 2.341h.014l-.021-2.341h.844zm1.558-26.405c-.115 1.48-.068 2.393-.341 4.124-.183 1.158-.148 1.879-.665 4.467-.449 2.243-.308 2.005-.862 4.467a.471.471 0 0 1-.653.326c-.446-.2-.216-.716-.2-.829.15-1.054.193-1.717.369-3.224 0 0 .427-3.114.6-5.087s.176-4.624.176-4.624c.115-.674.39-.951.843-.951s.8.352.728 1.331M75.9 21.974l-1.332-1.651h-.012v1.651h-.85v-3.586h.85v1.461h.016l1.28-1.461h1.085l-1.545 1.653 1.637 1.933zm3.647 0h-.871v-3.586h.871zm4.025 0-.772-1.423h-.3v1.423h-.852v-3.586h1.367c.69 0 1.374.266 1.374 1.085a.977.977 0 0 1-.744.967l.937 1.534zm.845-14.743a7.115 7.115 0 0 1-1.47-.2 4.051 4.051 0 0 1-2.729-2.01l-.5.237c-1.132.618-1.728.9-2.637 1.4a16.339 16.339 0 0 1-1.818.845c-.557.251-.679.293-1.268.526-.209-.082.045-.742.279-1.019 1.357-.817.413-.275 1.63-.965 1.076-.613 3.353-1.81 4.018-2.149a7.426 7.426 0 0 1 .707-4.363 5.553 5.553 0 0 1 3.616-2.9 2.421 2.421 0 0 1 1.745.181 1.6 1.6 0 0 1 .831 1.047A4.1 4.1 0 0 1 86.4.4a6.559 6.559 0 0 1-3.06 2.872c-.369.209-.8.416-1.458.777a2.232 2.232 0 0 0 1.468 1.705 4.507 4.507 0 0 0 3.222.122 10.521 10.521 0 0 0 2.466-.813.192.192 0 0 1 .258.11.238.238 0 0 1-.12.254 17.368 17.368 0 0 1-1.752.958A6.26 6.26 0 0 1 85.842 7a5.81 5.81 0 0 1-1.425.232m3.724 14.838a1.89 1.89 0 1 1 1.359-3.25l-.587.587a.894.894 0 0 0-.726-.329 1.033 1.033 0 0 0-1.033 1.1 1.013 1.013 0 0 0 1.019 1.1.911.911 0 0 0 .759-.366l.6.568a1.785 1.785 0 0 1-1.393.592m6.261-.1h-.867v-1.5h-1.4v1.5h-.867v-3.584h.867v1.357h1.4v-1.357h.867zm3.7-16.465a32.111 32.111 0 0 1-1.463 1.942c-.69.871-1.691 2.151-2.461 2.99-.834.909-1.893 1.515-2.872 1.05-1.533-.733-1.564-2-1.489-3.539a12.393 12.393 0 0 1 .188-1.4 103.9 103.9 0 0 1 3.168-10.711 61.447 61.447 0 0 1 2.769-7.433 1.06 1.06 0 0 1 1.125-.206c.287.08.777.333.768.5a2.929 2.929 0 0 1-.174.627c-.122.366-2.926 7.008-3.032 7.285-1.346 3.555-2.79 7.634-3.06 8.588a26.493 26.493 0 0 0-.7 3.175 2.159 2.159 0 0 0 .686 1.956 1.031 1.031 0 0 0 .636.223c.888.007 1.984-1.024 2.649-1.754.432-.477 2.891-3.553 3.051-3.764s.3.247.211.474" transform="translate(55 91.867)" style="fill:#4e3a31"/>
            </g>
        </g>
    </g>
</svg>
