<svg xmlns="http://www.w3.org/2000/svg" width="210" height="210" viewBox="0 0 210 210">
    <defs>
        <filter id="ygkhndxtaa" x="0" y="0" width="210" height="210" filterUnits="userSpaceOnUse">
            <feOffset dy="10"/>
            <feGaussianBlur stdDeviation="15" result="blur"/>
            <feFlood flood-opacity=".302"/>
            <feComposite operator="in" in2="blur"/>
            <feComposite in="SourceGraphic"/>
        </filter>
    </defs>
    <g data-name="App Icon-Light">
        <g style="filter:url(#ygkhndxtaa)">
            <path data-name="Path 15409" d="M24 0h72a24 24 0 0 1 24 24v72a24 24 0 0 1-24 24H24A24 24 0 0 1 0 96V24A24 24 0 0 1 24 0z" transform="translate(45 35)" style="fill:#292929"/>
        </g>
        <g data-name="Group 5277">
            <g data-name="Group 5173">
                <path data-name="Path 15702" d="M3.861 0h.562c.008.17.025.329.025.491q0 25.412-.005 50.822a2.043 2.043 0 0 1-.17.562c-.19-.089-.44-.129-.554-.276-.681-.871-1.336-1.767-1.989-2.66q-1.04-1.418-2.063-2.85c-.43-.595-.853-1.195-1.283-1.792-.076-.109-.167-.208-.306-.382v7.917c-.367.1-.6.116-.6-.347.01-2.8.005-5.608.008-8.415a1.673 1.673 0 0 1 .028-.223c.42-.137.635 0 .863.372.4.666.909 1.27 1.367 1.9Q.886 46.7 2.026 48.3c.466.645.924 1.3 1.392 1.939.121.165.271.309.445.5V0z" transform="translate(87.093 69.001)" style="fill:#fff"/>
            </g>
            <g data-name="Group 5174">
                <path data-name="Path 15703" d="M1.878 12.726C.909 13.513-.058 14.3-1.1 15.151V-8.313h.559v22.191c.947-.767 1.8-1.46 2.678-2.174a10.524 10.524 0 0 1 .652 1.196.915.915 0 0 1-.078.645c-.4.858-.825 1.7-1.25 2.546-.473.954-.977 1.893-1.425 2.86A5.14 5.14 0 0 0-.642 21.2c.042 7.045.022 14.091.022 21.135v.635h4.295c.1.407.051.607-.413.6a112.346 112.346 0 0 0-4.022 0c-.377.005-.468-.129-.468-.481.01-7.6 0-15.2.023-22.8a2.521 2.521 0 0 1 .352-1.017C-.4 18.342.1 17.431.552 16.5q.763-1.553 1.483-3.126a1.87 1.87 0 0 0 .061-.59c-.073-.018-.147-.04-.22-.058z" transform="translate(111.132 77.336)" style="fill:#fff"/>
            </g>
            <g data-name="Group 5175">
                <path data-name="Path 15704" d="M3.788.023h.58c.008.147.025.268.025.385 0 1.865.023 3.731-.013 5.593a3.088 3.088 0 0 1-.974 2.308 3.613 3.613 0 0 1-3.151.825 2.922 2.922 0 0 1-2.566-2.493c-.051-.623-.144-1.245-.152-1.87-.023-1.448-.005-2.9-.01-4.346 0-.263.028-.445.362-.44s.372.18.372.445c0 1.959.013 3.913.018 5.872A2.317 2.317 0 0 0 .336 8.537a2.809 2.809 0 0 0 2.792-.853 1.946 1.946 0 0 0 .428-.777 8.072 8.072 0 0 0 .223-1.63c.028-1.572.008-3.143.008-4.715V.02z" transform="translate(125.167 111.804)" style="fill:#fff"/>
            </g>
            <g data-name="Group 5176">
                <path data-name="Path 15705" d="M4.444 5.462c-.453.149-.625.061-.749-.339a25.9 25.9 0 0 0-.911-2.478.669.669 0 0 0-.509-.294 50.229 50.229 0 0 0-2.956 0 .7.7 0 0 0-.524.337 23.67 23.67 0 0 0-.868 2.382c-.139.463-.362.552-.83.39.324-.83.653-1.648.964-2.473.321-.863.615-1.736.936-2.6C-.6-.7-.177-1.781.238-2.864a1.962 1.962 0 0 0 .124-.392C.4-3.5.539-3.57.774-3.568a.413.413 0 0 1 .473.3c.6 1.625 1.238 3.237 1.84 4.859.359.964.676 1.941 1.015 2.908.109.311.218.623.339.964zM.8-2.677C.271-1.219-.261.228-.807 1.719h3.219C1.863.213 1.331-1.234.8-2.677" transform="translate(71.96 115.359)" style="fill:#fff"/>
            </g>
            <g data-name="Group 5177">
                <path data-name="Path 15706" d="M0 4.992c.268-.521.466-.443.845-.185a2.889 2.889 0 0 0 3.047.377 1.676 1.676 0 0 0 .248-2.749 24.755 24.755 0 0 0-2.194-1.151C1.141.874.367.439.21-.576A2.275 2.275 0 0 1 2.042-3.15a3.479 3.479 0 0 1 2.981.534c.21.165.2.223.053.415s-.23.281-.43.111a2.753 2.753 0 0 0-2.252-.516A1.746 1.746 0 0 0 .85-.748 1.561 1.561 0 0 0 1.726.446c.582.314 1.2.559 1.794.848a3.414 3.414 0 0 1 1.6 1.268 2.274 2.274 0 0 1-.979 3.189 3.614 3.614 0 0 1-3.804-.519C.213 5.144.089 5.053 0 4.989z" transform="translate(56 114.931)" style="fill:#fff"/>
            </g>
            <g data-name="Group 5178">
                <path data-name="Path 15707" d="M1.712.075a2.694 2.694 0 0 1 2 .59c.106.089.063.357.089.542-.149 0-.349.061-.44-.015A2.639 2.639 0 0 0 1.246.685 1.711 1.711 0 0 0-.348 2.753a1.473 1.473 0 0 0 .85.995c.731.382 1.478.726 2.222 1.081a2.343 2.343 0 0 1 .45 4.1A3.207 3.207 0 0 1 .3 9.191 5.054 5.054 0 0 1-.978 8.46a.461.461 0 0 1-.122-.428c.121-.18.311-.233.542-.048a3.19 3.19 0 0 0 2.493.742 1.7 1.7 0 0 0 1.544-1.3 1.742 1.742 0 0 0-.995-1.996C1.732 5.056.976 4.694.219 4.327A2.309 2.309 0 0 1-1.09 2.406 2.339 2.339 0 0 1 .14.429c.5-.2 1.028-.321 1.541-.478l.03.127z" transform="translate(149.351 111.634)" style="fill:#fff"/>
            </g>
            <g data-name="Group 5179">
                <path data-name="Path 15708" d="M.317 5.49h-.524v-9.048c.159-.01.321-.018.524-.028z" transform="translate(139.012 115.38)" style="fill:#fff"/>
            </g>
        </g>
    </g>
</svg>
