<svg xmlns="http://www.w3.org/2000/svg" xmlns:xlink="http://www.w3.org/1999/xlink" width="210" height="210" viewBox="0 0 210 210">
  <defs>
    <filter id="Path_15409" x="0" y="0" width="210" height="210" filterUnits="userSpaceOnUse">
      <feOffset dy="10" input="SourceAlpha"/>
      <feGaussianBlur stdDeviation="15" result="blur"/>
      <feFlood flood-opacity="0.302"/>
      <feComposite operator="in" in2="blur"/>
      <feComposite in="SourceGraphic"/>
    </filter>
    <clipPath id="clip-path">
      <path id="Path_15816" data-name="Path 15816" d="M0,24.094H100.231V-15H0Z" transform="translate(0 14.998)" fill="none"/>
    </clipPath>
  </defs>
  <g id="Group_5626" data-name="Group 5626" transform="translate(-167 16)">
    <g transform="matrix(1, 0, 0, 1, 167, -16)" filter="url(#Path_15409)">
      <path id="Path_15409-2" data-name="Path 15409" d="M24,0H96a24,24,0,0,1,24,24V96a24,24,0,0,1-24,24H24A24,24,0,0,1,0,96V24A24,24,0,0,1,24,0Z" transform="translate(45 35)" fill="#123648"/>
    </g>
    <g id="Group_5292" data-name="Group 5292" transform="translate(221.885 59.454)" clip-path="url(#clip-path)">
      <g id="Group_5291" data-name="Group 5291" transform="translate(0.001 -0.001)">
        <path id="Path_15815" data-name="Path 15815" d="M60.79,11.609c-2.223,1.353-1.647-1.788-1.368-3.016.545-2.549,2.114-5.3-1.024-4.973a7.969,7.969,0,0,0-1.509.31c.016-.172-.109-.341-.467-.341h-7.71s.047-1.431.047-2.533C48.681.292,47.158-2.4,46.645-2.4c-.31,0-.592,2.487-.67,5.984,0,0-1.71.031-2.083.063-.154.013-.467.044-.467.357a2.725,2.725,0,0,0,1.259,2.44,3.3,3.3,0,0,0,1.23.031,44.835,44.835,0,0,0,.7,5.408c.156.764.263,1.913,1.415,1.913.839,0,.792-1.121.7-1.944a55.493,55.493,0,0,1-.109-5.625L53.763,5.5a9.494,9.494,0,0,0-2.221,2.4c-2.612,3.993,1.243,7.911,5,4.725,0,0,.279-.25.5-.467a4.5,4.5,0,0,0,.388-.435s.5,2.067,1.942,2.067a3.055,3.055,0,0,0,2.69-1.632c.56-.761.545-1.71-1.275-.545M58.3,6.558a7.712,7.712,0,0,1-2.487,3.993c-1.6,1.384-2.737.42-2.239-1.553a5.805,5.805,0,0,1,2.627-3.172c2.377-1.491,2.208-.029,2.1.732M42.634-.67c.25-1.183-.123-2.255-.839-2.4S40.3-2.38,40.053-1.214c-.248,1.181.125,2.255.839,2.393.717.156,1.493-.683,1.741-1.848M39.183,3.837c-.792,4.447-2.687,8.114-4.04,8.1-.871-.016-.5-2.361-.281-3.326.545-2.549,2.114-5.3-1.024-4.973a9.61,9.61,0,0,0-6.824,4.29C24.4,11.919,28.256,15.837,32,12.652c0,0,.279-.25.5-.467a4.5,4.5,0,0,0,.388-.435s.5,2.067,1.942,2.067c1.913,0,3.855-3.156,3.855-3.156s.871,3.156,2.674,3.156c2.333,0,3.341-3.172,3.341-4.09.016-.589-.792-.683-1.243-.031-.123.125-.808,1.835-1.6,1.666-.576-.125-.73-.98-.824-1.306-.5-1.819.871-6.047.7-6.266-.06-.109-2.487-.31-2.549.047m-5.44,2.721a7.712,7.712,0,0,1-2.487,3.993c-1.6,1.384-2.737.42-2.239-1.553a5.871,5.871,0,0,1,2.627-3.172c2.393-1.491,2.208-.029,2.1.732M25.363,9.5c2.612-4-1.243-7.913-5-4.725,0,0-.279.248-.5.467a4.14,4.14,0,0,0-.388.435s-.341.388-.73.917a74.344,74.344,0,0,1,1.632-9.328,2.126,2.126,0,0,0,.031-1.009c-.248-.9-1.538-4.6-2.083-3.141,0,0-3.686,14.8-1.647,19.788a1.746,1.746,0,0,0,1.879.886A9.615,9.615,0,0,0,25.363,9.5M23.375,8.422a5.8,5.8,0,0,1-2.705,3.172c-2.424,1.493-2.236.016-2.1-.73a7.734,7.734,0,0,1,2.58-4c1.587-1.384,2.705-.42,2.223,1.553M16.66,18.931h-.639v5.145h.513V19.707l1.8,3.016h.078l1.8-3.016v4.368h.513V18.931H20.1l-1.71,2.859Zm-1.368-6.745c.513-.792.5-2.023-1.306-.855-1.851,1.2-1.632-1.509-1.368-2.721.545-2.549,2.114-5.3-1.024-4.973a9.176,9.176,0,0,0-6.407,4.29c-.107.169-.2.326-.295.5.031-1.911.792-4.428.67-4.616-.078-.109-2.52-.31-2.58.031C2.265,7.817.928,10.629-.563,11.609-2.786,12.962-2.21,9.821-1.931,8.594c.545-2.549,2.114-5.3-1.027-4.973a9.61,9.61,0,0,0-6.824,4.29,4.523,4.523,0,0,0-.808,3.154,3.271,3.271,0,0,1-1.679.886c-.467.016-.636-.357-.761-1.087a12.57,12.57,0,0,1,.589-4.321c.328-1.136,1.074-2.317.375-2.984-.623-.576-3.98,1.071-3.98,1.071a1.167,1.167,0,0,0-1.121-1.071c-1.009,0-1.973,2.114-2.205,3.016a1.491,1.491,0,0,0,.636,1.491l-3.714,9.016s.263-8.192,1.134-10.6a10.876,10.876,0,0,0,.576-1.306c.326-1.165-1.462-2.317-3.078,0A17.148,17.148,0,0,1-27.9,9.37s-2.987,2.442-5.3,1.089c-2.8-1.913-.9-5.721,2.6-8.411C-24.5-2.567-20.166-.391-19.434-.266c.667.107.871-.3.295-.748-2.239-1.632-5.208-1.632-8.6-.6a15.709,15.709,0,0,0-7.228,4.507c-2.1,2.255-3.125,4.647-2.828,7.306.326,2.643,2.361,4.027,4.973,4.027,3.031,0,6.172-2.815,7.866-4.632.047,2.236.169,8.176.091,10.522-.107,2.906-.9,8.706-1.009,10.431-.094,1.321,1.368,1.337,2.223,1.321.511-.047.6-.964.6-.964s1.212-9.592,2.471-13.431c1.259-3.824,3.764-9.573,3.764-9.573a1.562,1.562,0,0,1,.62-.7c.357-.154,1.353-.326,1.447,1.121.125,1.911-.219,5.533,2.161,5.549a6.423,6.423,0,0,0,2.734-1.058c1.074,1.228,3.078,1.525,5.038-.154,0,0,.279-.25.5-.467a4.5,4.5,0,0,0,.388-.435s.5,2.067,1.942,2.067a3.8,3.8,0,0,0,.435-.031H-1.5c.031,0,.063-.016.109-.016C.79,13.4,2.1,11,2.1,11s.123,2.815,1.585,2.815c1.011,0,.482-.777,2.036-3.467A15.679,15.679,0,0,1,8.794,6.574c1.569-1.243,2.114.123,1.788,1.134-1.089,3.745.279,6.094,2.02,6.11a3.015,3.015,0,0,0,2.69-1.632M-3.065,6.558a7.7,7.7,0,0,1-2.489,3.993c-1.6,1.384-2.734.42-2.236-1.553A5.805,5.805,0,0,1-5.163,5.826c2.377-1.46,2.205-.029,2.1.732M-5.833,18.931H-7.822v5.145h1.989a2.45,2.45,0,0,0,2.424-2.565,2.445,2.445,0,0,0-2.424-2.58m-1.46.482h1.46A1.958,1.958,0,0,1-3.9,21.5a1.958,1.958,0,0,1-1.929,2.083h-1.46ZM-1.947,21.5A2.646,2.646,0,0,0,.711,24.154a2.659,2.659,0,0,0,0-5.317A2.637,2.637,0,0,0-1.947,21.5m.529,0A2.134,2.134,0,0,1,.727,19.335a2.161,2.161,0,0,1,0,4.321A2.124,2.124,0,0,1-1.418,21.5m7.071-2.565H5.142v5.145H8v-.482H5.653ZM8.95,21.5a2.657,2.657,0,1,0,2.659-2.659A2.646,2.646,0,0,0,8.95,21.5m.511,0a2.146,2.146,0,1,1,2.148,2.161A2.134,2.134,0,0,1,9.461,21.5m13.819-2.565h-.513v5.145h.513Zm5.286,0H24.9v.482h1.585V24.06H27V19.413h1.585v-.482Zm4.585,0H30.183v5.145H33.2v-.482H30.7V21.727h2.27v-.48H30.7V19.429h2.455Zm1.929,3.714-.435.266a1.893,1.893,0,0,0,1.911,1.259c1.027,0,1.725-.56,1.725-1.447,0-.949-.839-1.212-1.77-1.522-.7-.235-1.136-.4-1.136-.964s.451-.886,1.058-.886a1.3,1.3,0,0,1,1.259.855l.435-.248a1.809,1.809,0,0,0-1.694-1.105,1.446,1.446,0,0,0-1.587,1.415c0,.949.811,1.165,1.65,1.444.761.25,1.259.435,1.259,1.043,0,.545-.435.917-1.215.917a1.426,1.426,0,0,1-1.46-1.027" transform="translate(37.841 7.227)" fill="#fff"/>
      </g>
    </g>
  </g>
</svg>
